<svg width="468" height="424" viewBox="0 0 468 424" fill="none" xmlns="http://www.w3.org/2000/svg">
<path d="M380.08 90.188C377.408 83.8019 374.404 77.5601 371.08 71.488C332.62 2.34799 222.45 -32.812 163.57 41.378C149.57 59.058 143.95 80.118 134.12 100.218C111.76 145.908 72.68 173.998 47.01 216.478C27.11 249.408 27.6099 290.908 36.2199 325.658C45.5799 363.438 63.9399 389.488 94.3599 408.838C128.47 430.538 166.36 423.198 204.75 414.258C222.01 410.258 239.75 406.128 257.22 406.998C279.02 408.088 300.3 414.318 321.86 416.998C344.27 419.828 367.66 419.998 389.77 411.868C460.55 385.868 482.34 272.498 456.72 208.618C447.66 186.048 431.29 168.908 416.18 151.388C399.87 132.528 390.19 113.908 380.08 90.188Z" fill="#2671FF"/>
<path opacity="0.8" d="M380.08 90.188C377.408 83.8019 374.404 77.5601 371.08 71.488C332.62 2.34799 222.45 -32.812 163.57 41.378C149.57 59.058 143.95 80.118 134.12 100.218C111.76 145.908 72.68 173.998 47.01 216.478C27.11 249.408 27.6099 290.908 36.2199 325.658C45.5799 363.438 63.9399 389.488 94.3599 408.838C128.47 430.538 166.36 423.198 204.75 414.258C222.01 410.258 239.75 406.128 257.22 406.998C279.02 408.088 300.3 414.318 321.86 416.998C344.27 419.828 367.66 419.998 389.77 411.868C460.55 385.868 482.34 272.498 456.72 208.618C447.66 186.048 431.29 168.908 416.18 151.388C399.87 132.528 390.19 113.908 380.08 90.188Z" fill="#2671FF"/>
<path d="M309.61 30.5081C309.61 30.5081 306.22 12.9881 290.96 6.76808C275.7 0.548078 266.09 8.46808 263.83 14.1181C261.57 19.7681 261 29.3781 252.52 25.4181C244.04 21.4581 240.65 16.9381 229.91 21.4181C219.17 25.8981 222.56 35.5481 214.65 37.2381C206.74 38.9281 209.56 34.4181 201.08 35.5481C192.6 36.6781 193.16 41.7681 190.9 44.5481C188.64 47.3281 188.64 45.1181 180.73 46.2481C175.879 46.9958 171.356 49.1596 167.73 52.4681H342.4C342.4 52.4681 346.92 43.4181 335.05 36.6381C323.18 29.8581 313.01 37.2881 309.61 30.5081Z" fill="white" stroke="#ADADAD" stroke-linecap="round" stroke-linejoin="round"/>
<path d="M92.96 119.448C92.96 119.448 90.76 108.098 80.88 104.068C71 100.038 64.76 105.168 63.3 108.828C61.84 112.488 61.46 118.718 55.97 116.148C50.48 113.578 48.29 110.658 41.29 113.588C34.29 116.518 36.53 122.748 31.4 123.838C26.27 124.928 28.11 122.008 22.61 122.748C17.11 123.488 17.49 126.748 16.02 128.598C14.55 130.448 14.56 128.968 9.43 129.698C6.28956 130.179 3.35887 131.57 1 133.698H114.2C114.2 133.698 117.13 127.838 109.44 123.448C101.75 119.058 95.16 123.838 92.96 119.448Z" fill="white" stroke="#ADADAD" stroke-linecap="round" stroke-linejoin="round"/>
<path d="M231.61 265.188C231.61 265.188 229.41 253.838 219.53 249.808C209.65 245.778 203.41 250.908 201.95 254.568C200.49 258.228 200.11 264.458 194.62 261.898C189.13 259.338 186.93 256.398 179.97 259.328C173.01 262.258 175.21 268.488 170.08 269.588C164.95 270.688 166.79 267.758 161.29 268.488C155.79 269.218 156.17 272.488 154.7 274.348C153.23 276.208 153.24 274.718 148.11 275.448C144.968 275.925 142.036 277.316 139.68 279.448H252.85C252.85 279.448 255.78 273.588 248.09 269.188C240.4 264.788 233.81 269.588 231.61 265.188Z" fill="white" stroke="#ADADAD" stroke-linecap="round" stroke-linejoin="round"/>
<path d="M422.12 163.208C422.12 163.208 420.86 156.698 415.19 154.388C409.52 152.078 405.95 155.018 405.11 157.118C404.27 159.218 404.06 162.788 400.91 161.318C397.76 159.848 396.5 158.168 392.51 159.848C388.52 161.528 389.78 165.098 386.84 165.728C383.9 166.358 384.95 164.728 381.84 165.098C378.73 165.468 378.9 167.408 378.06 168.458C377.22 169.508 377.21 168.668 374.27 169.088C372.468 169.367 370.788 170.17 369.44 171.398H434.29C434.29 171.398 435.97 168.038 431.56 165.518C427.15 162.998 423.38 165.728 422.12 163.208Z" fill="white" stroke="#ADADAD" stroke-linecap="round" stroke-linejoin="round"/>
<path d="M451.86 321.558C451.86 321.558 445.41 331.878 408 328.658C370.59 325.438 345.34 312.038 315.73 309.378C286.12 306.718 260.33 312.538 234.53 309.958C208.73 307.378 202.29 304.148 183.53 304.148C164.77 304.148 131.3 315.758 131.3 315.758C131.3 315.758 168.06 320.268 160.96 320.918C153.86 321.568 126.78 321.558 99.7 322.208C72.62 322.858 62.94 320.918 50.7 322.848C38.46 324.778 13.29 331.908 13.29 331.908C13.29 331.908 17.81 344.168 44.29 343.518C70.77 342.868 72.66 339.008 84.92 335.778C97.18 332.548 114.42 333.078 114.42 333.078C114.42 333.078 77.82 353.838 59.12 354.478C40.42 355.118 37.2 355.768 37.2 355.768C37.2 355.768 36.55 367.378 50.74 372.538C64.93 377.698 78.47 388.658 103.62 384.788C128.77 380.918 151.98 388.018 166.82 388.658C181.66 389.298 188.1 389.948 197.13 387.368C206.16 384.788 208.73 387.368 188.13 389.948C167.53 392.528 161.53 397.948 148.79 394.468C136.05 390.988 124.93 390.598 115.26 392.528C105.59 394.458 91.4 399.628 91.4 399.628C91.4 399.628 99.78 408.008 131.4 411.228C163.02 414.448 164.29 420.228 190.73 410.588C217.17 400.948 210.07 397.688 242.96 400.268C275.85 402.848 316.48 417.038 344.86 417.678C373.24 418.318 392.58 403.488 392.58 403.488C392.58 403.488 371.29 407.978 330.62 400.908L289.99 393.808C289.99 393.808 331.91 384.808 347.99 384.138C364.07 383.468 392.49 381.558 402.81 378.328C413.13 375.098 425.38 362.858 425.38 362.858C425.38 362.858 409.25 366.078 393.78 362.858C378.31 359.638 358.31 354.468 358.31 354.468C358.31 354.468 389.26 349.308 403.45 348.018C417.64 346.728 460.29 351.228 451.86 321.558Z" fill="#2D83FF"/>
<path d="M172.97 334.358C172.97 334.358 133.21 324.248 109.62 329.638C86.0301 335.028 78.6201 343.118 59.7601 344.468C40.9001 345.818 26.0701 342.468 20.6801 343.118" stroke="#2D83FF" stroke-linecap="round" stroke-linejoin="round"/>
<path d="M451.29 315.488C451.29 315.488 422.69 323.958 379.86 316.838C337.03 309.718 310.46 303.358 284.86 305.378C259.26 307.398 236.79 311.258 217.36 307.648C197.93 304.038 176.36 297.298 153.46 304.038C130.56 310.778 132.57 312.118 97.5301 314.818C62.4901 317.518 57.0901 312.118 38.2301 315.488C19.3701 318.858 13.9401 322.908 13.9401 322.908" stroke="#2D83FF" stroke-linecap="round" stroke-linejoin="round"/>
<path d="M335.37 392.308C335.37 392.308 354.17 389.838 358.25 388.718C362.33 387.598 382.54 384.898 391.97 386.248C401.4 387.598 424.97 388.248 433.08 386.248" stroke="#2D83FF" stroke-linecap="round" stroke-linejoin="round"/>
<path d="M315.15 383.548C315.15 383.548 295.61 387.598 268.66 384.228C241.71 380.858 227.55 381.528 214.07 387.598C200.59 393.668 198.57 395.008 176.34 393.658C154.11 392.308 152.75 386.248 138.6 391.658" stroke="#2D83FF" stroke-linecap="round" stroke-linejoin="round"/>
<path d="M448.58 347.158C448.58 347.158 428.36 345.158 413.58 350.528C398.8 355.898 379.58 351.938 379.58 351.938" stroke="#2D83FF" stroke-linecap="round" stroke-linejoin="round"/>
<path d="M93.2399 73.0882C112.194 73.0882 127.56 57.7227 127.56 38.7682C127.56 19.8138 112.194 4.44824 93.2399 4.44824C74.2855 4.44824 58.9199 19.8138 58.9199 38.7682C58.9199 57.7227 74.2855 73.0882 93.2399 73.0882Z" fill="white"/>
<path d="M288.79 49.1579L288.04 331.508C288.04 331.508 288.79 333.378 294.12 332.308L296.79 49.1579C296.79 49.1579 291.99 46.4879 288.79 49.1579Z" fill="#C2C2C2" stroke="#263238" stroke-linecap="round" stroke-linejoin="round"/>
<path d="M382.35 48.2376L204.14 71.5876C204.14 71.5876 202.08 72.4576 202.65 75.9076L203.99 78.3776L382.92 55.7576C382.92 55.7576 386.28 56.1076 386.39 51.7576C386.5 47.4076 382.35 48.2376 382.35 48.2376Z" fill="#C2C2C2" stroke="#263238" stroke-linecap="round" stroke-linejoin="round"/>
<path d="M219.89 68.8477C219.89 68.8477 214.97 68.0577 213.89 68.8477C212.81 69.6377 212.02 72.8477 211.76 75.4977C211.5 78.1477 212.69 78.9477 213.76 79.0877C214.83 79.2277 215.62 76.4277 217.88 73.8977C220.14 71.3677 222.29 69.5177 219.89 68.8477Z" fill="white" stroke="#263238" stroke-linecap="round" stroke-linejoin="round"/>
<path d="M218.79 69.5879C218.79 69.5879 216.85 70.8779 212.65 78.9479C208.45 87.0179 200.06 91.5479 185.85 126.098C171.64 160.648 171 199.098 178.1 225.228C185.2 251.358 224.28 280.128 239.1 290.458C253.92 300.788 286.31 313.698 290.64 312.408C294.97 311.118 294.32 312.098 295.64 308.868C296.96 305.638 331.81 231.048 337.64 206.178C343.47 181.308 343.77 126.748 352.17 94.4479C360.57 62.1479 371.87 49.5679 371.87 49.5679C371.87 49.5679 352.82 50.8579 347.97 52.1479C343.12 53.4379 332.47 64.1479 313.74 73.4579C295.01 82.7679 285.29 87.6679 265.29 80.2479C245.29 72.8279 232.67 67.9779 232.67 67.9779C232.67 67.9779 224.29 67.6479 218.79 69.5879Z" fill="white" stroke="#263238" stroke-linecap="round" stroke-linejoin="round"/>
<path d="M319.75 82.2376C325.15 76.0876 328.56 71.2376 329.22 70.5576" stroke="#263238" stroke-linecap="round" stroke-linejoin="round"/>
<path d="M237.84 73.7881C237.84 73.7881 253.02 80.5681 261.09 92.5181C269.16 104.468 283.37 112.208 299.84 100.588C306.099 96.0629 311.876 90.9058 317.08 85.1981" stroke="#263238" stroke-linecap="round" stroke-linejoin="round"/>
<path d="M351.5 54.4077C351.5 54.4077 340.2 64.7477 329.87 75.4077" stroke="#263238" stroke-linecap="round" stroke-linejoin="round"/>
<path d="M223.95 69.2681C223.95 69.2681 233.95 75.3981 239.13 85.7381" stroke="#263238" stroke-linecap="round" stroke-linejoin="round"/>
<path d="M362.16 54.4077C362.16 54.4077 350.86 67.3277 347.63 83.7977" stroke="#263238" stroke-linecap="round" stroke-linejoin="round"/>
<path d="M347.31 88.3179L346.01 97.3579" stroke="#263238" stroke-linecap="round" stroke-linejoin="round"/>
<path d="M369.67 49.298C368.653 49.6393 367.771 50.293 367.147 51.1657C366.524 52.0384 366.193 53.0857 366.2 54.158C366.2 57.968 367.2 60.048 369.67 60.388C372.14 60.728 375.9 56.578 375.9 56.578L371.4 57.268C371.4 57.268 369.87 50.798 373.93 49.188C373.93 49.188 373.1 47.908 369.67 49.298Z" fill="white" stroke="#263238" stroke-linecap="round" stroke-linejoin="round"/>
<path d="M86.51 341.588C86.51 341.588 101.43 339.318 110.11 336.868C118.79 334.418 153.93 328.748 156.95 328.178C159.97 327.608 197.83 319.098 199.72 318.728C201.61 318.358 204.06 319.668 205.72 322.498C207.38 325.328 207.23 328.738 207.04 330.618C206.962 331.276 206.735 331.909 206.376 332.467C206.018 333.024 205.537 333.493 204.97 333.838C204.4 334.208 189.86 337.608 177.58 342.708C165.3 347.808 132.92 351.598 121.58 355.368C110.24 359.138 94.29 366.908 94.29 366.908L86.51 341.588Z" fill="#C2C2C2" stroke="#263238" stroke-linecap="round" stroke-linejoin="round"/>
<path d="M100.48 358.208C100.48 365.278 93.17 368.278 86.26 368.278C82.9005 368.236 79.6951 366.862 77.3476 364.458C75.0002 362.055 73.7027 358.817 73.74 355.458C73.74 348.388 79.59 341.588 86.51 341.588C93.43 341.588 100.48 351.128 100.48 358.208Z" fill="white" stroke="#263238" stroke-linecap="round" stroke-linejoin="round"/>
<path d="M85.3701 346.308C85.3701 346.308 79.9001 349.518 79.1401 353.668C78.3801 357.818 79.5201 360.848 82.3501 361.798C85.1801 362.748 91.2301 364.438 93.3501 360.098C95.4701 355.758 89.1501 344.988 85.3701 346.308Z" stroke="#263238" stroke-miterlimit="10"/>
<path d="M89.1101 353.908C89.1101 353.908 86.53 350.828 84.63 351.538C82.73 352.248 80.2001 355.208 81.8601 356.538C83.5201 357.868 86.1401 359.288 87.6801 358.188C89.2201 357.088 90.9601 355.308 89.1101 353.908Z" stroke="#263238" stroke-miterlimit="10"/>
<path d="M99.3501 352.158C99.3501 352.158 103.69 350.458 107.47 349.158C111.25 347.858 120.31 345.758 120.31 345.758L134.48 342.358" fill="white"/>
<path d="M99.3501 352.158C99.3501 352.158 103.69 350.458 107.47 349.158C111.25 347.858 120.31 345.758 120.31 345.758L134.48 342.358" stroke="#263238" stroke-linecap="round" stroke-linejoin="round"/>
<path d="M108.6 351.788L126.92 346.688" stroke="#263238" stroke-linecap="round" stroke-linejoin="round"/>
<path d="M202.55 328.738L190.09 332.888" stroke="#263238" stroke-linecap="round" stroke-linejoin="round"/>
<path d="M205.19 325.148L196.7 327.788" stroke="#263238" stroke-linecap="round" stroke-linejoin="round"/>
<path d="M95.76 343.848L101.8 342.148" stroke="#263238" stroke-linecap="round" stroke-linejoin="round"/>
<path d="M192.11 335.908C192.11 335.908 193.41 328.148 190.93 325.568C188.45 322.988 183.17 322.118 183.17 322.118C183.17 322.118 183.17 321.048 186.23 320.618C189.29 320.188 193.52 322.768 194.46 326.218C195.4 329.668 195.4 334.218 194.69 335.698C193.98 337.178 192.34 337.028 192.11 335.908Z" fill="#263238" stroke="#263238" stroke-linecap="round" stroke-linejoin="round"/>
<path d="M124.68 355.488C124.68 355.488 126.37 344.428 123.14 340.758C119.91 337.088 113.01 335.848 113.01 335.848C113.01 335.848 113.01 334.308 117.01 333.698C121.01 333.088 126.53 336.768 127.75 341.698C128.97 346.628 128.98 353.048 128.06 355.198C127.14 357.348 124.98 357.018 124.68 355.488Z" fill="#263238" stroke="#263238" stroke-linecap="round" stroke-linejoin="round"/>
<path d="M106.76 344.218C106.76 344.218 121.68 341.948 130.37 339.498C139.06 337.048 189.55 330.088 192.58 329.498C195.61 328.908 223.36 320.618 225.25 320.238C227.14 319.858 229.59 321.188 231.25 324.018C232.91 326.848 232.76 330.248 232.57 332.138C232.494 332.796 232.268 333.428 231.909 333.984C231.55 334.541 231.068 335.007 230.5 335.348C229.93 335.728 215.39 339.128 203.11 344.228C190.83 349.328 153.18 354.228 141.85 357.968C130.52 361.708 114.47 369.498 114.47 369.498L106.76 344.218Z" fill="#C2C2C2" stroke="#263238" stroke-linecap="round" stroke-linejoin="round"/>
<path d="M120.74 360.838C120.74 367.908 113.43 370.908 106.52 370.908C103.161 370.868 99.956 369.497 97.6083 367.095C95.2605 364.692 93.9627 361.456 94.0001 358.098C94.0001 351.018 99.8501 344.218 106.76 344.218C113.67 344.218 120.74 353.758 120.74 360.838Z" fill="white" stroke="#263238" stroke-linecap="round" stroke-linejoin="round"/>
<path d="M105.63 348.908C105.63 348.908 100.15 352.118 99.4 356.278C98.65 360.438 99.77 363.448 102.61 364.398C105.45 365.348 111.48 367.038 113.61 362.698C115.74 358.358 109.41 347.618 105.63 348.908Z" stroke="#263238" stroke-miterlimit="10"/>
<path d="M109.36 356.568C109.36 356.568 106.79 353.488 104.88 354.198C102.97 354.908 100.45 357.868 102.12 359.198C103.79 360.528 106.4 361.938 107.94 360.848C109.48 359.758 111.22 357.908 109.36 356.568Z" stroke="#263238" stroke-miterlimit="10"/>
<path d="M119.61 354.788C119.61 354.788 123.95 353.088 127.73 351.788C131.51 350.488 140.57 348.388 140.57 348.388L154.73 344.988" fill="white"/>
<path d="M119.61 354.788C119.61 354.788 123.95 353.088 127.73 351.788C131.51 350.488 140.57 348.388 140.57 348.388L154.73 344.988" stroke="#263238" stroke-linecap="round" stroke-linejoin="round"/>
<path d="M128.86 354.418L147.18 349.318" stroke="#263238" stroke-linecap="round" stroke-linejoin="round"/>
<path d="M228.08 330.278L215.62 334.438" stroke="#263238" stroke-linecap="round" stroke-linejoin="round"/>
<path d="M230.73 326.698L222.23 329.338" stroke="#263238" stroke-linecap="round" stroke-linejoin="round"/>
<path d="M116.02 346.478L122.06 344.778" stroke="#263238" stroke-linecap="round" stroke-linejoin="round"/>
<path d="M219.29 339.358C219.29 339.358 220.59 330.988 218.11 328.198C215.63 325.408 210.35 324.478 210.35 324.478C210.35 324.478 210.35 323.308 213.41 322.848C216.47 322.388 220.7 325.168 221.64 328.898C222.58 332.628 222.58 337.498 221.87 339.128C221.16 340.758 219.54 340.528 219.29 339.358Z" fill="#263238" stroke="#263238" stroke-linecap="round" stroke-linejoin="round"/>
<path d="M144.62 358.558C144.62 358.558 146.32 347.498 143.09 343.828C139.86 340.158 132.96 338.908 132.96 338.908C132.96 338.908 132.96 337.368 136.96 336.758C140.96 336.148 146.47 339.828 147.7 344.758C148.93 349.688 148.93 356.108 148.01 358.258C147.09 360.408 144.93 360.088 144.62 358.558Z" fill="#263238" stroke="#263238" stroke-linecap="round" stroke-linejoin="round"/>
<path d="M134.59 346.418C134.59 346.418 149.51 344.158 158.19 341.698C166.87 339.238 226.8 331.348 229.83 330.778C232.86 330.208 260.61 321.898 262.5 321.528C264.39 321.158 266.84 322.468 268.5 325.298C270.16 328.128 270.01 331.538 269.82 333.418C269.746 334.076 269.52 334.708 269.161 335.265C268.802 335.822 268.319 336.288 267.75 336.628C267.18 337.008 227.84 342.628 215.57 347.738C203.3 352.848 181 356.428 169.67 360.208C158.34 363.988 142.29 371.728 142.29 371.728L134.59 346.418Z" fill="#C2C2C2" stroke="#263238" stroke-linecap="round" stroke-linejoin="round"/>
<path d="M148.56 363.038C148.56 370.118 141.25 373.108 134.34 373.108C130.981 373.068 127.776 371.697 125.428 369.295C123.08 366.893 121.783 363.657 121.82 360.298C121.82 353.218 127.67 346.418 134.59 346.418C141.51 346.418 148.56 355.958 148.56 363.038Z" fill="white" stroke="#263238" stroke-linecap="round" stroke-linejoin="round"/>
<path d="M132.69 369.908C132.69 369.908 140.06 368.388 142.33 364.148C144.6 359.908 144.33 356.218 141.4 354.148C138.47 352.078 132.11 348.098 128.26 352.078C124.41 356.058 127.92 369.978 132.69 369.908Z" stroke="#263238" stroke-miterlimit="10"/>
<path d="M135.57 364.488C135.57 364.488 139.93 362.698 139.7 360.378C139.47 358.058 136.84 354.318 134.75 355.688C132.66 357.058 130.24 359.458 131.03 361.498C131.82 363.538 133.41 366.068 135.57 364.488Z" stroke="#263238" stroke-miterlimit="10"/>
<path d="M147.43 356.998C147.43 356.998 151.77 355.298 155.55 353.998C159.33 352.698 168.39 350.598 168.39 350.598L182.56 347.198" fill="white"/>
<path d="M147.43 356.998C147.43 356.998 151.77 355.298 155.55 353.998C159.33 352.698 168.39 350.598 168.39 350.598L182.56 347.198" stroke="#263238" stroke-linecap="round" stroke-linejoin="round"/>
<path d="M156.68 356.618L175 351.518" stroke="#263238" stroke-linecap="round" stroke-linejoin="round"/>
<path d="M265.33 331.538L252.87 335.688" stroke="#263238" stroke-linecap="round" stroke-linejoin="round"/>
<path d="M267.98 327.948L259.48 330.588" stroke="#263238" stroke-linecap="round" stroke-linejoin="round"/>
<path d="M143.84 348.688L149.88 346.988" stroke="#263238" stroke-linecap="round" stroke-linejoin="round"/>
<path d="M253.46 340.628C253.46 340.628 254.77 332.248 252.29 329.458C249.81 326.668 244.53 325.738 244.53 325.738C244.53 325.738 244.53 324.578 247.59 324.108C250.65 323.638 254.88 326.438 255.82 330.158C256.76 333.878 256.76 338.768 256.05 340.398C255.34 342.028 253.7 341.788 253.46 340.628Z" fill="#263238" stroke="#263238" stroke-linecap="round" stroke-linejoin="round"/>
<path d="M169.17 361.618C169.17 361.618 170.87 350.618 167.64 346.888C164.41 343.158 157.51 341.978 157.51 341.978C157.51 341.978 157.51 340.448 161.51 339.838C165.51 339.228 171.02 342.908 172.25 347.838C173.48 352.768 173.48 359.188 172.56 361.338C171.64 363.488 169.48 363.158 169.17 361.618Z" fill="#263238" stroke="#263238" stroke-linecap="round" stroke-linejoin="round"/>
<path d="M161.84 349.288C161.84 349.288 176.76 347.018 185.44 344.568C194.12 342.118 245.29 332.028 248.29 331.458C251.29 330.888 279.08 322.588 280.96 322.208C282.84 321.828 285.31 323.148 286.96 325.988C288.61 328.828 288.47 332.218 288.28 334.108C288.201 334.766 287.972 335.398 287.612 335.954C287.251 336.51 286.768 336.977 286.2 337.318C285.64 337.688 271.09 341.088 258.82 346.188C246.55 351.288 208.29 359.298 196.97 363.068C185.65 366.838 169.58 374.588 169.58 374.588L161.84 349.288Z" fill="#C2C2C2" stroke="#263238" stroke-linecap="round" stroke-linejoin="round"/>
<path d="M175.81 365.908C175.81 372.978 168.51 375.978 161.59 375.978C158.23 375.936 155.025 374.562 152.678 372.158C150.33 369.755 149.033 366.518 149.07 363.158C149.07 356.088 154.92 349.288 161.84 349.288C168.76 349.288 175.81 358.828 175.81 365.908Z" fill="white" stroke="#263238" stroke-linecap="round" stroke-linejoin="round"/>
<path d="M160.7 354.008C160.7 354.008 155.23 357.218 154.47 361.368C153.71 365.518 154.85 368.548 157.68 369.498C160.51 370.448 166.56 372.138 168.68 367.798C170.8 363.458 164.48 352.688 160.7 354.008Z" stroke="#263238" stroke-miterlimit="10"/>
<path d="M159.76 359.298C159.76 359.298 156.76 361.938 157.49 363.828C158.22 365.718 161.27 368.168 162.59 366.468C163.91 364.768 165.24 362.128 164.1 360.618C162.96 359.108 161.08 357.408 159.76 359.298Z" stroke="#263238" stroke-miterlimit="10"/>
<path d="M174.68 359.908C174.68 359.908 179.02 358.208 182.8 356.908C186.58 355.608 195.64 353.508 195.64 353.508L209.81 350.108" fill="white"/>
<path d="M174.68 359.908C174.68 359.908 179.02 358.208 182.8 356.908C186.58 355.608 195.64 353.508 195.64 353.508L209.81 350.108" stroke="#263238" stroke-linecap="round" stroke-linejoin="round"/>
<path d="M183.93 359.488L202.25 354.388" stroke="#263238" stroke-linecap="round" stroke-linejoin="round"/>
<path d="M283.79 332.218L271.32 336.368" stroke="#263238" stroke-linecap="round" stroke-linejoin="round"/>
<path d="M286.43 328.628L277.93 331.268" stroke="#263238" stroke-linecap="round" stroke-linejoin="round"/>
<path d="M171.09 351.548L177.13 349.848" stroke="#263238" stroke-linecap="round" stroke-linejoin="round"/>
<path d="M275.6 340.908C275.6 340.908 276.9 332.538 274.43 329.748C271.96 326.958 266.67 326.028 266.67 326.028C266.67 326.028 266.67 324.868 269.72 324.398C272.77 323.928 277.01 326.728 277.95 330.448C278.89 334.168 278.9 339.048 278.19 340.678C277.48 342.308 275.84 342.108 275.6 340.908Z" fill="#263238" stroke="#263238" stroke-linecap="round" stroke-linejoin="round"/>
<path d="M195.87 363.768C195.87 363.768 197.57 352.718 194.34 349.038C191.11 345.358 184.21 344.128 184.21 344.128C184.21 344.128 184.21 342.598 188.21 341.978C192.21 341.358 197.72 345.048 198.95 349.978C200.18 354.908 200.18 361.338 199.26 363.488C198.34 365.638 196.18 365.308 195.87 363.768Z" fill="#263238" stroke="#263238" stroke-linecap="round" stroke-linejoin="round"/>
<path d="M189.2 351.258C189.2 351.258 204.12 348.988 212.81 346.538C221.5 344.088 256.62 338.418 259.64 337.848C262.66 337.278 305.96 325.468 307.85 325.088C309.74 324.708 312.19 326.038 313.85 328.868C315.51 331.698 315.36 335.098 315.17 336.988C315.093 337.647 314.865 338.279 314.505 338.836C314.144 339.392 313.66 339.859 313.09 340.198C312.53 340.578 297.98 343.978 285.71 349.078C273.44 354.178 235.62 361.268 224.29 365.078C212.96 368.888 196.9 376.598 196.9 376.598L189.2 351.258Z" fill="#C2C2C2" stroke="#263238" stroke-linecap="round" stroke-linejoin="round"/>
<path d="M203.17 367.908C203.17 374.988 195.87 377.978 188.95 377.978C185.591 377.939 182.386 376.567 180.038 374.165C177.691 371.763 176.393 368.527 176.43 365.168C176.43 358.088 182.29 351.288 189.2 351.288C196.11 351.288 203.17 360.798 203.17 367.908Z" fill="white" stroke="#263238" stroke-linecap="round" stroke-linejoin="round"/>
<path d="M187.29 374.728C187.29 374.728 194.66 373.208 196.93 368.968C199.2 364.728 198.93 361.038 195.99 358.968C193.05 356.898 186.71 352.918 182.86 356.888C179.01 360.858 182.53 374.818 187.29 374.728Z" stroke="#263238" stroke-miterlimit="10"/>
<path d="M190.18 369.328C190.18 369.328 194.54 367.538 194.31 365.218C194.08 362.898 191.45 359.158 189.31 360.528C187.17 361.898 184.81 364.298 185.6 366.338C186.39 368.378 188.02 370.908 190.18 369.328Z" stroke="#263238" stroke-miterlimit="10"/>
<path d="M202.04 361.838C202.04 361.838 206.39 360.138 210.16 358.838C213.93 357.538 223.01 355.448 223.01 355.448L237.17 352.048" fill="white"/>
<path d="M202.04 361.838C202.04 361.838 206.39 360.138 210.16 358.838C213.93 357.538 223.01 355.448 223.01 355.448L237.17 352.048" stroke="#263238" stroke-linecap="round" stroke-linejoin="round"/>
<path d="M211.3 361.458L229.61 356.358" stroke="#263238" stroke-linecap="round" stroke-linejoin="round"/>
<path d="M310.68 335.098L298.21 339.258" stroke="#263238" stroke-linecap="round" stroke-linejoin="round"/>
<path d="M313.32 331.508L304.82 334.158" stroke="#263238" stroke-linecap="round" stroke-linejoin="round"/>
<path d="M198.45 353.528L204.5 351.828" stroke="#263238" stroke-linecap="round" stroke-linejoin="round"/>
<path d="M302.49 343.478C302.49 343.478 303.79 335.098 301.31 332.308C298.83 329.518 293.55 328.588 293.55 328.588C293.55 328.588 293.55 327.428 296.61 326.958C299.67 326.488 303.9 329.288 304.84 333.008C305.78 336.728 305.78 341.608 305.07 343.238C304.36 344.868 302.72 344.638 302.49 343.478Z" fill="#263238" stroke="#263238" stroke-linecap="round" stroke-linejoin="round"/>
<path d="M220.16 366.648C220.16 366.648 221.86 355.598 218.63 351.918C215.4 348.238 208.5 347.008 208.5 347.008C208.5 347.008 208.5 345.478 212.5 344.858C216.5 344.238 222.01 347.928 223.24 352.858C224.47 357.788 224.47 364.218 223.55 366.368C222.63 368.518 220.47 368.188 220.16 366.648Z" fill="#263238" stroke="#263238" stroke-linecap="round" stroke-linejoin="round"/>
<path d="M217.08 353.328C217.08 353.328 232 351.068 240.69 348.608C249.38 346.148 284.5 340.488 287.53 339.928C290.56 339.368 331.53 328.178 333.38 327.798C335.23 327.418 337.72 328.748 339.38 331.578C341.04 334.408 340.89 337.808 340.7 339.698C340.622 340.355 340.395 340.986 340.036 341.542C339.678 342.099 339.197 342.566 338.63 342.908C338.06 343.288 310.34 349.558 298.06 354.658C285.78 359.758 263.5 363.338 252.17 367.118C240.84 370.898 224.79 378.638 224.79 378.638L217.08 353.328Z" fill="#C2C2C2" stroke="#263238" stroke-linecap="round" stroke-linejoin="round"/>
<path d="M231.06 369.908C231.06 376.988 223.75 379.988 216.84 379.988C213.481 379.956 210.273 378.592 207.92 376.196C205.566 373.8 204.261 370.567 204.29 367.208C204.29 360.128 210.14 353.328 217.05 353.328C223.96 353.328 231.06 362.908 231.06 369.908Z" fill="white" stroke="#263238" stroke-linecap="round" stroke-linejoin="round"/>
<path d="M215.19 376.808C215.19 376.808 222.56 375.278 224.83 371.038C227.1 366.798 226.83 363.118 223.9 361.038C220.97 358.958 214.61 355.038 210.76 358.968C206.91 362.898 210.41 376.908 215.19 376.808Z" stroke="#263238" stroke-miterlimit="10"/>
<path d="M218.06 371.408C218.06 371.408 222.42 369.618 222.2 367.298C221.98 364.978 219.33 361.228 217.2 362.598C215.07 363.968 212.7 366.368 213.49 368.418C214.28 370.468 215.91 372.978 218.06 371.408Z" stroke="#263238" stroke-miterlimit="10"/>
<path d="M229.92 363.908C229.92 363.908 234.27 362.208 238.05 360.908C241.83 359.608 250.89 357.508 250.89 357.508L265.05 354.108" fill="white"/>
<path d="M229.92 363.908C229.92 363.908 234.27 362.208 238.05 360.908C241.83 359.608 250.89 357.508 250.89 357.508L265.05 354.108" stroke="#263238" stroke-linecap="round" stroke-linejoin="round"/>
<path d="M239.18 363.528L257.5 358.428" stroke="#263238" stroke-linecap="round" stroke-linejoin="round"/>
<path d="M336.21 337.808L323.75 341.968" stroke="#263238" stroke-linecap="round" stroke-linejoin="round"/>
<path d="M338.85 334.218L330.36 336.868" stroke="#263238" stroke-linecap="round" stroke-linejoin="round"/>
<path d="M226.34 355.598L232.38 353.898" stroke="#263238" stroke-linecap="round" stroke-linejoin="round"/>
<path d="M330 345.368C330 345.368 331.3 336.988 328.83 334.208C326.36 331.428 321.07 330.488 321.07 330.488C321.07 330.488 321.07 329.318 324.12 328.858C327.17 328.398 331.41 331.178 332.35 334.908C333.29 338.638 333.29 343.508 332.59 345.138C331.89 346.768 330.29 346.538 330 345.368Z" fill="#263238" stroke="#263238" stroke-linecap="round" stroke-linejoin="round"/>
<path d="M247.47 369.108C247.47 369.108 249.17 358.048 245.94 354.378C242.71 350.708 235.81 349.468 235.81 349.468C235.81 349.468 235.81 347.928 239.81 347.318C243.81 346.708 249.33 350.388 250.55 355.318C251.77 360.248 251.78 366.668 250.86 368.818C249.94 370.968 247.78 370.638 247.47 369.108Z" fill="#263238" stroke="#263238" stroke-linecap="round" stroke-linejoin="round"/>
<path d="M245.68 355.778C245.68 355.778 260.6 353.508 269.29 351.048C277.98 348.588 313.1 342.928 316.12 342.368C319.14 341.808 361.28 330.108 363.12 329.738C364.96 329.368 367.47 330.678 369.17 333.508C370.87 336.338 370.68 339.738 370.49 341.628C370.415 342.287 370.187 342.92 369.827 343.477C369.466 344.034 368.981 344.5 368.41 344.838C367.85 345.218 338.94 351.998 326.66 357.098C314.38 362.198 292.1 365.788 280.77 369.558C269.44 373.328 253.38 381.078 253.38 381.078L245.68 355.778Z" fill="#C2C2C2" stroke="#263238" stroke-linecap="round" stroke-linejoin="round"/>
<path d="M259.66 372.398C259.66 379.468 252.35 382.468 245.43 382.468C242.071 382.426 238.867 381.052 236.521 378.648C234.175 376.244 232.88 373.006 232.92 369.648C232.92 362.578 238.77 355.778 245.68 355.778C252.59 355.778 259.66 365.318 259.66 372.398Z" fill="white" stroke="#263238" stroke-linecap="round" stroke-linejoin="round"/>
<path d="M244.55 360.498C244.55 360.498 239.07 363.708 238.29 367.908C237.51 372.108 238.67 375.088 241.51 376.028C244.35 376.968 250.38 378.678 252.46 374.328C254.54 369.978 248.29 359.178 244.55 360.498Z" stroke="#263238" stroke-miterlimit="10"/>
<path d="M243.6 365.788C243.6 365.788 240.6 368.428 241.34 370.318C242.08 372.208 245.11 374.658 246.44 372.958C247.77 371.258 249.08 368.618 247.95 367.108C246.82 365.598 244.92 363.908 243.6 365.788Z" stroke="#263238" stroke-miterlimit="10"/>
<path d="M258.52 366.348C258.52 366.348 262.87 364.648 266.64 363.348C270.41 362.048 279.49 359.908 279.49 359.908L293.65 356.508" fill="white"/>
<path d="M258.52 366.348C258.52 366.348 262.87 364.648 266.64 363.348C270.41 362.048 279.49 359.908 279.49 359.908L293.65 356.508" stroke="#263238" stroke-linecap="round" stroke-linejoin="round"/>
<path d="M267.78 365.968L286.1 360.868" stroke="#263238" stroke-linecap="round" stroke-linejoin="round"/>
<path d="M366 339.738L353.53 343.898" stroke="#263238" stroke-linecap="round" stroke-linejoin="round"/>
<path d="M368.64 336.158L360.14 338.798" stroke="#263238" stroke-linecap="round" stroke-linejoin="round"/>
<path d="M254.93 358.038L260.98 356.338" stroke="#263238" stroke-linecap="round" stroke-linejoin="round"/>
<path d="M358.78 347.908C358.78 347.908 360.08 339.528 357.61 336.748C355.14 333.968 349.85 333.028 349.85 333.028C349.85 333.028 349.85 331.858 352.9 331.398C355.95 330.938 360.19 333.718 361.13 337.398C362.07 341.078 362.07 345.998 361.37 347.628C360.67 349.258 359.02 349.068 358.78 347.908Z" fill="#263238" stroke="#263238" stroke-linecap="round" stroke-linejoin="round"/>
<path d="M271.1 373.098C271.1 373.098 272.8 362.038 269.57 358.368C266.34 354.698 259.44 353.458 259.44 353.458C259.44 353.458 259.44 351.918 263.44 351.308C267.44 350.698 272.96 354.378 274.18 359.308C275.4 364.238 275.41 370.658 274.49 372.808C273.57 374.958 271.41 374.628 271.1 373.098Z" fill="#263238" stroke="#263238" stroke-linecap="round" stroke-linejoin="round"/>
<path d="M273.06 357.848C273.06 357.848 287.98 355.588 296.67 353.128C305.36 350.668 340.49 345.008 343.51 344.438C346.53 343.868 383.9 333.798 385.79 333.438C387.68 333.078 390.13 334.378 391.79 337.208C393.45 340.038 393.3 343.448 393.12 345.328C393.04 345.987 392.811 346.619 392.451 347.177C392.091 347.735 391.608 348.204 391.04 348.548C390.47 348.918 366.32 354.088 354.04 359.188C341.76 364.288 319.52 367.908 308.19 371.638C296.86 375.368 280.81 383.158 280.81 383.158L273.06 357.848Z" fill="#C2C2C2" stroke="#263238" stroke-linecap="round" stroke-linejoin="round"/>
<path d="M287.04 374.468C287.04 381.548 279.73 384.538 272.82 384.538C271.156 384.521 269.511 384.176 267.98 383.522C266.45 382.869 265.063 381.921 263.899 380.731C262.735 379.541 261.817 378.133 261.198 376.589C260.579 375.044 260.27 373.392 260.29 371.728C260.29 364.648 266.14 357.848 273.05 357.848C279.96 357.848 287.04 367.398 287.04 374.468Z" fill="white" stroke="#263238" stroke-linecap="round" stroke-linejoin="round"/>
<path d="M271.93 362.568C271.93 362.568 266.45 365.788 265.7 369.938C264.95 374.088 266.08 377.118 268.91 378.058C271.74 378.998 277.79 380.708 279.86 376.358C281.93 372.008 275.71 361.248 271.93 362.568Z" stroke="#263238" stroke-miterlimit="10"/>
<path d="M270.99 367.908C270.99 367.908 267.99 370.558 268.72 372.448C269.45 374.338 272.5 376.788 273.82 375.088C275.14 373.388 276.46 370.748 275.33 369.228C274.2 367.708 272.29 365.968 270.99 367.908Z" stroke="#263238" stroke-miterlimit="10"/>
<path d="M285.91 368.428C285.91 368.428 290.25 366.728 294.03 365.428C297.81 364.128 306.87 362.028 306.87 362.028L321.03 358.628" fill="white"/>
<path d="M285.91 368.428C285.91 368.428 290.25 366.728 294.03 365.428C297.81 364.128 306.87 362.028 306.87 362.028L321.03 358.628" stroke="#263238" stroke-linecap="round" stroke-linejoin="round"/>
<path d="M295.16 368.048L313.48 362.948" stroke="#263238" stroke-linecap="round" stroke-linejoin="round"/>
<path d="M388.62 343.438L376.16 347.588" stroke="#263238" stroke-linecap="round" stroke-linejoin="round"/>
<path d="M391.27 339.848L382.77 342.488" stroke="#263238" stroke-linecap="round" stroke-linejoin="round"/>
<path d="M282.32 360.118L288.36 358.418" stroke="#263238" stroke-linecap="round" stroke-linejoin="round"/>
<path d="M298.42 374.908C298.42 374.908 300.11 363.848 296.88 360.178C293.65 356.508 286.75 355.268 286.75 355.268C286.75 355.268 286.75 353.728 290.75 353.118C294.75 352.508 300.27 356.188 301.49 361.118C302.71 366.048 302.72 372.468 301.8 374.618C300.88 376.768 298.72 376.468 298.42 374.908Z" fill="#263238" stroke="#263238" stroke-linecap="round" stroke-linejoin="round"/>
<path d="M379.5 351.908C379.5 351.908 380.8 343.528 378.33 340.738C375.86 337.948 370.57 337.018 370.57 337.018C370.57 337.018 370.57 335.858 373.62 335.388C376.67 334.918 380.91 337.718 381.85 341.438C382.79 345.158 382.79 350.048 382.09 351.668C381.39 353.288 379.74 353.098 379.5 351.908Z" fill="#263238" stroke="#263238" stroke-linecap="round" stroke-linejoin="round"/>
<path d="M331.51 245.519L342.69 259.809C342.69 259.809 341.22 263.109 338.29 263.659C335.36 264.209 329.49 261.459 327.84 256.329C327.261 254.368 327.303 252.277 327.96 250.341C328.617 248.406 329.857 246.721 331.51 245.519Z" fill="white" stroke="#263238" stroke-linecap="round" stroke-linejoin="round"/>
<path d="M236.94 254.349C236.841 256.316 236.587 258.272 236.18 260.199C235.67 261.719 234.9 263.759 234.9 263.759C234.9 263.759 235.9 263.249 236.9 264.519C237.9 265.789 239.03 261.249 240.72 261.719C242.41 262.189 245.55 261.219 245.55 261.219L246.55 249.769L236.94 254.349Z" fill="#263238" stroke="#263238" stroke-linecap="round" stroke-linejoin="round"/>
<path d="M242.07 238.558L233.64 242.558C233.64 242.558 229.43 251.348 228.14 253.738C227.164 255.462 226.065 257.113 224.85 258.678C224.85 258.678 226.85 259.778 233.09 258.498C237.798 257.372 242.399 255.836 246.84 253.908C246.84 253.908 247.57 241.668 242.07 238.558Z" fill="white" stroke="#263238" stroke-linecap="round" stroke-linejoin="round"/>
<path d="M255.63 310.758L247.2 315.908C247.2 315.908 243.2 316.828 226.68 301.248C210.16 285.668 208.35 300.148 208.53 307.668C208.71 315.188 248.67 342.848 258.2 345.788C267.73 348.728 295.4 340.288 306.2 337.358C317 334.428 318.68 324.908 317.4 322.908C316.12 320.908 325.09 320.158 312.81 320.908C300.53 321.658 287.52 323.658 273.59 317.428C259.66 311.198 255.63 310.758 255.63 310.758Z" fill="#263238" stroke="#263238" stroke-linecap="round" stroke-linejoin="round"/>
<path d="M257.23 327.238L260.74 331.508" stroke="#B5B5B5" stroke-linecap="round" stroke-linejoin="round"/>
<path d="M249.89 318.328L255 324.538" stroke="#B5B5B5" stroke-linecap="round" stroke-linejoin="round"/>
<path d="M287.34 226.638C287.34 226.638 270.66 224.808 268.83 224.808C267 224.808 261.5 227.558 260.22 228.108C258.94 228.658 240.79 239.108 240.79 239.108C240.79 239.108 242.99 240.388 243.17 246.108C243.294 251.495 243.05 256.884 242.44 262.238C242.07 264.438 241.16 270.848 241.16 270.848C241.16 270.848 245.16 267.548 246.29 267.188C247.42 266.828 247.02 265.348 249.59 264.068C252.16 262.788 252.34 263.518 251.97 260.948C251.887 260.165 251.993 259.374 252.28 258.641C252.567 257.909 253.027 257.256 253.62 256.738C253.974 256.889 254.359 256.951 254.742 256.92C255.125 256.889 255.495 256.764 255.82 256.558C256.73 255.818 263.51 253.618 263.51 253.618C263.51 253.618 261.51 275.618 262.23 283.128C262.95 290.638 260.23 295.768 259.3 299.258L258.38 302.738C257.464 302.616 256.536 302.852 255.791 303.399C255.045 303.945 254.54 304.758 254.38 305.668C253.47 309.148 252.92 312.448 252.92 312.448C252.92 312.448 265.38 323.808 277.84 325.278C290.3 326.748 312.29 324.548 314.68 323.078C317.07 321.608 316.29 314.608 316.29 312.598C316.29 310.588 315.92 299.028 315.92 297.928C315.92 296.828 322.7 275.208 322.7 275.208L327.46 286.208C327.46 286.208 349.82 275.208 350.37 274.848C350.956 274.54 351.572 274.296 352.21 274.118C352.21 274.118 349.09 265.118 347.81 263.308C346.53 261.498 342.68 258.178 342.31 256.708C342.068 255.771 341.761 254.852 341.39 253.958C340.948 255.258 340.332 256.493 339.56 257.628C338.46 259.088 338.28 259.458 337.36 259.628C336.386 259.723 335.404 259.723 334.43 259.628L330.43 256.698L330.06 253.028L330.61 251.028C330.704 250.043 331.16 249.127 331.89 248.458L332.99 247.728L334.09 245.728L332.99 242.068C330.553 241.8 328.157 241.247 325.85 240.418C323.208 239.367 320.514 238.449 317.78 237.668C317.78 237.668 311.37 234.368 310.27 233.818C309.17 233.268 287.34 226.638 287.34 226.638Z" fill="#067AFF" stroke="#263238" stroke-linecap="round" stroke-linejoin="round"/>
<path d="M263.15 236.538L263.52 253.578L258.93 238.558" stroke="#263238" stroke-linecap="round" stroke-linejoin="round"/>
<path d="M281.62 250.598C282.479 252.001 283.485 253.308 284.62 254.498" stroke="#263238" stroke-linecap="round" stroke-linejoin="round"/>
<path d="M277.99 229.758C277.125 235.561 277.755 241.487 279.82 246.978" stroke="#263238" stroke-linecap="round" stroke-linejoin="round"/>
<path d="M319.04 242.769C319.04 242.769 313.04 246.439 310.8 247.349" stroke="#263238" stroke-linecap="round" stroke-linejoin="round"/>
<path d="M284.65 309.519C285.46 310.659 286.21 311.659 286.89 312.449" stroke="#263238" stroke-linecap="round" stroke-linejoin="round"/>
<path d="M268.84 282.479C268.84 282.479 276.3 296.669 282.38 306.129" stroke="#263238" stroke-linecap="round" stroke-linejoin="round"/>
<path d="M272.93 297.118L279.74 307.338" stroke="#263238" stroke-linecap="round" stroke-linejoin="round"/>
<path d="M317.29 237.419C315.84 236.669 311.14 234.249 310.21 233.789C309.11 233.239 287.3 226.639 287.3 226.639L283.3 226.208C281.81 231.038 279.89 242.209 291.47 247.539C301.29 252.049 311.41 243.789 317.29 237.419Z" fill="white" stroke="#263238" stroke-linecap="round" stroke-linejoin="round"/>
<path d="M286.44 237.518L286.75 220.598L312.35 226.818L311.03 238.888" fill="white"/>
<path d="M286.44 237.518L286.75 220.598L312.35 226.818L311.03 238.888" stroke="#263238" stroke-linecap="round" stroke-linejoin="round"/>
<path d="M285.69 209.049C285.69 209.049 285.14 224.809 285.32 228.289C285.5 231.769 290.09 239.469 292.1 240.389C294.11 241.309 298.52 242.219 299.8 241.669C301.08 241.119 309.51 235.989 311.53 233.609C313.012 231.594 314.184 229.369 315.01 227.009C315.01 227.009 318.86 227.739 319.96 220.599C321.06 213.459 319.78 205.599 315.01 201.899C310.24 198.199 306.95 192.369 293.75 197.689C280.55 203.009 285.69 209.049 285.69 209.049Z" fill="white" stroke="#263238" stroke-linecap="round" stroke-linejoin="round"/>
<path d="M295.4 222.608C295.4 222.608 294.3 224.258 295.04 224.988C295.78 225.718 299.04 226.458 300.17 225.908C300.87 225.504 301.391 224.85 301.63 224.078" stroke="#263238" stroke-linecap="round" stroke-linejoin="round"/>
<path d="M295.22 230.128L298.52 230.678" stroke="#263238" stroke-linecap="round" stroke-linejoin="round"/>
<path d="M294.85 216.108C294.85 216.968 294.44 217.658 293.94 217.658C293.44 217.658 293.02 216.968 293.02 216.108C293.02 215.248 293.43 214.548 293.94 214.548C294.45 214.548 294.85 215.248 294.85 216.108Z" fill="#263238"/>
<path d="M305.48 218.398C305.48 219.258 305.07 219.948 304.57 219.948C304.07 219.948 303.65 219.258 303.65 218.398C303.65 217.538 304.06 216.838 304.57 216.838C305.08 216.838 305.48 217.538 305.48 218.398Z" fill="#263238"/>
<path d="M291.19 210.328C291.19 210.328 295.19 210.698 296.87 213.258" stroke="#263238" stroke-linecap="round" stroke-linejoin="round"/>
<path d="M303.1 214.548C303.1 214.548 307.5 213.258 309.51 215.648" stroke="#263238" stroke-linecap="round" stroke-linejoin="round"/>
<path d="M306.22 184.679C306.22 184.679 298.52 179.909 291.55 182.839C284.58 185.769 282.76 190.719 282.02 191.089C281.28 191.459 275.43 191.459 275.43 191.459L277.99 194.209L279.83 195.119C279.83 195.119 275.06 198.049 274.51 199.339C274.08 201.017 273.835 202.737 273.78 204.469L276.89 202.999L276.53 205.929L278.91 204.649C278.962 206.155 279.403 207.622 280.19 208.909C281.47 210.909 285.19 212.569 285.19 212.569C285.895 210.753 286.819 209.031 287.94 207.439C288.704 206.567 289.322 205.577 289.77 204.509L290.87 209.089C290.87 209.089 291.05 208.359 293.25 205.419C294.697 203.525 296.292 201.75 298.02 200.109L302.97 206.889L304.25 204.689L305.72 209.459L312.72 205.969C312.72 205.969 313.27 212.389 314.19 213.669C314.768 214.608 315.082 215.686 315.1 216.789L314.92 218.988C314.92 218.988 316.92 212.759 318.03 215.689C319.14 218.619 318.77 220.819 317.67 222.279C316.242 223.844 314.712 225.314 313.09 226.679C312.35 227.419 311.62 232.909 311.62 233.679C311.62 234.449 313.27 234.779 316.2 233.309C318.118 232.231 319.702 230.646 320.78 228.729L322.62 231.109C323.725 230.157 324.601 228.967 325.18 227.629C326.28 225.249 327.38 217.369 327.38 217.369L328.3 219.929C328.3 219.929 332.51 217.369 331.6 210.039C330.69 202.709 328.11 196.659 326.1 195.369C324.09 194.079 322.25 192.809 322.25 192.809L323.9 191.709C323.9 191.709 321.15 187.709 319.5 187.489C317.85 187.269 314.74 187.309 314.74 187.309L312.17 184.199L309.05 186.579L306.22 184.679Z" fill="#263238" stroke="#263238" stroke-linecap="round" stroke-linejoin="round"/>
<path d="M343.91 342.908C343.91 342.908 358.25 347.768 360.55 349.818C362.85 351.868 385.12 386.158 385.12 386.158L358.29 388.718C358.29 388.718 337.81 357.498 337.29 353.658C336.77 349.818 338.29 342.658 338.29 342.658L343.91 342.908Z" fill="#858585" stroke="#263238" stroke-linecap="round" stroke-linejoin="round"/>
<path d="M267.55 341.548C267.55 341.548 253.62 338.068 245.74 329.638C237.86 321.208 225.95 298.118 220.26 292.438C214.57 286.758 203.77 285.838 198.46 294.998C193.15 304.158 207.62 322.488 215.13 328.168C222.64 333.848 253.07 346.498 261.68 351.078C270.29 355.658 280.74 361.528 285.14 361.338C289.54 361.148 299.44 359.338 301.27 353.828C303.1 348.318 302 348.328 301.27 346.498C300.54 344.668 303.27 345.578 294.67 344.668C286.07 343.758 288.07 345.948 277.81 343.748L267.55 341.548Z" fill="white" stroke="#263238" stroke-linecap="round" stroke-linejoin="round"/>
<path d="M231.08 309.109C228.917 308.325 226.714 307.657 224.48 307.109C218.06 305.269 217.48 306.739 217.33 307.659C217.206 308.57 217.146 309.489 217.15 310.409C217.15 310.409 215.5 308.759 214.58 310.039C214.014 310.913 213.699 311.927 213.67 312.969C213.22 312.735 212.725 312.599 212.219 312.568C211.713 312.537 211.206 312.612 210.73 312.789C208.9 313.339 208.17 313.519 207.8 314.789C207.43 316.059 207.25 316.259 205.6 318.089C203.766 319.875 201.808 321.529 199.74 323.039C200.089 322.586 200.334 322.062 200.459 321.505C200.584 320.947 200.585 320.369 200.464 319.811C200.342 319.252 200.099 318.728 199.753 318.273C199.407 317.818 198.966 317.445 198.46 317.179C194.61 314.789 192.46 314.789 192.46 314.789C192.46 314.789 198.14 311.309 198.32 309.479C198.5 307.649 195.94 303.619 195.94 299.579C195.94 295.539 200.52 290.239 204.55 288.399C208.58 286.559 211.88 287.119 215.73 288.769C219.58 290.419 221.96 293.539 223.61 296.279C225.26 299.019 231.08 309.109 231.08 309.109Z" fill="#263238" stroke="#263238" stroke-linecap="round" stroke-linejoin="round"/>
<path d="M296.29 350.229C296.29 350.229 299.02 352.429 301.87 351.909" stroke="#263238" stroke-linecap="round" stroke-linejoin="round"/>
<path d="M294.69 354.908C296.424 355.768 298.347 356.174 300.28 356.088" stroke="#263238" stroke-linecap="round" stroke-linejoin="round"/>
<path d="M291.58 357.479C291.58 357.479 292.88 358.999 296.12 358.689" stroke="#263238" stroke-linecap="round" stroke-linejoin="round"/>
<path d="M286.71 358.378C286.71 358.378 287.02 359.308 290.1 360.228" stroke="#263238" stroke-linecap="round" stroke-linejoin="round"/>
<path d="M311.14 344.408C316.489 343.027 321.562 340.741 326.14 337.648C329.9 335.078 333.52 331.798 334.84 328.168C337.95 319.558 327.84 310.028 323.11 310.028C318.38 310.028 314.68 310.948 307.71 314.608C300.74 318.268 285.9 327.068 273.44 332.198C260.98 337.328 247.05 341.198 241.55 340.448C236.05 339.698 221.03 335.688 216.08 333.298C211.13 330.908 209.85 334.038 210.4 335.868C210.505 336.355 210.726 336.81 211.045 337.193C211.364 337.576 211.77 337.876 212.23 338.068C212.369 339.346 212.742 340.586 213.33 341.728C214.079 343.316 214.937 344.85 215.9 346.318C217.572 348.622 219.761 350.502 222.29 351.808C225.59 353.458 228.52 355.298 237.13 355.298C245.74 355.298 256.56 350.158 263.52 349.248C270.48 348.338 286.62 348.518 296.88 347.598C305.39 346.838 305.29 345.908 311.14 344.408Z" fill="white" stroke="#263238" stroke-linecap="round" stroke-linejoin="round"/>
<path d="M212.2 338.068C212.872 337.704 213.641 337.561 214.399 337.66C215.157 337.759 215.864 338.094 216.42 338.618" stroke="#263238" stroke-linecap="round" stroke-linejoin="round"/>
<path d="M213.29 341.729C213.29 341.729 214.39 340.639 216.59 341.729" stroke="#263238" stroke-linecap="round" stroke-linejoin="round"/>
<path d="M215.87 346.318C216.159 345.821 216.599 345.428 217.125 345.196C217.652 344.965 218.238 344.906 218.8 345.028" stroke="#263238" stroke-linecap="round" stroke-linejoin="round"/>
<path d="M218.43 348.908C218.508 348.631 218.645 348.374 218.832 348.154C219.018 347.935 219.25 347.759 219.511 347.637C219.772 347.515 220.057 347.452 220.345 347.45C220.633 347.449 220.918 347.509 221.18 347.628" stroke="#263238" stroke-linecap="round" stroke-linejoin="round"/>
<path d="M299.62 319.908C300.173 319.807 300.743 319.837 301.283 319.995C301.823 320.153 302.318 320.435 302.73 320.818C303.83 322.108 302.73 324.488 302.37 325.218C302.01 325.948 305.3 325.588 304.37 327.218C303.44 328.848 302.37 330.698 302.37 330.698C302.37 330.698 307.32 327.028 309.7 329.598C312.08 332.168 304.57 340.408 304.57 340.408C304.57 340.408 306.95 341.138 307.5 342.238C307.835 342.925 308.022 343.675 308.05 344.438C308.05 344.438 320.88 343.338 324.91 340.228C328.94 337.118 332.61 335.828 334.81 328.128C337.01 320.428 335.36 316.398 330.96 312.368C326.56 308.338 323.81 308.708 318.31 309.988C313.028 311.267 307.825 312.856 302.73 314.748C299.98 315.908 299.29 317.908 297.29 318.458C295.29 319.008 292.89 319.378 292.89 319.378L299.62 319.908Z" fill="#263238" stroke="#263238" stroke-linecap="round" stroke-linejoin="round"/>
<path d="M346.37 354.158C345.945 354.158 345.528 354.049 345.157 353.843C344.786 353.636 344.474 353.339 344.25 352.978L232.66 173.978C232.309 173.416 232.195 172.737 232.344 172.091C232.493 171.445 232.893 170.885 233.455 170.533C234.017 170.182 234.696 170.068 235.342 170.217C235.988 170.366 236.549 170.766 236.9 171.328L348.49 350.328C348.724 350.707 348.854 351.142 348.864 351.588C348.875 352.033 348.767 352.474 348.551 352.864C348.335 353.254 348.019 353.579 347.636 353.807C347.253 354.034 346.816 354.156 346.37 354.158Z" fill="#858585" stroke="#263238" stroke-linecap="round" stroke-linejoin="round"/>
<path d="M305.67 297.568C305.67 297.568 300.9 301.568 301.08 302.328C301.26 303.088 302.73 306.728 304.38 307.278C306.03 307.828 306.77 303.798 306.58 301.778C306.416 300.349 306.111 298.938 305.67 297.568Z" fill="white" stroke="#263238" stroke-linecap="round" stroke-linejoin="round"/>
<path d="M352.4 272.458C352.4 272.458 344.89 271.358 340.85 274.838C336.81 278.318 319.78 296.098 319.78 296.098C319.78 296.098 309.51 292.798 308.23 293.718C306.95 294.638 303.28 300.868 303.65 301.418C304.02 301.968 309.33 308.928 312.45 310.208C315.57 311.488 317.76 310.578 318.31 310.028C318.86 309.478 323.63 309.478 324.73 308.028C325.83 306.578 327.84 304.368 327.84 304.368C327.84 304.368 355.84 286.038 357.35 284.368C358.86 282.698 358.63 280.888 356.8 277.588C355.691 275.601 354.195 273.857 352.4 272.458Z" fill="white" stroke="#263238" stroke-linecap="round" stroke-linejoin="round"/>
<path d="M311.16 296.278L305.67 303.068" stroke="#263238" stroke-linecap="round" stroke-linejoin="round"/>
<path d="M314.28 299.769L307.68 306.359" stroke="#263238" stroke-linecap="round" stroke-linejoin="round"/>
<path d="M311.16 308.928L317.76 302.328" stroke="#263238" stroke-linecap="round" stroke-linejoin="round"/>
<path d="M251.97 192.909C251.97 192.909 254.72 191.259 255.82 191.809C256.92 192.359 258.75 195.109 258.75 196.029C258.75 196.949 255.27 198.779 253.62 197.859C251.97 196.939 251.97 192.909 251.97 192.909Z" fill="white" stroke="#263238" stroke-linecap="round" stroke-linejoin="round"/>
<path d="M248.85 189.258C248.85 189.258 241.71 195.258 241.71 196.398C241.71 197.538 242.44 208.678 242.44 208.678C242.44 208.678 221.55 236.679 218.44 241.299C215.33 245.918 214.96 249.548 218.26 254.678C221.56 259.808 225.26 259.078 228.89 258.348C232.52 257.618 237.68 241.488 242.08 230.858C246.48 220.228 248.68 214.548 248.68 214.548C248.68 214.548 252.16 211.978 252.68 210.328C253.05 208.832 253.175 207.285 253.05 205.748C253.05 204.828 254.7 204.098 255.25 203.918C255.8 203.738 257.25 203.728 257.45 202.638C257.427 201.558 257.175 200.494 256.71 199.518C256.71 199.518 254.33 192.188 252.71 190.518C252.2 190.035 251.59 189.671 250.922 189.453C250.254 189.235 249.547 189.169 248.85 189.258Z" fill="white" stroke="#263238" stroke-linecap="round" stroke-linejoin="round"/>
<path d="M253.98 193.468C253.98 193.468 250.5 192.368 249.77 192.558C249.04 192.748 244.77 196.768 244.77 196.768" stroke="#263238" stroke-linecap="round" stroke-linejoin="round"/>
<path d="M255.45 196.769C255.45 196.769 252.15 195.849 251.6 196.039C250 197.285 248.471 198.621 247.02 200.039" stroke="#263238" stroke-linecap="round" stroke-linejoin="round"/>
<path d="M257.29 200.798C257.29 200.798 255.09 199.338 254.36 199.518C253.026 200.16 251.74 200.895 250.51 201.718" stroke="#263238" stroke-linecap="round" stroke-linejoin="round"/>
<path d="M322.71 275.208L318.31 263.658" stroke="#263238" stroke-linecap="round" stroke-linejoin="round"/>
<path d="M68.4399 230.958L69.3799 228.688C68.6058 228.599 67.8224 228.731 67.1199 229.068C65.9899 229.638 65.0399 230.018 65.0399 230.018C64.0965 229.713 63.206 229.265 62.3999 228.688C60.0843 227.429 57.4855 226.782 54.8499 226.808C52.3999 226.808 43.7099 228.128 45.7899 228.878C47.8699 229.628 52.7899 229.068 53.9099 229.638C55.0299 230.208 55.7899 231.148 56.7399 231.708C58.08 232.276 59.4691 232.721 60.8899 233.038C60.3328 233.624 59.6049 234.02 58.8099 234.168L57.2999 234.548C57.5345 235.316 58.0105 235.987 58.6573 236.463C59.3041 236.939 60.087 237.193 60.8899 237.188C62.4649 237.326 64.0511 237.262 65.6099 236.998L65.4199 234.358C65.4199 234.358 65.4199 235.298 70.3299 235.488C75.2399 235.678 77.4999 236.808 77.4999 236.808C77.4999 236.808 86.3699 240.018 85.7999 239.448C85.2299 238.878 81.4599 235.108 79.3899 234.358C77.4859 233.734 75.5271 233.292 73.5399 233.038C71.7579 232.565 70.044 231.866 68.4399 230.958Z" fill="#ADADAD"/>
<path d="M113.15 223.688L114.09 221.428C113.317 221.333 112.532 221.461 111.83 221.798C110.69 222.368 109.75 222.748 109.75 222.748C108.807 222.446 107.917 222.001 107.11 221.428C104.795 220.165 102.196 219.515 99.5598 219.538C97.1098 219.538 88.4198 220.858 90.4998 221.618C92.5798 222.378 97.4998 221.798 98.6198 222.368C99.7398 222.938 100.5 223.878 101.45 224.448C102.791 225.009 104.18 225.451 105.6 225.768C105.043 226.354 104.315 226.749 103.52 226.898L102.01 227.278C102.244 228.045 102.72 228.717 103.367 229.193C104.014 229.668 104.797 229.923 105.6 229.918C107.175 230.056 108.761 229.992 110.32 229.728L110.13 227.088C110.13 227.088 110.13 228.028 115.04 228.218C119.95 228.408 122.21 229.538 122.21 229.538C122.21 229.538 131.08 232.748 130.51 232.188C129.94 231.628 126.17 227.838 124.1 227.088C122.191 226.468 120.23 226.026 118.24 225.768C116.462 225.294 114.751 224.595 113.15 223.688Z" fill="#ADADAD"/>
<path d="M122.08 254.498L122.78 252.808C122.205 252.737 121.621 252.834 121.1 253.088C120.25 253.518 119.55 253.798 119.55 253.798C118.835 253.57 118.161 253.232 117.55 252.798C115.826 251.86 113.892 251.378 111.93 251.398C110.1 251.398 103.64 252.398 105.18 252.938C106.72 253.478 110.38 253.078 111.18 253.508C111.98 253.938 112.58 254.628 113.29 255.048C114.288 255.472 115.322 255.807 116.38 256.048C115.966 256.486 115.423 256.78 114.83 256.888L113.71 257.168C113.877 257.746 114.228 258.254 114.71 258.615C115.192 258.975 115.778 259.17 116.38 259.168C117.551 259.27 118.73 259.223 119.89 259.028L119.75 257.028C119.75 257.028 119.75 257.728 123.41 257.868C125.238 257.853 127.051 258.192 128.75 258.868C128.75 258.868 135.35 261.258 134.93 260.868C134.51 260.478 131.7 257.628 130.15 257.068C128.734 256.602 127.277 256.267 125.8 256.068C124.498 255.704 123.248 255.177 122.08 254.498Z" fill="#ADADAD"/>
<path d="M92.9798 258.328C93.0781 257.499 93.4034 256.713 93.9198 256.058C94.6698 255.308 95.8098 254.738 94.6698 253.058C93.5298 251.378 84.8598 246.058 85.7998 247.968C86.7398 249.878 90.1398 251.738 89.5798 253.438C89.265 254.71 88.5327 255.841 87.4998 256.648L85.7998 257.588C85.2024 257.152 84.4653 256.953 83.7298 257.028C82.2198 257.028 83.5398 256.648 82.2198 257.028C80.8998 257.408 79.2198 257.968 79.9498 259.858C80.6798 261.748 80.9498 262.498 82.0298 261.738C83.0168 261.038 84.1208 260.52 85.2898 260.208C86.6098 259.838 88.2898 261.348 89.2898 262.668C90.2898 263.988 91.5598 263.418 89.2898 265.668C87.0198 267.918 84.9498 269.438 86.2898 269.668C87.6298 269.898 94.5998 265.328 95.1598 263.818C95.7198 262.308 93.6498 261.558 94.0298 260.988C94.2828 260.694 94.6068 260.47 94.9709 260.337C95.335 260.204 95.7271 260.166 96.1098 260.228L97.9898 260.418C97.9898 260.418 96.8598 258.158 95.5398 258.158C94.6834 258.148 93.8275 258.205 92.9798 258.328Z" fill="#ADADAD"/>
</svg>
