<svg width="279" height="95" viewBox="0 0 279 95" fill="none" xmlns="http://www.w3.org/2000/svg">
<path d="M51.0512 5.18188C55.1088 5.18188 58.3982 8.47125 58.3982 12.5289V66.636C58.3982 71.2552 54.6536 74.9999 50.0343 74.9999V74.9999C47.2876 74.9999 44.716 73.6513 43.1542 71.3919L15.3727 31.2016C15.3101 31.111 15.207 31.0569 15.0968 31.0569V31.0569C14.9116 31.0569 14.7614 31.2071 14.7614 31.3923V67.6192C14.7614 71.6954 11.4569 74.9999 7.3807 74.9999V74.9999C3.30445 74.9999 0 71.6954 0 67.6192V13.6682C0 8.98133 3.79944 5.18188 8.48629 5.18188V5.18188C11.2832 5.18188 13.9004 6.55997 15.4831 8.86595L42.9716 48.9166C43.0464 49.0257 43.1703 49.0909 43.3026 49.0909V49.0909C43.5244 49.0909 43.7042 48.9111 43.7042 48.6893V12.5289C43.7042 8.47126 46.9936 5.18188 51.0512 5.18188V5.18188ZM151.594 22.6359C154.606 22.6359 157.048 25.0779 157.048 28.0904V28.0904C157.048 31.1028 154.606 33.5449 151.594 33.5449H130.969C127.956 33.5449 125.514 31.1028 125.514 28.0904V28.0904C125.514 25.0779 127.956 22.6359 130.969 22.6359H151.594ZM132.673 17.3524C132.673 13.342 135.924 10.0909 139.935 10.0909V10.0909C143.945 10.0909 147.196 13.342 147.196 17.3524V58.9089C147.196 60.2499 147.4 61.2949 147.809 62.0449C148.219 62.7729 148.787 63.2839 149.514 63.5799C150.264 63.8749 151.128 64.0229 152.105 64.0229C152.787 64.0229 153.469 63.9659 154.15 63.8519V63.8519C155.021 63.6781 155.866 64.24 156.05 65.1091L157.348 71.252C157.72 73.0097 156.687 74.7437 154.934 75.1359V75.1359C153.616 75.4549 152.014 75.6479 150.128 75.7159C146.628 75.8519 143.559 75.3859 140.923 74.3179C138.309 73.2499 136.275 71.5909 134.821 69.3409C133.366 67.0909 132.65 64.2499 132.673 60.8179V17.3524ZM173.77 74.9999C169.759 74.9999 166.508 71.7488 166.508 67.7384V29.8974C166.508 25.887 169.759 22.6359 173.77 22.6359V22.6359C177.78 22.6359 181.031 25.887 181.031 29.8974V67.7384C181.031 71.7488 177.78 74.9999 173.77 74.9999V74.9999ZM173.804 15.8859C171.645 15.8859 169.792 15.1699 168.247 13.7389C166.724 12.2839 165.963 10.5449 165.963 8.52289C165.963 6.52289 166.724 4.80688 168.247 3.37488C169.792 1.91988 171.645 1.19287 173.804 1.19287C175.963 1.19287 177.804 1.91988 179.327 3.37488C180.872 4.80688 181.645 6.52289 181.645 8.52289C181.645 10.5449 180.872 12.2839 179.327 13.7389C177.804 15.1699 175.963 15.8859 173.804 15.8859ZM215.37 22.6359C218.382 22.6359 220.824 25.0779 220.824 28.0904V28.0904C220.824 31.1028 218.382 33.5449 215.37 33.5449H193.96C190.947 33.5449 188.505 31.1028 188.505 28.0904V28.0904C188.505 25.0779 190.947 22.6359 193.96 22.6359H215.37ZM203.148 74.9999C199.147 74.9999 195.903 71.7564 195.903 67.7554V18.8519C195.903 15.0569 196.642 11.9089 198.119 9.40887C199.619 6.90887 201.665 5.03387 204.255 3.78387C206.846 2.53387 209.79 1.90887 213.085 1.90887C215.312 1.90887 217.346 2.07989 219.187 2.41989V2.41989C221.541 2.85051 222.914 5.15898 222.361 7.48714L221.258 12.1335C220.987 13.2751 219.795 13.9569 218.642 13.7389V13.7389C217.824 13.5799 216.983 13.4999 216.119 13.4999C213.983 13.4999 212.494 13.9999 211.653 14.9999C210.812 15.9769 210.392 17.3519 210.392 19.1249V67.7554C210.392 71.7564 207.149 74.9999 203.148 74.9999V74.9999ZM238.662 94.6359C236.821 94.6359 235.094 94.4889 233.48 94.1929V94.1929C231.186 93.7992 230.038 91.4376 230.711 89.2091L231.442 86.7883C232.19 84.3099 234.813 83.0606 237.4 83.1479V83.1479C238.787 83.1929 239.98 82.8749 240.98 82.1929C242.003 81.5109 242.832 80.3519 243.469 78.7159V78.7159C244.019 77.2851 244.044 75.7056 243.539 74.2581L228.807 32.0133C227.208 27.428 230.612 22.6359 235.468 22.6359V22.6359C238.627 22.6359 241.401 24.7358 242.258 27.7762L251.576 60.8278C251.62 60.9834 251.762 61.0909 251.924 61.0909V61.0909C252.085 61.0909 252.227 60.9838 252.271 60.8286L261.672 27.7923C262.54 24.7408 265.328 22.6359 268.5 22.6359V22.6359C273.393 22.6359 276.819 27.4685 275.2 32.0853L258.162 80.6589C257.184 83.4769 255.855 85.9319 254.173 88.0229C252.514 90.1359 250.412 91.7609 247.866 92.8979C245.321 94.0569 242.253 94.6359 238.662 94.6359Z" fill="white"/>
<path d="M122.729 59.9353L118.799 52.1484C117.786 50.0966 117.244 47.8445 117.213 45.5565L117.089 33.1516C116.989 27.8729 115.13 22.7786 111.807 18.6761C108.484 14.5735 103.886 11.6975 98.7434 10.5038C98.7776 10.2668 98.7991 10.0282 98.808 9.7889C98.7961 9.03742 98.6363 8.29564 98.3377 7.60593C98.0391 6.91621 97.6076 6.29206 97.0678 5.76911C96.528 5.24616 95.8904 4.83466 95.1916 4.55809C94.4927 4.28153 93.7463 4.14531 92.9948 4.15724C92.2433 4.16916 91.5015 4.32899 90.8118 4.62758C90.1221 4.92618 89.498 5.35771 88.975 5.89752C88.4521 6.43733 88.0405 7.07486 87.764 7.7737C87.4874 8.47255 87.3512 9.21902 87.3631 9.9705C87.3695 10.2094 87.3958 10.4473 87.4417 10.6819C82.3394 12.0365 77.8348 15.0545 74.6412 19.258C71.4476 23.4614 69.7474 28.6101 69.81 33.8888L70.0049 46.2871C70.0419 48.5695 69.5667 50.8313 68.6143 52.9058L64.9757 60.8264C64.6203 61.603 64.4672 62.4569 64.5307 63.3086C64.5942 64.1603 64.8723 64.9821 65.339 65.6973C65.8057 66.4126 66.4459 66.9981 67.1999 67.3993C67.9538 67.8004 68.7971 68.0043 69.6511 67.9917L118.322 67.2281C119.171 67.2083 120.002 66.9747 120.737 66.5487C121.472 66.1227 122.088 65.5182 122.527 64.7911C122.966 64.064 123.215 63.2379 123.251 62.3891C123.286 61.5403 123.106 60.6963 122.729 59.9353Z" fill="white"/>
<path d="M88.4664 70.8718C88.0964 70.8788 87.734 70.9769 87.411 71.1575C87.0881 71.3381 86.8147 71.5955 86.615 71.9069C86.4153 72.2184 86.2955 72.5743 86.2662 72.9431C86.2369 73.3119 86.2989 73.6823 86.4469 74.0214C87.0879 75.5199 88.1604 76.7937 89.5278 77.6806C90.8952 78.5675 92.4956 79.0273 94.1252 79.0016C95.7548 78.9758 97.3399 78.4656 98.6785 77.5359C100.017 76.6062 101.049 75.2991 101.642 73.7811C101.779 73.4383 101.829 73.0672 101.788 72.7005C101.747 72.3337 101.617 71.9827 101.409 71.6782C101.2 71.3736 100.92 71.1251 100.593 70.9543C100.266 70.7835 99.9018 70.6958 99.5328 70.6989L88.4664 70.8718Z" fill="white"/>
</svg>
