<svg width="390" height="412" viewBox="0 0 390 412" fill="none" xmlns="http://www.w3.org/2000/svg">
<path opacity="0.7" d="M-45.0328 31.2304C-45.0328 31.2304 -79.8374 121.113 -30.9261 211.62C17.9851 302.128 118.729 349.94 199.361 390.825C279.994 431.709 363.722 411.797 403.508 344.834C443.294 277.872 388.727 230.071 388.652 134.583C388.577 39.0952 402.946 13.8156 351.201 -66.8543C299.456 -147.524 172.609 -165.388 76.6837 -105.554C-19.2414 -45.7194 -45.0328 31.2304 -45.0328 31.2304Z" fill="#D9E5FF"/>
<path d="M-53.3594 52.9148C-6.14589 5.71377 33.8395 45.3122 50.6926 -18.0678C88.743 -161.244 246.562 -159.883 267.31 -58.0033C304.699 125.508 467.55 8.97201 466.339 140.401C465.09 280.731 361.85 390.076 176.716 400.949C10.8445 410.749 -131.595 131.125 -53.3594 52.9148Z" fill="#D9E5FF"/>
<path opacity="0.7" d="M-53.3594 52.9148C-6.14589 5.71377 33.8395 45.3122 50.6926 -18.0678C88.743 -161.244 246.562 -159.883 267.31 -58.0033C304.699 125.508 467.55 8.97201 466.339 140.401C465.09 280.731 361.85 390.076 176.716 400.949C10.8445 410.749 -131.595 131.125 -53.3594 52.9148Z" fill="#D9E5FF"/>
<path d="M114.338 372.263C114.338 372.263 102.126 380.572 97.2067 380.017C96.6663 379.989 96.1533 379.771 95.7586 379.401C92.5542 376.094 89.9763 370.281 89.9763 370.281C89.9763 370.281 91.5066 368.165 96.2207 373.783L99.2094 371.041L93.0472 364.817C93.0472 364.817 96.5288 362.054 102.445 365.577C102.239 365.146 98.4289 356.847 101.305 345.55L86.926 331.674L99.6818 320.562L100.709 319.699C100.709 319.699 101.51 320.49 102.763 321.753C104.016 323.017 105.752 324.537 107.631 326.19C112.13 330.144 117.573 334.406 119.956 334.406C124.249 334.263 114.338 372.263 114.338 372.263Z" fill="white"/>
<mask id="mask0_367_1380" style="mask-type:luminance" maskUnits="userSpaceOnUse" x="86" y="319" width="36" height="62">
<path d="M114.338 372.263C114.338 372.263 102.126 380.572 97.2067 380.017C96.6663 379.989 96.1533 379.771 95.7586 379.401C92.5542 376.094 89.9763 370.281 89.9763 370.281C89.9763 370.281 91.5066 368.165 96.2207 373.783L99.2094 371.041L93.0472 364.817C93.0472 364.817 96.5288 362.054 102.445 365.577C102.239 365.146 98.4289 356.847 101.305 345.55L86.926 331.674L99.6818 320.562L100.709 319.699C100.709 319.699 101.51 320.49 102.763 321.753C104.016 323.017 105.752 324.537 107.631 326.19C112.13 330.144 117.573 334.406 119.956 334.406C124.249 334.263 114.338 372.263 114.338 372.263Z" fill="white"/>
</mask>
<g mask="url(#mask0_367_1380)">
<path opacity="0.4" d="M104.899 366.82C104.899 366.82 97.9359 374.009 97.2067 380.017C96.6663 379.989 96.1533 379.771 95.7586 379.401C92.5542 376.094 89.9763 370.281 89.9763 370.281C89.9763 370.281 91.5066 368.165 96.2207 373.783L99.2094 371.041L93.0472 364.817C93.0472 364.817 96.5288 362.054 102.445 365.577C102.239 365.146 98.4289 356.847 101.305 345.55L86.926 331.675L99.6818 320.562L102.763 321.723C104.026 322.914 105.752 324.506 107.631 326.159C104.93 330.113 99.1478 338.299 99.1478 338.299L104.149 345.077C104.149 345.077 101.068 362.167 104.899 366.82Z" fill="#92E3A9"/>
</g>
<path d="M114.338 372.263C114.338 372.263 102.126 380.572 97.2067 380.017C96.6663 379.989 96.1533 379.771 95.7586 379.401C92.5542 376.094 89.9763 370.281 89.9763 370.281C89.9763 370.281 91.5066 368.165 96.2207 373.783L99.2094 371.041L93.0472 364.817C93.0472 364.817 96.5288 362.054 102.445 365.577C102.239 365.146 98.4289 356.847 101.305 345.55L86.926 331.674L99.6818 320.562L100.709 319.699C100.709 319.699 101.51 320.49 102.763 321.753C104.016 323.017 105.752 324.537 107.631 326.19C112.13 330.144 117.573 334.406 119.956 334.406C124.249 334.263 114.338 372.263 114.338 372.263Z" stroke="#263238" stroke-linecap="round" stroke-linejoin="round"/>
<path d="M99.2505 371.041C99.9274 369.018 101.023 367.16 102.465 365.588" stroke="#263238" stroke-linecap="round" stroke-linejoin="round"/>
<path d="M327.038 275.537C325.111 278.348 322.782 280.86 320.126 282.994C297.674 301.583 245.912 310.724 245.912 310.724C245.912 310.724 244.176 313.322 241.506 317.019C236.72 323.664 228.883 333.873 222.495 338.988C219.794 341.155 217.36 342.408 215.501 342.069L225.217 377.943L229.561 393.513C229.561 393.513 184.926 413.027 108.586 390.72C108.586 390.72 107.713 380.757 108.36 378.631C108.36 378.529 108.422 378.426 108.463 378.313C109.24 376.898 110.255 375.626 111.462 374.554C111.462 374.554 111.031 368.145 110.815 361.624C110.569 357.466 110.62 353.296 110.969 349.145C111.513 345.859 113.917 337.909 115.129 334.007L115.837 331.737L112.037 296.16L110.949 285.89L110.887 285.356C110.887 285.284 110.887 285.202 110.887 285.099L110.291 279.604L90.6543 285.602C90.6543 285.602 91.6813 287.903 93.0986 291.128C95.6765 297.033 99.4663 306.02 100.288 309.614C100.35 309.908 100.432 310.196 100.534 310.477C102.352 315.664 109.274 320.378 109.274 320.378L90.6748 342.11L85.1802 338.269C84.4767 338.789 83.7352 339.256 82.9618 339.666C79.3466 341.627 71.767 344.513 63.448 340.107C59.8431 338.081 56.7126 335.307 54.2663 331.973C39.6823 313.035 33.3352 297.536 35.3996 279.389C37.4639 261.241 119.134 205.237 135.341 205.822L159.445 211.142C159.969 210.711 161.376 209.601 162.465 209.653C166.85 209.879 166.963 214.973 166.963 214.973L220.985 223.744C220.985 223.744 226.583 220.94 227.559 220.981C228.264 221.029 228.947 221.252 229.544 221.63C230.141 222.009 230.634 222.53 230.979 223.148C230.979 223.148 244.967 214.767 249.465 216.719C264.275 223.107 337.975 258.92 327.038 275.537Z" fill="#3757FF"/>
<path opacity="0.2" d="M139.357 364.294C133.218 371.042 124.975 375.513 115.971 376.978C113.126 377.43 110.63 377.882 108.443 378.334C109.22 376.919 110.234 375.647 111.442 374.575C111.442 374.575 111.01 368.166 110.795 361.645C117.131 365.825 128.182 370.652 139.357 364.294Z" fill="black"/>
<path opacity="0.2" d="M115.108 334.058L115.817 331.788L112.017 296.211C117.696 304.356 137.949 332.096 151.907 335.095C166.501 338.217 127.484 343.753 115.108 334.058Z" fill="black"/>
<path opacity="0.2" d="M225.196 377.995C209.945 376.259 188.387 372.418 186.23 364.438C182.872 351.969 199.212 344.493 222.495 339.039C219.794 341.206 217.36 342.459 215.501 342.12L225.196 377.995Z" fill="black"/>
<path opacity="0.2" d="M320.115 283.004C297.664 301.593 245.901 310.734 245.901 310.734C245.901 310.734 244.166 313.332 241.495 317.03C233.88 298.847 232.717 278.605 238.199 259.669C238.199 259.669 242.184 281.237 258.739 286.372C258.739 286.372 246.066 276.934 250.523 254.216C250.523 254.216 254.847 280.919 282.978 288.334C296.627 292.001 309.989 288.016 320.115 283.004Z" fill="black"/>
<path opacity="0.2" d="M110.866 285.427L110.25 279.676L90.613 285.674C90.613 285.674 91.6401 287.974 93.0574 291.199C85.5497 290.429 71.3047 297.362 68.8193 289.803C65.8203 280.641 84.2249 283.794 84.2249 283.794L101.623 273.678C98.3364 259.608 106.707 249.029 106.707 249.029L108.299 258.848C109.059 240.186 116.361 229.978 116.361 229.978C110.322 244.736 110.486 281.104 110.866 285.427Z" fill="black"/>
<path opacity="0.2" d="M109.264 320.408L90.6644 342.141L85.1698 338.299C84.4663 338.82 83.7248 339.287 82.9514 339.696C79.3362 341.658 71.7566 344.544 63.4376 340.138C69.4663 331.798 81.9243 319.525 96.7239 314.791C93.0909 320.198 89.8178 325.838 86.926 331.675L90.7466 335.434C90.7466 335.434 100.277 324.568 109.264 320.408Z" fill="black"/>
<path opacity="0.2" d="M154.423 224.688C154.423 226.609 153.211 248.31 169.027 254.093C184.844 259.875 198.873 250.097 198.873 250.097C198.873 250.097 174.625 273.493 159.846 260.984C145.067 248.475 154.423 224.688 154.423 224.688Z" fill="black"/>
<path d="M108.555 390.76C108.555 390.76 107.703 380.798 108.34 378.682C108.874 376.895 111.421 374.574 111.421 374.574C111.421 374.574 110.076 354.383 110.938 349.176C111.678 344.708 115.806 331.716 115.806 331.716L110.24 279.604L90.6028 285.612C90.6028 285.612 98.9629 304.099 100.257 309.583C101.551 315.068 109.254 320.336 109.254 320.336L90.6542 342.058L85.1595 338.227C85.1595 338.227 68.9323 350.921 54.2765 331.942C39.6206 312.962 33.3249 297.505 35.379 279.306C37.433 261.107 119.134 205.164 135.341 205.739L159.445 211.07C159.959 210.638 161.376 209.529 162.454 209.58C166.84 209.806 166.953 214.9 166.953 214.9L220.975 223.671C220.975 223.671 226.583 220.868 227.558 220.909C228.262 220.958 228.943 221.182 229.538 221.56C230.133 221.938 230.625 222.459 230.968 223.076C230.968 223.076 244.957 214.705 249.455 216.646C264.244 223.035 337.934 258.847 327.007 275.465C311.488 299.087 245.871 310.703 245.871 310.703C245.871 310.703 224.046 343.568 215.45 342.048L229.51 393.492" stroke="#263238" stroke-linecap="round" stroke-linejoin="round"/>
<path d="M269.944 279.142C294.737 295.513 314.723 292.493 330.365 271.419C330.365 271.419 343.388 254.626 342.464 236.499C341.539 218.372 337.215 159.317 280.78 174.415C271.485 176.9 249.804 205.935 247.986 213.915C247.144 217.561 238.445 236.119 229.993 255.335" fill="#3757FF"/>
<path d="M269.944 279.142C294.737 295.513 314.723 292.493 330.365 271.419C330.365 271.419 343.388 254.626 342.464 236.499C341.539 218.372 337.215 159.317 280.78 174.415C271.485 176.9 249.804 205.935 247.986 213.915C247.144 217.561 238.445 236.119 229.993 255.335" stroke="#263238" stroke-linecap="round" stroke-linejoin="round"/>
<path d="M202.869 105.644C202.869 105.644 218.664 103.251 229.633 113.069C243.509 125.486 259.089 158.968 236.905 214.448C236.905 214.448 204.132 192.696 148.199 207.259C148.199 207.259 153.016 194.247 144.564 153.278C140.743 134.74 150.356 92.0357 202.869 105.644Z" fill="#263238"/>
<path d="M178.928 244.87C202.304 248.659 227.137 222.778 227.137 222.778C227.137 222.778 214.433 221.217 213.293 215.25C209.647 196.424 224.313 173.141 224.313 173.141C224.313 173.141 167.559 174.712 177.48 187.52C179.326 189.863 180.837 192.452 181.968 195.212C185.409 203.665 182.995 210.043 181.198 211.645C181.067 211.751 180.926 211.844 180.777 211.922C177.347 213.483 163.245 211.152 163.245 211.152C163.245 211.152 157.597 241.408 178.928 244.87Z" fill="white" stroke="#263238" stroke-linecap="round" stroke-linejoin="round"/>
<path d="M219.096 229.947C219.096 229.947 208.312 234.261 192.526 232.977L185.419 236.459" stroke="#263238" stroke-linecap="round" stroke-linejoin="round"/>
<path d="M178.333 235.914L177.819 231.251C177.819 231.251 166.172 227.605 162.568 220.683" stroke="#263238" stroke-linecap="round" stroke-linejoin="round"/>
<path d="M181.198 211.675C198.575 216.215 206.74 193.928 206.74 193.928C206.74 193.928 192.834 189.82 181.968 195.284C185.409 203.736 183.026 210.114 181.198 211.675Z" fill="#263238"/>
<path d="M225.32 161.443C229.541 137.708 224.847 109.229 188.716 111.591C162.906 113.275 163.122 141.57 164.827 150.023C167.703 164.227 163.584 169.814 168.011 181.748C171.195 190.324 178.579 199.916 187.278 203.511C192.629 205.719 214.289 190.519 215.891 183.566" fill="white"/>
<path d="M225.32 161.443C229.541 137.708 224.847 109.229 188.716 111.591C162.906 113.275 163.122 141.57 164.827 150.023C167.703 164.227 163.584 169.814 168.011 181.748C171.195 190.324 178.579 199.916 187.278 203.511C192.629 205.719 214.289 190.519 215.891 183.566" stroke="#263238" stroke-linecap="round" stroke-linejoin="round"/>
<path d="M179.924 154.449C179.709 157.119 179.39 163.692 173.762 168.581C170.106 171.734 178.487 174.959 178.487 174.959" stroke="#263238" stroke-linecap="round" stroke-linejoin="round"/>
<path d="M173.927 145.031C173.927 145.031 165.957 141.149 160.575 147.558" stroke="#263238" stroke-linecap="round" stroke-linejoin="round"/>
<path d="M187.299 144.508C192.902 142.883 198.881 143.121 204.337 145.186" stroke="#263238" stroke-linecap="round" stroke-linejoin="round"/>
<path d="M195.576 155.732C195.823 158.023 197.364 159.738 199.017 159.553C200.671 159.368 201.811 157.376 201.564 155.085C201.318 152.795 199.777 151.09 198.124 151.265C196.47 151.439 195.33 153.442 195.576 155.732Z" fill="#263238"/>
<path d="M178.877 182.508C185.213 181.633 191.289 179.413 196.696 175.996C196.696 175.996 197.446 185.958 189.106 188.023C182.708 189.615 180.233 182.312 180.233 182.312" stroke="#263238" stroke-linecap="round" stroke-linejoin="round"/>
<path d="M202.314 120.628C202.314 120.628 200.034 148.759 224.857 158.978L236.494 131.936L218.89 112.422L192.382 104.761C152.769 107.236 135.721 131.844 157.71 197.42C157.71 197.451 151.558 119.355 202.314 120.628Z" fill="#263238"/>
<path d="M219.414 160.17C219.065 157.006 227.066 148.954 229.767 154.12C234.378 162.932 231.02 170.553 226.254 173.634C224.118 174.98 221.407 177.506 219.507 175.123" fill="white"/>
<path d="M219.414 160.17C219.065 157.006 227.066 148.954 229.767 154.12C234.378 162.932 231.02 170.553 226.254 173.634C224.118 174.98 221.407 177.506 219.507 175.123" stroke="#263238" stroke-linecap="round" stroke-linejoin="round"/>
<path d="M171.4 156.832C171.657 159.122 173.197 160.837 174.851 160.652C176.504 160.468 177.644 158.475 177.398 156.185C177.151 153.895 175.601 152.179 173.947 152.364C172.294 152.549 171.143 154.49 171.4 156.832Z" fill="#263238"/>
<g opacity="0.2">
<path d="M154.197 152.17C153.899 154.07 153.694 156.001 153.581 157.921" stroke="white" stroke-linecap="round" stroke-linejoin="round"/>
<path d="M198.206 115.514C178.137 114.99 159.486 127.777 155.07 147.855" stroke="white" stroke-linecap="round" stroke-linejoin="round"/>
<path d="M194.621 109.783C194.621 109.783 165.679 102.973 154.834 122.169" stroke="white" stroke-linecap="round" stroke-linejoin="round"/>
<path d="M218.099 143.224C219.845 145.708 221.945 147.922 224.334 149.797" stroke="white" stroke-linecap="round" stroke-linejoin="round"/>
<path d="M206.617 113.532C208.096 122.726 211.206 131.581 215.799 139.681" stroke="white" stroke-linecap="round" stroke-linejoin="round"/>
<path d="M235.693 200.583C235.179 202.884 234.573 205.164 233.895 207.423" stroke="white" stroke-linecap="round" stroke-linejoin="round"/>
<path d="M234.019 162.337C238.712 172.761 238.394 185.733 236.463 196.702" stroke="white" stroke-linecap="round" stroke-linejoin="round"/>
<path d="M230.578 180.454C230.807 184.402 230.198 188.354 228.791 192.05C227.383 195.746 225.21 199.103 222.413 201.899" stroke="white" stroke-linecap="round" stroke-linejoin="round"/>
<path d="M217.237 116.891C222.156 123.546 225.812 130.684 231.513 136.764C237.521 143.162 243.529 150.495 244.659 159.513" stroke="white" stroke-linecap="round" stroke-linejoin="round"/>
<path d="M210.294 109.968C211.703 110.892 212.999 111.977 214.156 113.203" stroke="white" stroke-linecap="round" stroke-linejoin="round"/>
</g>
<path d="M309.29 264.414C308.715 264.537 308.14 264.64 307.544 264.722C292.015 266.941 274.597 254.062 268.722 238.605C264.08 226.393 268.137 212.538 270.355 206.612C271.054 204.753 271.557 203.675 271.557 203.675C280.923 190.324 335.377 216.462 336.014 230.881C336.651 245.301 325.199 260.922 309.29 264.414Z" fill="#263238" stroke="#263238" stroke-linecap="round" stroke-linejoin="round"/>
<path d="M326.329 232.833C326.329 232.833 323.248 255.756 307.544 264.722C292.015 266.941 274.597 254.062 268.722 238.605C264.08 226.393 268.137 212.539 270.355 206.613C288.708 196.126 326.329 232.833 326.329 232.833Z" fill="white"/>
<mask id="mask1_367_1380" style="mask-type:luminance" maskUnits="userSpaceOnUse" x="266" y="204" width="61" height="61">
<path d="M326.329 232.833C326.329 232.833 323.248 255.756 307.544 264.722C292.015 266.941 274.597 254.062 268.722 238.605C264.08 226.393 268.137 212.539 270.355 206.613C288.708 196.126 326.329 232.833 326.329 232.833Z" fill="white"/>
</mask>
<g mask="url(#mask1_367_1380)">
<path opacity="0.4" d="M326.329 232.833C326.329 232.833 323.248 255.756 307.544 264.722C292.015 266.941 274.597 254.062 268.722 238.605C264.08 226.393 268.137 212.539 270.355 206.613C288.708 196.126 326.329 232.833 326.329 232.833Z" fill="#3757FF"/>
</g>
<path d="M326.329 232.833C326.329 232.833 323.248 255.756 307.544 264.722C292.015 266.941 274.597 254.062 268.722 238.605C264.08 226.393 268.137 212.539 270.355 206.613C288.708 196.126 326.329 232.833 326.329 232.833Z" stroke="#263238" stroke-linecap="round" stroke-linejoin="round"/>
<path d="M262.108 244.901C262.108 244.901 279.794 270.289 300.447 272.405C321.101 274.521 334.34 257.123 335.151 244.007" stroke="#263238" stroke-linecap="round" stroke-linejoin="round"/>
<path d="M252.166 130.334C253.717 125.99 264.871 127.448 268.414 141.005C271.957 154.562 285.874 187.52 285.874 187.52C285.874 187.52 341.334 105.963 351.235 102.82C361.135 99.6772 357.243 113.809 343.963 133.415C343.963 133.415 356.401 131.228 359.667 133.415C362.933 135.603 361.341 148.821 363.076 153.402C365.993 161.135 359.512 162.768 359.512 162.768C362.692 162.839 365.749 164.004 368.17 166.065C371.734 169.403 369.947 183.196 370.964 187.099C371.981 191.002 365.182 194.288 365.182 194.288C365.182 194.288 381.522 203.192 377.835 205.431C371.611 209.19 368.068 205.339 368.068 205.339C368.068 205.339 342.957 236.869 324.018 243.894C305.079 250.919 268.219 223.004 264.255 207.804C260.29 192.604 265.025 193.538 262.016 168.242C259.006 142.946 252.166 130.334 252.166 130.334Z" fill="white" stroke="#263238" stroke-linecap="round" stroke-linejoin="round"/>
<path d="M333.023 80.2226L259.997 99.2582C257.406 99.9335 255.853 102.581 256.528 105.172L291.048 237.6C291.723 240.19 294.371 241.743 296.962 241.068L369.988 222.032C372.579 221.357 374.132 218.709 373.456 216.118L338.937 83.6907C338.261 81.1 335.614 79.5473 333.023 80.2226Z" fill="white" stroke="#263238" stroke-linecap="round" stroke-linejoin="round"/>
<path d="M291.184 95.4459C291.223 95.5962 291.232 95.7529 291.21 95.9068C291.189 96.0607 291.138 96.2088 291.059 96.3428C290.98 96.4768 290.876 96.594 290.752 96.6877C290.628 96.7814 290.487 96.8497 290.336 96.8888C290.186 96.928 290.029 96.9371 289.875 96.9157C289.722 96.8942 289.573 96.8427 289.439 96.764C289.305 96.6854 289.188 96.5811 289.095 96.4571C289.001 96.3331 288.932 96.1919 288.893 96.0415C288.852 95.8911 288.84 95.7339 288.86 95.5791C288.88 95.4243 288.931 95.2751 289.01 95.1401C289.088 95.0052 289.193 94.8873 289.317 94.7935C289.442 94.6996 289.584 94.6315 289.736 94.5934C290.041 94.5153 290.364 94.5611 290.635 94.7208C290.907 94.8806 291.104 95.1412 291.184 95.4459Z" fill="#92E3A9" stroke="#263238" stroke-linecap="round" stroke-linejoin="round"/>
<path d="M306.23 91.5223C306.254 91.6167 306.26 91.7151 306.247 91.8117C306.233 91.9084 306.201 92.0014 306.151 92.0854C306.101 92.1694 306.036 92.2428 305.957 92.3012C305.879 92.3597 305.79 92.4021 305.696 92.4261C305.554 92.4619 305.405 92.455 305.268 92.4063C305.13 92.3575 305.01 92.2692 304.922 92.1523C304.835 92.0354 304.784 91.8952 304.776 91.7494C304.768 91.6036 304.803 91.4587 304.878 91.333C304.952 91.2073 305.062 91.1064 305.193 91.043C305.325 90.9796 305.472 90.9566 305.617 90.9769C305.761 90.9971 305.897 91.0597 306.006 91.1568C306.115 91.2538 306.193 91.381 306.23 91.5223Z" fill="#92E3A9" stroke="#263238" stroke-linecap="round" stroke-linejoin="round"/>
<path d="M302.635 93.375L293.818 95.6473C293.642 95.6927 293.536 95.8722 293.581 96.0483L293.628 96.2276C293.673 96.4037 293.852 96.5096 294.028 96.4642L302.845 94.1919C303.021 94.1465 303.127 93.967 303.082 93.791L303.035 93.6116C302.99 93.4356 302.811 93.3296 302.635 93.375Z" fill="#92E3A9" stroke="#263238" stroke-width="1.0017" stroke-linecap="round" stroke-linejoin="round"/>
<path d="M336.743 85.0623L370.974 216.4C371.165 217.137 371.056 217.919 370.671 218.576C370.286 219.232 369.656 219.709 368.92 219.902L296.832 238.687C296.095 238.877 295.313 238.768 294.657 238.383C294 237.998 293.523 237.369 293.33 236.633L259.099 105.295C258.908 104.558 259.017 103.776 259.402 103.119C259.787 102.463 260.417 101.986 261.153 101.793L275.953 97.931C276.427 97.8064 276.929 97.8302 277.39 97.9991C277.851 98.168 278.249 98.474 278.53 98.8759L279.609 100.406C279.891 100.808 280.289 101.114 280.75 101.283C281.21 101.452 281.712 101.476 282.187 101.351L314.672 92.8883C315.142 92.7655 315.564 92.5038 315.883 92.1373C316.202 91.7708 316.402 91.3167 316.459 90.8342L316.654 88.9753C316.708 88.4918 316.908 88.0363 317.227 87.6693C317.546 87.3024 317.97 87.0414 318.441 86.9212L333.241 83.0595C333.971 82.867 334.747 82.969 335.402 83.3437C336.057 83.7184 336.539 84.3356 336.743 85.0623Z" fill="#3757FF" stroke="#263238" stroke-linecap="round" stroke-linejoin="round"/>
<path d="M339.254 158.762C345.952 143.336 338.876 125.4 323.45 118.702C308.023 112.004 290.087 119.08 283.389 134.507C276.691 149.933 283.767 167.869 299.194 174.567C314.62 181.265 332.556 174.189 339.254 158.762Z" fill="white" stroke="#263238" stroke-linecap="round" stroke-linejoin="round"/>
<path d="M298.743 164.124C299.003 164.736 299.481 165.23 300.084 165.511C300.687 165.792 301.373 165.839 302.009 165.644L312.022 162.758C312.044 162.973 312.086 163.186 312.146 163.395C312.297 163.918 312.551 164.406 312.891 164.832C313.232 165.257 313.652 165.611 314.13 165.874C314.607 166.137 315.131 166.303 315.673 166.363C316.215 166.423 316.763 166.376 317.286 166.224C317.809 166.072 318.298 165.819 318.723 165.479C319.148 165.138 319.503 164.717 319.765 164.24C320.028 163.763 320.194 163.238 320.254 162.697C320.314 162.155 320.267 161.607 320.115 161.084C320.052 160.876 319.973 160.674 319.879 160.478L329.883 157.592C330.536 157.417 331.1 157.004 331.463 156.433C331.826 155.863 331.962 155.177 331.844 154.511C331.781 154.149 331.642 153.804 331.436 153.499C331.231 153.195 330.963 152.937 330.651 152.743C330.338 152.549 329.989 152.423 329.625 152.374C329.26 152.325 328.89 152.353 328.537 152.457L327.695 151.943C325.87 150.852 324.526 149.108 323.936 147.065L322.036 140.481C321.254 137.77 319.516 135.434 317.145 133.905C314.774 132.375 311.929 131.757 309.136 132.162C309.616 131.657 309.915 131.007 309.989 130.314C310.062 129.621 309.906 128.923 309.543 128.328C309.181 127.733 308.632 127.274 307.983 127.021C307.333 126.769 306.619 126.737 305.949 126.931C305.28 127.125 304.693 127.534 304.279 128.095C303.866 128.656 303.648 129.337 303.66 130.034C303.672 130.731 303.913 131.404 304.346 131.951C304.779 132.497 305.38 132.885 306.055 133.056C303.451 134.193 301.35 136.242 300.148 138.817C298.945 141.392 298.723 144.317 299.523 147.044L301.444 153.699C301.785 154.862 301.87 156.085 301.693 157.284C301.516 158.482 301.08 159.628 300.417 160.642C300.069 160.747 299.747 160.923 299.471 161.16C299.195 161.396 298.971 161.687 298.813 162.015C298.656 162.342 298.568 162.699 298.556 163.062C298.544 163.425 298.608 163.787 298.743 164.124ZM308.613 129.554C308.714 129.905 308.709 130.278 308.598 130.627C308.487 130.975 308.276 131.283 307.99 131.511C307.704 131.739 307.357 131.877 306.993 131.908C306.629 131.939 306.264 131.862 305.943 131.685C305.623 131.508 305.363 131.241 305.195 130.916C305.027 130.592 304.959 130.225 304.999 129.861C305.04 129.498 305.187 129.155 305.422 128.875C305.658 128.596 305.971 128.392 306.322 128.29C306.556 128.222 306.8 128.2 307.042 128.226C307.284 128.252 307.518 128.326 307.731 128.444C307.944 128.561 308.132 128.72 308.283 128.91C308.434 129.101 308.546 129.32 308.613 129.554Z" fill="#3757FF" stroke="#263238" stroke-linecap="round" stroke-linejoin="round"/>
<path d="M318.061 160.642L313.645 161.926" stroke="#263238" stroke-linecap="round" stroke-linejoin="round"/>
<path d="M324.593 153.576L304.35 159.43" stroke="#263238" stroke-linecap="round" stroke-linejoin="round"/>
<path d="M345.74 194.483L304.658 205.184C303.484 205.494 302.259 205.569 301.055 205.405C299.852 205.242 298.692 204.842 297.643 204.23C296.593 203.617 295.675 202.804 294.94 201.836C294.206 200.869 293.669 199.766 293.361 198.591C293.051 197.415 292.977 196.19 293.141 194.986C293.306 193.782 293.706 192.622 294.319 191.572C294.933 190.523 295.747 189.605 296.716 188.871C297.685 188.136 298.789 187.6 299.965 187.293L341.046 176.592C343.412 175.982 345.922 176.333 348.03 177.568C350.137 178.804 351.669 180.823 352.292 183.185C352.919 185.552 352.581 188.071 351.353 190.189C350.124 192.307 348.106 193.852 345.74 194.483Z" fill="#263238"/>
<path d="M245.901 310.775C245.901 310.775 233.433 281.761 239.739 246.575" stroke="#263238" stroke-linecap="round" stroke-linejoin="round"/>
<path d="M215.481 342.12C215.481 342.12 190.277 349.822 187.751 355.625C185.224 361.428 199.048 356.539 199.048 356.539" stroke="#263238" stroke-linecap="round" stroke-linejoin="round"/>
<path d="M230.979 223.148C230.979 223.148 207.767 246.154 192.239 252.285" stroke="#263238" stroke-linecap="round" stroke-linejoin="round"/>
<path d="M154.926 216.965C154.926 216.965 150.695 248.023 166.481 253.887" stroke="#263238" stroke-linecap="round" stroke-linejoin="round"/>
<path d="M110.25 279.676C110.25 279.676 110.127 238.964 118.21 226.373" stroke="#263238" stroke-linecap="round" stroke-linejoin="round"/>
<path d="M107.231 238.194C107.231 238.194 104.961 263.48 110.065 271.727" stroke="#263238" stroke-linecap="round" stroke-linejoin="round"/>
<path d="M90.613 285.684C90.613 285.684 72.9582 279.604 69.3019 287.143C65.6457 294.681 79.8291 287.995 79.8291 287.995" stroke="#263238" stroke-linecap="round" stroke-linejoin="round"/>
<path d="M101.233 312.079C101.233 312.079 83.8962 321.846 83.0027 327.433" stroke="#263238" stroke-linecap="round" stroke-linejoin="round"/>
<path d="M129.548 285.068C129.548 285.068 162.732 335.218 181.044 330.617" stroke="#263238" stroke-linecap="round" stroke-linejoin="round"/>
<path d="M152.215 355.41C152.215 355.41 126.2 374.482 122.431 372.87" stroke="#263238" stroke-linecap="round" stroke-linejoin="round"/>
<path opacity="0.2" d="M334.442 274.027C336.199 272.589 337.359 271.634 337.739 271.336C337.349 271.675 336.219 272.661 334.442 274.027Z" fill="black"/>
<path d="M313.606 189.379C314.016 189.265 314.439 189.505 314.553 189.915L316.051 195.325C316.18 195.792 315.906 196.275 315.44 196.404V196.404C315.163 196.48 314.867 196.417 314.646 196.234L310.73 192.983C310.721 192.975 310.709 192.973 310.698 192.976V192.976C310.679 192.981 310.668 193 310.673 193.019L311.677 196.644C311.791 197.055 311.55 197.481 311.139 197.595V197.595C310.728 197.709 310.302 197.468 310.188 197.056L308.695 191.662C308.563 191.188 308.841 190.698 309.314 190.567V190.567C309.596 190.489 309.898 190.555 310.122 190.742L314.005 193.987C314.016 193.996 314.03 193.999 314.043 193.995V193.995C314.066 193.989 314.079 193.966 314.072 193.943L313.07 190.325C312.957 189.916 313.197 189.492 313.606 189.379V189.379ZM324.235 188.319C324.537 188.235 324.849 188.412 324.933 188.714V188.714C325.017 189.016 324.84 189.328 324.538 189.412L322.45 189.99C322.148 190.074 321.836 189.897 321.752 189.595V189.595C321.669 189.293 321.846 188.98 322.148 188.897L324.235 188.319ZM322.178 188.324C322.066 187.919 322.303 187.5 322.707 187.388V187.388C323.112 187.276 323.531 187.513 323.643 187.918L324.794 192.077C324.832 192.212 324.881 192.311 324.943 192.375C325.005 192.436 325.076 192.471 325.158 192.481C325.242 192.489 325.333 192.48 325.431 192.453C325.5 192.434 325.567 192.409 325.633 192.379V192.379C325.716 192.337 325.817 192.37 325.86 192.452L326.16 193.029C326.247 193.196 326.191 193.399 326.025 193.487V193.487C325.901 193.556 325.745 193.62 325.557 193.68C325.207 193.791 324.885 193.83 324.589 193.797C324.296 193.763 324.045 193.653 323.836 193.468C323.627 193.284 323.475 193.019 323.383 192.674L322.178 188.324ZM327.921 192.948C327.517 193.06 327.098 192.823 326.986 192.418L325.939 188.636C325.827 188.231 326.064 187.812 326.468 187.7V187.7C326.873 187.588 327.291 187.826 327.403 188.23L328.451 192.013C328.563 192.417 328.326 192.836 327.921 192.948V192.948ZM326.284 187.023C326.067 187.083 325.86 187.063 325.664 186.963C325.47 186.86 325.345 186.707 325.289 186.504C325.234 186.304 325.263 186.111 325.377 185.925C325.492 185.736 325.659 185.611 325.877 185.551C326.094 185.49 326.3 185.512 326.494 185.615C326.69 185.716 326.815 185.866 326.871 186.066C326.927 186.269 326.897 186.465 326.782 186.654C326.668 186.84 326.502 186.963 326.284 187.023ZM330.668 186.538C330.969 186.454 331.282 186.631 331.366 186.933V186.933C331.449 187.235 331.272 187.547 330.97 187.631L328.804 188.231C328.502 188.314 328.189 188.137 328.106 187.836V187.836C328.022 187.534 328.199 187.221 328.501 187.138L330.668 186.538ZM330.884 192.127C330.481 192.239 330.063 192.002 329.951 191.599L328.596 186.703C328.49 186.323 328.477 185.987 328.557 185.695C328.639 185.403 328.793 185.158 329.02 184.96C329.247 184.762 329.526 184.617 329.858 184.525C330.083 184.463 330.293 184.424 330.488 184.406V184.406C330.737 184.384 330.94 184.578 330.949 184.828L330.966 185.32C330.971 185.443 330.87 185.545 330.747 185.556V185.556C330.66 185.563 330.573 185.578 330.486 185.602C330.271 185.662 330.134 185.754 330.077 185.877C330.02 185.999 330.015 186.148 330.065 186.326L331.413 191.194C331.524 191.598 331.288 192.016 330.884 192.127V192.127ZM335.011 193.103C334.825 193.155 334.647 193.188 334.476 193.203V193.203C334.234 193.228 334.053 193.022 334.059 192.779L334.065 192.521C334.072 192.25 334.301 192.051 334.565 191.987V191.987C334.706 191.953 334.818 191.888 334.9 191.792C334.984 191.695 335.035 191.555 335.054 191.374V191.374C335.07 191.215 335.029 191.056 334.938 190.925L332.284 187.109C331.993 186.692 332.203 186.113 332.693 185.977V185.977C333.01 185.889 333.348 186.023 333.52 186.304L335.375 189.354C335.384 189.369 335.402 189.376 335.418 189.371V189.371C335.434 189.367 335.446 189.352 335.446 189.335L335.477 185.764C335.48 185.433 335.702 185.144 336.021 185.055V185.055C336.515 184.919 336.996 185.311 336.96 185.822L336.59 191.158C336.57 191.468 336.504 191.751 336.392 192.007C336.283 192.265 336.116 192.487 335.891 192.672C335.667 192.859 335.373 193.003 335.011 193.103Z" fill="white"/>
<path d="M322.421 192.864L321.81 192.191C321.651 192.013 321.534 191.802 321.467 191.573L321.109 190.33C320.952 189.802 320.624 189.342 320.176 189.022C319.728 188.703 319.186 188.542 318.636 188.565C318.633 188.54 318.628 188.515 318.623 188.491C318.601 188.416 318.564 188.346 318.515 188.285C318.465 188.224 318.405 188.173 318.336 188.136C318.267 188.098 318.192 188.075 318.114 188.066C318.036 188.058 317.957 188.065 317.882 188.087C317.807 188.109 317.737 188.146 317.676 188.195C317.615 188.244 317.564 188.305 317.526 188.374C317.489 188.443 317.465 188.518 317.457 188.596C317.449 188.674 317.456 188.753 317.478 188.828C317.485 188.852 317.494 188.875 317.506 188.897C317.031 189.175 316.662 189.604 316.458 190.115C316.254 190.626 316.227 191.191 316.38 191.719L316.744 192.959C316.811 193.188 316.827 193.428 316.789 193.663L316.643 194.56C316.629 194.648 316.638 194.738 316.668 194.822C316.698 194.906 316.749 194.98 316.815 195.039C316.882 195.098 316.963 195.139 317.05 195.159C317.137 195.178 317.227 195.175 317.312 195.15L322.181 193.719C322.266 193.694 322.343 193.647 322.405 193.584C322.467 193.52 322.512 193.443 322.536 193.357C322.56 193.272 322.562 193.182 322.542 193.096C322.522 193.01 322.48 192.93 322.421 192.864Z" fill="white"/>
<path d="M319.283 194.915C319.246 194.926 319.212 194.946 319.185 194.973C319.158 195.001 319.137 195.034 319.126 195.071C319.115 195.108 319.112 195.147 319.12 195.185C319.127 195.223 319.144 195.258 319.168 195.288C319.274 195.421 319.417 195.519 319.579 195.57C319.741 195.621 319.915 195.623 320.078 195.575C320.241 195.527 320.386 195.432 320.495 195.301C320.603 195.17 320.67 195.01 320.688 194.841C320.692 194.803 320.687 194.764 320.672 194.729C320.658 194.693 320.635 194.661 320.606 194.636C320.576 194.612 320.541 194.594 320.504 194.586C320.466 194.578 320.427 194.58 320.39 194.59L319.283 194.915Z" fill="white"/>
</svg>
