<svg width="390" height="481" viewBox="0 0 390 481" fill="none" xmlns="http://www.w3.org/2000/svg">
<path opacity="0.7" d="M-105.035 5.21741C-105.035 5.21741 -148.524 117.526 -87.4093 230.614C-26.2949 343.702 99.5839 403.444 200.334 454.528C301.084 505.613 405.702 480.734 455.414 397.064C505.126 313.394 436.945 253.668 436.852 134.356C436.758 15.0444 454.712 -16.5423 390.057 -117.339C325.401 -218.136 166.906 -240.457 47.0486 -165.694C-72.8092 -90.9309 -105.035 5.21741 -105.035 5.21741Z" fill="#D9E5FF"/>
<path d="M-115.44 32.3119C-56.4465 -26.6656 -6.48499 22.8124 14.5728 -56.3805C62.1166 -235.278 259.311 -233.578 285.236 -106.28C331.953 123.016 535.433 -22.5944 533.92 141.625C532.36 316.966 403.362 453.592 172.038 467.179C-35.2172 479.423 -213.194 130.036 -115.44 32.3119Z" fill="#D9E5FF"/>
<path opacity="0.7" d="M-115.44 32.3119C-56.4465 -26.6656 -6.48499 22.8124 14.5728 -56.3805C62.1166 -235.278 259.311 -233.578 285.236 -106.28C331.953 123.016 535.433 -22.5944 533.92 141.625C532.36 316.966 403.362 453.592 172.038 467.179C-35.2172 479.423 -213.194 130.036 -115.44 32.3119Z" fill="#D9E5FF"/>
<path d="M119.099 374.644C119.099 374.644 107.209 382.734 102.419 382.194C101.893 382.167 101.393 381.954 101.009 381.594C97.8888 378.374 95.3788 372.714 95.3788 372.714C95.3788 372.714 96.8688 370.654 101.459 376.124L104.369 373.454L98.3688 367.394C98.3688 367.394 101.759 364.704 107.519 368.134C107.319 367.714 103.609 359.634 106.409 348.634L92.4088 335.124L104.829 324.304L105.829 323.464C105.829 323.464 106.609 324.234 107.829 325.464C109.049 326.694 110.739 328.174 112.569 329.784C116.949 333.634 122.249 337.784 124.569 337.784C128.749 337.644 119.099 374.644 119.099 374.644Z" fill="white"/>
<mask id="mask0_367_1380" style="mask-type:luminance" maskUnits="userSpaceOnUse" x="92" y="323" width="34" height="60">
<path d="M119.099 374.644C119.099 374.644 107.209 382.734 102.419 382.194C101.893 382.167 101.393 381.954 101.009 381.594C97.8888 378.374 95.3788 372.714 95.3788 372.714C95.3788 372.714 96.8688 370.654 101.459 376.124L104.369 373.454L98.3688 367.394C98.3688 367.394 101.759 364.704 107.519 368.134C107.319 367.714 103.609 359.634 106.409 348.634L92.4088 335.124L104.829 324.304L105.829 323.464C105.829 323.464 106.609 324.234 107.829 325.464C109.049 326.694 110.739 328.174 112.569 329.784C116.949 333.634 122.249 337.784 124.569 337.784C128.749 337.644 119.099 374.644 119.099 374.644Z" fill="white"/>
</mask>
<g mask="url(#mask0_367_1380)">
<path opacity="0.4" d="M109.909 369.344C109.909 369.344 103.129 376.344 102.419 382.194C101.893 382.167 101.393 381.954 101.009 381.594C97.8888 378.374 95.3788 372.714 95.3788 372.714C95.3788 372.714 96.8688 370.654 101.459 376.124L104.369 373.454L98.3688 367.394C98.3688 367.394 101.759 364.704 107.519 368.134C107.319 367.714 103.609 359.634 106.409 348.634L92.4088 335.124L104.829 324.304L107.829 325.434C109.059 326.594 110.739 328.144 112.569 329.754C109.939 333.604 104.309 341.574 104.309 341.574L109.179 348.174C109.179 348.174 106.179 364.814 109.909 369.344Z" fill="#92E3A9"/>
</g>
<path d="M119.099 374.644C119.099 374.644 107.209 382.734 102.419 382.194C101.893 382.167 101.393 381.954 101.009 381.594C97.8888 378.374 95.3788 372.714 95.3788 372.714C95.3788 372.714 96.8688 370.654 101.459 376.124L104.369 373.454L98.3688 367.394C98.3688 367.394 101.759 364.704 107.519 368.134C107.319 367.714 103.609 359.634 106.409 348.634L92.4088 335.124L104.829 324.304L105.829 323.464C105.829 323.464 106.609 324.234 107.829 325.464C109.049 326.694 110.739 328.174 112.569 329.784C116.949 333.634 122.249 337.784 124.569 337.784C128.749 337.644 119.099 374.644 119.099 374.644Z" stroke="#263238" stroke-linecap="round" stroke-linejoin="round"/>
<path d="M104.409 373.454C105.068 371.484 106.134 369.675 107.539 368.144" stroke="#263238" stroke-linecap="round" stroke-linejoin="round"/>
<path d="M326.199 280.464C324.323 283.2 322.055 285.646 319.469 287.724C297.609 305.824 247.209 314.724 247.209 314.724C247.209 314.724 245.519 317.254 242.919 320.854C238.259 327.324 230.629 337.264 224.409 342.244C221.779 344.354 219.409 345.574 217.599 345.244L227.059 380.174L231.289 395.334C231.289 395.334 187.829 414.334 113.499 392.614C113.499 392.614 112.649 382.914 113.279 380.844C113.279 380.744 113.339 380.644 113.379 380.534C114.136 379.156 115.123 377.918 116.299 376.874C116.299 376.874 115.879 370.634 115.669 364.284C115.429 360.236 115.479 356.175 115.819 352.134C116.349 348.934 118.689 341.194 119.869 337.394L120.559 335.184L116.859 300.544L115.799 290.544L115.739 290.024C115.739 289.954 115.739 289.874 115.739 289.774L115.159 284.424L96.0388 290.264C96.0388 290.264 97.0388 292.504 98.4188 295.644C100.929 301.394 104.619 310.144 105.419 313.644C105.479 313.929 105.559 314.21 105.659 314.484C107.429 319.534 114.169 324.124 114.169 324.124L96.0588 345.284L90.7088 341.544C90.0239 342.051 89.3019 342.505 88.5488 342.904C85.0288 344.814 77.6488 347.624 69.5488 343.334C66.0388 341.361 62.9908 338.661 60.6088 335.414C46.4088 316.974 40.2288 301.884 42.2388 284.214C44.2488 266.544 123.769 212.014 139.549 212.584L163.019 217.764C163.529 217.344 164.899 216.264 165.959 216.314C170.229 216.534 170.339 221.494 170.339 221.494L222.939 230.034C222.939 230.034 228.389 227.304 229.339 227.344C230.026 227.39 230.69 227.608 231.272 227.976C231.853 228.345 232.334 228.853 232.669 229.454C232.669 229.454 246.289 221.294 250.669 223.194C265.089 229.414 336.849 264.284 326.199 280.464Z" fill="#3757FF"/>
<path opacity="0.2" d="M143.459 366.884C137.482 373.455 129.456 377.808 120.689 379.234C117.919 379.674 115.489 380.114 113.359 380.554C114.116 379.176 115.103 377.938 116.279 376.894C116.279 376.894 115.859 370.654 115.649 364.304C121.819 368.374 132.579 373.074 143.459 366.884Z" fill="black"/>
<path opacity="0.2" d="M119.849 337.444L120.539 335.234L116.839 300.594C122.369 308.524 142.089 335.534 155.679 338.454C169.889 341.494 131.899 346.884 119.849 337.444Z" fill="black"/>
<path opacity="0.2" d="M227.039 380.224C212.189 378.534 191.199 374.794 189.099 367.024C185.829 354.884 201.739 347.604 224.409 342.294C221.779 344.404 219.409 345.624 217.599 345.294L227.039 380.224Z" fill="black"/>
<path opacity="0.2" d="M319.459 287.734C297.599 305.834 247.199 314.734 247.199 314.734C247.199 314.734 245.509 317.264 242.909 320.864C235.494 303.16 234.361 283.451 239.699 265.014C239.699 265.014 243.579 286.014 259.699 291.014C259.699 291.014 247.359 281.824 251.699 259.704C251.699 259.704 255.909 285.704 283.299 292.924C296.589 296.494 309.599 292.614 319.459 287.734Z" fill="black"/>
<path opacity="0.2" d="M115.719 290.094L115.119 284.494L95.9988 290.334C95.9988 290.334 96.9988 292.574 98.3788 295.714C91.0688 294.964 77.1988 301.714 74.7788 294.354C71.8588 285.434 89.7788 288.504 89.7788 288.504L106.719 278.654C103.519 264.954 111.669 254.654 111.669 254.654L113.219 264.214C113.959 246.044 121.069 236.104 121.069 236.104C115.189 250.474 115.349 285.884 115.719 290.094Z" fill="black"/>
<path opacity="0.2" d="M114.159 324.154L96.0488 345.314L90.6988 341.574C90.0139 342.081 89.2919 342.536 88.5388 342.934C85.0188 344.844 77.6388 347.654 69.5388 343.364C75.4088 335.244 87.5388 323.294 101.949 318.684C98.4114 323.949 95.2245 329.441 92.4088 335.124L96.1288 338.784C96.1288 338.784 105.409 328.204 114.159 324.154Z" fill="black"/>
<path opacity="0.2" d="M158.129 230.954C158.129 232.824 156.949 253.954 172.349 259.584C187.749 265.214 201.409 255.694 201.409 255.694C201.409 255.694 177.799 278.474 163.409 266.294C149.019 254.114 158.129 230.954 158.129 230.954Z" fill="black"/>
<path d="M113.469 392.654C113.469 392.654 112.639 382.954 113.259 380.894C113.779 379.154 116.259 376.894 116.259 376.894C116.259 376.894 114.949 357.234 115.789 352.164C116.509 347.814 120.529 335.164 120.529 335.164L115.109 284.424L95.9888 290.274C95.9888 290.274 104.129 308.274 105.389 313.614C106.649 318.954 114.149 324.084 114.149 324.084L96.0388 345.234L90.6888 341.504C90.6888 341.504 74.8888 353.864 60.6188 335.384C46.3488 316.904 40.2188 301.854 42.2188 284.134C44.2188 266.414 123.769 211.944 139.549 212.504L163.019 217.694C163.519 217.274 164.899 216.194 165.949 216.244C170.219 216.464 170.329 221.424 170.329 221.424L222.929 229.964C222.929 229.964 228.389 227.234 229.339 227.274C230.024 227.322 230.686 227.54 231.266 227.909C231.846 228.277 232.325 228.784 232.659 229.384C232.659 229.384 246.279 221.234 250.659 223.124C265.059 229.344 336.809 264.214 326.169 280.394C311.059 303.394 247.169 314.704 247.169 314.704C247.169 314.704 225.919 346.704 217.549 345.224L231.239 395.314" stroke="#263238" stroke-linecap="round" stroke-linejoin="round"/>
<path d="M270.609 283.974C294.749 299.914 314.209 296.974 329.439 276.454C329.439 276.454 342.119 260.104 341.219 242.454C340.319 224.804 336.109 167.304 281.159 182.004C272.109 184.424 250.999 212.694 249.229 220.464C248.409 224.014 239.939 242.084 231.709 260.794" fill="#3757FF"/>
<path d="M270.609 283.974C294.749 299.914 314.209 296.974 329.439 276.454C329.439 276.454 342.119 260.104 341.219 242.454C340.319 224.804 336.109 167.304 281.159 182.004C272.109 184.424 250.999 212.694 249.229 220.464C248.409 224.014 239.939 242.084 231.709 260.794" stroke="#263238" stroke-linecap="round" stroke-linejoin="round"/>
<path d="M205.299 115.044C205.299 115.044 220.679 112.714 231.359 122.274C244.869 134.364 260.039 166.964 238.439 220.984C238.439 220.984 206.529 199.804 152.069 213.984C152.069 213.984 156.759 201.314 148.529 161.424C144.809 143.374 154.169 101.794 205.299 115.044Z" fill="#263238"/>
<path d="M181.989 250.604C204.749 254.294 228.929 229.094 228.929 229.094C228.929 229.094 216.559 227.574 215.449 221.764C211.899 203.434 226.179 180.764 226.179 180.764C226.179 180.764 170.919 182.294 180.579 194.764C182.376 197.046 183.847 199.567 184.949 202.254C188.299 210.484 185.949 216.694 184.199 218.254C184.072 218.358 183.934 218.448 183.789 218.524C180.449 220.044 166.719 217.774 166.719 217.774C166.719 217.774 161.219 247.234 181.989 250.604Z" fill="white" stroke="#263238" stroke-linecap="round" stroke-linejoin="round"/>
<path d="M221.099 236.074C221.099 236.074 210.599 240.274 195.229 239.024L188.309 242.414" stroke="#263238" stroke-linecap="round" stroke-linejoin="round"/>
<path d="M181.409 241.884L180.909 237.344C180.909 237.344 169.569 233.794 166.059 227.054" stroke="#263238" stroke-linecap="round" stroke-linejoin="round"/>
<path d="M184.199 218.284C201.119 222.704 209.069 201.004 209.069 201.004C209.069 201.004 195.529 197.004 184.949 202.324C188.299 210.554 185.979 216.764 184.199 218.284Z" fill="#263238"/>
<path d="M227.159 169.374C231.269 146.264 226.699 118.534 191.519 120.834C166.389 122.474 166.599 150.024 168.259 158.254C171.059 172.084 167.049 177.524 171.359 189.144C174.459 197.494 181.649 206.834 190.119 210.334C195.329 212.484 216.419 197.684 217.979 190.914" fill="white"/>
<path d="M227.159 169.374C231.269 146.264 226.699 118.534 191.519 120.834C166.389 122.474 166.599 150.024 168.259 158.254C171.059 172.084 167.049 177.524 171.359 189.144C174.459 197.494 181.649 206.834 190.119 210.334C195.329 212.484 216.419 197.684 217.979 190.914" stroke="#263238" stroke-linecap="round" stroke-linejoin="round"/>
<path d="M182.959 162.564C182.749 165.164 182.439 171.564 176.959 176.324C173.399 179.394 181.559 182.534 181.559 182.534" stroke="#263238" stroke-linecap="round" stroke-linejoin="round"/>
<path d="M177.119 153.394C177.119 153.394 169.359 149.614 164.119 155.854" stroke="#263238" stroke-linecap="round" stroke-linejoin="round"/>
<path d="M190.139 152.884C195.594 151.302 201.416 151.534 206.729 153.544" stroke="#263238" stroke-linecap="round" stroke-linejoin="round"/>
<path d="M198.199 163.814C198.439 166.044 199.939 167.714 201.549 167.534C203.159 167.354 204.269 165.414 204.029 163.184C203.789 160.954 202.289 159.294 200.679 159.464C199.069 159.634 197.959 161.584 198.199 163.814Z" fill="#263238"/>
<path d="M181.939 189.884C188.108 189.033 194.024 186.871 199.289 183.544C199.289 183.544 200.019 193.244 191.899 195.254C185.669 196.804 183.259 189.694 183.259 189.694" stroke="#263238" stroke-linecap="round" stroke-linejoin="round"/>
<path d="M204.759 129.634C204.759 129.634 202.539 157.024 226.709 166.974L238.039 140.644L220.899 121.644L195.089 114.184C156.519 116.594 139.919 140.554 161.329 204.404C161.329 204.434 155.339 128.394 204.759 129.634Z" fill="#263238"/>
<path d="M221.409 168.134C221.069 165.054 228.859 157.214 231.489 162.244C235.979 170.824 232.709 178.244 228.069 181.244C225.989 182.554 223.349 185.014 221.499 182.694" fill="white"/>
<path d="M221.409 168.134C221.069 165.054 228.859 157.214 231.489 162.244C235.979 170.824 232.709 178.244 228.069 181.244C225.989 182.554 223.349 185.014 221.499 182.694" stroke="#263238" stroke-linecap="round" stroke-linejoin="round"/>
<path d="M174.659 164.884C174.909 167.114 176.409 168.784 178.019 168.604C179.629 168.424 180.739 166.484 180.499 164.254C180.259 162.024 178.749 160.354 177.139 160.534C175.529 160.714 174.409 162.604 174.659 164.884Z" fill="#263238"/>
<g opacity="0.2">
<path d="M157.909 160.344C157.619 162.194 157.419 164.074 157.309 165.944" stroke="white" stroke-linecap="round" stroke-linejoin="round"/>
<path d="M200.759 124.654C181.219 124.144 163.059 136.594 158.759 156.144" stroke="white" stroke-linecap="round" stroke-linejoin="round"/>
<path d="M197.269 119.074C197.269 119.074 169.089 112.444 158.529 131.134" stroke="white" stroke-linecap="round" stroke-linejoin="round"/>
<path d="M220.129 151.634C221.828 154.053 223.873 156.209 226.199 158.034" stroke="white" stroke-linecap="round" stroke-linejoin="round"/>
<path d="M208.949 122.724C210.389 131.675 213.416 140.298 217.889 148.184" stroke="white" stroke-linecap="round" stroke-linejoin="round"/>
<path d="M237.259 207.484C236.759 209.724 236.169 211.944 235.509 214.144" stroke="white" stroke-linecap="round" stroke-linejoin="round"/>
<path d="M235.629 170.244C240.199 180.394 239.889 193.024 238.009 203.704" stroke="white" stroke-linecap="round" stroke-linejoin="round"/>
<path d="M232.279 187.884C232.502 191.729 231.909 195.576 230.539 199.175C229.168 202.774 227.052 206.042 224.329 208.764" stroke="white" stroke-linecap="round" stroke-linejoin="round"/>
<path d="M219.289 125.994C224.079 132.474 227.639 139.424 233.189 145.344C239.039 151.574 244.889 158.714 245.989 167.494" stroke="white" stroke-linecap="round" stroke-linejoin="round"/>
<path d="M212.529 119.254C213.901 120.153 215.163 121.211 216.289 122.404" stroke="white" stroke-linecap="round" stroke-linejoin="round"/>
</g>
<path d="M308.919 269.634C308.359 269.754 307.799 269.854 307.219 269.934C292.099 272.094 275.139 259.554 269.419 244.504C264.899 232.614 268.849 219.124 271.009 213.354C271.689 211.544 272.179 210.494 272.179 210.494C281.299 197.494 334.319 222.944 334.939 236.984C335.559 251.024 324.409 266.234 308.919 269.634Z" fill="#263238" stroke="#263238" stroke-linecap="round" stroke-linejoin="round"/>
<path d="M325.509 238.884C325.509 238.884 322.509 261.204 307.219 269.934C292.099 272.094 275.139 259.554 269.419 244.504C264.899 232.614 268.849 219.124 271.009 213.354C288.879 203.144 325.509 238.884 325.509 238.884Z" fill="white"/>
<mask id="mask1_367_1380" style="mask-type:luminance" maskUnits="userSpaceOnUse" x="267" y="211" width="59" height="60">
<path d="M325.509 238.884C325.509 238.884 322.509 261.204 307.219 269.934C292.099 272.094 275.139 259.554 269.419 244.504C264.899 232.614 268.849 219.124 271.009 213.354C288.879 203.144 325.509 238.884 325.509 238.884Z" fill="white"/>
</mask>
<g mask="url(#mask1_367_1380)">
<path opacity="0.4" d="M325.509 238.884C325.509 238.884 322.509 261.204 307.219 269.934C292.099 272.094 275.139 259.554 269.419 244.504C264.899 232.614 268.849 219.124 271.009 213.354C288.879 203.144 325.509 238.884 325.509 238.884Z" fill="#3757FF"/>
</g>
<path d="M325.509 238.884C325.509 238.884 322.509 261.204 307.219 269.934C292.099 272.094 275.139 259.554 269.419 244.504C264.899 232.614 268.849 219.124 271.009 213.354C288.879 203.144 325.509 238.884 325.509 238.884Z" stroke="#263238" stroke-linecap="round" stroke-linejoin="round"/>
<path d="M262.979 250.634C262.979 250.634 280.199 275.354 300.309 277.414C320.419 279.474 333.309 262.534 334.099 249.764" stroke="#263238" stroke-linecap="round" stroke-linejoin="round"/>
<path d="M253.299 139.084C254.809 134.854 265.669 136.274 269.119 149.474C272.569 162.674 286.119 194.764 286.119 194.764C286.119 194.764 340.119 115.354 349.759 112.294C359.399 109.234 355.609 122.994 342.679 142.084C342.679 142.084 354.789 139.954 357.969 142.084C361.149 144.214 359.599 157.084 361.289 161.544C364.129 169.074 357.819 170.664 357.819 170.664C360.914 170.734 363.891 171.867 366.249 173.874C369.719 177.124 367.979 190.554 368.969 194.354C369.959 198.154 363.339 201.354 363.339 201.354C363.339 201.354 379.249 210.024 375.659 212.204C369.599 215.864 366.149 212.114 366.149 212.114C366.149 212.114 341.699 242.814 323.259 249.654C304.819 256.494 268.929 229.314 265.069 214.514C261.209 199.714 265.819 200.624 262.889 175.994C259.959 151.364 253.299 139.084 253.299 139.084Z" fill="white" stroke="#263238" stroke-linecap="round" stroke-linejoin="round"/>
<path d="M332.027 90.2921L260.923 108.827C258.4 109.484 256.889 112.062 257.546 114.584L291.157 243.526C291.814 246.048 294.392 247.56 296.915 246.903L368.019 228.368C370.541 227.711 372.053 225.133 371.396 222.61L337.785 93.6689C337.127 91.1464 334.549 89.6345 332.027 90.2921Z" fill="white" stroke="#263238" stroke-linecap="round" stroke-linejoin="round"/>
<path d="M291.289 105.114C291.327 105.261 291.336 105.413 291.315 105.563C291.294 105.713 291.244 105.857 291.167 105.988C291.091 106.118 290.989 106.232 290.869 106.323C290.748 106.415 290.61 106.481 290.464 106.519C290.317 106.557 290.165 106.566 290.015 106.545C289.865 106.525 289.721 106.474 289.591 106.398C289.46 106.321 289.346 106.22 289.255 106.099C289.164 105.978 289.097 105.841 289.059 105.694C289.018 105.548 289.007 105.395 289.027 105.244C289.046 105.093 289.096 104.948 289.172 104.817C289.248 104.685 289.35 104.571 289.472 104.479C289.593 104.388 289.732 104.321 289.879 104.284C290.176 104.208 290.491 104.253 290.755 104.408C291.019 104.564 291.211 104.818 291.289 105.114Z" fill="#92E3A9" stroke="#263238" stroke-linecap="round" stroke-linejoin="round"/>
<path d="M305.939 101.294C305.963 101.386 305.968 101.482 305.955 101.576C305.942 101.67 305.91 101.761 305.862 101.843C305.814 101.924 305.75 101.996 305.674 102.053C305.598 102.11 305.511 102.151 305.419 102.174C305.281 102.209 305.136 102.203 305.002 102.155C304.868 102.108 304.751 102.022 304.666 101.908C304.581 101.794 304.531 101.657 304.523 101.515C304.516 101.374 304.55 101.232 304.622 101.11C304.695 100.988 304.802 100.889 304.93 100.828C305.058 100.766 305.201 100.744 305.342 100.763C305.483 100.783 305.615 100.844 305.721 100.938C305.827 101.033 305.903 101.157 305.939 101.294Z" fill="#92E3A9" stroke="#263238" stroke-linecap="round" stroke-linejoin="round"/>
<path d="M302.438 103.098L293.854 105.31C293.682 105.354 293.579 105.529 293.623 105.701L293.668 105.875C293.713 106.047 293.887 106.15 294.059 106.106L302.643 103.893C302.815 103.849 302.918 103.674 302.874 103.503L302.829 103.328C302.784 103.157 302.61 103.053 302.438 103.098Z" fill="#92E3A9" stroke="#263238" stroke-width="1.0017" stroke-linecap="round" stroke-linejoin="round"/>
<path d="M335.649 95.0041L368.979 222.884C369.165 223.601 369.058 224.363 368.683 225.002C368.308 225.642 367.696 226.106 366.979 226.294L296.789 244.584C296.071 244.77 295.31 244.664 294.671 244.289C294.031 243.914 293.567 243.301 293.379 242.584L260.049 114.704C259.863 113.987 259.969 113.225 260.344 112.586C260.719 111.947 261.332 111.482 262.049 111.294L276.459 107.534C276.921 107.413 277.409 107.436 277.858 107.6C278.307 107.765 278.694 108.063 278.969 108.454L280.019 109.944C280.293 110.335 280.681 110.633 281.13 110.798C281.578 110.962 282.067 110.985 282.529 110.864L314.159 102.624C314.616 102.505 315.027 102.25 315.338 101.893C315.648 101.536 315.844 101.094 315.899 100.624L316.089 98.8141C316.141 98.3434 316.336 97.8998 316.647 97.5425C316.958 97.1852 317.37 96.9311 317.829 96.8141L332.239 93.0541C332.949 92.8666 333.705 92.966 334.343 93.3308C334.981 93.6956 335.45 94.2966 335.649 95.0041Z" fill="#3757FF" stroke="#263238" stroke-linecap="round" stroke-linejoin="round"/>
<path d="M338.094 166.764C344.615 151.744 337.726 134.28 322.705 127.758C307.685 121.237 290.221 128.126 283.7 143.147C277.178 158.167 284.067 175.631 299.088 182.152C314.108 188.674 331.572 181.785 338.094 166.764Z" fill="white" stroke="#263238" stroke-linecap="round" stroke-linejoin="round"/>
<path d="M298.649 171.984C298.902 172.58 299.367 173.062 299.955 173.335C300.542 173.608 301.21 173.654 301.829 173.464L311.579 170.654C311.6 170.864 311.641 171.071 311.699 171.274C311.847 171.784 312.093 172.259 312.425 172.673C312.756 173.088 313.166 173.432 313.631 173.688C314.096 173.944 314.606 174.106 315.133 174.164C315.661 174.223 316.194 174.177 316.704 174.029C317.213 173.881 317.689 173.635 318.103 173.303C318.517 172.972 318.862 172.562 319.118 172.097C319.374 171.632 319.536 171.122 319.594 170.595C319.653 170.067 319.607 169.534 319.459 169.024C319.397 168.822 319.32 168.625 319.229 168.434L328.969 165.624C329.605 165.454 330.154 165.051 330.508 164.496C330.861 163.94 330.994 163.273 330.879 162.624C330.817 162.272 330.682 161.936 330.482 161.639C330.282 161.343 330.021 161.092 329.717 160.903C329.413 160.714 329.072 160.592 328.718 160.544C328.363 160.496 328.002 160.523 327.659 160.624L326.839 160.124C325.062 159.061 323.754 157.364 323.179 155.374L321.329 148.964C320.567 146.324 318.876 144.05 316.567 142.561C314.258 141.072 311.488 140.469 308.769 140.864C309.236 140.372 309.527 139.739 309.599 139.065C309.671 138.39 309.518 137.71 309.165 137.131C308.812 136.551 308.278 136.104 307.646 135.858C307.013 135.612 306.317 135.582 305.666 135.771C305.014 135.96 304.443 136.358 304.04 136.904C303.637 137.45 303.425 138.113 303.437 138.792C303.449 139.47 303.683 140.126 304.105 140.658C304.526 141.19 305.111 141.568 305.769 141.734C303.233 142.842 301.188 144.836 300.017 147.343C298.846 149.851 298.63 152.699 299.409 155.354L301.279 161.834C301.611 162.966 301.694 164.157 301.522 165.324C301.349 166.491 300.925 167.607 300.279 168.594C299.94 168.696 299.627 168.868 299.358 169.098C299.089 169.328 298.871 169.612 298.718 169.93C298.564 170.249 298.479 170.596 298.467 170.95C298.455 171.304 298.517 171.656 298.649 171.984ZM308.259 138.324C308.358 138.666 308.353 139.03 308.245 139.369C308.137 139.708 307.931 140.008 307.653 140.23C307.374 140.452 307.037 140.587 306.682 140.617C306.327 140.647 305.972 140.571 305.66 140.399C305.348 140.227 305.095 139.967 304.931 139.651C304.767 139.335 304.701 138.977 304.741 138.624C304.78 138.27 304.923 137.936 305.153 137.664C305.382 137.391 305.687 137.193 306.029 137.094C306.256 137.027 306.494 137.006 306.73 137.031C306.965 137.057 307.193 137.129 307.401 137.243C307.608 137.358 307.791 137.512 307.938 137.698C308.085 137.883 308.195 138.096 308.259 138.324Z" fill="#3757FF" stroke="#263238" stroke-linecap="round" stroke-linejoin="round"/>
<path d="M317.459 168.594L313.159 169.844" stroke="#263238" stroke-linecap="round" stroke-linejoin="round"/>
<path d="M323.819 161.714L304.109 167.414" stroke="#263238" stroke-linecap="round" stroke-linejoin="round"/>
<path d="M344.409 201.544L304.409 211.964C303.265 212.266 302.073 212.339 300.901 212.179C299.729 212.02 298.6 211.631 297.578 211.034C296.556 210.438 295.662 209.646 294.947 208.704C294.232 207.762 293.709 206.688 293.409 205.544C293.107 204.4 293.035 203.207 293.195 202.034C293.355 200.862 293.745 199.732 294.342 198.71C294.94 197.689 295.732 196.795 296.676 196.08C297.619 195.365 298.694 194.843 299.839 194.544L339.839 184.124C342.142 183.53 344.587 183.872 346.638 185.075C348.69 186.278 350.182 188.244 350.789 190.544C351.399 192.849 351.07 195.301 349.874 197.364C348.678 199.426 346.712 200.929 344.409 201.544Z" fill="#263238"/>
<path d="M247.199 314.774C247.199 314.774 235.059 286.524 241.199 252.264" stroke="#263238" stroke-linecap="round" stroke-linejoin="round"/>
<path d="M217.579 345.294C217.579 345.294 193.039 352.794 190.579 358.444C188.119 364.094 201.579 359.334 201.579 359.334" stroke="#263238" stroke-linecap="round" stroke-linejoin="round"/>
<path d="M232.669 229.454C232.669 229.454 210.069 251.854 194.949 257.824" stroke="#263238" stroke-linecap="round" stroke-linejoin="round"/>
<path d="M158.619 223.434C158.619 223.434 154.499 253.674 169.869 259.384" stroke="#263238" stroke-linecap="round" stroke-linejoin="round"/>
<path d="M115.119 284.494C115.119 284.494 114.999 244.854 122.869 232.594" stroke="#263238" stroke-linecap="round" stroke-linejoin="round"/>
<path d="M112.179 244.104C112.179 244.104 109.969 268.724 114.939 276.754" stroke="#263238" stroke-linecap="round" stroke-linejoin="round"/>
<path d="M95.9988 290.344C95.9988 290.344 78.8088 284.424 75.2488 291.764C71.6888 299.104 85.4988 292.594 85.4988 292.594" stroke="#263238" stroke-linecap="round" stroke-linejoin="round"/>
<path d="M106.339 316.044C106.339 316.044 89.4589 325.554 88.5889 330.994" stroke="#263238" stroke-linecap="round" stroke-linejoin="round"/>
<path d="M133.909 289.744C133.909 289.744 166.219 338.574 184.049 334.094" stroke="#263238" stroke-linecap="round" stroke-linejoin="round"/>
<path d="M155.979 358.234C155.979 358.234 130.649 376.804 126.979 375.234" stroke="#263238" stroke-linecap="round" stroke-linejoin="round"/>
<path opacity="0.2" d="M333.409 278.994C335.119 277.594 336.249 276.664 336.619 276.374C336.239 276.704 335.139 277.664 333.409 278.994Z" fill="black"/>
<path d="M313.121 196.575C313.52 196.464 313.932 196.698 314.043 197.096L315.501 202.365C315.627 202.819 315.361 203.289 314.907 203.415C314.637 203.489 314.349 203.427 314.134 203.249L310.32 200.084C310.312 200.077 310.3 200.074 310.289 200.077C310.271 200.082 310.261 200.101 310.266 200.119L311.243 203.649C311.354 204.049 311.119 204.464 310.719 204.574C310.319 204.685 309.904 204.451 309.793 204.05L308.339 198.797C308.211 198.337 308.481 197.859 308.942 197.732C309.216 197.656 309.51 197.72 309.729 197.902L313.509 201.062C313.52 201.07 313.534 201.073 313.547 201.07C313.568 201.064 313.581 201.041 313.575 201.019L312.6 197.496C312.489 197.098 312.723 196.685 313.121 196.575ZM323.47 195.543C323.764 195.461 324.068 195.634 324.15 195.928C324.231 196.221 324.059 196.526 323.765 196.607L321.732 197.17C321.439 197.251 321.134 197.079 321.053 196.785C320.972 196.491 321.144 196.187 321.438 196.105L323.47 195.543ZM321.467 195.547C321.358 195.153 321.589 194.746 321.983 194.637C322.377 194.528 322.784 194.758 322.893 195.152L324.015 199.202C324.051 199.333 324.099 199.43 324.16 199.492C324.22 199.552 324.289 199.586 324.369 199.595C324.45 199.603 324.539 199.594 324.635 199.568C324.702 199.549 324.768 199.525 324.831 199.496C324.912 199.455 325.01 199.487 325.052 199.567L325.344 200.129C325.429 200.291 325.375 200.489 325.213 200.575C325.092 200.642 324.94 200.705 324.757 200.763C324.417 200.871 324.103 200.909 323.815 200.876C323.53 200.843 323.285 200.737 323.081 200.557C322.878 200.377 322.731 200.119 322.64 199.784L321.467 195.547ZM327.059 200.05C326.665 200.159 326.258 199.928 326.149 199.534L325.129 195.851C325.02 195.457 325.251 195.05 325.645 194.941C326.038 194.832 326.446 195.062 326.555 195.456L327.575 199.139C327.684 199.533 327.453 199.941 327.059 200.05ZM325.466 194.281C325.254 194.34 325.052 194.32 324.862 194.223C324.673 194.122 324.551 193.973 324.497 193.776C324.443 193.581 324.471 193.393 324.582 193.211C324.694 193.028 324.857 192.906 325.069 192.847C325.281 192.789 325.481 192.81 325.67 192.91C325.86 193.008 325.983 193.154 326.037 193.349C326.091 193.547 326.062 193.737 325.95 193.921C325.839 194.102 325.678 194.222 325.466 194.281ZM329.733 193.808C330.027 193.727 330.332 193.899 330.413 194.193C330.494 194.487 330.322 194.791 330.028 194.873L327.919 195.457C327.625 195.538 327.32 195.366 327.239 195.072C327.158 194.778 327.33 194.474 327.624 194.393L329.733 193.808ZM329.944 199.251C329.551 199.36 329.145 199.129 329.036 198.736L327.716 193.97C327.613 193.599 327.601 193.272 327.678 192.988C327.758 192.703 327.908 192.465 328.129 192.272C328.35 192.08 328.622 191.939 328.946 191.849C329.164 191.789 329.369 191.75 329.559 191.733C329.801 191.711 329.999 191.9 330.007 192.144L330.024 192.623C330.029 192.743 329.93 192.842 329.811 192.852C329.726 192.859 329.642 192.874 329.557 192.898C329.347 192.956 329.214 193.045 329.159 193.165C329.102 193.284 329.098 193.429 329.146 193.602L330.459 198.342C330.568 198.735 330.337 199.142 329.944 199.251ZM333.963 200.201C333.782 200.251 333.608 200.284 333.442 200.299C333.206 200.323 333.029 200.122 333.035 199.885L333.041 199.634C333.048 199.37 333.272 199.176 333.528 199.114C333.666 199.081 333.774 199.018 333.854 198.924C333.936 198.83 333.986 198.694 334.005 198.517C334.02 198.363 333.98 198.208 333.891 198.08L331.307 194.365C331.024 193.958 331.228 193.395 331.705 193.262C332.015 193.177 332.343 193.307 332.51 193.581L334.317 196.551C334.326 196.565 334.343 196.572 334.359 196.567C334.374 196.563 334.386 196.549 334.386 196.532L334.416 193.055C334.419 192.733 334.635 192.451 334.946 192.365C335.427 192.232 335.895 192.614 335.86 193.112L335.5 198.307C335.48 198.609 335.416 198.884 335.307 199.134C335.201 199.385 335.039 199.601 334.82 199.781C334.601 199.963 334.315 200.103 333.963 200.201Z" fill="white"/>
<path d="M321.704 199.967L321.108 199.312C320.954 199.139 320.84 198.933 320.775 198.71L320.427 197.5C320.274 196.986 319.954 196.538 319.518 196.227C319.082 195.916 318.554 195.759 318.019 195.781C318.015 195.757 318.011 195.733 318.005 195.71C317.984 195.637 317.948 195.568 317.9 195.509C317.852 195.45 317.793 195.4 317.726 195.364C317.659 195.327 317.586 195.304 317.51 195.296C317.434 195.288 317.357 195.295 317.284 195.316C317.211 195.338 317.143 195.374 317.083 195.421C317.024 195.469 316.975 195.529 316.938 195.595C316.902 195.662 316.879 195.736 316.871 195.812C316.862 195.888 316.869 195.964 316.891 196.038C316.898 196.061 316.907 196.083 316.918 196.105C316.455 196.376 316.096 196.793 315.898 197.291C315.699 197.788 315.672 198.338 315.822 198.853L316.176 200.06C316.242 200.283 316.257 200.517 316.22 200.746L316.078 201.619C316.065 201.705 316.073 201.792 316.102 201.874C316.131 201.955 316.181 202.028 316.246 202.086C316.311 202.143 316.389 202.183 316.474 202.202C316.559 202.22 316.647 202.218 316.73 202.193L321.47 200.8C321.553 200.775 321.628 200.73 321.688 200.668C321.749 200.607 321.792 200.531 321.816 200.448C321.839 200.365 321.841 200.277 321.821 200.193C321.802 200.109 321.761 200.032 321.704 199.967Z" fill="white"/>
<path d="M318.648 201.966C318.612 201.977 318.58 201.996 318.553 202.022C318.526 202.049 318.506 202.081 318.495 202.117C318.484 202.153 318.482 202.191 318.489 202.228C318.496 202.265 318.513 202.299 318.536 202.329C318.639 202.458 318.779 202.553 318.937 202.603C319.094 202.653 319.264 202.654 319.422 202.608C319.581 202.561 319.722 202.468 319.828 202.341C319.934 202.214 319.999 202.058 320.016 201.894C320.02 201.856 320.015 201.819 320.001 201.784C319.987 201.749 319.965 201.718 319.936 201.694C319.908 201.67 319.874 201.653 319.837 201.645C319.8 201.638 319.762 201.639 319.726 201.649L318.648 201.966Z" fill="white"/>
</svg>
