<svg width="207" height="219" viewBox="0 0 207 219" fill="none" xmlns="http://www.w3.org/2000/svg">
<path d="M205.592 217.923C200.19 196.914 193.261 140.221 191.918 137.266C190.574 134.31 172.481 132.772 155.045 129.731C137.609 126.69 122.426 115.079 116.069 114.525C112.485 114.189 108.883 114.098 105.287 114.25C105.287 114.25 34.9715 130.629 24.1783 131.183C13.3852 131.738 6.49086 132.567 6.21074 136.437C5.97064 139.827 1.11144 202.545 0.90564 217.923" fill="url(#paint0_linear_367_1383)"/>
<mask id="mask0_367_1383" style="mask-type:luminance" maskUnits="userSpaceOnUse" x="0" y="114" width="206" height="104">
<path d="M205.592 217.923C200.19 196.914 193.261 140.221 191.918 137.266C190.574 134.31 172.481 132.772 155.045 129.731C137.609 126.69 122.426 115.079 116.069 114.525C112.485 114.189 108.883 114.098 105.287 114.25C105.287 114.25 34.9715 130.629 24.1783 131.183C13.3852 131.738 6.49086 132.567 6.21074 136.437C5.97064 139.827 1.11144 202.545 0.90564 217.923" fill="white"/>
</mask>
<g mask="url(#mask0_367_1383)">
<g opacity="0.3">
<path d="M-0.712158 217.923H24.7786C24.7786 214.493 24.5442 210.159 26.8023 206.095C30.8498 198.812 41.3685 176.94 40.1565 168.868C38.9446 160.796 32.4676 157.543 34.8972 161.585C37.3268 165.626 38.9446 176.157 34.8972 169.68C30.8498 163.202 21.1371 140.953 10.6183 141.759C7.66281 141.988 5.69627 142.902 4.39857 144.046C4.04986 161.945 -0.546374 205.46 -0.712158 217.923Z" fill="#2C49CF"/>
<path d="M190.551 217.923C186.315 212.092 180.947 203.42 179.758 195.577C177.734 182.222 177.329 168.868 174.093 168.062C170.857 167.256 162.762 196.789 162.762 196.789L161.951 188.682C161.951 188.682 155.885 206.078 133.63 216.603C132.639 217.068 131.635 217.502 130.617 217.906L190.551 217.923Z" fill="#2C49CF"/>
<path d="M94.6195 132.522C94.6195 132.522 85.3356 158.247 73.9136 171.795C62.4917 185.344 32.136 219.644 32.136 219.644H52.4874C52.4874 219.644 84.621 172.155 94.2651 155.371C103.909 138.587 101.034 128.588 94.6195 132.522Z" fill="#2C49CF"/>
<path d="M170.423 143.84C170.423 143.84 156.766 152.193 155.142 163.129C153.519 174.065 163.528 173.836 166.255 163.86C168.982 153.885 176.74 145.47 176.38 142.629C176.019 139.787 170.423 143.84 170.423 143.84Z" fill="#2C49CF"/>
</g>
<path d="M162.791 178.964C161.916 181.999 161.133 185.304 161.133 187.396C161.133 192.112 164.037 217.157 164.037 217.157" stroke="#2C49CF" stroke-linecap="round" stroke-linejoin="round"/>
<path d="M165.124 171.767C165.124 171.767 164.683 172.979 164.089 174.768" stroke="#2C49CF" stroke-linecap="round" stroke-linejoin="round"/>
<path d="M161.133 187.373L158.955 175.396" stroke="#2C49CF" stroke-linecap="round" stroke-linejoin="round"/>
<path d="M43.6207 164.249C44.1449 166.719 44.2454 169.261 43.9179 171.766C42.826 181.93 42.5859 217.025 42.5859 217.025" stroke="#2C49CF" stroke-linecap="round" stroke-linejoin="round"/>
<path d="M40.6482 159.069C41.4132 159.61 42.0335 160.331 42.4547 161.167" stroke="#2C49CF" stroke-linecap="round" stroke-linejoin="round"/>
<path d="M48.6342 162.694C48.6342 162.694 51.5383 167.05 48.6342 172.858C45.7302 178.666 43.2091 187.098 43.2091 187.098" stroke="#2C49CF" stroke-linecap="round" stroke-linejoin="round"/>
</g>
<path d="M205.592 217.923C200.19 196.914 193.261 140.221 191.918 137.266C190.574 134.31 172.481 132.772 155.045 129.731C137.609 126.69 122.426 115.079 116.069 114.525C112.485 114.189 108.883 114.098 105.287 114.25C105.287 114.25 34.9715 130.629 24.1783 131.183C13.3852 131.738 6.49086 132.567 6.21074 136.437C5.97064 139.827 1.11144 202.545 0.90564 217.923" stroke="#263238" stroke-linecap="round" stroke-linejoin="round"/>
<path opacity="0.3" d="M71.3126 121.933C71.3126 121.933 67.6711 128.405 68.883 135.688C70.0949 142.971 69.6948 161.184 73.3363 158.349C76.9779 155.513 82.7632 147.15 86.2846 147.424C89.8061 147.699 106.11 142.948 106.11 142.948C106.11 142.948 120.276 150.637 126.342 153.067C132.407 155.496 131.607 153.878 129.583 146.995C127.559 140.113 128.365 134.859 128.771 123.123C129.177 111.386 97.3922 109.563 89.5203 111.792C81.6484 114.022 70.1007 120.716 71.3126 121.933Z" fill="black"/>
<path d="M85.107 102.931C85.107 102.931 73.2219 105.698 70.4551 111.226C67.6882 116.754 75.1828 142.17 75.1828 146.041C75.1828 149.911 75.4629 151.014 75.4629 151.843C75.4629 152.672 77.6695 153.781 80.162 149.631C82.6545 145.48 93.9793 139.129 98.1296 137.746C102.28 136.362 109.186 134.704 111.947 136.088C114.708 137.471 126.324 151.014 131.024 152.666C135.723 154.318 131.298 150.179 131.024 146.864C130.749 143.548 137.655 134.973 133.236 120.047C128.817 105.12 123.529 101.788 115.771 100.701C108.014 99.6153 85.107 102.931 85.107 102.931Z" fill="white" stroke="#263238" stroke-linecap="round" stroke-linejoin="round"/>
<path d="M80.6821 87.9878C80.6821 87.9878 78.7498 110.935 79.5787 116.183C80.4077 121.43 94.2306 141.908 102.52 142.445C110.809 142.982 125.49 120.333 125.49 114.805V91.3035C125.49 91.3035 112.77 98.215 99.7644 94.8993C86.7589 91.5836 81.7968 88.5423 81.7968 88.5423L80.6821 87.9878Z" fill="#CCCCCC"/>
<mask id="mask1_367_1383" style="mask-type:luminance" maskUnits="userSpaceOnUse" x="79" y="87" width="47" height="56">
<path d="M80.6821 87.9878C80.6821 87.9878 78.7498 110.935 79.5787 116.183C80.4077 121.43 94.2306 141.908 102.52 142.445C110.809 142.982 125.49 120.333 125.49 114.805V91.3035C125.49 91.3035 112.77 98.215 99.7644 94.8993C86.7589 91.5836 81.7968 88.5423 81.7968 88.5423L80.6821 87.9878Z" fill="white"/>
</mask>
<g mask="url(#mask1_367_1383)">
<path opacity="0.3" d="M113.193 115.337C119.224 113.622 123.06 111.615 125.467 109.877V91.3037C125.467 91.3037 112.747 98.2152 99.7415 94.8995C88.9769 92.1498 83.7347 89.5944 82.2312 88.7998C81.6595 89.0285 81.0879 89.2629 80.5162 89.4972C80.1046 94.6937 78.8298 111.747 79.5329 116.183C79.851 117.543 80.355 118.853 81.0307 120.076C81.104 118.058 81.2949 116.046 81.6024 114.05C82.2484 110.62 83.7519 111.472 86.1129 113.404C88.4739 115.337 99.4613 119.201 113.193 115.337Z" fill="black"/>
</g>
<path d="M80.6821 87.9878C80.6821 87.9878 78.7498 110.935 79.5787 116.183C80.4077 121.43 94.2306 141.908 102.52 142.445C110.809 142.982 125.49 120.333 125.49 114.805V91.3035C125.49 91.3035 112.77 98.215 99.7644 94.8993C86.7589 91.5836 81.7968 88.5423 81.7968 88.5423L80.6821 87.9878Z" stroke="#263238" stroke-linecap="round" stroke-linejoin="round"/>
<path d="M74.3254 61.6911C74.3254 61.6911 72.113 50.0805 67.9684 48.9771C63.8238 47.8738 63.2693 60.8622 65.756 68.3282C68.2428 75.7942 74.9028 79.3843 76.5377 75.5141C78.1727 71.6439 74.3254 61.6911 74.3254 61.6911Z" fill="#CCCCCC" stroke="#263238" stroke-linecap="round" stroke-linejoin="round"/>
<path d="M76.263 68.8827C76.263 68.8827 69.3515 55.0597 66.8648 55.3341C64.378 55.6085 66.0358 62.2456 66.0358 62.2456" stroke="#263238" stroke-linecap="round" stroke-linejoin="round"/>
<path d="M73.2219 63.6294C73.2219 63.6294 69.0715 60.8625 69.0715 66.9451" stroke="#263238" stroke-linecap="round" stroke-linejoin="round"/>
<path d="M131.023 61.6911C131.023 61.6911 133.236 50.0805 137.38 48.9771C141.525 47.8738 142.08 60.8622 139.593 68.3282C137.106 75.7942 130.446 79.3843 128.811 75.5141C127.176 71.6439 131.023 61.6911 131.023 61.6911Z" fill="#CCCCCC" stroke="#263238" stroke-linecap="round" stroke-linejoin="round"/>
<path d="M129.086 68.8827C129.086 68.8827 135.997 55.0597 138.484 55.3341C140.971 55.6085 139.313 62.2456 139.313 62.2456" stroke="#263238" stroke-linecap="round" stroke-linejoin="round"/>
<path d="M132.127 63.6294C132.127 63.6294 136.277 60.8625 136.277 66.9451" stroke="#263238" stroke-linecap="round" stroke-linejoin="round"/>
<path d="M73.2219 58.1008C73.2219 58.1008 74.6111 74.9593 74.6111 81.8708C74.6111 88.7823 77.6523 97.6317 90.6464 105.366C103.64 113.101 121.054 108.408 128.52 100.667C135.986 92.9269 133.219 76.8973 132.664 69.1569C132.11 61.4164 132.092 52.8471 132.092 48.7025C132.092 44.5579 132.664 30.4548 128.222 23.2689C123.78 16.083 95.8829 14.974 84.2723 21.0565C72.6617 27.1391 69.6204 38.2066 70.4493 41.5109C71.2782 44.8151 73.2219 58.1008 73.2219 58.1008Z" fill="#CCCCCC"/>
<mask id="mask2_367_1383" style="mask-type:luminance" maskUnits="userSpaceOnUse" x="70" y="17" width="64" height="93">
<path d="M73.2219 58.1008C73.2219 58.1008 74.6111 74.9593 74.6111 81.8708C74.6111 88.7823 77.6523 97.6317 90.6464 105.366C103.64 113.101 121.054 108.408 128.52 100.667C135.986 92.9269 133.219 76.8973 132.664 69.1569C132.11 61.4164 132.092 52.8471 132.092 48.7025C132.092 44.5579 132.664 30.4548 128.222 23.2689C123.78 16.083 95.8829 14.974 84.2723 21.0565C72.6617 27.1391 69.6204 38.2066 70.4493 41.5109C71.2782 44.8151 73.2219 58.1008 73.2219 58.1008Z" fill="white"/>
</mask>
<g mask="url(#mask2_367_1383)">
<path opacity="0.3" d="M102.251 25.636C100.536 25.293 86.8161 24.1097 79.876 23.8867C71.8726 30.1008 69.746 38.6644 70.4549 41.5113C71.2838 44.8327 73.2218 58.0897 73.2218 58.0897C73.2218 58.0897 74.6109 74.9597 74.6109 81.8712C74.6109 87.1077 76.366 93.459 82.8659 99.593C84.1915 97.9034 84.9014 95.8122 84.8781 93.6648C84.8781 87.2278 85.7356 82.2885 83.1631 78.001C80.5906 73.7135 78.2296 62.12 80.3734 57.1808C82.5171 52.2416 84.4494 42.8033 84.8781 38.51C85.3069 34.2168 86.5931 34.6513 93.2474 37.8698C95.2202 38.8081 97.3714 39.3126 99.5557 39.3491C101.74 39.3855 103.907 38.9532 105.91 38.0813C105.91 38.0813 104.395 26.0648 102.251 25.636Z" fill="black"/>
<path opacity="0.3" d="M96.969 55.8139C96.969 55.8139 84.2264 54.1789 86.5874 56.7515C88.9484 59.324 97.7464 60.8275 100.965 59.7584C104.183 58.6894 101.125 55.9511 96.969 55.8139Z" fill="black"/>
<path opacity="0.3" d="M111.478 49.0289C111.478 49.0289 109.117 53.3221 111.478 53.5336C113.839 53.7452 114.908 49.2404 120.276 50.9611C125.644 52.6819 124.569 48.1714 121.133 46.8794C117.698 45.5874 113.193 47.0967 111.478 49.0289Z" fill="black"/>
<path opacity="0.3" d="M132.652 69.1572C132.081 61.4168 132.081 52.8475 132.081 48.7029C132.081 44.5583 132.652 30.4552 128.211 23.2693C127.382 21.9201 125.724 20.7825 123.494 19.8735C121.865 20.0165 116.394 20.7025 116.394 20.7025L113.822 37.0122C113.822 37.0122 119.184 36.1547 121.333 34.2225C123.483 32.2902 125.192 34.0052 125.627 38.9445C126.061 43.8837 127.77 46.6677 129.057 49.4575C130.343 52.2472 129.485 62.9775 128.199 70.272C126.913 77.5665 129.914 78.6412 127.124 86.5817C124.335 94.5222 116.394 102.674 109.974 106.11C107.688 107.333 108.065 108.368 109.894 109.071C117.498 108.157 124.46 104.864 128.508 100.668C135.968 92.933 133.207 76.8976 132.652 69.1572Z" fill="black"/>
</g>
<path d="M73.2219 58.1008C73.2219 58.1008 74.6111 74.9593 74.6111 81.8708C74.6111 88.7823 77.6523 97.6317 90.6464 105.366C103.64 113.101 121.054 108.408 128.52 100.667C135.986 92.9269 133.219 76.8973 132.664 69.1569C132.11 61.4164 132.092 52.8471 132.092 48.7025C132.092 44.5579 132.664 30.4548 128.222 23.2689C123.78 16.083 95.8829 14.974 84.2723 21.0565C72.6617 27.1391 69.6204 38.2066 70.4493 41.5109C71.2782 44.8151 73.2219 58.1008 73.2219 58.1008Z" stroke="#263238" stroke-linecap="round" stroke-linejoin="round"/>
<path d="M90.7664 64.7666H96.8032" stroke="#263238" stroke-linecap="round" stroke-linejoin="round"/>
<path d="M116.423 65.5212L123.592 64.7666" stroke="#263238" stroke-linecap="round" stroke-linejoin="round"/>
<path d="M137.346 37.0919C137.346 36.9318 137.346 36.766 137.346 36.606C138.172 36.4538 138.921 36.0266 139.473 35.3939C140.025 34.7613 140.346 33.9604 140.385 33.1219C140.423 32.2833 140.176 31.4564 139.685 30.7759C139.193 30.0954 138.486 29.6014 137.678 29.3743C138.273 28.9639 138.736 28.3887 139.01 27.7193C139.284 27.0498 139.357 26.3151 139.22 25.6049C139.083 24.8947 138.742 24.2399 138.238 23.7204C137.735 23.201 137.091 22.8395 136.386 22.6801C137.156 21.8797 137.646 20.8515 137.784 19.7493C137.921 18.6471 137.698 17.53 137.148 16.565C136.598 15.6001 135.75 14.839 134.732 14.3956C133.714 13.9522 132.579 13.8503 131.498 14.105C131.614 13.684 131.675 13.2498 131.681 12.8131C131.681 11.4379 131.135 10.1191 130.162 9.14667C129.19 8.17429 127.871 7.62801 126.496 7.62801C125.506 7.63007 124.537 7.91789 123.706 8.45693C123.365 7.17622 122.652 6.02547 121.657 5.15045C120.662 4.27543 119.429 3.71552 118.115 3.54165C116.801 3.36779 115.466 3.58779 114.277 4.17378C113.088 4.75978 112.1 5.6854 111.438 6.83339C111.246 5.36239 110.572 3.99667 109.52 2.95037C108.468 1.90408 107.099 1.23638 105.627 1.05198C104.155 0.867573 102.664 1.17689 101.387 1.93144C100.109 2.68598 99.1187 3.84307 98.5698 5.22128C97.883 4.1317 96.8964 3.2634 95.7284 2.72054C94.5603 2.17768 93.2605 1.9833 91.9848 2.16072C90.7091 2.33814 89.5116 2.87982 88.536 3.7208C87.5605 4.56177 86.8482 5.66633 86.4847 6.90199C85.7805 6.33256 84.9446 5.94911 84.0536 5.7868C83.1627 5.62449 82.2452 5.68853 81.3854 5.97303C80.5257 6.25753 79.7511 6.7534 79.1328 7.41512C78.5146 8.07685 78.0724 8.88325 77.8468 9.76034C77.2808 9.45393 76.6447 9.30051 76.0013 9.31524C75.3579 9.32996 74.7294 9.51232 74.1781 9.84429C73.6267 10.1763 73.1715 10.6464 72.8574 11.2081C72.5434 11.7699 72.3814 12.4039 72.3874 13.0474C72.3911 13.4827 72.4704 13.9141 72.6217 14.3223C72.0537 14.0752 71.4329 13.9737 70.8157 14.0268C70.1985 14.0799 69.6043 14.286 69.0868 14.6265C68.5693 14.967 68.1448 15.4311 67.8517 15.9768C67.5586 16.5226 67.4061 17.1328 67.4081 17.7523C67.4139 18.439 67.6119 19.1103 67.9798 19.6902C67.3 19.8682 66.6848 20.2355 66.2056 20.7494C65.7265 21.2633 65.4031 21.9027 65.2731 22.5933C65.1432 23.2838 65.212 23.997 65.4715 24.65C65.7311 25.3029 66.1707 25.8687 66.7393 26.2816C65.9255 26.4651 65.1971 26.9167 64.6707 27.5638C64.1444 28.211 63.8507 29.0162 63.8369 29.8502C63.8231 30.6843 64.0898 31.4988 64.5944 32.1631C65.0989 32.8273 65.812 33.3028 66.6192 33.5132C66.1862 33.849 65.8337 34.2771 65.5872 34.7664C65.3407 35.2557 65.2066 35.7939 65.1945 36.3416C65.1825 36.8894 65.2928 37.4329 65.5175 37.9326C65.7422 38.4323 66.0757 38.8755 66.4934 39.2299C65.6546 39.4733 64.9286 40.0049 64.4431 40.731C63.9577 41.4571 63.7439 42.3311 63.8396 43.1993C63.9352 44.0675 64.3341 44.8741 64.9659 45.4771C65.5978 46.0801 66.4221 46.4409 67.2938 46.4959C67.3767 47.3667 67.6067 48.2173 67.9741 49.0112C69.9063 52.3269 70.7409 53.7103 70.7409 53.7103C70.7409 53.7103 71.627 58.3523 73.3992 60.3188C73.7708 65.1094 74.6054 76.5257 74.6054 81.9051C74.6054 88.8166 77.6467 97.666 90.6408 105.401C103.635 113.135 121.048 108.442 128.514 100.702C135.98 92.9612 133.213 76.9316 132.659 69.1912C132.333 64.6178 132.201 59.7586 132.144 55.6883C132.822 55.3871 133.459 55.0031 134.042 54.545C134.825 53.9733 135.523 51.9953 136.066 49.3999C136.174 49.417 136.282 49.4285 136.392 49.4342C137.113 49.4373 137.82 49.2301 138.426 48.838C139.032 48.4458 139.511 47.8858 139.803 47.2261C140.096 46.5665 140.191 45.8359 140.075 45.1234C139.96 44.411 139.639 43.7477 139.153 43.2145C139.585 42.7439 139.887 42.1695 140.031 41.5472C140.175 40.9248 140.156 40.2758 139.974 39.6634C139.793 39.0509 139.456 38.4958 138.997 38.0522C138.537 37.6085 137.97 37.2915 137.352 37.1319L137.346 37.0919ZM127.954 84.066C124.912 87.3817 118.555 83.7916 115.24 80.4759C111.924 77.1602 108.603 76.3256 100.588 78.2636C92.573 80.2015 91.4411 85.4495 86.2103 87.1073C80.9796 88.7651 79.3046 82.1338 78.207 76.8801C77.1093 71.6265 76.2747 56.4258 76.2747 56.4258C76.2747 53.3845 80.1449 52.83 81.8028 47.5763C83.4606 42.3227 79.5904 39.2871 82.3744 32.0955C85.1585 24.9039 93.6935 34.7766 93.8593 34.9538C97.7981 39.0298 105.727 38.9555 111.009 38.4925C114.005 38.2181 117.721 33.9191 120.602 31.3637C121.03 31.001 121.543 30.7533 122.093 30.6439C122.643 30.5346 123.212 30.5673 123.745 30.739C124.279 30.9107 124.761 31.2156 125.144 31.625C125.527 32.0344 125.8 32.5347 125.936 33.0788C126.725 36.0857 127.594 39.8359 127.439 41.2422C127.165 43.729 127.816 43.6261 130.029 47.4963C131.121 49.4057 130.949 48.1994 131.126 49.5314C130.995 51.9153 130.881 56.1971 130.48 62.817C129.886 71.9237 130.995 80.7675 127.954 84.066Z" fill="#263238" stroke="#263238" stroke-linecap="round" stroke-linejoin="round"/>
<path d="M86.4904 54.5049L100.308 56.1627" stroke="#263238" stroke-width="5" stroke-linecap="round" stroke-linejoin="round"/>
<path d="M110.815 50.3376C110.815 50.3376 113.582 43.4261 122.151 47.8509" stroke="#263238" stroke-width="5" stroke-linecap="round" stroke-linejoin="round"/>
<path d="M109.712 55.334C109.712 55.334 109.14 65.0124 109.986 69.7115C110.832 74.4106 114.131 80.7676 107.499 82.4254C100.868 84.0833 98.1009 80.7676 98.6497 76.0685" fill="#CCCCCC"/>
<mask id="mask3_367_1383" style="mask-type:luminance" maskUnits="userSpaceOnUse" x="98" y="55" width="14" height="28">
<path d="M109.712 55.334C109.712 55.334 109.14 65.0124 109.986 69.7115C110.832 74.4106 114.131 80.7676 107.499 82.4254C100.868 84.0833 98.1009 80.7676 98.6497 76.0685" fill="white"/>
</mask>
<g mask="url(#mask3_367_1383)">
<path opacity="0.3" d="M99.0328 78.858C99.0328 78.858 104.395 82.288 107.831 80.1442C111.267 78.0005 110.638 73.0098 109.986 69.7112C109.334 66.4127 109.117 63.8345 109.117 63.8345C109.117 63.8345 112.982 75.4222 111.695 79.0695C110.409 82.7167 104.395 84.8662 100.336 83.3627C96.2773 81.8592 99.0328 78.858 99.0328 78.858Z" fill="black"/>
</g>
<path d="M109.712 55.334C109.712 55.334 109.14 65.0124 109.986 69.7115C110.832 74.4106 114.131 80.7676 107.499 82.4254C100.868 84.0833 98.1009 80.7676 98.6497 76.0685" stroke="#263238" stroke-linecap="round" stroke-linejoin="round"/>
<path d="M98.7641 58.8552C98.7641 60.536 97.958 61.8965 96.9691 61.8965C95.9801 61.8965 95.1912 60.536 95.1912 58.8552C95.1912 57.1745 95.9972 55.814 96.9919 55.814C97.9866 55.814 98.7641 57.1974 98.7641 58.8552Z" fill="#263238"/>
<path d="M120.522 57.3577C120.522 59.0327 119.716 60.399 118.727 60.399C117.738 60.399 116.926 59.0327 116.926 57.3577C116.926 55.6827 117.732 54.3164 118.727 54.3164C119.722 54.3164 120.522 55.677 120.522 57.3577Z" fill="#263238"/>
<path d="M106.116 88.2278C106.116 88.2278 108.603 88.7995 111.918 84.6377" stroke="#666666" stroke-width="3" stroke-linecap="round" stroke-linejoin="round"/>
<path d="M80.0821 217.922L103.075 158.754C103.075 158.754 104.732 157.651 108.877 153.226C113.022 148.802 111.37 142.719 111.37 142.719C111.56 143.296 111.932 143.796 112.429 144.146C112.926 144.495 113.523 144.674 114.131 144.657C116.343 144.657 119.384 144.085 120.768 141.061C122.151 138.037 120.488 131.663 119.659 126.409C118.83 121.156 115.514 111.209 113.027 111.209C110.541 111.209 97.2722 115.353 97.2722 115.353C97.2722 115.353 95.8888 108.996 96.1632 107.064C96.4376 105.132 108.34 102.359 109.432 102.931C110.524 103.502 111.918 104.869 114.131 104.04C116.343 103.211 114.131 100.999 112.473 97.6829C110.815 94.3672 98.3755 96.5738 94.5053 98.2546C90.6351 99.9353 84.8327 101.021 86.2104 106.83C87.5881 112.638 89.8062 147.744 89.8062 147.744C89.8062 147.744 89.8062 150.231 86.4905 156.033C83.6836 160.944 49.9379 204.625 39.585 217.968" fill="#CCCCCC"/>
<mask id="mask4_367_1383" style="mask-type:luminance" maskUnits="userSpaceOnUse" x="39" y="95" width="83" height="123">
<path d="M80.0821 217.922L103.075 158.754C103.075 158.754 104.732 157.651 108.877 153.226C113.022 148.802 111.37 142.719 111.37 142.719C111.56 143.296 111.932 143.796 112.429 144.146C112.926 144.495 113.523 144.674 114.131 144.657C116.343 144.657 119.384 144.085 120.768 141.061C122.151 138.037 120.488 131.663 119.659 126.409C118.83 121.156 115.514 111.209 113.027 111.209C110.541 111.209 97.2722 115.353 97.2722 115.353C97.2722 115.353 95.8888 108.996 96.1632 107.064C96.4376 105.132 108.34 102.359 109.432 102.931C110.524 103.502 111.918 104.869 114.131 104.04C116.343 103.211 114.131 100.999 112.473 97.6829C110.815 94.3672 98.3755 96.5738 94.5053 98.2546C90.6351 99.9353 84.8327 101.021 86.2104 106.83C87.5881 112.638 89.8062 147.744 89.8062 147.744C89.8062 147.744 89.8062 150.231 86.4905 156.033C83.6836 160.944 49.9379 204.625 39.585 217.968" fill="white"/>
</mask>
<g mask="url(#mask4_367_1383)">
<path opacity="0.3" d="M114.131 144.663C115.842 144.733 117.532 144.263 118.961 143.319C120.025 141.982 120.888 139.666 118.527 136.459C114.6 131.103 106.03 136.814 102.817 139.318C99.6046 141.822 97.821 139.318 94.9627 135.751C92.7446 132.978 89.6004 124.169 87.5767 117.949C88.72 130.28 89.8062 147.716 89.8062 147.716C89.8062 147.716 89.8062 150.202 86.4905 156.005C83.6836 160.915 49.9379 204.597 39.585 217.94H63.8867C75.0171 202.282 97.0435 163.791 98.5356 159.675C99.6789 156.416 103.589 156.188 107.248 154.947C107.745 154.438 108.283 153.878 108.877 153.232C113.027 148.807 111.37 142.725 111.37 142.725C111.56 143.302 111.932 143.802 112.429 144.151C112.926 144.501 113.523 144.68 114.131 144.663Z" fill="black"/>
</g>
<path d="M80.0821 217.922L103.075 158.754C103.075 158.754 104.732 157.651 108.877 153.226C113.022 148.802 111.37 142.719 111.37 142.719C111.56 143.296 111.932 143.796 112.429 144.146C112.926 144.495 113.523 144.674 114.131 144.657C116.343 144.657 119.384 144.085 120.768 141.061C122.151 138.037 120.488 131.663 119.659 126.409C118.83 121.156 115.514 111.209 113.027 111.209C110.541 111.209 97.2722 115.353 97.2722 115.353C97.2722 115.353 95.8888 108.996 96.1632 107.064C96.4376 105.132 108.34 102.359 109.432 102.931C110.524 103.502 111.918 104.869 114.131 104.04C116.343 103.211 114.131 100.999 112.473 97.6829C110.815 94.3672 98.3755 96.5738 94.5053 98.2546C90.6351 99.9353 84.8327 101.021 86.2104 106.83C87.5881 112.638 89.8062 147.744 89.8062 147.744C89.8062 147.744 89.8062 150.231 86.4905 156.033C83.6836 160.944 49.9379 204.625 39.585 217.968" stroke="#263238" stroke-linecap="round" stroke-linejoin="round"/>
<path d="M98.9298 123.648C98.9298 123.648 113.582 119.778 114.685 119.778C115.788 119.778 118.281 121.99 118.281 121.99" stroke="#263238" stroke-linecap="round" stroke-linejoin="round"/>
<path d="M101.417 133.322C101.417 133.322 114.411 130.006 116.617 130.006C117.945 130.012 119.224 130.504 120.213 131.389" stroke="#263238" stroke-linecap="round" stroke-linejoin="round"/>
<path d="M109.431 143.548C109.431 143.548 112.198 142.719 116.068 139.678" stroke="#263238" stroke-linecap="round" stroke-linejoin="round"/>
<path opacity="0.3" d="M171.811 136.064C181.431 136.064 189.229 134.519 189.229 132.614C189.229 130.708 181.431 129.163 171.811 129.163C162.191 129.163 154.393 130.708 154.393 132.614C154.393 134.519 162.191 136.064 171.811 136.064Z" fill="black"/>
<path d="M181.592 80.2423C185.07 83.1962 187.395 87.2803 188.162 91.778C189.341 99.1907 187.489 103.908 188.498 107.276C189.507 110.644 190.102 111.57 190.102 111.57C190.102 111.57 190.355 111.57 184.458 112.92C178.561 114.27 174.774 114.942 171.489 112.749C168.205 110.556 165.51 108.85 163.234 108.119C160.958 107.388 157.507 108.538 157.507 108.538C159.686 105.595 162.401 103.09 165.51 101.155C170.729 97.87 170.057 95.7646 168.541 91.5538C167.443 88.6255 166.148 85.7745 164.666 83.0202C166.855 81.3772 169.336 80.1649 171.977 79.4479C176.29 78.3026 181.003 79.9889 181.592 80.2423Z" fill="#263238" stroke="#263238" stroke-linecap="round" stroke-linejoin="round"/>
<path d="M188.498 98.3477C188.498 98.3477 188.752 101.272 187.07 105.171C185.899 108.051 185.576 111.207 186.139 114.265C186.306 115.042 186.42 115.83 186.48 116.624C187.779 116.02 189.044 115.345 190.267 114.601C191.529 113.763 191.7 112.837 191.7 112.837C191.7 112.837 190.438 111.487 189.341 107.193C188.67 104.295 188.387 101.32 188.498 98.3477Z" fill="#FF3227" stroke="#263238" stroke-linecap="round" stroke-linejoin="round"/>
<path d="M167.951 84.96C167.951 84.96 171.909 82.5232 174.097 80.9149C176.285 79.3067 181.592 80.2424 181.592 80.2424C181.592 80.2424 178.561 78.2198 175.783 77.6301C173.005 77.0404 166.772 78.8924 165.339 79.6527C163.906 80.413 166.314 85.8275 166.314 85.8275L167.951 84.96Z" fill="#FF2D21" stroke="#263238" stroke-linecap="round" stroke-linejoin="round"/>
<path d="M163.648 81.1296C162.922 82.4571 162.094 83.7264 161.172 84.9261C159.515 87.1241 156.81 90.3991 156.81 90.3991L155.407 85.4573L152.629 86.047C152.629 86.047 151.591 94.0543 152.141 95.6041C152.692 97.1538 154.534 97.2221 156.776 96.491C159.018 95.76 165.407 92.6604 165.407 92.6604L167.181 95.7649L164.077 104.63C164.077 104.63 157.96 110.39 157.161 112.428C156.362 114.465 158.136 116.77 159.822 120.406C161.508 124.041 162.483 126.166 162.483 126.166C162.298 126.68 162.028 127.16 161.684 127.584C161.24 128.028 156.81 128.384 156.274 129.271C155.738 130.158 159.198 131.395 162.395 131.395C165.592 131.395 167.98 130.952 167.888 129.534C167.795 128.116 165.851 124.66 165.495 122.799C165.139 120.937 164.876 115.084 164.876 115.084C164.876 115.084 169.662 110.298 170.373 110.21C171.085 110.122 174.984 111.36 175.422 111.716C175.861 112.072 176.49 112.866 178.083 115.971C179.677 119.075 184.687 127.35 184.687 127.35C184.687 127.35 185.486 130.187 186.105 131.78C186.724 133.374 188.323 135.153 189.566 134.173C190.808 133.194 190.628 130.986 189.829 129.388C189.029 127.789 186.905 127.17 186.549 125.576C186.193 123.983 185.267 118.008 184.643 113.934C184.019 109.859 182.518 104.269 182.075 102.408C181.631 100.546 182.25 92.7433 181.188 88.7616C180.125 84.7799 177.908 82.8207 175.422 81.3148C172.937 79.8088 169.662 80.072 167.625 80.3401C165.588 80.6081 164.608 80.691 164.608 80.691L163.648 81.1296Z" fill="url(#paint1_linear_367_1383)" stroke="#263238" stroke-linecap="round" stroke-linejoin="round"/>
<path d="M163.268 89.1997L165.422 92.6551L161.806 90.847" stroke="#263238" stroke-linecap="round" stroke-linejoin="round"/>
<path d="M164.822 105.736C165.616 107.072 166.75 108.175 168.107 108.933" stroke="#263238" stroke-linecap="round" stroke-linejoin="round"/>
<path d="M170.388 110.21L167.011 109.664" stroke="#263238" stroke-linecap="round" stroke-linejoin="round"/>
<path d="M176.236 109.752C177.522 108.276 179.034 107.012 180.715 106.009" stroke="#263238" stroke-linecap="round" stroke-linejoin="round"/>
<path d="M175.963 108.84C175.963 108.84 177.884 106.554 179.16 105.643" stroke="#263238" stroke-linecap="round" stroke-linejoin="round"/>
<path d="M156.81 90.3989L157.756 92.6213" stroke="#263238" stroke-linecap="round" stroke-linejoin="round"/>
<path d="M155.285 85.7982C155.285 85.7982 157.015 83.3614 157.288 81.7677C157.561 80.1741 156.859 77.8689 156.435 77.7324C156.011 77.596 155.821 77.9225 156.016 78.5317C156.128 78.886 156.208 79.2497 156.255 79.6185C156.255 79.6185 155.519 78.02 155.68 77.1427C155.84 76.2655 155.153 75.8122 153.993 76.2996C152.833 76.7869 152.175 76.514 151.62 78.1028C151.135 79.562 150.931 81.1001 151.02 82.6352C151.074 84.0339 152.609 86.0467 152.609 86.0467L155.285 85.7982Z" fill="#CCCCCC" stroke="#263238" stroke-linecap="round" stroke-linejoin="round"/>
<path d="M152.97 76.6699C152.97 76.6699 153.316 76.6699 153.145 77.3571C152.975 78.0443 152.414 79.0872 152.478 79.6574C152.541 80.2276 152.682 80.8466 152.682 80.8466" stroke="#263238" stroke-linecap="round" stroke-linejoin="round"/>
<path d="M153.993 76.2993C154.151 76.4248 154.268 76.5937 154.331 76.7852C154.393 76.9766 154.398 77.1822 154.344 77.3764C154.132 78.2296 153.987 79.0981 153.911 79.974C153.911 80.2371 153.979 80.6319 153.979 80.6319" stroke="#263238" stroke-linecap="round" stroke-linejoin="round"/>
<path d="M155.022 76.1338C155.022 76.1338 155.377 76.4993 155.187 77.5471C154.997 78.5949 154.661 79.5502 155.095 80.3543" stroke="#263238" stroke-linecap="round" stroke-linejoin="round"/>
<path d="M152.239 81.1194L154.71 80.4761" stroke="#263238" stroke-linecap="round" stroke-linejoin="round"/>
<path d="M155.368 81.1001C155.293 81.4825 155.101 81.832 154.817 82.0992C154.577 82.3061 154.392 82.5682 154.277 82.8628C154.161 83.1575 154.119 83.4758 154.154 83.7903" stroke="#263238" stroke-linecap="round" stroke-linejoin="round"/>
<path d="M178.546 90.5644C178.459 92.0115 178.15 93.4365 177.63 94.7898C176.855 96.4809 177.63 99.0152 180.379 99.5805C183.127 100.146 184.044 97.2558 184.044 96.1251C184.044 94.9945 182.845 91.9729 182.845 91.6171C182.845 91.2613 181.505 89.0146 178.829 90.6424" fill="#FF3025"/>
<path d="M178.546 90.5644C178.459 92.0115 178.15 93.4365 177.63 94.7898C176.855 96.4809 177.63 99.0152 180.379 99.5805C183.127 100.146 184.044 97.2558 184.044 96.1251C184.044 94.9945 182.845 91.9729 182.845 91.6171C182.845 91.2613 181.505 89.0146 178.829 90.6424" stroke="#263238" stroke-linecap="round" stroke-linejoin="round"/>
<path d="M187.928 59.3103L185.135 52.0682L183.459 59.3103L184.814 58.1261L185.135 65.5777L180.847 71.1482L180.203 57.9896L181.768 59.2421L178.951 52L177.274 59.2421L178.736 57.9604L179.385 71.3334L174.647 66.4599L173.99 59.2129L175.593 60.4946L172.776 53.2525L171.104 60.4946L172.523 59.2519L173.215 66.8546C173.23 67.0214 173.303 67.1779 173.419 67.2981L179.492 73.5119L181.695 118.904C181.703 119.092 181.784 119.269 181.92 119.399C182.057 119.529 182.238 119.601 182.426 119.601H182.46C182.653 119.591 182.835 119.505 182.965 119.362C183.096 119.219 183.165 119.03 183.157 118.836L180.944 73.3754L186.446 66.2357C186.551 66.0951 186.604 65.9232 186.597 65.7483L186.247 57.9506L187.928 59.3103Z" fill="#263238"/>
<path d="M181.237 87.6744C181.237 87.6744 178.561 87.4648 177.859 87.8157C177.157 88.1666 177.372 89.9991 177.372 90.8422C177.372 91.6853 178.288 92.4651 178.834 91.9729C179.38 91.4806 179.467 89.2242 179.467 89.2242C180.077 89.1948 180.671 89.0282 181.207 88.7368C181.929 88.308 181.724 87.6013 181.237 87.6744Z" fill="#CCCCCC" stroke="#263238" stroke-linecap="round" stroke-linejoin="round"/>
<path d="M179.394 92.0412C179.394 92.0412 178.478 92.3921 178.829 92.9574C179.18 93.5227 180.028 94.0832 181.787 94.0832C183.547 94.0832 184.395 92.9574 184.112 92.3238C183.829 91.6903 182.772 92.2507 181.856 92.2507C181.032 92.2226 180.211 92.1527 179.394 92.0412Z" fill="#CCCCCC" stroke="#263238" stroke-linecap="round" stroke-linejoin="round"/>
<path d="M178.829 90.6327C178.829 90.6327 178.342 91.4076 178.829 91.9729C179.316 92.5383 180.588 92.8892 182.562 92.9476C184.536 93.0061 184.512 91.3296 184.112 90.6912C183.712 90.0527 181.719 90.8325 180.871 90.8325C180.187 90.8132 179.504 90.7464 178.829 90.6327Z" fill="#CCCCCC" stroke="#263238" stroke-linecap="round" stroke-linejoin="round"/>
<path d="M179.321 89.5069C179.197 89.5207 179.08 89.5669 178.979 89.641C178.879 89.715 178.8 89.8142 178.751 89.9284C178.702 90.0427 178.683 90.168 178.698 90.2917C178.712 90.4154 178.759 90.533 178.834 90.6327C179.258 91.3393 180.101 91.7585 181.792 91.7585C183.483 91.7585 184.117 91.4758 184.326 90.4231C184.536 89.3704 183.975 89.1511 183.201 89.2924C182.426 89.4338 180.447 89.4581 179.321 89.5069Z" fill="#CCCCCC" stroke="#263238" stroke-linecap="round" stroke-linejoin="round"/>
<path d="M182.494 87.3918C182.494 87.3918 179.955 87.7427 179.253 87.8792C178.551 88.0156 178.337 89.078 178.619 89.5703C178.902 90.0625 181.154 90.4865 182.63 90.1356C184.107 89.7847 184.536 89.2876 184.321 88.1618C184.107 87.036 182.845 87.3236 182.494 87.3918Z" fill="#CCCCCC" stroke="#263238" stroke-linecap="round" stroke-linejoin="round"/>
<path d="M177.347 96.5492L174.745 90.0674" stroke="#263238" stroke-linecap="round" stroke-linejoin="round"/>
<path d="M166.465 85.7835C166.465 85.7835 170.403 85.7835 173.551 81.0171C176.699 76.2508 177.055 72.0303 177.055 72.0303C177.055 72.0303 171.694 75.8658 168.921 76.2556C166.148 76.6455 161.153 76.9087 161.153 76.9087C161.153 76.9087 160.943 79.5112 162.678 83.0689C164.413 86.6266 166.465 85.7835 166.465 85.7835Z" fill="#FF3227" stroke="#263238" stroke-linecap="round" stroke-linejoin="round"/>
<path d="M166.465 85.7837L165.471 88.8199L167.556 88.4154L166.465 85.7837Z" stroke="#263238" stroke-linecap="round" stroke-linejoin="round"/>
<path d="M156.303 63.0291C156.303 63.0291 154.919 66.9767 155.109 68.0343C155.299 69.0918 156.084 69.8472 154.914 71.2752C153.745 72.7032 152.853 73.9508 153.452 74.4723C153.901 74.7909 154.451 74.9315 154.997 74.867C154.857 76.3505 154.999 77.8471 155.416 79.2776C156.108 81.5633 157.122 84.3851 158.735 84.1511C160.348 83.9172 162.946 82.0311 162.946 82.0311C162.946 82.0311 165.5 85.9836 166.465 85.774C167.43 85.5645 169.033 81.4902 169.525 78.5076C170.018 75.5249 170.364 75.9733 169.443 74.9158C168.521 73.8582 167.288 72.6203 167.288 72.6203C167.288 72.6203 165.744 69.3843 165.87 66.3968C165.997 63.4093 166.991 62.3858 162.99 59.798C158.989 57.2101 156.416 62.2347 156.303 63.0291Z" fill="#CCCCCC" stroke="#263238" stroke-linecap="round" stroke-linejoin="round"/>
<path d="M174.93 71.0265C175.018 70.6859 174.994 70.3261 174.863 69.9999C174.731 69.6736 174.499 69.3981 174.199 69.2135C174.47 68.9922 174.663 68.6899 174.75 68.3509C174.827 68.058 174.822 67.7496 174.736 67.4592C174.65 67.1688 174.486 66.9075 174.262 66.7037C174.5 66.4794 174.669 66.192 174.75 65.8751C174.804 65.6636 174.816 65.4435 174.785 65.2273C174.754 65.0112 174.681 64.8033 174.569 64.6154C174.458 64.4276 174.311 64.2636 174.136 64.1327C173.961 64.0018 173.762 63.9066 173.551 63.8526C173.239 63.7723 172.91 63.7858 172.605 63.8916C172.772 63.8231 172.923 63.7225 173.051 63.5956C173.178 63.4686 173.279 63.3178 173.349 63.1517C173.418 62.9856 173.454 62.8076 173.454 62.6276C173.455 62.4477 173.42 62.2694 173.351 62.103C173.283 61.9366 173.182 61.7853 173.055 61.6578C172.928 61.5303 172.777 61.429 172.611 61.3598C172.445 61.2905 172.267 61.2547 172.087 61.2543C171.907 61.2538 171.729 61.2889 171.563 61.3574C171.655 61.2254 171.724 61.0787 171.767 60.9236C171.836 60.6626 171.827 60.387 171.74 60.1314C171.653 59.8758 171.492 59.6516 171.278 59.487C171.064 59.3224 170.806 59.2248 170.537 59.2064C170.267 59.188 169.999 59.2496 169.764 59.3836C169.798 59.0684 169.722 58.7512 169.549 58.4859C169.375 58.2206 169.115 58.0238 168.813 57.9289C168.51 57.834 168.184 57.847 167.89 57.9656C167.596 58.0843 167.353 58.3012 167.201 58.5794H167.147C167.147 58.5502 167.171 58.5209 167.181 58.4868C167.275 58.1563 167.241 57.8027 167.087 57.4957C166.933 57.1887 166.669 56.9507 166.348 56.8284C166.027 56.7061 165.672 56.7084 165.352 56.835C165.033 56.9615 164.773 57.2031 164.623 57.5121C164.614 57.1894 164.492 56.88 164.278 56.6386C164.063 56.3972 163.771 56.2392 163.451 56.1926C163.132 56.146 162.806 56.2137 162.532 56.3838C162.258 56.5539 162.052 56.8154 161.952 57.1222C161.835 56.8167 161.613 56.563 161.325 56.407C161.038 56.2511 160.704 56.2033 160.384 56.2722C160.064 56.3411 159.78 56.5222 159.582 56.7827C159.384 57.0432 159.286 57.3659 159.306 57.6924C158.901 57.4585 158.121 57.2295 156.986 57.902C155.256 58.9206 155.87 60.4509 155.87 60.4509C155.87 60.4509 153.097 60.1974 152.785 62.1274C152.473 64.0573 153.272 65.6363 155.221 65.4122C157.171 65.188 157.995 62.834 157.995 62.834C158.065 62.4223 158.257 62.0411 158.547 61.7397C158.836 61.4383 159.209 61.2304 159.617 61.1429C161.079 60.7871 163.848 62.142 164.004 64.0963C164.16 66.0506 161.806 64.8127 161.601 66.3186C161.396 67.8246 163.263 68.3948 163.336 70.2419C163.409 72.0889 163.214 75.7051 162.113 76.4264C161.011 77.1477 160.007 76.0706 158.959 75.1593C157.912 74.2479 155.509 73.629 155.007 74.8717C154.505 76.1145 155.007 78.4441 155.329 80.72C155.65 82.996 156.357 84.5555 158.55 84.5701C160.743 84.5847 162.756 82.4453 162.756 82.4453C162.756 82.4453 166.392 79.7209 166.918 78.0249C167.444 76.3289 164.969 73.4097 165.09 71.6065C165.212 69.8032 165.378 70.1444 166.299 70.8169C167.22 71.4895 167.011 73.7411 167.824 74.5062C168.01 74.6893 168.224 74.8408 168.458 74.9546C168.541 75.3787 168.766 75.7618 169.096 76.0408C169.426 76.3198 169.841 76.478 170.273 76.4894C170.705 76.5008 171.128 76.3646 171.473 76.1033C171.817 75.842 172.062 75.4712 172.167 75.0521C172.206 74.8927 172.224 74.7288 172.22 74.5647C172.505 74.5771 172.788 74.5157 173.042 74.3865C173.296 74.2573 173.512 74.0646 173.669 73.8273C173.826 73.5899 173.92 73.3159 173.94 73.0318C173.96 72.7477 173.907 72.4632 173.785 72.2059C174.063 72.1273 174.315 71.9769 174.516 71.7698C174.717 71.5628 174.86 71.3064 174.93 71.0265Z" fill="#263238"/>
<path d="M172.493 63.9257H172.527M174.93 71.0265C175.018 70.6859 174.994 70.3261 174.863 69.9999C174.731 69.6736 174.499 69.3981 174.199 69.2135C174.47 68.9922 174.663 68.6899 174.75 68.3509C174.827 68.058 174.822 67.7496 174.736 67.4592C174.65 67.1688 174.486 66.9075 174.262 66.7037C174.5 66.4794 174.669 66.192 174.75 65.8751C174.804 65.6636 174.816 65.4435 174.785 65.2273C174.754 65.0112 174.681 64.8033 174.569 64.6154C174.458 64.4276 174.311 64.2636 174.136 64.1327C173.961 64.0018 173.762 63.9066 173.551 63.8526C173.239 63.7723 172.91 63.7858 172.605 63.8916C172.772 63.8231 172.923 63.7225 173.051 63.5956C173.178 63.4686 173.279 63.3178 173.349 63.1517C173.418 62.9856 173.454 62.8076 173.454 62.6276C173.455 62.4477 173.42 62.2694 173.351 62.103C173.283 61.9366 173.182 61.7853 173.055 61.6578C172.928 61.5303 172.777 61.429 172.611 61.3598C172.445 61.2905 172.267 61.2547 172.087 61.2543C171.907 61.2538 171.729 61.2889 171.563 61.3574C171.655 61.2254 171.724 61.0787 171.767 60.9236C171.836 60.6626 171.827 60.387 171.74 60.1314C171.653 59.8758 171.492 59.6516 171.278 59.487C171.064 59.3224 170.806 59.2248 170.537 59.2064C170.267 59.188 169.999 59.2496 169.764 59.3836C169.798 59.0684 169.722 58.7512 169.549 58.4859C169.375 58.2206 169.115 58.0238 168.813 57.9289C168.51 57.834 168.184 57.847 167.89 57.9656C167.596 58.0843 167.353 58.3012 167.201 58.5794H167.147C167.147 58.5502 167.171 58.5209 167.181 58.4868C167.275 58.1563 167.241 57.8027 167.087 57.4957C166.933 57.1887 166.669 56.9507 166.348 56.8284C166.027 56.7061 165.672 56.7084 165.352 56.835C165.033 56.9615 164.773 57.2031 164.623 57.5121C164.614 57.1894 164.492 56.88 164.278 56.6386C164.063 56.3972 163.771 56.2392 163.451 56.1926C163.132 56.146 162.806 56.2137 162.532 56.3838C162.258 56.5539 162.052 56.8154 161.952 57.1222C161.835 56.8167 161.613 56.563 161.325 56.407C161.038 56.2511 160.704 56.2033 160.384 56.2722C160.064 56.3411 159.78 56.5222 159.582 56.7827C159.384 57.0432 159.286 57.3659 159.306 57.6924C158.901 57.4585 158.121 57.2295 156.986 57.902C155.256 58.9206 155.87 60.4509 155.87 60.4509C155.87 60.4509 153.097 60.1974 152.785 62.1274C152.473 64.0573 153.272 65.6363 155.221 65.4122C157.171 65.188 157.995 62.834 157.995 62.834C158.065 62.4223 158.257 62.0411 158.547 61.7397C158.836 61.4383 159.209 61.2304 159.617 61.1429C161.079 60.7871 163.848 62.142 164.004 64.0963C164.16 66.0506 161.806 64.8127 161.601 66.3186C161.396 67.8246 163.263 68.3948 163.336 70.2419C163.409 72.0889 163.214 75.7051 162.113 76.4264C161.011 77.1477 160.007 76.0706 158.959 75.1593C157.912 74.2479 155.509 73.629 155.007 74.8717C154.505 76.1145 155.007 78.4441 155.329 80.72C155.65 82.996 156.357 84.5555 158.55 84.5701C160.743 84.5847 162.756 82.4453 162.756 82.4453C162.756 82.4453 166.392 79.7209 166.918 78.0249C167.444 76.3289 164.969 73.4097 165.09 71.6065C165.212 69.8032 165.378 70.1444 166.299 70.8169C167.22 71.4895 167.011 73.7411 167.824 74.5062C168.01 74.6893 168.224 74.8408 168.458 74.9546C168.541 75.3787 168.766 75.7618 169.096 76.0408C169.426 76.3198 169.841 76.478 170.273 76.4894C170.705 76.5008 171.128 76.3646 171.473 76.1033C171.817 75.842 172.062 75.4712 172.167 75.0521C172.206 74.8927 172.224 74.7288 172.22 74.5647C172.505 74.5771 172.788 74.5157 173.042 74.3865C173.296 74.2573 173.512 74.0646 173.669 73.8273C173.826 73.5899 173.92 73.3159 173.94 73.0318C173.96 72.7477 173.907 72.4632 173.785 72.2059C174.063 72.1273 174.315 71.9769 174.516 71.7698C174.717 71.5628 174.86 71.3064 174.93 71.0265Z" stroke="#263238" stroke-linecap="round" stroke-linejoin="round"/>
<path d="M160.524 58.1943C160.403 58.3426 160.321 58.519 160.286 58.7072C160.251 58.8955 160.264 59.0894 160.324 59.2713C160.495 59.8269 160.69 60.826 160.134 61.5034C159.33 62.4781 158.404 62.8924 158.911 64.1205C159.418 65.3486 161.377 65.5826 162.434 65.027C163.492 64.4714 163.209 61.289 162.493 59.4565C161.918 57.9896 161.075 57.5704 160.524 58.1943Z" fill="white" stroke="#263238" stroke-linecap="round" stroke-linejoin="round"/>
<path d="M156.752 69.4769C156.752 69.4769 156.186 67.776 158.652 68.1366" stroke="#263238" stroke-width="2" stroke-linecap="round" stroke-linejoin="round"/>
<path d="M157.561 70.8797C157.595 71.3671 157.468 71.7277 157.273 71.7472C157.078 71.7667 156.888 71.3963 156.854 70.9334C156.82 70.4704 156.942 70.0805 157.142 70.0659C157.341 70.0512 157.522 70.4119 157.561 70.8797Z" fill="#263238"/>
<path d="M157.229 72.2397L159.018 71.6938" stroke="#263238" stroke-linecap="round" stroke-linejoin="round"/>
<path d="M158.472 75.5781C158.149 76.1117 157.748 76.5945 157.283 77.011C156.44 77.8005 156.006 77.6932 156.006 77.6932C156.209 78.0059 156.516 78.237 156.873 78.3457C157.229 78.4545 157.613 78.434 157.956 78.2878C159.276 77.8005 158.472 75.5781 158.472 75.5781Z" fill="white" stroke="#263238" stroke-linecap="round" stroke-linejoin="round"/>
<path d="M165.641 72.0155C165.641 72.0155 165.505 69.6957 166.762 68.0046C168.019 66.3134 171.148 65.4752 171.553 66.1234C171.957 66.7715 170.398 70.9531 169.17 71.8254C168.256 72.4095 167.249 72.8315 166.192 73.0731" fill="#CCCCCC"/>
<path d="M165.641 72.0155C165.641 72.0155 165.505 69.6957 166.762 68.0046C168.019 66.3134 171.148 65.4752 171.553 66.1234C171.957 66.7715 170.398 70.9531 169.17 71.8254C168.256 72.4095 167.249 72.8315 166.192 73.0731" stroke="#263238" stroke-linecap="round" stroke-linejoin="round"/>
<path opacity="0.3" d="M36.3814 135.303C42.8601 135.303 48.1121 133.217 48.1121 130.644C48.1121 128.071 42.8601 125.985 36.3814 125.985C29.9028 125.985 24.6508 128.071 24.6508 130.644C24.6508 133.217 29.9028 135.303 36.3814 135.303Z" fill="black"/>
<path d="M39.6225 81.3331C39.6225 81.3331 41.7961 78.6624 37.0542 72.9018C35.173 70.6113 31.2449 68.7447 28.9592 65.9668C26.6735 63.1888 25.9132 61.9607 25.0603 63.9199C24.2075 65.879 25.7134 66.8976 26.7076 68.4815C27.7018 70.0654 30.3725 72.239 30.3725 72.239C30.3725 72.239 27.6579 71.9759 25.9473 70.8598C24.2367 69.7438 23.6178 69.9923 23.7737 71.7273C23.9297 73.4623 25.5282 74.5393 27.0975 75.0803C28.6668 75.6213 30.1922 76.2743 30.1922 76.2743C30.1922 76.2743 26.7563 76.479 25.3625 76.1379C23.9687 75.7967 22.9257 75.4897 23.53 77.4148C24.1344 79.3398 26.5565 80.2512 27.7213 80.2365C28.8861 80.2219 30.007 80.3145 30.007 80.3145C30.007 80.3145 25.8742 81.2454 24.573 81.5914C23.2717 81.9374 24.0856 83.3118 25.0603 83.7309C26.035 84.15 29.7341 83.9307 29.7341 83.9307C29.7341 83.9307 26.4298 85.344 27.2681 86.9913C28.1063 88.6386 32.5169 86.3041 32.5169 86.3041C33.4201 86.6975 34.4099 86.85 35.3897 86.7467C36.3694 86.6433 37.3056 86.2877 38.1068 85.7144C41.0359 83.7406 39.6225 81.3331 39.6225 81.3331Z" fill="white" stroke="#263238" stroke-linecap="round" stroke-linejoin="round"/>
<path d="M34.9779 75.3583C34.9779 75.3583 32.3998 73.867 32.1171 75.4216C31.8345 76.9763 35.2118 79.3205 35.2118 79.3205C35.2118 79.3205 31.8247 78.5164 31.8734 80.2075C31.9222 81.8986 35.8503 82.9367 35.8503 82.9367" stroke="#263238" stroke-linecap="round" stroke-linejoin="round"/>
<path d="M31.235 80.5679C31.235 80.5679 32.1805 77.2538 25.5573 73.8277C22.9256 72.4631 18.5784 72.2877 15.3862 70.6307C12.194 68.9736 11 68.15 11 70.2798C11 72.4095 12.774 72.7604 14.314 73.8277C15.8541 74.895 19.1876 75.8356 19.1876 75.8356C19.1876 75.8356 16.5851 76.6641 14.5723 76.323C12.5595 75.9818 12.0917 76.4399 12.9202 77.98C13.7487 79.52 15.6396 79.8709 17.3064 79.754C18.9731 79.637 20.6204 79.637 20.6204 79.637C20.6204 79.637 17.5452 81.1722 16.127 81.411C14.7088 81.6498 13.6415 81.7619 14.9427 83.3019C16.244 84.842 18.8416 84.7201 19.9089 84.2474C20.9762 83.7746 22.0386 83.4189 22.0386 83.4189C22.0386 83.4189 18.6271 85.9044 17.5452 86.7329C16.4633 87.5614 17.7791 88.5069 18.8464 88.5069C19.9137 88.5069 23.2326 86.8499 23.2326 86.8499C23.2326 86.8499 20.7471 89.4524 22.1653 90.6318C23.5835 91.8112 26.7221 87.9367 26.7221 87.9367C27.7075 87.9424 28.6775 87.6926 29.5377 87.2117C30.3978 86.7308 31.1186 86.0353 31.6298 85.1929C33.4817 82.22 31.235 80.5679 31.235 80.5679Z" fill="white" stroke="#263238" stroke-linecap="round" stroke-linejoin="round"/>
<path d="M24.6119 76.9034C24.6119 76.9034 21.6537 76.5476 22.0094 78.0828C22.3652 79.6179 26.3956 80.4464 26.3956 80.4464C26.3956 80.4464 22.9841 81.041 23.6762 82.5762C24.3682 84.1114 28.4035 83.5217 28.4035 83.5217" stroke="#263238" stroke-linecap="round" stroke-linejoin="round"/>
<path d="M32.4144 124.44C32.4144 124.44 32.5362 126.336 31.7077 126.926C30.8792 127.515 26.2688 130.235 26.9755 130.825C27.6821 131.414 32.4144 130.113 33.9544 128.929C35.4945 127.744 35.0168 124.318 35.0168 124.318C35.0168 124.318 33.3501 124.44 32.4144 124.44Z" fill="white" stroke="#263238" stroke-linecap="round" stroke-linejoin="round"/>
<path d="M40.2169 124.44C40.2169 124.44 40.0999 126.336 40.9236 126.926C41.7472 127.515 46.3673 130.235 45.6558 130.825C44.9443 131.414 40.2169 130.113 38.6769 128.929C37.1368 127.744 37.6144 124.318 37.6144 124.318C37.6144 124.318 39.2714 124.44 40.2169 124.44Z" fill="white" stroke="#263238" stroke-linecap="round" stroke-linejoin="round"/>
<path d="M50.5831 90.4468C49.9008 87.9223 46.114 83.5507 43.4921 80.2464C40.8701 76.9422 38.8281 76.1673 37.2734 76.2647C37.2734 76.2647 30.9378 79.569 28.1404 81.2211C25.3429 82.8733 26.2933 85.4953 26.6783 87.9223C26.9122 89.3844 27.4678 97.5183 27.8674 103.732C27.921 104.902 28.0039 106.452 28.1306 107.85C28.2524 109.8 28.3304 111.042 28.3304 111.042L28.3743 112.339C28.3109 113.655 28.155 114.932 28.155 116.637C28.155 119.591 28.3889 123.022 28.3889 123.022L31.7029 124.796C32.5264 125.549 33.5008 126.118 34.5613 126.465C35.6218 126.812 36.744 126.929 37.8534 126.808C41.7522 126.453 42.8195 123.616 42.8195 123.616C42.8195 123.616 44.2377 123.26 44.7105 122.315C45.1832 121.37 45.422 108.357 45.6559 105.876C46.002 103.138 46.2992 100.637 46.4016 99.3995C46.4966 97.5862 46.7892 95.7886 47.274 94.0386C47.274 94.0386 51.2605 92.9762 50.5831 90.4468Z" fill="white" stroke="#263238" stroke-linecap="round" stroke-linejoin="round"/>
<path d="M37.2734 76.2647C37.2734 76.2647 34.783 77.5659 32.2292 78.9451C33.5061 81.9083 37.4976 90.8074 39.1887 90.2762C40.5874 89.8327 42.1908 84.0624 43.1119 79.7883C40.6605 76.8739 38.7501 76.1721 37.2734 76.2647Z" fill="url(#paint2_linear_367_1383)" stroke="#263238" stroke-linecap="round" stroke-linejoin="round"/>
<path d="M45.2904 114.298C44.5544 114.883 43.8283 115.482 43.2581 115.965C43.2581 115.965 41.0162 118.007 36.3181 118.007C31.62 118.007 31.2155 116.579 31.2155 116.579C30.1467 116.412 29.1186 116.047 28.1842 115.502C28.1842 115.857 28.1598 116.228 28.1598 116.623C28.1598 117.432 28.1598 118.275 28.2037 119.059L31.2155 121.442C31.2155 121.442 33.4622 123.485 37.7461 123.28C42.0299 123.075 43.2581 120.015 43.2581 120.015C43.2581 120.015 43.955 120.097 45.0564 119.254C45.1442 117.865 45.2221 116.096 45.2904 114.298Z" fill="url(#paint3_linear_367_1383)" stroke="#263238" stroke-linecap="round" stroke-linejoin="round"/>
<path d="M31.1717 123.991L30.8793 113.825" stroke="#263238" stroke-linecap="round" stroke-linejoin="round"/>
<path d="M43.073 107.938L43.1022 106.169" stroke="#263238" stroke-linecap="round" stroke-linejoin="round"/>
<path d="M42.8243 123.616L43.0388 110.141" stroke="#263238" stroke-linecap="round" stroke-linejoin="round"/>
<path d="M34.939 76.2646C34.939 76.2646 37.4683 84.2329 38.5357 84.5205C39.603 84.808 40.0903 76.3621 40.0903 76.3621L34.939 76.2646Z" fill="#CCCCCC" stroke="#263238" stroke-linecap="round" stroke-linejoin="round"/>
<path d="M45.5876 90.5101C46.6249 90.1455 47.636 89.7108 48.6141 89.2088C49.2038 88.7897 50.6269 88.9115 51.28 91.1046C51.933 93.2977 51.8745 95.9051 50.4515 97.3867C49.0284 98.8682 45.2952 100.35 45.2952 100.35C45.2952 100.35 43.4579 93.8874 43.5164 91.6943C43.5749 89.5012 45.5876 90.5101 45.5876 90.5101Z" fill="white" stroke="#263238" stroke-linecap="round" stroke-linejoin="round"/>
<path d="M48.9748 91.8797C48.8627 90.442 48.4582 89.789 48.1024 89.4868C47.1813 89.9303 45.5876 90.5103 45.5876 90.5103C45.5876 90.5103 43.5749 89.5014 43.5164 91.6945C43.4579 93.8876 45.2952 100.35 45.2952 100.35C46.647 99.8102 47.9512 99.1581 49.1941 98.4006C49.1502 96.495 49.1064 93.5709 48.9748 91.8797Z" fill="url(#paint4_linear_367_1383)" stroke="#263238" stroke-linecap="round" stroke-linejoin="round"/>
<path d="M45.2952 100.35C45.2952 100.35 46.538 97.7427 46.538 95.6081C46.5308 93.9778 46.271 92.3584 45.768 90.8076C45.5876 90.5103 43.9891 89.7403 43.5164 91.1634C43.0436 92.5865 44.9979 99.6385 45.2952 100.35Z" fill="#263238" stroke="#263238" stroke-linecap="round" stroke-linejoin="round"/>
<path d="M42.6099 82.9267C42.6099 82.9267 44.5106 83.0437 44.8663 84.8761C45.2221 86.7086 45.9288 90.0908 46.1676 91.1582C46.4064 92.2255 46.8206 94.0823 45.8118 94.8913C44.803 95.7003 43.2629 94.7159 42.4344 93.1125C41.6059 91.5091 41.0114 85.5292 41.0114 84.9931C41.0114 84.457 41.0845 82.0933 42.6099 82.9267Z" fill="#CCCCCC" stroke="#263238" stroke-linecap="round" stroke-linejoin="round"/>
<path d="M38.6575 92.05C39.0059 91.5242 39.1908 90.9069 39.1887 90.276C39.1887 89.2087 38.4187 87.7856 39.1302 86.538C39.8417 85.2904 40.5533 83.6139 40.8506 83.2825C41.039 83.0583 41.285 82.8898 41.5621 82.7951C41.5621 82.7951 42.0933 82.2639 42.5076 82.4393C42.9218 82.6148 42.9949 83.3312 42.9949 83.3312C43.3768 83.6187 43.6319 84.0434 43.7065 84.5155C43.765 85.227 43.765 85.7582 43.765 85.7582C43.9966 85.9147 44.173 86.1402 44.2693 86.4026C44.3655 86.6651 44.3766 86.9512 44.3011 87.2203C44.0038 88.1707 43.4725 89.5937 43.531 90.7195C43.5895 91.8453 43.5895 93.5023 42.761 94.5696C41.9325 95.6369 39.0279 96.1097 39.0279 96.1097L38.6575 92.05Z" fill="#CCCCCC" stroke="#263238" stroke-linecap="round" stroke-linejoin="round"/>
<path d="M41.5621 82.8052C41.0712 83.9235 40.6544 85.0729 40.3145 86.2459C40.212 86.6118 40.1724 86.9925 40.1975 87.3717" stroke="#263238" stroke-linecap="round" stroke-linejoin="round"/>
<path d="M42.9803 83.3364C42.5119 84.2931 42.1161 85.2836 41.7961 86.2996C41.6791 87.0111 41.5621 88.1369 41.5621 88.1369" stroke="#263238" stroke-linecap="round" stroke-linejoin="round"/>
<path d="M43.7503 85.7734C43.3327 86.4311 42.9771 87.1262 42.6879 87.8496C42.5661 88.3808 42.3906 89.3896 42.3906 89.3896" stroke="#263238" stroke-linecap="round" stroke-linejoin="round"/>
<path d="M28.1403 81.2212C28.1403 81.2212 24.2415 82.1959 24.0612 83.3558C23.8808 84.5157 25.0359 99.8723 25.9082 100.262C26.7806 100.652 40.2219 101.261 40.2219 101.261L39.023 91.7091L31.0547 92.5961C31.0547 92.5961 29.5926 87.7225 29.3051 85.3101" fill="white"/>
<path d="M28.1403 81.2212C28.1403 81.2212 24.2415 82.1959 24.0612 83.3558C23.8808 84.5157 25.0359 99.8723 25.9082 100.262C26.7806 100.652 40.2219 101.261 40.2219 101.261L39.023 91.7091L31.0547 92.5961C31.0547 92.5961 29.5926 87.7225 29.3051 85.3101" stroke="#263238" stroke-linecap="round" stroke-linejoin="round"/>
<path d="M35.2996 101.013C38.0044 101.159 40.2365 101.261 40.2365 101.261L39.0376 91.709L34.1641 92.2451L35.2996 101.013Z" fill="url(#paint5_linear_367_1383)" stroke="#263238" stroke-linecap="round" stroke-linejoin="round"/>
<path d="M31.0546 92.5959C30.581 92.5244 30.0968 92.6065 29.6732 92.8301C29.2496 93.0538 28.9088 93.4072 28.7007 93.8387" stroke="#263238" stroke-linecap="round" stroke-linejoin="round"/>
<path d="M44.1208 61.8101L44.1841 62.0343L45.7534 67.6438C45.7534 67.6438 46.6989 69.9636 46.0117 71.6791C45.3245 73.3946 42.3175 75.7144 39.486 75.9678C36.6545 76.2212 33.7352 73.6529 33.0529 70.9042L32.278 70.8213C32.278 70.8213 30.4748 71.0796 28.501 69.447C26.5272 67.8143 25.996 65.9624 27.809 64.7879C29.6219 63.6133 30.9037 64.3005 30.9037 64.3005C30.9037 64.3005 30.4163 59.7535 32.1074 58.2086C33.7986 56.6636 39.1449 57.0925 41.5475 56.6636C43.9502 56.2348 44.5496 58.2086 44.5496 59.154C44.486 60.0504 44.3424 60.9393 44.1208 61.8101Z" fill="#CCCCCC" stroke="#263238" stroke-linecap="round" stroke-linejoin="round"/>
<path d="M47.2982 72.7948C47.2567 70.9699 46.7229 69.1901 45.7533 67.6435C45.7533 67.6435 46.5233 69.359 45.2367 70.0461C43.9501 70.7333 43.7747 69.6173 42.064 69.4467C40.3534 69.2761 36.5715 72.7948 35.9672 72.5365C35.3629 72.2782 33.5645 68.7595 32.9651 67.814C32.3656 66.8686 31.849 65.7574 33.1357 64.9825C34.4223 64.2076 34.3394 63.5204 33.3062 62.9259C32.273 62.3313 32.5362 60.0017 35.1095 59.7483C37.6827 59.4949 37.4293 60.8643 39.3153 60.606C41.2014 60.3477 42.7268 58.4617 42.7268 58.4617L44.0963 61.8098C44.4813 61.5474 44.79 61.1878 44.9911 60.7676C45.1923 60.3473 45.2787 59.8813 45.2416 59.4169C45.4188 59.2685 45.5553 59.0775 45.6385 58.8618C45.7216 58.6462 45.7486 58.4129 45.717 58.184C45.6853 57.955 45.596 57.7379 45.4574 57.5529C45.3189 57.3679 45.1356 57.2211 44.9248 57.1263C45.0014 56.9511 45.0412 56.762 45.0418 56.5707C45.042 56.2702 44.9426 55.9781 44.7592 55.74C44.5758 55.502 44.3187 55.3314 44.0281 55.2549C44.0709 55.0959 44.0938 54.9322 44.0963 54.7675C44.0963 54.2669 43.8978 53.7866 43.5442 53.4321C43.1906 53.0777 42.7109 52.8779 42.2102 52.8766C42.0809 52.877 41.952 52.89 41.8252 52.9156C41.7491 52.558 41.5708 52.2303 41.3118 51.9722C41.0529 51.7142 40.7246 51.5369 40.3667 51.462C40.0089 51.3872 39.6371 51.4179 39.2964 51.5505C38.9557 51.6831 38.6609 51.9118 38.4479 52.2089C38.3138 51.9008 38.0999 51.634 37.8282 51.4363C37.5565 51.2385 37.2369 51.117 36.9024 51.0842C36.568 51.0514 36.2309 51.1086 35.9259 51.2497C35.621 51.3909 35.3593 51.611 35.1679 51.8872C35.0427 51.7369 34.8863 51.6155 34.7096 51.5314C34.533 51.4473 34.3402 51.4024 34.1445 51.3999C33.78 51.3999 33.4304 51.5447 33.1727 51.8024C32.9149 52.0602 32.7701 52.4097 32.7701 52.7742C32.7726 52.932 32.8006 53.0884 32.853 53.2372C32.7377 53.0193 32.5651 52.8369 32.3539 52.7098C32.1426 52.5827 31.9007 52.5157 31.6541 52.5159C31.2896 52.5159 30.94 52.6607 30.6823 52.9185C30.4246 53.1762 30.2798 53.5258 30.2798 53.8903C30.2798 53.8903 30.2798 53.9293 30.2798 53.9488C30.0929 53.8524 29.8857 53.8023 29.6754 53.8025C29.3109 53.8025 28.9614 53.9473 28.7036 54.2051C28.4459 54.4628 28.3011 54.8124 28.3011 55.1769C28.3009 55.267 28.3107 55.3569 28.3303 55.4449H28.2134C27.8502 55.4449 27.5018 55.5892 27.245 55.8461C26.9882 56.1029 26.8439 56.4512 26.8439 56.8144C26.8423 57.1586 26.9732 57.4901 27.2094 57.7404C26.9654 57.8194 26.7484 57.9654 26.5833 58.1617C26.4182 58.358 26.3115 58.5968 26.2754 58.8507C26.2394 59.1047 26.2754 59.3637 26.3793 59.5982C26.4833 59.8327 26.651 60.0333 26.8634 60.1772C26.7054 60.298 26.5757 60.4519 26.4834 60.6282C26.3911 60.8044 26.3385 60.9987 26.3292 61.1974C26.32 61.3961 26.3542 61.5945 26.4297 61.7786C26.5051 61.9626 26.6199 62.128 26.7659 62.2631C26.5217 62.4273 26.3366 62.6656 26.238 62.943C26.1394 63.2203 26.1324 63.5219 26.2181 63.8035C26.3038 64.0851 26.4776 64.3318 26.7139 64.5071C26.9503 64.6825 27.2367 64.7774 27.5311 64.7778C27.6145 64.7769 27.6976 64.7688 27.7796 64.7534C28.4522 65.8013 29.3294 65.5527 29.3294 65.5527C30.3626 66.8487 31.1219 68.3409 31.5615 69.9389C32.2487 72.5122 32.3364 75.0854 33.5353 76.372C34.7342 77.6586 39.5444 79.5496 43.3214 78.6041C47.0984 77.6586 47.3811 75.8847 47.2982 72.7948Z" fill="#263238" stroke="#263238" stroke-linecap="round" stroke-linejoin="round"/>
<path d="M36.5423 46C32.2438 46 28.7446 47.4621 28.7446 49.2166C28.7446 50.971 32.2341 52.4331 36.5423 52.4331C40.8506 52.4331 44.34 50.971 44.34 49.2166C44.34 47.4621 40.8408 46 36.5423 46ZM36.5423 50.9369C33.3501 50.9369 30.7672 50.0158 30.7672 48.8851C30.7672 47.7545 33.3501 46.8285 36.5423 46.8285C39.7345 46.8285 42.3175 47.7496 42.3175 48.8851C42.3175 50.0207 39.7296 50.9369 36.5423 50.9369Z" fill="white" stroke="#263238" stroke-linecap="round" stroke-linejoin="round"/>
<path d="M41.5475 62.8379C41.3588 64.1237 41.4167 65.4336 41.7181 66.6978C42.2347 68.4181 43.3507 69.4464 42.2347 70.4748C41.1186 71.5031 39.5737 70.8208 39.486 69.7047" fill="#CCCCCC"/>
<path d="M41.5475 62.8379C41.3588 64.1237 41.4167 65.4336 41.7181 66.6978C42.2347 68.4181 43.3507 69.4464 42.2347 70.4748C41.1186 71.5031 39.5737 70.8208 39.486 69.7047" stroke="#263238" stroke-linecap="round" stroke-linejoin="round"/>
<path d="M42.4053 66.4443L44.1208 65.9277L43.6919 64.8994" stroke="#263238" stroke-linecap="round" stroke-linejoin="round"/>
<path d="M36.8251 67.5605L38.8866 67.3022L38.6283 66.0156" stroke="#263238" stroke-linecap="round" stroke-linejoin="round"/>
<path d="M38.8866 63.4376C38.8866 63.4376 36.5716 62.151 35.4751 64.2125" stroke="#263238" stroke-width="2" stroke-linecap="round" stroke-linejoin="round"/>
<path d="M41.8887 62.497C41.8887 62.497 42.0641 60.9521 43.3507 61.6344" stroke="#263238" stroke-width="2" stroke-linecap="round" stroke-linejoin="round"/>
<path d="M42.761 73.3748C42.762 73.5005 42.7255 73.6237 42.6563 73.7286C42.587 73.8335 42.4881 73.9155 42.3722 73.9641C42.2562 74.0126 42.1284 74.0256 42.0051 74.0013C41.8817 73.977 41.7684 73.9165 41.6795 73.8276C41.5906 73.7388 41.5301 73.6254 41.5058 73.5021C41.4815 73.3787 41.4945 73.2509 41.5431 73.135C41.5916 73.019 41.6736 72.9201 41.7785 72.8509C41.8834 72.7816 42.0066 72.7451 42.1323 72.7461C42.2987 72.7474 42.4578 72.814 42.5755 72.9317C42.6931 73.0493 42.7597 73.2085 42.761 73.3748Z" fill="white"/>
<defs>
<linearGradient id="paint0_linear_367_1383" x1="7.35716" y1="134.722" x2="206.768" y2="218.005" gradientUnits="userSpaceOnUse">
<stop stop-color="#3757FF"/>
<stop offset="1" stop-color="#278EFF"/>
</linearGradient>
<linearGradient id="paint1_linear_367_1383" x1="171.222" y1="80.1333" x2="171.222" y2="134.454" gradientUnits="userSpaceOnUse">
<stop stop-color="#FF291C"/>
<stop offset="1" stop-color="#FF5351"/>
</linearGradient>
<linearGradient id="paint2_linear_367_1383" x1="37.6706" y1="76.2568" x2="37.6706" y2="90.299" gradientUnits="userSpaceOnUse">
<stop stop-color="#4BF8A5"/>
<stop offset="1" stop-color="#34CE84"/>
</linearGradient>
<linearGradient id="paint3_linear_367_1383" x1="28.1147" y1="117.65" x2="45.6522" y2="118.573" gradientUnits="userSpaceOnUse">
<stop stop-color="#48F1A0"/>
<stop offset="1" stop-color="#32CA81"/>
</linearGradient>
<linearGradient id="paint4_linear_367_1383" x1="46.3545" y1="89.4868" x2="46.3545" y2="100.35" gradientUnits="userSpaceOnUse">
<stop stop-color="#48F2A0"/>
<stop offset="1" stop-color="#32CA81"/>
</linearGradient>
<linearGradient id="paint5_linear_367_1383" x1="37.2003" y1="91.709" x2="37.2003" y2="101.261" gradientUnits="userSpaceOnUse">
<stop stop-color="#4FFFAA"/>
<stop offset="1" stop-color="#2DC07A"/>
</linearGradient>
</defs>
</svg>
