<svg width="298" height="284" viewBox="0 0 298 284" fill="none" xmlns="http://www.w3.org/2000/svg">
<path d="M220.794 16.4084C220.794 16.4084 190.834 -8.08112 151.86 2.77649C112.887 13.6341 96.5811 47.2376 74.2299 70.343C62.5216 82.4409 45.2405 86.899 31.3353 96.2107C-13.1216 125.985 -6.54316 192.929 27.7438 218.185C57.4217 240.044 94.504 242.333 142.762 226.208C191.02 210.084 225.558 200.395 255.488 154.214C285.417 108.033 257.696 49.6524 220.794 16.4084Z" fill="#DAE5FF"/>
<path opacity="0.7" d="M252.139 61.5076C252.139 61.5076 223.219 36.87 185.596 47.7933C147.973 58.7165 132.233 92.523 110.657 115.768C99.3542 127.939 82.6721 132.424 69.249 141.792C26.3333 171.746 32.6837 239.094 65.782 264.503C94.431 286.495 130.228 288.797 176.813 272.575C223.398 256.353 256.739 246.606 285.631 200.146C314.522 153.686 287.763 94.9524 252.139 61.5076Z" fill="#DAE5FF"/>
<path d="M257.377 277.951C251.576 255.391 244.135 194.511 242.693 191.337C241.25 188.163 221.82 186.512 203.097 183.246C184.373 179.98 168.068 167.511 161.241 166.916C157.393 166.556 153.525 166.457 149.663 166.621C149.663 166.621 74.1539 184.209 62.5636 184.805C50.9732 185.4 43.5697 186.291 43.2688 190.447C43.011 194.087 37.7929 261.437 37.5719 277.951" fill="#2D83FF"/>
<mask id="mask0_428_1113" style="mask-type:luminance" maskUnits="userSpaceOnUse" x="37" y="166" width="221" height="112">
<path d="M257.377 277.951C251.576 255.391 244.135 194.511 242.693 191.337C241.25 188.163 221.82 186.512 203.097 183.246C184.373 179.98 168.068 167.511 161.241 166.916C158.448 166.655 155.644 166.531 152.84 166.546C150.726 166.557 148.646 166.858 146.586 167.334C132.304 170.634 72.7497 184.282 62.5636 184.805C50.9732 185.4 43.5697 186.291 43.2688 190.447C43.011 194.087 37.7929 261.437 37.5719 277.951" fill="white"/>
</mask>
<g mask="url(#mask0_428_1113)">
<g opacity="0.3">
<path d="M36.479 265.823C36.0037 272.496 41.3053 277.951 47.9952 277.951H51.2081C57.8355 277.951 62.0942 272.187 64.9037 266.185C65.0501 265.872 65.2089 265.56 65.3813 265.25C69.7277 257.429 81.0233 233.941 79.7219 225.273C78.4204 216.605 71.465 213.112 74.074 217.452C76.6831 221.792 78.4204 233.1 74.074 226.145C69.7277 219.189 59.2976 195.296 48.0019 196.162C47.3044 196.216 46.6582 196.306 46.0596 196.426C42.7606 197.086 41.296 200.518 41.1432 203.879C40.3899 220.441 37.724 248.346 36.479 265.823Z" fill="#2C49CF"/>
<path d="M223.647 277.947C230.964 277.95 235.225 269.552 232.327 262.833C231.051 259.876 230.076 256.863 229.635 253.955C227.462 239.615 227.026 225.274 223.551 224.409C220.908 223.75 215.243 241.952 212.685 250.696C212.41 251.635 211.008 251.5 210.91 250.526V250.526C210.816 249.585 209.291 249.334 208.85 250.17C205.686 256.164 197.502 268.305 180.1 276.534V276.534C179.426 276.85 179.646 277.935 180.39 277.935L223.647 277.947Z" fill="#2C49CF"/>
<path d="M142.195 185.587C139.725 184.44 137.712 187.626 136.708 190.158C133.483 198.3 125.407 217.226 115.973 228.416C108.473 237.312 93.3729 254.539 82.7699 266.583C78.2462 271.722 81.9013 279.8 88.7475 279.8V279.8C91.3842 279.8 93.8451 278.497 95.3178 276.31C103.267 264.504 129.108 225.955 137.827 210.779C145.835 196.843 145.805 187.263 142.195 185.587Z" fill="#2C49CF"/>
<path d="M219.994 198.132C219.735 198.306 219.481 198.477 219.219 198.647C216.879 200.169 204.775 208.509 203.201 219.111C201.457 230.854 212.207 230.609 215.135 219.896C218.063 209.184 226.394 200.147 226.007 197.096C225.68 194.514 221.325 197.235 219.994 198.132Z" fill="#2C49CF"/>
</g>
<path d="M211.415 236.115C210.476 239.375 209.635 242.923 209.635 245.17C209.635 250.235 212.753 277.13 212.753 277.13" stroke="#2C49CF" stroke-linecap="round" stroke-linejoin="round"/>
<path d="M213.919 228.386C213.919 228.386 213.447 229.688 212.808 231.609" stroke="#2C49CF" stroke-linecap="round" stroke-linejoin="round"/>
<path d="M209.634 245.145L207.296 232.284" stroke="#2C49CF" stroke-linecap="round" stroke-linejoin="round"/>
<path d="M83.442 220.312C84.0049 222.966 84.1128 225.696 83.7612 228.385C82.5886 239.3 82.3308 276.987 82.3308 276.987" stroke="#2C49CF" stroke-linecap="round" stroke-linejoin="round"/>
<path d="M80.2499 214.751C81.0713 215.332 81.7375 216.105 82.1898 217.004" stroke="#2C49CF" stroke-linecap="round" stroke-linejoin="round"/>
<path d="M88.8257 218.643C88.8257 218.643 91.9443 223.321 88.8257 229.558C85.7072 235.795 82.9999 244.85 82.9999 244.85" stroke="#2C49CF" stroke-linecap="round" stroke-linejoin="round"/>
</g>
<path d="M257.377 277.951C251.576 255.391 244.135 194.511 242.693 191.337C241.25 188.163 221.82 186.512 203.097 183.246C184.373 179.98 168.068 167.511 161.241 166.916C157.393 166.556 153.525 166.457 149.663 166.621C149.663 166.621 74.1539 184.209 62.5636 184.805C50.9732 185.4 43.5697 186.291 43.2688 190.447C43.011 194.087 37.7929 261.437 37.5719 277.951" stroke="#263238" stroke-linecap="round" stroke-linejoin="round"/>
<path opacity="0.3" d="M113.179 174.872C113.179 174.872 109.269 181.821 110.57 189.642C111.872 197.463 111.442 217.022 115.353 213.977C119.263 210.932 125.476 201.951 129.257 202.245C133.039 202.54 150.547 197.439 150.547 197.439C150.547 197.439 165.76 205.696 172.273 208.305C178.786 210.914 177.927 209.176 175.754 201.785C173.581 194.394 174.446 188.752 174.882 176.149C175.318 163.545 141.185 161.587 132.732 163.981C124.279 166.376 111.878 173.564 113.179 174.872Z" fill="black"/>
<path d="M127.993 154.466C127.993 154.466 115.23 157.438 112.259 163.374C109.287 169.31 117.335 196.604 117.335 200.76C117.335 204.916 117.636 206.101 117.636 206.991C117.636 207.881 120.006 209.072 122.682 204.615C125.359 200.159 137.52 193.338 141.977 191.853C146.434 190.367 153.85 188.587 156.815 190.072C159.78 191.558 172.255 206.101 177.301 207.875C182.347 209.649 177.595 205.205 177.301 201.644C177.006 198.084 184.422 188.875 179.677 172.846C174.931 156.818 169.253 153.238 160.922 152.072C152.591 150.906 127.993 154.466 127.993 154.466Z" fill="white" stroke="#263238" stroke-linecap="round" stroke-linejoin="round"/>
<path d="M123.241 138.419C123.241 138.419 121.166 163.061 122.056 168.697C122.946 174.332 137.79 196.322 146.692 196.899C155.593 197.476 171.358 173.154 171.358 167.217V141.98C171.358 141.98 157.699 149.402 143.733 145.841C129.766 142.281 124.438 139.015 124.438 139.015L123.241 138.419Z" fill="#CCCCCC"/>
<mask id="mask1_428_1113" style="mask-type:luminance" maskUnits="userSpaceOnUse" x="121" y="138" width="51" height="59">
<path d="M123.241 138.419C123.241 138.419 121.166 163.061 122.056 168.697C122.946 174.332 137.79 196.322 146.692 196.899C155.593 197.476 171.358 173.154 171.358 167.217V141.98C171.358 141.98 157.699 149.402 143.733 145.841C129.766 142.281 124.438 139.015 124.438 139.015L123.241 138.419Z" fill="white"/>
</mask>
<g mask="url(#mask1_428_1113)">
<path opacity="0.3" d="M158.153 167.788C164.63 165.946 168.749 163.792 171.333 161.925V141.98C171.333 141.98 157.674 149.402 143.708 145.841C132.148 142.888 126.519 140.144 124.904 139.291C124.291 139.537 123.677 139.788 123.063 140.04C122.621 145.62 121.252 163.933 122.007 168.697C122.348 170.157 122.89 171.564 123.615 172.877C123.694 170.71 123.899 168.55 124.229 166.407C124.923 162.723 126.537 163.638 129.073 165.713C131.608 167.788 143.407 171.938 158.153 167.788Z" fill="black"/>
</g>
<path d="M123.241 138.419C123.241 138.419 121.166 163.061 122.056 168.697C122.946 174.332 137.79 196.322 146.692 196.899C155.593 197.476 171.358 173.154 171.358 167.217V141.98C171.358 141.98 157.699 149.402 143.733 145.841C129.766 142.281 124.438 139.015 124.438 139.015L123.241 138.419Z" stroke="#263238" stroke-linecap="round" stroke-linejoin="round"/>
<path d="M116.415 110.18C116.415 110.18 114.039 97.7118 109.588 96.5269C105.137 95.3421 104.542 109.29 107.212 117.307C109.883 125.325 117.035 129.18 118.79 125.024C120.546 120.868 116.415 110.18 116.415 110.18Z" fill="#CCCCCC" stroke="#263238" stroke-linecap="round" stroke-linejoin="round"/>
<path d="M118.496 117.903C118.496 117.903 111.074 103.059 108.403 103.354C105.733 103.649 107.513 110.776 107.513 110.776" stroke="#263238" stroke-linecap="round" stroke-linejoin="round"/>
<path d="M115.23 112.262C115.23 112.262 110.773 109.29 110.773 115.822" stroke="#263238" stroke-linecap="round" stroke-linejoin="round"/>
<path d="M177.301 110.18C177.301 110.18 179.676 97.7118 184.127 96.5269C188.578 95.3421 189.173 109.29 186.503 117.307C183.832 125.325 176.681 129.18 174.925 125.024C173.169 120.868 177.301 110.18 177.301 110.18Z" fill="#CCCCCC" stroke="#263238" stroke-linecap="round" stroke-linejoin="round"/>
<path d="M175.22 117.903C175.22 117.903 182.642 103.059 185.312 103.354C187.983 103.649 186.202 110.776 186.202 110.776" stroke="#263238" stroke-linecap="round" stroke-linejoin="round"/>
<path d="M178.485 112.262C178.485 112.262 182.942 109.29 182.942 115.822" stroke="#263238" stroke-linecap="round" stroke-linejoin="round"/>
<path d="M115.23 106.324C115.23 106.324 116.721 124.428 116.721 131.85C116.721 139.272 119.987 148.775 133.941 157.081C147.895 165.387 166.594 160.347 174.612 152.035C182.629 143.723 179.658 126.509 179.063 118.197C178.467 109.885 178.449 100.683 178.449 96.2319C178.449 91.7811 179.063 76.6363 174.293 68.9197C169.523 61.203 139.565 60.012 127.096 66.5439C114.628 73.0757 111.362 84.9608 112.252 88.5091C113.142 92.0574 115.23 106.324 115.23 106.324Z" fill="#CCCCCC"/>
<mask id="mask2_428_1113" style="mask-type:luminance" maskUnits="userSpaceOnUse" x="112" y="62" width="69" height="100">
<path d="M115.23 106.324C115.23 106.324 116.721 124.428 116.721 131.85C116.721 139.272 119.987 148.775 133.941 157.081C147.895 165.387 166.594 160.347 174.612 152.035C182.629 143.723 179.658 126.509 179.063 118.197C178.467 109.885 178.449 100.683 178.449 96.2319C178.449 91.7811 179.063 76.6363 174.293 68.9197C169.523 61.203 139.565 60.012 127.096 66.5439C114.628 73.0757 111.362 84.9608 112.252 88.5091C113.142 92.0574 115.23 106.324 115.23 106.324Z" fill="white"/>
</mask>
<g mask="url(#mask2_428_1113)">
<path opacity="0.3" d="M146.403 71.4615C144.562 71.0932 129.828 69.8224 122.375 69.583C113.781 76.2561 111.497 85.4522 112.258 88.5094C113.149 92.0761 115.23 106.312 115.23 106.312C115.23 106.312 116.721 124.428 116.721 131.85C116.721 137.474 118.606 144.294 125.586 150.881C127.01 149.067 127.772 146.821 127.747 144.515C127.747 137.603 128.668 132.299 125.905 127.694C123.143 123.09 120.607 110.64 122.909 105.336C125.212 100.032 127.287 89.8968 127.747 85.2865C128.207 80.6761 129.589 81.1427 136.734 84.5989C138.853 85.6066 141.163 86.1483 143.509 86.1874C145.854 86.2266 148.181 85.7624 150.332 84.826C150.332 84.826 148.705 71.9219 146.403 71.4615Z" fill="black"/>
<path opacity="0.3" d="M140.731 103.868C140.731 103.868 127.047 102.113 129.582 104.875C132.118 107.638 141.566 109.252 145.022 108.104C148.478 106.956 145.194 104.016 140.731 103.868Z" fill="black"/>
<path opacity="0.3" d="M156.311 96.5826C156.311 96.5826 153.776 101.193 156.311 101.42C158.847 101.647 159.995 96.8097 165.759 98.6576C171.524 100.505 170.37 95.6618 166.68 94.2743C162.991 92.8869 158.153 94.5076 156.311 96.5826Z" fill="black"/>
<path opacity="0.3" d="M179.05 118.198C178.436 109.886 178.436 100.683 178.436 96.2327C178.436 91.7819 179.05 76.6371 174.28 68.9205C173.39 67.4717 171.609 66.25 169.215 65.2739C167.466 65.4274 161.591 66.1641 161.591 66.1641L158.828 83.6785C158.828 83.6785 164.587 82.7577 166.895 80.6827C169.203 78.6077 171.039 80.4494 171.505 85.7535C171.972 91.0575 173.807 94.0472 175.188 97.043C176.57 100.039 175.649 111.562 174.268 119.395C172.886 127.228 176.109 128.382 173.114 136.909C170.118 145.436 161.591 154.191 154.697 157.88C152.241 159.194 152.646 160.305 154.611 161.06C162.776 160.078 170.253 156.542 174.599 152.036C182.611 143.73 179.645 126.51 179.05 118.198Z" fill="black"/>
</g>
<path d="M115.23 106.324C115.23 106.324 116.721 124.428 116.721 131.85C116.721 139.272 119.987 148.775 133.941 157.081C147.895 165.387 166.594 160.347 174.612 152.035C182.629 143.723 179.658 126.509 179.063 118.197C178.467 109.885 178.449 100.683 178.449 96.2319C178.449 91.7811 179.063 76.6363 174.293 68.9197C169.523 61.203 139.565 60.012 127.096 66.5439C114.628 73.0757 111.362 84.9608 112.252 88.5091C113.142 92.0574 115.23 106.324 115.23 106.324Z" stroke="#263238" stroke-linecap="round" stroke-linejoin="round"/>
<path d="M134.07 113.483H140.553" stroke="#263238" stroke-linecap="round" stroke-linejoin="round"/>
<path d="M161.622 114.293L169.32 113.483" stroke="#263238" stroke-linecap="round" stroke-linejoin="round"/>
<path d="M184.09 83.7636C184.09 83.5917 184.09 83.4137 184.09 83.2418C184.977 83.0784 185.782 82.6196 186.375 81.9402C186.967 81.2609 187.312 80.4009 187.353 79.5004C187.395 78.5998 187.13 77.7119 186.602 76.9811C186.074 76.2504 185.314 75.7199 184.447 75.476C185.086 75.0352 185.583 74.4176 185.877 73.6987C186.171 72.9798 186.25 72.1908 186.102 71.4282C185.955 70.6655 185.589 69.9623 185.049 69.4045C184.508 68.8467 183.817 68.4585 183.059 68.2873C183.886 67.4278 184.413 66.3237 184.56 65.1401C184.708 63.9564 184.468 62.7569 183.878 61.7206C183.287 60.6843 182.377 59.867 181.283 59.3909C180.19 58.9147 178.971 58.8053 177.81 59.0789C177.935 58.6267 178.001 58.1604 178.007 57.6915C178.007 56.2147 177.42 54.7985 176.376 53.7543C175.332 52.7101 173.915 52.1234 172.439 52.1234C171.375 52.1257 170.335 52.4347 169.443 53.0136C169.077 51.6383 168.311 50.4025 167.242 49.4629C166.173 48.5232 164.85 47.922 163.439 47.7352C162.028 47.5485 160.594 47.7848 159.317 48.4141C158.041 49.0433 156.98 50.0373 156.269 51.2701C156.063 49.6905 155.338 48.2239 154.209 47.1003C153.08 45.9767 151.609 45.2597 150.029 45.0617C148.448 44.8637 146.846 45.1958 145.475 46.0061C144.103 46.8164 143.039 48.0589 142.45 49.5389C141.712 48.3689 140.653 47.4364 139.399 46.8535C138.144 46.2705 136.748 46.0618 135.378 46.2523C134.008 46.4428 132.723 47.0245 131.675 47.9276C130.627 48.8307 129.862 50.0169 129.472 51.3438C128.716 50.7323 127.818 50.3205 126.861 50.1462C125.905 49.9719 124.919 50.0407 123.996 50.3462C123.073 50.6517 122.241 51.1842 121.577 51.8948C120.913 52.6054 120.438 53.4714 120.196 54.4133C119.588 54.0842 118.905 53.9195 118.214 53.9353C117.523 53.9511 116.849 54.1469 116.256 54.5034C115.664 54.8599 115.176 55.3647 114.838 55.968C114.501 56.5713 114.327 57.2521 114.333 57.9432C114.338 58.4106 114.423 58.8738 114.585 59.3122C113.975 59.0469 113.309 58.9378 112.646 58.9949C111.983 59.0519 111.345 59.2733 110.789 59.6389C110.233 60.0045 109.778 60.5029 109.463 61.089C109.148 61.675 108.984 62.3303 108.986 62.9955C108.993 63.733 109.205 64.4539 109.6 65.0766C108.87 65.2677 108.21 65.6621 107.695 66.214C107.181 66.7659 106.833 67.4525 106.694 68.1941C106.554 68.9356 106.628 69.7015 106.907 70.4027C107.186 71.1039 107.658 71.7115 108.268 72.1549C107.394 72.3519 106.612 72.8368 106.047 73.5318C105.482 74.2267 105.166 75.0914 105.151 75.9871C105.137 76.8827 105.423 77.7574 105.965 78.4707C106.507 79.1841 107.272 79.6947 108.139 79.9206C107.674 80.2812 107.296 80.7409 107.031 81.2664C106.766 81.7918 106.622 82.3697 106.609 82.9579C106.596 83.5461 106.715 84.1298 106.956 84.6664C107.198 85.203 107.556 85.679 108.004 86.0596C107.103 86.321 106.324 86.8918 105.802 87.6715C105.281 88.4512 105.052 89.3899 105.154 90.3221C105.257 91.2544 105.685 92.1206 106.364 92.7682C107.042 93.4157 107.928 93.8031 108.864 93.8622C108.953 94.7974 109.2 95.7108 109.594 96.5633C111.669 100.124 112.565 101.61 112.565 101.61C112.565 101.61 113.517 106.594 115.42 108.706C115.819 113.851 116.715 126.11 116.715 131.887C116.715 139.309 119.981 148.812 133.935 157.118C147.889 165.424 166.588 160.384 174.606 152.072C182.623 143.76 179.652 126.546 179.057 118.234C178.707 113.323 178.565 108.105 178.504 103.734C179.232 103.41 179.916 102.998 180.542 102.506C181.383 101.892 182.132 99.7679 182.715 96.9808C182.831 96.9991 182.948 97.0114 183.065 97.0176C183.84 97.0209 184.599 96.7984 185.25 96.3773C185.901 95.9562 186.415 95.3548 186.729 94.6464C187.044 93.938 187.145 93.1534 187.021 92.3884C186.897 91.6234 186.553 90.9111 186.03 90.3384C186.494 89.8331 186.819 89.2163 186.974 88.548C187.129 87.8797 187.107 87.1828 186.913 86.525C186.718 85.8673 186.356 85.2712 185.863 84.7948C185.369 84.3184 184.761 83.978 184.097 83.8066L184.09 83.7636ZM174.004 134.207C170.738 137.768 163.912 133.913 160.351 130.352C156.791 126.792 153.224 125.895 144.617 127.976C136.01 130.057 134.795 135.693 129.177 137.473C123.56 139.254 121.762 132.132 120.583 126.491C119.404 120.849 118.508 104.526 118.508 104.526C118.508 101.26 122.664 100.664 124.444 95.0225C126.225 89.3808 122.069 86.121 125.058 78.3982C128.048 70.6754 137.213 81.2773 137.391 81.4676C141.621 85.8447 150.136 85.7649 155.808 85.2677C159.025 84.973 163.015 80.3565 166.109 77.6124C166.569 77.2228 167.12 76.9568 167.71 76.8394C168.301 76.722 168.912 76.7572 169.485 76.9415C170.058 77.1258 170.575 77.4533 170.987 77.8929C171.398 78.3326 171.691 78.8699 171.837 79.4541C172.684 82.6832 173.617 86.7103 173.452 88.2205C173.157 90.8909 173.857 90.7804 176.233 94.9365C177.405 96.9869 177.221 95.6916 177.411 97.122C177.27 99.6819 177.147 104.28 176.718 111.389C176.079 121.168 177.27 130.665 174.004 134.207Z" fill="#263238" stroke="#263238" stroke-linecap="round" stroke-linejoin="round"/>
<path d="M129.478 102.463L144.316 104.243" stroke="#263238" stroke-width="5" stroke-linecap="round" stroke-linejoin="round"/>
<path d="M155.599 97.9885C155.599 97.9885 158.571 90.5665 167.773 95.318" stroke="#263238" stroke-width="5" stroke-linecap="round" stroke-linejoin="round"/>
<path d="M154.414 103.353C154.414 103.353 153.801 113.746 154.709 118.792C155.618 123.839 159.16 130.665 152.039 132.446C144.918 134.226 141.946 130.665 142.536 125.619" fill="#CCCCCC"/>
<mask id="mask3_428_1113" style="mask-type:luminance" maskUnits="userSpaceOnUse" x="142" y="103" width="15" height="30">
<path d="M154.414 103.353C154.414 103.353 153.801 113.746 154.709 118.792C155.618 123.839 159.16 130.665 152.039 132.446C144.918 134.226 141.946 130.665 142.536 125.619" fill="white"/>
</mask>
<g mask="url(#mask3_428_1113)">
<path opacity="0.3" d="M142.947 128.615C142.947 128.615 148.705 132.298 152.395 129.996C156.084 127.694 155.409 122.335 154.709 118.793C154.009 115.251 153.776 112.482 153.776 112.482C153.776 112.482 157.926 124.926 156.545 128.842C155.163 132.759 148.705 135.067 144.347 133.453C139.988 131.838 142.947 128.615 142.947 128.615Z" fill="black"/>
</g>
<path d="M154.414 103.353C154.414 103.353 153.801 113.746 154.709 118.792C155.618 123.839 159.16 130.665 152.039 132.446C144.918 134.226 141.946 130.665 142.536 125.619" stroke="#263238" stroke-linecap="round" stroke-linejoin="round"/>
<path d="M142.658 107.135C142.658 108.939 141.793 110.401 140.731 110.401C139.669 110.401 138.822 108.939 138.822 107.135C138.822 105.33 139.687 103.869 140.755 103.869C141.823 103.869 142.658 105.354 142.658 107.135Z" fill="#263238"/>
<path d="M166.024 105.527C166.024 107.325 165.158 108.793 164.096 108.793C163.034 108.793 162.162 107.325 162.162 105.527C162.162 103.728 163.028 102.261 164.096 102.261C165.164 102.261 166.024 103.722 166.024 105.527Z" fill="#263238"/>
<path d="M150.553 138.677C150.553 138.677 153.224 139.29 156.784 134.821" stroke="#666666" stroke-width="3" stroke-linecap="round" stroke-linejoin="round"/>
<path d="M122.597 277.952L147.287 214.413C147.287 214.413 149.068 213.229 153.518 208.477C157.969 203.725 156.195 197.194 156.195 197.194C156.4 197.813 156.799 198.351 157.333 198.726C157.867 199.1 158.508 199.293 159.16 199.275C161.536 199.275 164.802 198.661 166.287 195.413C167.773 192.166 165.987 185.321 165.097 179.679C164.206 174.037 160.646 163.356 157.975 163.356C155.305 163.356 141.056 167.806 141.056 167.806C141.056 167.806 139.571 160.98 139.865 158.905C140.16 156.83 152.941 153.853 154.114 154.466C155.286 155.08 156.784 156.548 159.16 155.657C161.536 154.767 159.16 152.391 157.38 148.831C155.6 145.27 142.241 147.64 138.085 149.445C133.929 151.25 127.698 152.416 129.177 158.653C130.657 164.89 133.039 202.59 133.039 202.59C133.039 202.59 133.039 205.26 129.478 211.491C126.464 216.765 90.2258 263.672 79.1082 278.001" fill="#CCCCCC"/>
<mask id="mask4_428_1113" style="mask-type:luminance" maskUnits="userSpaceOnUse" x="79" y="146" width="88" height="133">
<path d="M122.597 277.952L147.287 214.413C147.287 214.413 149.068 213.229 153.518 208.477C157.969 203.725 156.195 197.194 156.195 197.194C156.4 197.813 156.799 198.351 157.333 198.726C157.867 199.1 158.508 199.293 159.16 199.275C161.536 199.275 164.802 198.661 166.287 195.413C167.773 192.166 165.987 185.321 165.097 179.679C164.206 174.037 160.646 163.356 157.975 163.356C155.305 163.356 141.056 167.806 141.056 167.806C141.056 167.806 139.571 160.98 139.865 158.905C140.16 156.83 152.941 153.853 154.114 154.466C155.286 155.08 156.784 156.548 159.16 155.657C161.536 154.767 159.16 152.391 157.38 148.831C155.6 145.27 142.241 147.64 138.085 149.445C133.929 151.25 127.698 152.416 129.177 158.653C130.657 164.89 133.039 202.59 133.039 202.59C133.039 202.59 133.039 205.26 129.478 211.491C126.464 216.765 90.2258 263.672 79.1082 278.001" fill="white"/>
</mask>
<g mask="url(#mask4_428_1113)">
<path opacity="0.3" d="M159.16 199.28C160.998 199.355 162.812 198.85 164.348 197.837C165.489 196.401 166.416 193.915 163.881 190.471C159.664 184.719 150.461 190.851 147.011 193.54C143.561 196.229 141.646 193.54 138.576 189.709C136.194 186.732 132.818 177.272 130.645 170.593C131.872 183.835 133.039 202.558 133.039 202.558C133.039 202.558 133.039 205.229 129.478 211.46C126.464 216.733 90.2258 263.641 79.1082 277.969H105.205C117.157 261.155 140.811 219.821 142.413 215.401C143.641 211.902 147.84 211.656 151.769 210.324C152.303 209.778 152.88 209.176 153.518 208.482C157.975 203.731 156.195 197.199 156.195 197.199C156.4 197.819 156.799 198.356 157.333 198.731C157.867 199.106 158.508 199.298 159.16 199.28Z" fill="black"/>
</g>
<path d="M122.597 277.952L147.287 214.413C147.287 214.413 149.068 213.229 153.518 208.477C157.969 203.725 156.195 197.194 156.195 197.194C156.4 197.813 156.799 198.351 157.333 198.726C157.867 199.1 158.508 199.293 159.16 199.275C161.536 199.275 164.802 198.661 166.287 195.413C167.773 192.166 165.987 185.321 165.097 179.679C164.206 174.037 160.646 163.356 157.975 163.356C155.305 163.356 141.056 167.806 141.056 167.806C141.056 167.806 139.571 160.98 139.865 158.905C140.16 156.83 152.941 153.853 154.114 154.466C155.286 155.08 156.784 156.548 159.16 155.657C161.536 154.767 159.16 152.391 157.38 148.831C155.6 145.27 142.241 147.64 138.085 149.445C133.929 151.25 127.698 152.416 129.177 158.653C130.657 164.89 133.039 202.59 133.039 202.59C133.039 202.59 133.039 205.26 129.478 211.491C126.464 216.765 90.2258 263.672 79.1082 278.001" stroke="#263238" stroke-linecap="round" stroke-linejoin="round"/>
<path d="M142.836 176.713C142.836 176.713 158.571 172.557 159.755 172.557C160.94 172.557 163.617 174.933 163.617 174.933" stroke="#263238" stroke-linecap="round" stroke-linejoin="round"/>
<path d="M145.507 187.102C145.507 187.102 159.461 183.541 161.83 183.541C163.256 183.547 164.63 184.076 165.692 185.027" stroke="#263238" stroke-linecap="round" stroke-linejoin="round"/>
<path d="M154.114 198.083C154.114 198.083 157.085 197.193 161.241 193.927" stroke="#263238" stroke-linecap="round" stroke-linejoin="round"/>
<path opacity="0.3" d="M221.101 190.047C231.431 190.047 239.806 188.388 239.806 186.342C239.806 184.295 231.431 182.636 221.101 182.636C210.771 182.636 202.396 184.295 202.396 186.342C202.396 188.388 210.771 190.047 221.101 190.047Z" fill="black"/>
<path d="M231.605 130.102C235.339 133.274 237.836 137.66 238.659 142.489C239.926 150.45 237.937 155.516 239.021 159.132C240.104 162.748 240.742 163.743 240.742 163.743C240.742 163.743 241.015 163.743 234.682 165.193C228.349 166.642 224.283 167.364 220.756 165.009C217.228 162.654 214.334 160.822 211.89 160.037C209.446 159.252 205.74 160.488 205.74 160.488C208.08 157.327 210.995 154.637 214.334 152.559C219.939 149.031 219.217 146.77 217.589 142.249C216.41 139.104 215.02 136.042 213.429 133.085C215.779 131.32 218.443 130.019 221.279 129.249C225.911 128.019 230.971 129.829 231.605 130.102Z" fill="#263238" stroke="#263238" stroke-linecap="round" stroke-linejoin="round"/>
<path d="M239.021 149.544C239.021 149.544 239.293 152.685 237.487 156.871C236.23 159.965 235.883 163.353 236.487 166.637C236.666 167.472 236.789 168.319 236.854 169.17C238.249 168.523 239.606 167.798 240.92 166.998C242.276 166.098 242.459 165.104 242.459 165.104C242.459 165.104 241.103 163.654 239.926 159.043C239.205 155.931 238.901 152.737 239.021 149.544Z" fill="#FF3227" stroke="#263238" stroke-linecap="round" stroke-linejoin="round"/>
<path d="M216.956 135.168C216.956 135.168 221.206 132.551 223.555 130.824C225.905 129.097 231.605 130.102 231.605 130.102C231.605 130.102 228.349 127.93 225.366 127.297C222.383 126.664 215.689 128.652 214.151 129.469C212.612 130.285 215.198 136.1 215.198 136.1L216.956 135.168Z" fill="#FF2D21" stroke="#263238" stroke-linecap="round" stroke-linejoin="round"/>
<path d="M212.335 131.055C211.555 132.48 210.666 133.843 209.676 135.132C207.897 137.492 204.992 141.009 204.992 141.009L203.485 135.702L200.502 136.335C200.502 136.335 199.387 144.934 199.979 146.598C200.57 148.263 202.548 148.336 204.956 147.551C207.363 146.766 214.224 143.437 214.224 143.437L216.129 146.771L212.795 156.291C212.795 156.291 206.227 162.477 205.369 164.665C204.511 166.852 206.416 169.328 208.227 173.232C210.037 177.136 211.084 179.418 211.084 179.418C210.885 179.97 210.595 180.485 210.226 180.941C209.75 181.417 204.992 181.799 204.417 182.752C203.841 183.704 207.557 185.033 210.99 185.033C214.423 185.033 216.988 184.557 216.888 183.034C216.789 181.511 214.7 177.801 214.318 175.801C213.936 173.802 213.654 167.517 213.654 167.517C213.654 167.517 218.793 162.377 219.557 162.283C220.321 162.189 224.508 163.518 224.979 163.9C225.45 164.282 226.125 165.136 227.837 168.469C229.548 171.803 234.928 180.69 234.928 180.69C234.928 180.69 235.786 183.736 236.451 185.447C237.116 187.158 238.832 189.069 240.167 188.017C241.501 186.965 241.308 184.594 240.449 182.877C239.591 181.161 237.309 180.496 236.927 178.785C236.545 177.073 235.551 170.657 234.881 166.282C234.211 161.906 232.599 155.904 232.123 153.904C231.647 151.905 232.311 143.526 231.17 139.25C230.03 134.975 227.648 132.871 224.979 131.254C222.31 129.636 218.793 129.919 216.605 130.207C214.418 130.495 213.366 130.584 213.366 130.584L212.335 131.055Z" fill="#FF291C" stroke="#263238" stroke-linecap="round" stroke-linejoin="round"/>
<path d="M211.927 139.721L214.24 143.431L210.357 141.49" stroke="#263238" stroke-linecap="round" stroke-linejoin="round"/>
<path d="M213.596 157.478C214.449 158.913 215.666 160.098 217.123 160.911" stroke="#263238" stroke-linecap="round" stroke-linejoin="round"/>
<path d="M219.573 162.282L215.946 161.696" stroke="#263238" stroke-linecap="round" stroke-linejoin="round"/>
<path d="M225.853 161.791C227.234 160.206 228.857 158.849 230.663 157.771" stroke="#263238" stroke-linecap="round" stroke-linejoin="round"/>
<path d="M225.56 160.812C225.56 160.812 227.622 158.357 228.993 157.378" stroke="#263238" stroke-linecap="round" stroke-linejoin="round"/>
<path d="M204.992 141.008L206.008 143.395" stroke="#263238" stroke-linecap="round" stroke-linejoin="round"/>
<path d="M203.354 136.068C203.354 136.068 205.212 133.451 205.505 131.74C205.798 130.029 205.045 127.553 204.589 127.407C204.134 127.26 203.93 127.611 204.139 128.265C204.26 128.645 204.346 129.036 204.396 129.432C204.396 129.432 203.605 127.715 203.778 126.773C203.951 125.831 203.213 125.345 201.967 125.868C200.722 126.391 200.015 126.098 199.419 127.804C198.897 129.371 198.679 131.023 198.775 132.672C198.832 134.174 200.481 136.335 200.481 136.335L203.354 136.068Z" fill="#CCCCCC" stroke="#263238" stroke-linecap="round" stroke-linejoin="round"/>
<path d="M200.868 126.265C200.868 126.265 201.24 126.265 201.057 127.003C200.873 127.741 200.272 128.861 200.34 129.473C200.408 130.086 200.559 130.75 200.559 130.75" stroke="#263238" stroke-linecap="round" stroke-linejoin="round"/>
<path d="M201.967 125.867C202.136 126.002 202.262 126.183 202.329 126.389C202.396 126.595 202.401 126.815 202.344 127.024C202.116 127.94 201.96 128.873 201.878 129.813C201.878 130.096 201.951 130.52 201.951 130.52" stroke="#263238" stroke-linecap="round" stroke-linejoin="round"/>
<path d="M203.071 125.689C203.071 125.689 203.453 126.082 203.249 127.207C203.045 128.332 202.684 129.358 203.15 130.222" stroke="#263238" stroke-linecap="round" stroke-linejoin="round"/>
<path d="M200.083 131.044L202.736 130.353" stroke="#263238" stroke-linecap="round" stroke-linejoin="round"/>
<path d="M203.443 131.022C203.363 131.433 203.156 131.808 202.852 132.095C202.594 132.318 202.395 132.599 202.271 132.915C202.147 133.232 202.102 133.574 202.14 133.911" stroke="#263238" stroke-linecap="round" stroke-linejoin="round"/>
<path d="M228.334 141.186C228.24 142.74 227.908 144.271 227.35 145.724C226.518 147.54 227.35 150.261 230.302 150.868C233.253 151.475 234.237 148.372 234.237 147.158C234.237 145.944 232.95 142.699 232.95 142.317C232.95 141.935 231.511 139.522 228.637 141.27" fill="#FF3025"/>
<path d="M228.334 141.186C228.24 142.74 227.908 144.271 227.35 145.724C226.518 147.54 227.35 150.261 230.302 150.868C233.253 151.475 234.237 148.372 234.237 147.158C234.237 145.944 232.95 142.699 232.95 142.317C232.95 141.935 231.511 139.522 228.637 141.27" stroke="#263238" stroke-linecap="round" stroke-linejoin="round"/>
<path d="M238.408 107.624L235.41 99.8467L233.609 107.624L235.064 106.352L235.41 114.354L230.804 120.336L230.113 106.205L231.793 107.55L228.768 99.7734L226.968 107.55L228.538 106.174L229.234 120.535L224.147 115.301L223.44 107.519L225.162 108.895L222.137 101.118L220.342 108.895L221.865 107.561L222.608 115.725C222.625 115.904 222.703 116.072 222.828 116.202L229.349 122.874L231.715 171.619C231.724 171.821 231.811 172.012 231.957 172.151C232.103 172.29 232.298 172.368 232.5 172.368H232.536C232.744 172.357 232.939 172.265 233.079 172.111C233.219 171.957 233.293 171.754 233.285 171.546L230.909 122.728L236.817 115.061C236.929 114.91 236.987 114.725 236.98 114.537L236.603 106.164L238.408 107.624Z" fill="#263238"/>
<path d="M231.223 138.083C231.223 138.083 228.349 137.858 227.596 138.235C226.842 138.611 227.072 140.579 227.072 141.485C227.072 142.39 228.056 143.227 228.642 142.699C229.229 142.17 229.323 139.747 229.323 139.747C229.977 139.716 230.616 139.537 231.191 139.224C231.966 138.763 231.746 138.004 231.223 138.083Z" fill="#CCCCCC" stroke="#263238" stroke-linecap="round" stroke-linejoin="round"/>
<path d="M229.244 142.772C229.244 142.772 228.261 143.148 228.637 143.756C229.014 144.363 229.925 144.964 231.814 144.964C233.703 144.964 234.614 143.756 234.311 143.075C234.007 142.395 232.871 142.997 231.887 142.997C231.003 142.966 230.121 142.891 229.244 142.772Z" fill="#CCCCCC" stroke="#263238" stroke-linecap="round" stroke-linejoin="round"/>
<path d="M228.637 141.259C228.637 141.259 228.114 142.091 228.637 142.698C229.161 143.306 230.527 143.682 232.646 143.745C234.766 143.808 234.74 142.008 234.311 141.322C233.881 140.636 231.741 141.474 230.83 141.474C230.095 141.453 229.362 141.381 228.637 141.259Z" fill="#CCCCCC" stroke="#263238" stroke-linecap="round" stroke-linejoin="round"/>
<path d="M229.166 140.05C229.033 140.065 228.906 140.115 228.799 140.194C228.691 140.274 228.607 140.38 228.554 140.503C228.5 140.626 228.481 140.76 228.496 140.893C228.512 141.026 228.562 141.152 228.642 141.259C229.098 142.018 230.003 142.468 231.819 142.468C233.635 142.468 234.316 142.165 234.541 141.034C234.766 139.904 234.164 139.668 233.332 139.82C232.5 139.972 230.375 139.998 229.166 140.05Z" fill="#CCCCCC" stroke="#263238" stroke-linecap="round" stroke-linejoin="round"/>
<path d="M232.573 137.779C232.573 137.779 229.846 138.156 229.093 138.302C228.339 138.449 228.109 139.59 228.412 140.118C228.716 140.647 231.134 141.102 232.719 140.725C234.305 140.348 234.766 139.815 234.535 138.606C234.305 137.397 232.95 137.706 232.573 137.779Z" fill="#CCCCCC" stroke="#263238" stroke-linecap="round" stroke-linejoin="round"/>
<path d="M227.046 147.613L224.252 140.653" stroke="#263238" stroke-linecap="round" stroke-linejoin="round"/>
<path d="M215.36 136.052C215.36 136.052 219.589 136.052 222.969 130.933C226.35 125.815 226.732 121.283 226.732 121.283C226.732 121.283 220.976 125.402 217.998 125.82C215.02 126.239 209.655 126.521 209.655 126.521C209.655 126.521 209.43 129.316 211.293 133.137C213.157 136.957 215.36 136.052 215.36 136.052Z" fill="#FF3227" stroke="#263238" stroke-linecap="round" stroke-linejoin="round"/>
<path d="M215.36 136.052L214.292 139.313L216.532 138.878L215.36 136.052Z" stroke="#263238" stroke-linecap="round" stroke-linejoin="round"/>
<path d="M204.448 111.617C204.448 111.617 202.961 115.856 203.166 116.992C203.37 118.127 204.212 118.939 202.956 120.472C201.7 122.006 200.742 123.345 201.386 123.905C201.867 124.247 202.459 124.398 203.045 124.329C202.894 125.922 203.047 127.529 203.495 129.066C204.238 131.52 205.327 134.55 207.059 134.299C208.792 134.048 211.581 132.023 211.581 132.023C211.581 132.023 214.323 136.267 215.36 136.042C216.396 135.817 218.118 131.442 218.646 128.239C219.175 125.036 219.547 125.517 218.557 124.382C217.568 123.246 216.244 121.917 216.244 121.917C216.244 121.917 214.585 118.441 214.721 115.233C214.857 112.025 215.925 110.926 211.628 108.147C207.331 105.368 204.568 110.764 204.448 111.617Z" fill="#CCCCCC" stroke="#263238" stroke-linecap="round" stroke-linejoin="round"/>
<path d="M224.45 120.205C224.545 119.839 224.519 119.453 224.378 119.103C224.237 118.752 223.987 118.457 223.665 118.258C223.956 118.021 224.164 117.696 224.257 117.332C224.34 117.018 224.335 116.686 224.242 116.374C224.15 116.063 223.974 115.782 223.733 115.563C223.989 115.322 224.17 115.014 224.257 114.673C224.315 114.446 224.328 114.21 224.295 113.978C224.261 113.746 224.183 113.522 224.063 113.321C223.944 113.119 223.785 112.943 223.598 112.802C223.41 112.662 223.197 112.56 222.969 112.502C222.634 112.415 222.281 112.43 221.954 112.543C222.133 112.47 222.295 112.362 222.432 112.226C222.569 112.089 222.678 111.927 222.752 111.749C222.827 111.571 222.865 111.379 222.866 111.186C222.866 110.993 222.828 110.801 222.755 110.623C222.681 110.444 222.573 110.282 222.437 110.145C222.301 110.008 222.139 109.899 221.96 109.825C221.782 109.75 221.591 109.712 221.397 109.711C221.204 109.711 221.013 109.748 220.834 109.822C220.933 109.68 221.008 109.523 221.054 109.356C221.128 109.076 221.118 108.78 221.025 108.505C220.931 108.231 220.759 107.99 220.529 107.813C220.299 107.637 220.022 107.532 219.733 107.512C219.443 107.492 219.155 107.559 218.903 107.702C218.94 107.364 218.858 107.023 218.672 106.738C218.485 106.454 218.206 106.242 217.881 106.14C217.556 106.038 217.206 106.052 216.891 106.18C216.575 106.307 216.313 106.54 216.15 106.839H216.093C216.093 106.807 216.119 106.776 216.129 106.739C216.23 106.384 216.193 106.005 216.028 105.675C215.862 105.345 215.579 105.09 215.234 104.958C214.89 104.827 214.508 104.83 214.165 104.966C213.822 105.101 213.543 105.361 213.382 105.693C213.373 105.346 213.241 105.014 213.011 104.755C212.781 104.495 212.467 104.326 212.124 104.276C211.781 104.226 211.431 104.298 211.137 104.481C210.842 104.664 210.621 104.944 210.514 105.274C210.388 104.946 210.15 104.673 209.841 104.506C209.532 104.339 209.173 104.287 208.83 104.361C208.487 104.435 208.181 104.63 207.969 104.909C207.756 105.189 207.651 105.536 207.672 105.886C207.237 105.635 206.4 105.389 205.181 106.111C203.323 107.205 203.982 108.848 203.982 108.848C203.982 108.848 201.004 108.576 200.669 110.649C200.334 112.721 201.193 114.417 203.286 114.176C205.379 113.936 206.264 111.408 206.264 111.408C206.34 110.966 206.546 110.556 206.857 110.233C207.168 109.909 207.568 109.686 208.007 109.592C209.577 109.21 212.549 110.665 212.717 112.763C212.884 114.862 210.357 113.533 210.137 115.15C209.917 116.767 211.921 117.379 212 119.363C212.078 121.346 211.869 125.229 210.686 126.004C209.503 126.779 208.425 125.622 207.3 124.643C206.175 123.665 203.595 123 203.056 124.335C202.517 125.669 203.056 128.171 203.401 130.615C203.747 133.059 204.505 134.734 206.861 134.749C209.216 134.765 211.377 132.467 211.377 132.467C211.377 132.467 215.281 129.542 215.847 127.721C216.412 125.899 213.753 122.764 213.884 120.828C214.015 118.892 214.193 119.258 215.182 119.98C216.171 120.702 215.946 123.12 216.82 123.942C217.019 124.139 217.249 124.301 217.5 124.424C217.59 124.879 217.831 125.29 218.186 125.59C218.54 125.89 218.986 126.059 219.45 126.072C219.914 126.084 220.368 125.938 220.737 125.657C221.107 125.376 221.37 124.978 221.483 124.528C221.525 124.357 221.545 124.181 221.541 124.005C221.846 124.018 222.15 123.952 222.423 123.813C222.695 123.675 222.927 123.468 223.096 123.213C223.265 122.958 223.366 122.664 223.387 122.359C223.409 122.054 223.352 121.748 223.221 121.472C223.519 121.387 223.79 121.226 224.005 121.003C224.221 120.781 224.375 120.506 224.45 120.205Z" fill="#263238"/>
<path d="M221.834 112.58H221.87M224.45 120.205C224.545 119.839 224.519 119.453 224.378 119.103C224.237 118.752 223.987 118.457 223.665 118.258C223.956 118.021 224.164 117.696 224.257 117.332C224.34 117.018 224.335 116.686 224.242 116.374C224.15 116.063 223.974 115.782 223.733 115.563C223.989 115.322 224.17 115.014 224.257 114.673C224.315 114.446 224.328 114.21 224.295 113.978C224.261 113.746 224.183 113.522 224.063 113.321C223.944 113.119 223.785 112.943 223.598 112.802C223.41 112.662 223.197 112.56 222.969 112.502C222.634 112.415 222.281 112.43 221.954 112.543C222.133 112.47 222.295 112.362 222.432 112.226C222.569 112.089 222.678 111.927 222.752 111.749C222.827 111.571 222.865 111.379 222.866 111.186C222.866 110.993 222.828 110.801 222.755 110.623C222.681 110.444 222.573 110.282 222.437 110.145C222.301 110.008 222.139 109.899 221.96 109.825C221.782 109.75 221.591 109.712 221.397 109.711C221.204 109.711 221.013 109.748 220.834 109.822C220.933 109.68 221.008 109.523 221.054 109.356C221.128 109.076 221.118 108.78 221.025 108.505C220.931 108.231 220.759 107.99 220.529 107.813C220.299 107.637 220.022 107.532 219.733 107.512C219.443 107.492 219.155 107.559 218.903 107.702C218.94 107.364 218.858 107.023 218.672 106.738C218.485 106.454 218.206 106.242 217.881 106.14C217.556 106.038 217.206 106.052 216.891 106.18C216.575 106.307 216.313 106.54 216.15 106.839H216.093C216.093 106.807 216.119 106.776 216.129 106.739C216.23 106.384 216.193 106.005 216.028 105.675C215.862 105.345 215.579 105.09 215.234 104.958C214.89 104.827 214.508 104.83 214.165 104.966C213.822 105.101 213.543 105.361 213.382 105.693C213.373 105.346 213.241 105.014 213.011 104.755C212.781 104.495 212.467 104.326 212.124 104.276C211.781 104.226 211.431 104.298 211.137 104.481C210.842 104.664 210.621 104.944 210.514 105.274C210.388 104.946 210.15 104.673 209.841 104.506C209.532 104.339 209.173 104.287 208.83 104.361C208.487 104.435 208.181 104.63 207.969 104.909C207.756 105.189 207.651 105.536 207.672 105.886C207.237 105.635 206.4 105.389 205.181 106.111C203.323 107.205 203.982 108.848 203.982 108.848C203.982 108.848 201.004 108.576 200.669 110.649C200.334 112.721 201.193 114.417 203.286 114.176C205.379 113.936 206.264 111.408 206.264 111.408C206.34 110.966 206.546 110.556 206.857 110.233C207.168 109.909 207.568 109.686 208.007 109.592C209.577 109.21 212.549 110.665 212.717 112.763C212.884 114.862 210.357 113.533 210.137 115.15C209.917 116.767 211.921 117.379 212 119.363C212.078 121.346 211.869 125.229 210.686 126.004C209.503 126.779 208.425 125.622 207.3 124.643C206.175 123.665 203.595 123 203.056 124.335C202.517 125.669 203.056 128.171 203.401 130.615C203.747 133.059 204.505 134.734 206.861 134.749C209.216 134.765 211.377 132.467 211.377 132.467C211.377 132.467 215.281 129.542 215.847 127.721C216.412 125.899 213.753 122.764 213.884 120.828C214.015 118.892 214.193 119.258 215.182 119.98C216.171 120.702 215.946 123.12 216.82 123.942C217.019 124.139 217.249 124.301 217.5 124.424C217.59 124.879 217.831 125.29 218.186 125.59C218.54 125.89 218.986 126.059 219.45 126.072C219.914 126.084 220.368 125.938 220.737 125.657C221.107 125.376 221.37 124.978 221.483 124.528C221.525 124.357 221.545 124.181 221.541 124.005C221.846 124.018 222.15 123.952 222.423 123.813C222.695 123.675 222.927 123.468 223.096 123.213C223.265 122.958 223.366 122.664 223.387 122.359C223.409 122.054 223.352 121.748 223.221 121.472C223.519 121.387 223.79 121.226 224.005 121.003C224.221 120.781 224.375 120.506 224.45 120.205Z" stroke="#263238" stroke-linecap="round" stroke-linejoin="round"/>
<path d="M208.98 106.425C208.85 106.584 208.762 106.774 208.725 106.976C208.687 107.178 208.701 107.386 208.766 107.581C208.949 108.178 209.158 109.251 208.562 109.978C207.698 111.025 206.704 111.47 207.248 112.789C207.792 114.108 209.896 114.359 211.032 113.762C212.167 113.166 211.864 109.748 211.095 107.78C210.477 106.205 209.572 105.755 208.98 106.425Z" fill="white" stroke="#263238" stroke-linecap="round" stroke-linejoin="round"/>
<path d="M204.929 118.541C204.929 118.541 204.322 116.714 206.97 117.102" stroke="#263238" stroke-width="2" stroke-linecap="round" stroke-linejoin="round"/>
<path d="M205.798 120.048C205.835 120.571 205.699 120.958 205.489 120.979C205.28 121 205.076 120.603 205.039 120.105C205.003 119.608 205.133 119.19 205.348 119.174C205.563 119.158 205.756 119.545 205.798 120.048Z" fill="#263238"/>
<path d="M205.442 121.508L207.363 120.921" stroke="#263238" stroke-linecap="round" stroke-linejoin="round"/>
<path d="M206.777 125.093C206.429 125.666 205.999 126.184 205.5 126.631C204.594 127.479 204.129 127.364 204.129 127.364C204.347 127.7 204.676 127.948 205.059 128.065C205.442 128.182 205.854 128.16 206.222 128.003C207.64 127.479 206.777 125.093 206.777 125.093Z" fill="white" stroke="#263238" stroke-linecap="round" stroke-linejoin="round"/>
<path d="M214.475 121.267C214.475 121.267 214.329 118.776 215.679 116.959C217.029 115.143 220.389 114.243 220.824 114.939C221.258 115.635 219.583 120.126 218.265 121.063C217.284 121.69 216.202 122.143 215.067 122.402" fill="#CCCCCC"/>
<path d="M214.475 121.267C214.475 121.267 214.329 118.776 215.679 116.959C217.029 115.143 220.389 114.243 220.824 114.939C221.258 115.635 219.583 120.126 218.265 121.063C217.284 121.69 216.202 122.143 215.067 122.402" stroke="#263238" stroke-linecap="round" stroke-linejoin="round"/>
<path opacity="0.3" d="M75.6679 189.23C82.6251 189.23 88.2651 186.99 88.2651 184.226C88.2651 181.463 82.6251 179.223 75.6679 179.223C68.7107 179.223 63.0708 181.463 63.0708 184.226C63.0708 186.99 68.7107 189.23 75.6679 189.23Z" fill="black"/>
<path d="M79.1486 131.273C79.1486 131.273 81.4828 128.405 76.3905 122.219C74.3704 119.759 70.1521 117.755 67.6976 114.772C65.2431 111.789 64.4266 110.47 63.5108 112.574C62.5949 114.677 64.2121 115.771 65.2797 117.472C66.3473 119.173 69.2153 121.507 69.2153 121.507C69.2153 121.507 66.3002 121.225 64.4633 120.026C62.6263 118.828 61.9616 119.095 62.1291 120.958C62.2966 122.821 64.0132 123.977 65.6984 124.558C67.3836 125.139 69.0217 125.841 69.0217 125.841C69.0217 125.841 65.332 126.06 63.8353 125.694C62.3385 125.328 61.2185 124.998 61.8674 127.065C62.5164 129.133 65.1175 130.111 66.3683 130.095C67.6191 130.08 68.8228 130.179 68.8228 130.179C68.8228 130.179 64.3848 131.179 62.9874 131.55C61.5901 131.922 62.4641 133.398 63.5108 133.848C64.5575 134.298 68.5297 134.063 68.5297 134.063C68.5297 134.063 64.9814 135.58 65.8816 137.349C66.7817 139.118 71.5181 136.611 71.5181 136.611C72.488 137.034 73.5509 137.197 74.6031 137.086C75.6552 136.975 76.6605 136.594 77.521 135.978C80.6663 133.858 79.1486 131.273 79.1486 131.273Z" fill="white" stroke="#263238" stroke-linecap="round" stroke-linejoin="round"/>
<path d="M74.1607 124.857C74.1607 124.857 71.3922 123.255 71.0887 124.925C70.7851 126.594 74.412 129.111 74.412 129.111C74.412 129.111 70.7746 128.248 70.827 130.064C70.8793 131.88 75.0975 132.995 75.0975 132.995" stroke="#263238" stroke-linecap="round" stroke-linejoin="round"/>
<path d="M70.1415 130.451C70.1415 130.451 71.1568 126.892 64.0444 123.213C61.2183 121.748 56.55 121.559 53.1221 119.78C49.6941 118 48.4119 117.116 48.4119 119.403C48.4119 121.69 50.3169 122.067 51.9707 123.213C53.6245 124.359 57.2042 125.369 57.2042 125.369C57.2042 125.369 54.4095 126.259 52.2481 125.893C50.0866 125.526 49.5842 126.018 50.4739 127.672C51.3636 129.326 53.3942 129.703 55.1841 129.577C56.9739 129.451 58.7429 129.451 58.7429 129.451C58.7429 129.451 55.4405 131.1 53.9176 131.356C52.3946 131.613 51.2484 131.733 52.6458 133.387C54.0432 135.041 56.8326 134.91 57.9788 134.402C59.1249 133.895 60.2658 133.513 60.2658 133.513C60.2658 133.513 56.6024 136.182 55.4405 137.071C54.2787 137.961 55.6917 138.976 56.8379 138.976C57.984 138.976 61.5481 137.197 61.5481 137.197C61.5481 137.197 58.8789 139.992 60.4019 141.258C61.9249 142.525 65.2953 138.364 65.2953 138.364C66.3534 138.37 67.3951 138.102 68.3188 137.586C69.2424 137.069 70.0165 136.322 70.5654 135.418C72.5542 132.225 70.1415 130.451 70.1415 130.451Z" fill="white" stroke="#263238" stroke-linecap="round" stroke-linejoin="round"/>
<path d="M63.0292 126.516C63.0292 126.516 59.8525 126.134 60.2345 127.783C60.6166 129.431 64.9447 130.321 64.9447 130.321C64.9447 130.321 61.2812 130.96 62.0244 132.608C62.7676 134.257 67.1009 133.623 67.1009 133.623" stroke="#263238" stroke-linecap="round" stroke-linejoin="round"/>
<path d="M71.4079 177.564C71.4079 177.564 71.5388 179.6 70.6491 180.233C69.7594 180.866 64.8084 183.787 65.5673 184.42C66.3262 185.053 71.4079 183.656 73.0617 182.384C74.7155 181.112 74.2027 177.433 74.2027 177.433C74.2027 177.433 72.4128 177.564 71.4079 177.564Z" fill="white" stroke="#263238" stroke-linecap="round" stroke-linejoin="round"/>
<path d="M79.7867 177.564C79.7867 177.564 79.6611 179.6 80.5456 180.233C81.4301 180.866 86.3915 183.787 85.6274 184.42C84.8633 185.053 79.7867 183.656 78.1329 182.384C76.4791 181.112 76.992 177.433 76.992 177.433C76.992 177.433 78.7714 177.564 79.7867 177.564Z" fill="white" stroke="#263238" stroke-linecap="round" stroke-linejoin="round"/>
<path d="M90.9186 141.06C90.1859 138.349 86.1194 133.654 83.3038 130.106C80.4881 126.558 78.2953 125.726 76.6258 125.83C76.6258 125.83 69.8222 129.379 66.8181 131.153C63.8141 132.927 64.8346 135.743 65.2481 138.349C65.4993 139.919 66.0959 148.654 66.525 155.326C66.5826 156.583 66.6716 158.247 66.8077 159.749C66.9385 161.842 67.0222 163.177 67.0222 163.177L67.0693 164.569C67.0013 165.982 66.8338 167.353 66.8338 169.185C66.8338 172.356 67.085 176.041 67.085 176.041L70.6438 177.946C71.5281 178.755 72.5745 179.366 73.7133 179.738C74.8522 180.111 76.0573 180.237 77.2486 180.107C81.4354 179.725 82.5815 176.679 82.5815 176.679C82.5815 176.679 84.1045 176.297 84.6122 175.282C85.1198 174.267 85.3763 160.293 85.6275 157.629C85.999 154.688 86.3183 152.003 86.4282 150.674C86.5303 148.727 86.8444 146.796 87.365 144.917C87.365 144.917 91.646 143.776 90.9186 141.06Z" fill="white" stroke="#263238" stroke-linecap="round" stroke-linejoin="round"/>
<path d="M76.6258 125.83C76.6258 125.83 73.9515 127.228 71.2091 128.709C72.5803 131.891 76.8666 141.447 78.6826 140.877C80.1846 140.4 81.9065 134.204 82.8956 129.614C80.2631 126.484 78.2116 125.731 76.6258 125.83Z" fill="#43E999" stroke="#263238" stroke-linecap="round" stroke-linejoin="round"/>
<path d="M85.235 166.672C84.4447 167.3 83.6649 167.944 83.0526 168.462C83.0526 168.462 80.6452 170.655 75.6001 170.655C70.5549 170.655 70.1205 169.122 70.1205 169.122C68.9728 168.943 67.8687 168.55 66.8653 167.965C66.8653 168.347 66.8391 168.745 66.8391 169.169C66.8391 170.038 66.8391 170.943 66.8862 171.786L70.1205 174.345C70.1205 174.345 72.5332 176.538 77.1335 176.318C81.7338 176.098 83.0526 172.811 83.0526 172.811C83.0526 172.811 83.801 172.9 84.9838 171.995C85.078 170.503 85.1617 168.604 85.235 166.672Z" fill="#43E999" stroke="#263238" stroke-linecap="round" stroke-linejoin="round"/>
<path d="M70.0734 177.082L69.7594 166.165" stroke="#263238" stroke-linecap="round" stroke-linejoin="round"/>
<path d="M82.8539 159.843L82.8853 157.943" stroke="#263238" stroke-linecap="round" stroke-linejoin="round"/>
<path d="M82.5868 176.679L82.8171 162.208" stroke="#263238" stroke-linecap="round" stroke-linejoin="round"/>
<path d="M74.119 125.831C74.119 125.831 76.8352 134.387 77.9814 134.696C79.1275 135.005 79.6509 125.935 79.6509 125.935L74.119 125.831Z" fill="#CCCCCC" stroke="#263238" stroke-linecap="round" stroke-linejoin="round"/>
<path d="M85.5543 141.128C86.6682 140.736 87.754 140.269 88.8044 139.73C89.4376 139.28 90.9658 139.411 91.6671 141.766C92.3684 144.121 92.3056 146.921 90.7774 148.512C89.2492 150.103 85.2403 151.694 85.2403 151.694C85.2403 151.694 83.2673 144.754 83.3301 142.399C83.3929 140.044 85.5543 141.128 85.5543 141.128Z" fill="white" stroke="#263238" stroke-linecap="round" stroke-linejoin="round"/>
<path d="M89.1916 142.598C89.0713 141.055 88.6369 140.353 88.2548 140.029C87.2657 140.505 85.5543 141.128 85.5543 141.128C85.5543 141.128 83.3929 140.045 83.3301 142.4C83.2673 144.755 85.2403 151.694 85.2403 151.694C86.6919 151.115 88.0924 150.414 89.4272 149.601C89.38 147.555 89.3329 144.415 89.1916 142.598Z" fill="url(#paint0_linear_428_1113)" stroke="#263238" stroke-linecap="round" stroke-linejoin="round"/>
<path d="M85.2403 151.694C85.2403 151.694 86.5748 148.894 86.5748 146.602C86.5671 144.851 86.2881 143.112 85.7479 141.447C85.5543 141.128 83.8377 140.301 83.33 141.829C82.8224 143.357 84.921 150.93 85.2403 151.694Z" fill="#263238" stroke="#263238" stroke-linecap="round" stroke-linejoin="round"/>
<path d="M82.3565 132.985C82.3565 132.985 84.3976 133.11 84.7796 135.078C85.1617 137.046 85.9205 140.678 86.177 141.824C86.4334 142.97 86.8783 144.964 85.7949 145.833C84.7116 146.702 83.0578 145.645 82.1681 143.923C81.2784 142.201 80.6399 135.779 80.6399 135.204C80.6399 134.628 80.7184 132.09 82.3565 132.985Z" fill="#CCCCCC" stroke="#263238" stroke-linecap="round" stroke-linejoin="round"/>
<path d="M78.1122 142.782C78.4864 142.217 78.6849 141.554 78.6826 140.877C78.6826 139.73 77.8557 138.202 78.6198 136.862C79.3839 135.523 80.148 133.722 80.4673 133.366C80.6696 133.126 80.9338 132.945 81.2314 132.843C81.2314 132.843 81.8018 132.273 82.2467 132.461C82.6915 132.649 82.77 133.419 82.77 133.419C83.1801 133.727 83.4541 134.184 83.5341 134.69C83.5969 135.455 83.5969 136.025 83.5969 136.025C83.8457 136.193 84.0351 136.435 84.1385 136.717C84.2418 136.999 84.2538 137.306 84.1726 137.595C83.8534 138.616 83.2829 140.144 83.3457 141.353C83.4085 142.562 83.4085 144.341 82.5188 145.487C81.6291 146.633 78.5099 147.141 78.5099 147.141L78.1122 142.782Z" fill="#CCCCCC" stroke="#263238" stroke-linecap="round" stroke-linejoin="round"/>
<path d="M81.2314 132.854C80.7043 134.055 80.2567 135.289 79.8916 136.549C79.7816 136.942 79.7391 137.351 79.766 137.758" stroke="#263238" stroke-linecap="round" stroke-linejoin="round"/>
<path d="M82.7543 133.424C82.2513 134.452 81.8262 135.515 81.4825 136.606C81.3569 137.37 81.2313 138.579 81.2313 138.579" stroke="#263238" stroke-linecap="round" stroke-linejoin="round"/>
<path d="M83.5812 136.042C83.1328 136.748 82.7509 137.494 82.4403 138.271C82.3095 138.841 82.1211 139.925 82.1211 139.925" stroke="#263238" stroke-linecap="round" stroke-linejoin="round"/>
<path d="M66.8181 131.153C66.8181 131.153 62.6313 132.2 62.4377 133.445C62.244 134.691 63.4844 151.182 64.4212 151.6C65.358 152.019 79.7921 152.673 79.7921 152.673L78.5046 142.415L69.9478 143.368C69.9478 143.368 68.3777 138.134 68.0689 135.544" fill="white"/>
<path d="M66.8181 131.153C66.8181 131.153 62.6313 132.2 62.4377 133.445C62.244 134.691 63.4844 151.182 64.4212 151.6C65.358 152.019 79.7921 152.673 79.7921 152.673L78.5046 142.415L69.9478 143.368C69.9478 143.368 68.3777 138.134 68.0689 135.544" stroke="#263238" stroke-linecap="round" stroke-linejoin="round"/>
<path d="M74.5062 152.406C77.4108 152.563 79.8077 152.673 79.8077 152.673L78.5203 142.416L73.2867 142.991L74.5062 152.406Z" fill="#43E999" stroke="#263238" stroke-linecap="round" stroke-linejoin="round"/>
<path d="M69.9478 143.368C69.4392 143.291 68.9193 143.379 68.4644 143.619C68.0095 143.859 67.6435 144.239 67.42 144.702" stroke="#263238" stroke-linecap="round" stroke-linejoin="round"/>
<path d="M83.9791 110.308L84.0471 110.549L85.7323 116.573C85.7323 116.573 86.7476 119.064 86.0097 120.906C85.2717 122.748 82.0426 125.239 79.002 125.511C75.9613 125.784 72.8264 123.025 72.0937 120.074L71.2616 119.985C71.2616 119.985 69.3251 120.262 67.2056 118.509C65.086 116.756 64.5155 114.767 66.4624 113.506C68.4093 112.244 69.7857 112.982 69.7857 112.982C69.7857 112.982 69.2623 108.099 71.0784 106.44C72.8944 104.781 78.6356 105.242 81.2158 104.781C83.7959 104.321 84.4396 106.44 84.4396 107.456C84.3712 108.418 84.2171 109.373 83.9791 110.308Z" fill="#CCCCCC" stroke="#263238" stroke-linecap="round" stroke-linejoin="round"/>
<path d="M87.3911 122.104C87.3465 120.144 86.7733 118.233 85.732 116.572C85.732 116.572 86.5589 118.414 85.1773 119.152C83.7956 119.89 83.6072 118.691 81.7702 118.508C79.9333 118.325 75.872 122.104 75.2231 121.826C74.5741 121.549 72.6429 117.77 71.9992 116.755C71.3555 115.74 70.8007 114.546 72.1824 113.714C73.564 112.882 73.4751 112.144 72.3656 111.506C71.2561 110.867 71.5387 108.366 74.302 108.094C77.0653 107.821 76.7931 109.292 78.8185 109.015C80.8439 108.737 82.482 106.712 82.482 106.712L83.9526 110.307C84.366 110.025 84.6976 109.639 84.9136 109.188C85.1295 108.737 85.2223 108.236 85.1825 107.738C85.3728 107.578 85.5194 107.373 85.6087 107.142C85.698 106.91 85.727 106.659 85.693 106.414C85.659 106.168 85.5631 105.935 85.4143 105.736C85.2655 105.537 85.0687 105.38 84.8423 105.278C84.9245 105.09 84.9673 104.887 84.9679 104.681C84.9681 104.359 84.8614 104.045 84.6645 103.789C84.4675 103.534 84.1915 103.35 83.8794 103.268C83.9254 103.097 83.95 102.922 83.9526 102.745C83.9526 102.207 83.7394 101.691 83.3597 101.311C82.98 100.93 82.4649 100.716 81.9272 100.714C81.7884 100.715 81.6499 100.729 81.5138 100.756C81.4321 100.372 81.2405 100.02 80.9625 99.7431C80.6844 99.4659 80.3318 99.2756 79.9476 99.1952C79.5633 99.1148 79.164 99.1478 78.7982 99.2902C78.4323 99.4326 78.1158 99.6782 77.887 99.9972C77.743 99.6663 77.5133 99.3799 77.2215 99.1675C76.9297 98.9552 76.5865 98.8247 76.2274 98.7895C75.8682 98.7542 75.5062 98.8156 75.1787 98.9672C74.8513 99.1188 74.5703 99.3552 74.3648 99.6518C74.2302 99.4904 74.0623 99.36 73.8726 99.2697C73.6829 99.1793 73.4759 99.1312 73.2657 99.1285C72.8743 99.1285 72.4989 99.284 72.2221 99.5607C71.9454 99.8375 71.7899 100.213 71.7899 100.604C71.7925 100.774 71.8226 100.942 71.8788 101.102C71.755 100.867 71.5697 100.672 71.3428 100.535C71.116 100.399 70.8562 100.327 70.5914 100.327C70.2 100.327 69.8246 100.482 69.5478 100.759C69.271 101.036 69.1155 101.411 69.1155 101.803C69.1155 101.803 69.1155 101.845 69.1155 101.866C68.9149 101.762 68.6923 101.708 68.4666 101.709C68.0752 101.709 67.6998 101.864 67.423 102.141C67.1462 102.418 66.9907 102.793 66.9907 103.184C66.9905 103.281 67.0011 103.378 67.0221 103.472H66.8965C66.5065 103.472 66.1324 103.627 65.8566 103.903C65.5808 104.179 65.4259 104.553 65.4259 104.943C65.4242 105.312 65.5648 105.669 65.8184 105.937C65.5563 106.022 65.3234 106.179 65.146 106.39C64.9687 106.601 64.8542 106.857 64.8154 107.13C64.7767 107.402 64.8154 107.681 64.927 107.932C65.0386 108.184 65.2187 108.4 65.4468 108.554C65.2771 108.684 65.1379 108.849 65.0388 109.038C64.9397 109.228 64.8832 109.436 64.8732 109.65C64.8632 109.863 64.9001 110.076 64.9811 110.274C65.0621 110.471 65.1853 110.649 65.3422 110.794C65.0799 110.97 64.8812 111.226 64.7753 111.524C64.6694 111.822 64.6618 112.146 64.7538 112.448C64.8459 112.751 65.0325 113.016 65.2863 113.204C65.5402 113.392 65.8477 113.494 66.1638 113.495C66.2534 113.494 66.3427 113.485 66.4307 113.468C67.153 114.594 68.095 114.327 68.095 114.327C69.2045 115.718 70.0199 117.321 70.492 119.037C71.2299 121.8 71.3241 124.563 72.6115 125.945C73.899 127.327 79.0645 129.357 83.1205 128.342C87.1765 127.327 87.48 125.422 87.3911 122.104Z" fill="#263238" stroke="#263238" stroke-linecap="round" stroke-linejoin="round"/>
<path d="M75.8408 93.3296C71.2248 93.3296 67.4672 94.8997 67.4672 96.7837C67.4672 98.6678 71.2144 100.238 75.8408 100.238C80.4673 100.238 84.2145 98.6678 84.2145 96.7837C84.2145 94.8997 80.4568 93.3296 75.8408 93.3296ZM75.8408 98.6312C72.4129 98.6312 69.6391 97.642 69.6391 96.4278C69.6391 95.2137 72.4129 94.2193 75.8408 94.2193C79.2688 94.2193 82.0426 95.2084 82.0426 96.4278C82.0426 97.6473 79.2636 98.6312 75.8408 98.6312Z" fill="white" stroke="#263238" stroke-linecap="round" stroke-linejoin="round"/>
<path d="M81.2156 111.411C81.013 112.792 81.0751 114.199 81.3988 115.556C81.9535 117.404 83.152 118.508 81.9535 119.612C80.7551 120.716 79.096 119.984 79.0018 118.785" fill="#CCCCCC"/>
<path d="M81.2156 111.411C81.013 112.792 81.0751 114.199 81.3988 115.556C81.9535 117.404 83.152 118.508 81.9535 119.612C80.7551 120.716 79.096 119.984 79.0018 118.785" stroke="#263238" stroke-linecap="round" stroke-linejoin="round"/>
<path d="M82.1367 115.285L83.9789 114.73L83.5184 113.625" stroke="#263238" stroke-linecap="round" stroke-linejoin="round"/>
<path d="M76.1444 116.483L78.3582 116.205L78.0808 114.824" stroke="#263238" stroke-linecap="round" stroke-linejoin="round"/>
<path d="M78.3583 112.056C78.3583 112.056 75.8724 110.674 74.6948 112.888" stroke="#263238" stroke-width="2" stroke-linecap="round" stroke-linejoin="round"/>
<path d="M81.582 111.045C81.582 111.045 81.7704 109.386 83.1521 110.119" stroke="#263238" stroke-width="2" stroke-linecap="round" stroke-linejoin="round"/>
<path d="M82.5188 122.727C82.5198 122.862 82.4807 122.994 82.4063 123.107C82.3319 123.22 82.2257 123.308 82.1012 123.36C81.9767 123.412 81.8395 123.426 81.707 123.4C81.5745 123.374 81.4528 123.309 81.3574 123.213C81.2619 123.118 81.197 122.996 81.1709 122.864C81.1448 122.731 81.1587 122.594 81.2109 122.469C81.263 122.345 81.351 122.239 81.4637 122.164C81.5764 122.09 81.7087 122.051 81.8437 122.052C82.0223 122.053 82.1932 122.125 82.3195 122.251C82.4458 122.377 82.5174 122.548 82.5188 122.727Z" fill="white"/>
<defs>
<linearGradient id="paint0_linear_428_1113" x1="86.3779" y1="140.029" x2="86.3779" y2="151.694" gradientUnits="userSpaceOnUse">
<stop stop-color="#48F2A0"/>
<stop offset="1" stop-color="#32CA81"/>
</linearGradient>
</defs>
</svg>
