<svg width="371" height="344" viewBox="0 0 371 344" fill="none" xmlns="http://www.w3.org/2000/svg">
<path d="M308.752 35.9451C308.752 35.9451 266.858 1.69957 212.358 16.8826C157.858 32.0656 135.057 79.0558 103.801 111.366C87.4286 128.283 63.2631 134.517 43.8185 147.539C-18.3489 189.174 -9.14978 282.786 38.7962 318.104C80.297 348.671 132.152 351.872 199.635 329.324C267.117 306.776 315.415 293.227 357.267 228.649C399.119 164.071 360.356 82.4326 308.752 35.9451Z" fill="#DAE5FF"/>
<path opacity="0.7" d="M302.049 23.0838C302.049 23.0838 261.607 -11.3687 208.996 3.90603C156.385 19.1808 134.375 66.4549 104.203 98.9601C88.3977 115.98 65.0699 122.252 46.2994 135.351C-13.7128 177.239 -4.83259 271.416 41.4513 306.948C81.5133 337.7 131.571 340.92 196.714 318.235C261.857 295.551 308.48 281.92 348.882 216.952C389.283 151.983 351.863 69.8521 302.049 23.0838Z" fill="#DAE5FF"/>
<path d="M287.592 297.923C282.19 276.914 275.261 220.221 273.918 217.266C272.574 214.31 254.481 212.772 237.045 209.731C219.609 206.69 204.426 195.079 198.069 194.525C194.485 194.189 190.883 194.098 187.287 194.25C187.287 194.25 116.971 210.629 106.178 211.183C95.3852 211.738 88.4909 212.567 88.2107 216.437C87.9706 219.827 83.1114 282.545 82.9056 297.923" fill="#2D83FF"/>
<mask id="mask0_397_965" style="mask-type:luminance" maskUnits="userSpaceOnUse" x="82" y="194" width="206" height="104">
<path d="M287.592 297.923C282.19 276.914 275.261 220.221 273.918 217.266C272.574 214.31 254.481 212.772 237.045 209.731C219.609 206.69 204.426 195.079 198.069 194.525C194.485 194.189 190.883 194.098 187.287 194.25C187.287 194.25 116.971 210.629 106.178 211.183C95.3852 211.738 88.4909 212.567 88.2107 216.437C87.9706 219.827 83.1114 282.545 82.9056 297.923" fill="white"/>
</mask>
<g mask="url(#mask0_397_965)">
<g opacity="0.3">
<path d="M81.2878 297.923H106.779C106.779 294.493 106.544 290.159 108.802 286.095C112.85 278.812 123.368 256.94 122.157 248.868C120.945 240.796 114.468 237.543 116.897 241.585C119.327 245.626 120.945 256.157 116.897 249.68C112.85 243.202 103.137 220.953 92.6183 221.759C89.6628 221.988 87.6963 222.902 86.3986 224.046C86.0499 241.945 81.4536 285.46 81.2878 297.923Z" fill="#2C49CF"/>
<path d="M272.551 297.923C268.315 292.092 262.947 283.42 261.758 275.577C259.734 262.222 259.329 248.868 256.093 248.062C252.857 247.256 244.762 276.789 244.762 276.789L243.951 268.682C243.951 268.682 237.885 286.078 215.63 296.603C214.639 297.068 213.635 297.502 212.617 297.906L272.551 297.923Z" fill="#2C49CF"/>
<path d="M176.62 212.522C176.62 212.522 167.336 238.247 155.914 251.795C144.492 265.344 114.136 299.644 114.136 299.644H134.487C134.487 299.644 166.621 252.155 176.265 235.371C185.909 218.587 183.034 208.588 176.62 212.522Z" fill="#2C49CF"/>
<path d="M252.423 223.84C252.423 223.84 238.766 232.193 237.142 243.129C235.519 254.065 245.528 253.836 248.255 243.86C250.982 233.885 258.74 225.47 258.38 222.629C258.019 219.787 252.423 223.84 252.423 223.84Z" fill="#2C49CF"/>
</g>
<path d="M244.791 258.964C243.916 261.999 243.133 265.304 243.133 267.396C243.133 272.112 246.037 297.157 246.037 297.157" stroke="#2C49CF" stroke-linecap="round" stroke-linejoin="round"/>
<path d="M247.124 251.767C247.124 251.767 246.683 252.979 246.089 254.768" stroke="#2C49CF" stroke-linecap="round" stroke-linejoin="round"/>
<path d="M243.133 267.373L240.955 255.396" stroke="#2C49CF" stroke-linecap="round" stroke-linejoin="round"/>
<path d="M125.621 244.249C126.145 246.719 126.245 249.261 125.918 251.766C124.826 261.93 124.586 297.025 124.586 297.025" stroke="#2C49CF" stroke-linecap="round" stroke-linejoin="round"/>
<path d="M122.648 239.069C123.413 239.61 124.034 240.331 124.455 241.167" stroke="#2C49CF" stroke-linecap="round" stroke-linejoin="round"/>
<path d="M130.634 242.694C130.634 242.694 133.538 247.05 130.634 252.858C127.73 258.666 125.209 267.098 125.209 267.098" stroke="#2C49CF" stroke-linecap="round" stroke-linejoin="round"/>
</g>
<path d="M287.592 297.923C282.19 276.914 275.261 220.221 273.918 217.266C272.574 214.31 254.481 212.772 237.045 209.731C219.609 206.69 204.426 195.079 198.069 194.525C194.485 194.189 190.883 194.098 187.287 194.25C187.287 194.25 116.971 210.629 106.178 211.183C95.3852 211.738 88.4909 212.567 88.2107 216.437C87.9706 219.827 83.1114 282.545 82.9056 297.923" stroke="#263238" stroke-linecap="round" stroke-linejoin="round"/>
<path opacity="0.3" d="M153.313 201.933C153.313 201.933 149.671 208.405 150.883 215.688C152.095 222.971 151.695 241.184 155.336 238.349C158.978 235.513 164.763 227.15 168.285 227.424C171.806 227.699 188.11 222.948 188.11 222.948C188.11 222.948 202.276 230.637 208.342 233.067C214.407 235.496 213.607 233.878 211.583 226.995C209.559 220.113 210.365 214.859 210.771 203.123C211.177 191.386 179.392 189.563 171.52 191.792C163.648 194.022 152.101 200.716 153.313 201.933Z" fill="black"/>
<path d="M167.107 182.931C167.107 182.931 155.222 185.698 152.455 191.226C149.688 196.754 157.183 222.17 157.183 226.041C157.183 229.911 157.463 231.014 157.463 231.843C157.463 232.672 159.67 233.781 162.162 229.631C164.655 225.48 175.979 219.129 180.13 217.746C184.28 216.362 191.186 214.704 193.947 216.088C196.708 217.471 208.324 231.014 213.024 232.666C217.723 234.318 213.298 230.179 213.024 226.864C212.749 223.548 219.655 214.973 215.236 200.047C210.817 185.12 205.529 181.788 197.771 180.701C190.014 179.615 167.107 182.931 167.107 182.931Z" fill="white" stroke="#263238" stroke-linecap="round" stroke-linejoin="round"/>
<path d="M162.682 167.988C162.682 167.988 160.75 190.935 161.579 196.183C162.408 201.43 176.231 221.908 184.52 222.445C192.809 222.982 207.49 200.333 207.49 194.805V171.303C207.49 171.303 194.77 178.215 181.764 174.899C168.759 171.584 163.797 168.542 163.797 168.542L162.682 167.988Z" fill="#CCCCCC"/>
<mask id="mask1_397_965" style="mask-type:luminance" maskUnits="userSpaceOnUse" x="161" y="167" width="47" height="56">
<path d="M162.682 167.988C162.682 167.988 160.75 190.935 161.579 196.183C162.408 201.43 176.231 221.908 184.52 222.445C192.809 222.982 207.49 200.333 207.49 194.805V171.303C207.49 171.303 194.77 178.215 181.764 174.899C168.759 171.584 163.797 168.542 163.797 168.542L162.682 167.988Z" fill="white"/>
</mask>
<g mask="url(#mask1_397_965)">
<path opacity="0.3" d="M195.193 195.337C201.224 193.622 205.06 191.615 207.467 189.877V171.304C207.467 171.304 194.747 178.215 181.741 174.9C170.977 172.15 165.735 169.594 164.231 168.8C163.66 169.028 163.088 169.263 162.516 169.497C162.105 174.694 160.83 191.747 161.533 196.183C161.851 197.543 162.355 198.853 163.031 200.076C163.104 198.058 163.295 196.046 163.602 194.05C164.248 190.62 165.752 191.472 168.113 193.404C170.474 195.337 181.461 199.201 195.193 195.337Z" fill="black"/>
</g>
<path d="M162.682 167.988C162.682 167.988 160.75 190.935 161.579 196.183C162.408 201.43 176.231 221.908 184.52 222.445C192.809 222.982 207.49 200.333 207.49 194.805V171.303C207.49 171.303 194.77 178.215 181.764 174.899C168.759 171.584 163.797 168.542 163.797 168.542L162.682 167.988Z" stroke="#263238" stroke-linecap="round" stroke-linejoin="round"/>
<path d="M156.325 141.691C156.325 141.691 154.113 130.08 149.968 128.977C145.824 127.874 145.269 140.862 147.756 148.328C150.243 155.794 156.903 159.384 158.538 155.514C160.173 151.644 156.325 141.691 156.325 141.691Z" fill="#CCCCCC" stroke="#263238" stroke-linecap="round" stroke-linejoin="round"/>
<path d="M158.263 148.883C158.263 148.883 151.352 135.06 148.865 135.334C146.378 135.609 148.036 142.246 148.036 142.246" stroke="#263238" stroke-linecap="round" stroke-linejoin="round"/>
<path d="M155.222 143.629C155.222 143.629 151.072 140.862 151.072 146.945" stroke="#263238" stroke-linecap="round" stroke-linejoin="round"/>
<path d="M213.023 141.691C213.023 141.691 215.236 130.08 219.38 128.977C223.525 127.874 224.08 140.862 221.593 148.328C219.106 155.794 212.446 159.384 210.811 155.514C209.176 151.644 213.023 141.691 213.023 141.691Z" fill="#CCCCCC" stroke="#263238" stroke-linecap="round" stroke-linejoin="round"/>
<path d="M211.086 148.883C211.086 148.883 217.997 135.06 220.484 135.334C222.971 135.609 221.313 142.246 221.313 142.246" stroke="#263238" stroke-linecap="round" stroke-linejoin="round"/>
<path d="M214.127 143.629C214.127 143.629 218.277 140.862 218.277 146.945" stroke="#263238" stroke-linecap="round" stroke-linejoin="round"/>
<path d="M155.222 138.101C155.222 138.101 156.611 154.959 156.611 161.871C156.611 168.782 159.652 177.632 172.646 185.366C185.64 193.101 203.054 188.408 210.52 180.667C217.986 172.927 215.219 156.897 214.664 149.157C214.11 141.416 214.092 132.847 214.092 128.703C214.092 124.558 214.664 110.455 210.222 103.269C205.78 96.083 177.883 94.974 166.272 101.057C154.662 107.139 151.62 118.207 152.449 121.511C153.278 124.815 155.222 138.101 155.222 138.101Z" fill="#CCCCCC"/>
<mask id="mask2_397_965" style="mask-type:luminance" maskUnits="userSpaceOnUse" x="152" y="97" width="64" height="93">
<path d="M155.222 138.101C155.222 138.101 156.611 154.959 156.611 161.871C156.611 168.782 159.652 177.632 172.646 185.366C185.64 193.101 203.054 188.408 210.52 180.667C217.986 172.927 215.219 156.897 214.664 149.157C214.11 141.416 214.092 132.847 214.092 128.703C214.092 124.558 214.664 110.455 210.222 103.269C205.78 96.083 177.883 94.974 166.272 101.057C154.662 107.139 151.62 118.207 152.449 121.511C153.278 124.815 155.222 138.101 155.222 138.101Z" fill="white"/>
</mask>
<g mask="url(#mask2_397_965)">
<path opacity="0.3" d="M184.251 105.636C182.536 105.293 168.816 104.11 161.876 103.887C153.873 110.101 151.746 118.664 152.455 121.511C153.284 124.833 155.222 138.09 155.222 138.09C155.222 138.09 156.611 154.96 156.611 161.871C156.611 167.108 158.366 173.459 164.866 179.593C166.192 177.903 166.901 175.812 166.878 173.665C166.878 167.228 167.736 162.289 165.163 158.001C162.591 153.713 160.23 142.12 162.373 137.181C164.517 132.242 166.449 122.803 166.878 118.51C167.307 114.217 168.593 114.651 175.247 117.87C177.22 118.808 179.371 119.313 181.556 119.349C183.74 119.386 185.907 118.953 187.91 118.081C187.91 118.081 186.395 106.065 184.251 105.636Z" fill="black"/>
<path opacity="0.3" d="M178.969 135.814C178.969 135.814 166.226 134.179 168.587 136.751C170.948 139.324 179.746 140.827 182.965 139.758C186.183 138.689 183.125 135.951 178.969 135.814Z" fill="black"/>
<path opacity="0.3" d="M193.478 129.029C193.478 129.029 191.117 133.322 193.478 133.534C195.839 133.745 196.908 129.24 202.276 130.961C207.644 132.682 206.569 128.171 203.133 126.879C199.698 125.587 195.193 127.097 193.478 129.029Z" fill="black"/>
<path opacity="0.3" d="M214.652 149.157C214.081 141.417 214.081 132.847 214.081 128.703C214.081 124.558 214.652 110.455 210.211 103.269C209.382 101.92 207.724 100.782 205.494 99.8735C203.865 100.016 198.394 100.702 198.394 100.702L195.822 117.012C195.822 117.012 201.184 116.155 203.333 114.222C205.483 112.29 207.192 114.005 207.627 118.944C208.061 123.884 209.77 126.668 211.057 129.457C212.343 132.247 211.485 142.977 210.199 150.272C208.913 157.566 211.914 158.641 209.124 166.582C206.335 174.522 198.394 182.674 191.974 186.11C189.688 187.333 190.065 188.368 191.894 189.071C199.498 188.157 206.46 184.864 210.508 180.668C217.968 172.933 215.207 156.898 214.652 149.157Z" fill="black"/>
</g>
<path d="M155.222 138.101C155.222 138.101 156.611 154.959 156.611 161.871C156.611 168.782 159.652 177.632 172.646 185.366C185.64 193.101 203.054 188.408 210.52 180.667C217.986 172.927 215.219 156.897 214.664 149.157C214.11 141.416 214.092 132.847 214.092 128.703C214.092 124.558 214.664 110.455 210.222 103.269C205.78 96.083 177.883 94.974 166.272 101.057C154.662 107.139 151.62 118.207 152.449 121.511C153.278 124.815 155.222 138.101 155.222 138.101Z" stroke="#263238" stroke-linecap="round" stroke-linejoin="round"/>
<path d="M172.766 144.767H178.803" stroke="#263238" stroke-linecap="round" stroke-linejoin="round"/>
<path d="M198.423 145.521L205.592 144.767" stroke="#263238" stroke-linecap="round" stroke-linejoin="round"/>
<path d="M219.346 117.092C219.346 116.932 219.346 116.766 219.346 116.606C220.172 116.454 220.921 116.027 221.473 115.394C222.025 114.761 222.346 113.96 222.385 113.122C222.423 112.283 222.176 111.456 221.685 110.776C221.193 110.095 220.486 109.601 219.678 109.374C220.273 108.964 220.736 108.389 221.01 107.719C221.284 107.05 221.357 106.315 221.22 105.605C221.083 104.895 220.742 104.24 220.238 103.72C219.735 103.201 219.091 102.839 218.386 102.68C219.156 101.88 219.646 100.852 219.784 99.7493C219.921 98.6471 219.698 97.53 219.148 96.565C218.598 95.6001 217.75 94.839 216.732 94.3956C215.714 93.9522 214.579 93.8503 213.498 94.105C213.614 93.684 213.675 93.2498 213.681 92.8131C213.681 91.4379 213.135 90.1191 212.162 89.1467C211.19 88.1743 209.871 87.628 208.496 87.628C207.506 87.6301 206.537 87.9179 205.706 88.4569C205.365 87.1762 204.652 86.0255 203.657 85.1505C202.662 84.2754 201.429 83.7155 200.115 83.5417C198.801 83.3678 197.466 83.5878 196.277 84.1738C195.088 84.7598 194.1 85.6854 193.438 86.8334C193.246 85.3624 192.572 83.9967 191.52 82.9504C190.468 81.9041 189.099 81.2364 187.627 81.052C186.155 80.8676 184.664 81.1769 183.387 81.9314C182.109 82.686 181.119 83.8431 180.57 85.2213C179.883 84.1317 178.896 83.2634 177.728 82.7205C176.56 82.1777 175.261 81.9833 173.985 82.1607C172.709 82.3381 171.512 82.8798 170.536 83.7208C169.56 84.5618 168.848 85.6663 168.485 86.902C167.781 86.3326 166.945 85.9491 166.054 85.7868C165.163 85.6245 164.245 85.6885 163.385 85.973C162.526 86.2575 161.751 86.7534 161.133 87.4151C160.515 88.0769 160.072 88.8832 159.847 89.7603C159.281 89.4539 158.645 89.3005 158.001 89.3152C157.358 89.33 156.729 89.5123 156.178 89.8443C155.627 90.1763 155.171 90.6464 154.857 91.2081C154.543 91.7699 154.381 92.4039 154.387 93.0474C154.391 93.4827 154.47 93.9141 154.622 94.3223C154.054 94.0752 153.433 93.9737 152.816 94.0268C152.199 94.0799 151.604 94.286 151.087 94.6265C150.569 94.967 150.145 95.4311 149.852 95.9768C149.559 96.5226 149.406 97.1328 149.408 97.7523C149.414 98.439 149.612 99.1103 149.98 99.6902C149.3 99.8682 148.685 100.235 148.206 100.749C147.726 101.263 147.403 101.903 147.273 102.593C147.143 103.284 147.212 103.997 147.472 104.65C147.731 105.303 148.171 105.869 148.739 106.282C147.926 106.465 147.197 106.917 146.671 107.564C146.144 108.211 145.851 109.016 145.837 109.85C145.823 110.684 146.09 111.499 146.594 112.163C147.099 112.827 147.812 113.303 148.619 113.513C148.186 113.849 147.834 114.277 147.587 114.766C147.341 115.256 147.207 115.794 147.195 116.342C147.182 116.889 147.293 117.433 147.518 117.933C147.742 118.432 148.076 118.875 148.493 119.23C147.655 119.473 146.929 120.005 146.443 120.731C145.958 121.457 145.744 122.331 145.84 123.199C145.935 124.067 146.334 124.874 146.966 125.477C147.598 126.08 148.422 126.441 149.294 126.496C149.377 127.367 149.607 128.217 149.974 129.011C151.906 132.327 152.741 133.71 152.741 133.71C152.741 133.71 153.627 138.352 155.399 140.319C155.771 145.109 156.605 156.526 156.605 161.905C156.605 168.817 159.647 177.666 172.641 185.401C185.635 193.135 203.048 188.442 210.514 180.702C217.98 172.961 215.213 156.932 214.659 149.191C214.333 144.618 214.201 139.759 214.144 135.688C214.822 135.387 215.459 135.003 216.042 134.545C216.825 133.973 217.523 131.995 218.066 129.4C218.174 129.417 218.282 129.428 218.392 129.434C219.113 129.437 219.82 129.23 220.426 128.838C221.032 128.446 221.511 127.886 221.803 127.226C222.096 126.566 222.191 125.836 222.075 125.123C221.96 124.411 221.639 123.748 221.153 123.214C221.585 122.744 221.887 122.169 222.031 121.547C222.175 120.925 222.156 120.276 221.974 119.663C221.793 119.051 221.456 118.496 220.997 118.052C220.537 117.609 219.97 117.291 219.352 117.132L219.346 117.092ZM209.954 164.066C206.912 167.382 200.555 163.792 197.24 160.476C193.924 157.16 190.603 156.326 182.588 158.264C174.573 160.202 173.441 165.449 168.21 167.107C162.98 168.765 161.305 162.134 160.207 156.88C159.109 151.626 158.275 136.426 158.275 136.426C158.275 133.384 162.145 132.83 163.803 127.576C165.461 122.323 161.59 119.287 164.374 112.095C167.158 104.904 175.693 114.777 175.859 114.954C179.798 119.03 187.727 118.956 193.009 118.492C196.005 118.218 199.721 113.919 202.602 111.364C203.03 111.001 203.543 110.753 204.093 110.644C204.643 110.535 205.212 110.567 205.745 110.739C206.279 110.911 206.761 111.216 207.144 111.625C207.527 112.034 207.8 112.535 207.936 113.079C208.725 116.086 209.594 119.836 209.439 121.242C209.165 123.729 209.816 123.626 212.029 127.496C213.121 129.406 212.949 128.199 213.126 129.531C212.995 131.915 212.881 136.197 212.48 142.817C211.886 151.924 212.995 160.767 209.954 164.066Z" fill="#263238" stroke="#263238" stroke-linecap="round" stroke-linejoin="round"/>
<path d="M168.49 134.505L182.308 136.163" stroke="#263238" stroke-width="5" stroke-linecap="round" stroke-linejoin="round"/>
<path d="M192.815 130.338C192.815 130.338 195.582 123.426 204.151 127.851" stroke="#263238" stroke-width="5" stroke-linecap="round" stroke-linejoin="round"/>
<path d="M191.712 135.334C191.712 135.334 191.14 145.012 191.986 149.711C192.832 154.411 196.131 160.768 189.499 162.425C182.868 164.083 180.101 160.768 180.65 156.068" fill="#CCCCCC"/>
<mask id="mask3_397_965" style="mask-type:luminance" maskUnits="userSpaceOnUse" x="180" y="135" width="14" height="28">
<path d="M191.712 135.334C191.712 135.334 191.14 145.012 191.986 149.711C192.832 154.411 196.131 160.768 189.499 162.425C182.868 164.083 180.101 160.768 180.65 156.068" fill="white"/>
</mask>
<g mask="url(#mask3_397_965)">
<path opacity="0.3" d="M181.033 158.858C181.033 158.858 186.395 162.288 189.831 160.144C193.267 158 192.638 153.01 191.986 149.711C191.334 146.413 191.117 143.834 191.117 143.834C191.117 143.834 194.982 155.422 193.695 159.069C192.409 162.717 186.395 164.866 182.336 163.363C178.277 161.859 181.033 158.858 181.033 158.858Z" fill="black"/>
</g>
<path d="M191.712 135.334C191.712 135.334 191.14 145.012 191.986 149.711C192.832 154.411 196.131 160.768 189.499 162.425C182.868 164.083 180.101 160.768 180.65 156.068" stroke="#263238" stroke-linecap="round" stroke-linejoin="round"/>
<path d="M180.764 138.855C180.764 140.536 179.958 141.897 178.969 141.897C177.98 141.897 177.191 140.536 177.191 138.855C177.191 137.175 177.997 135.814 178.992 135.814C179.987 135.814 180.764 137.197 180.764 138.855Z" fill="#263238"/>
<path d="M202.522 137.358C202.522 139.033 201.716 140.399 200.727 140.399C199.738 140.399 198.926 139.033 198.926 137.358C198.926 135.683 199.732 134.316 200.727 134.316C201.722 134.316 202.522 135.677 202.522 137.358Z" fill="#263238"/>
<path d="M188.116 168.228C188.116 168.228 190.603 168.799 193.918 164.638" stroke="#666666" stroke-width="3" stroke-linecap="round" stroke-linejoin="round"/>
<path d="M162.082 297.922L185.075 238.754C185.075 238.754 186.732 237.651 190.877 233.226C195.022 228.802 193.37 222.719 193.37 222.719C193.56 223.296 193.932 223.796 194.429 224.146C194.926 224.495 195.523 224.674 196.131 224.657C198.343 224.657 201.384 224.085 202.768 221.061C204.151 218.037 202.488 211.663 201.659 206.409C200.83 201.156 197.514 191.209 195.027 191.209C192.541 191.209 179.272 195.353 179.272 195.353C179.272 195.353 177.889 188.996 178.163 187.064C178.438 185.132 190.34 182.359 191.432 182.931C192.524 183.502 193.918 184.869 196.131 184.04C198.343 183.211 196.131 180.999 194.473 177.683C192.815 174.367 180.376 176.574 176.505 178.255C172.635 179.935 166.833 181.021 168.21 186.83C169.588 192.638 171.806 227.744 171.806 227.744C171.806 227.744 171.806 230.231 168.491 236.033C165.684 240.944 131.938 284.625 121.585 297.968" fill="#CCCCCC"/>
<mask id="mask4_397_965" style="mask-type:luminance" maskUnits="userSpaceOnUse" x="121" y="175" width="83" height="123">
<path d="M162.082 297.922L185.075 238.754C185.075 238.754 186.732 237.651 190.877 233.226C195.022 228.802 193.37 222.719 193.37 222.719C193.56 223.296 193.932 223.796 194.429 224.146C194.926 224.495 195.523 224.674 196.131 224.657C198.343 224.657 201.384 224.085 202.768 221.061C204.151 218.037 202.488 211.663 201.659 206.409C200.83 201.156 197.514 191.209 195.027 191.209C192.541 191.209 179.272 195.353 179.272 195.353C179.272 195.353 177.889 188.996 178.163 187.064C178.438 185.132 190.34 182.359 191.432 182.931C192.524 183.502 193.918 184.869 196.131 184.04C198.343 183.211 196.131 180.999 194.473 177.683C192.815 174.367 180.376 176.574 176.505 178.255C172.635 179.935 166.833 181.021 168.21 186.83C169.588 192.638 171.806 227.744 171.806 227.744C171.806 227.744 171.806 230.231 168.491 236.033C165.684 240.944 131.938 284.625 121.585 297.968" fill="white"/>
</mask>
<g mask="url(#mask4_397_965)">
<path opacity="0.3" d="M196.131 224.663C197.842 224.733 199.532 224.263 200.961 223.319C202.025 221.982 202.888 219.666 200.527 216.459C196.6 211.103 188.03 216.814 184.817 219.318C181.605 221.822 179.821 219.318 176.963 215.751C174.745 212.978 171.6 204.169 169.577 197.949C170.72 210.28 171.806 227.716 171.806 227.716C171.806 227.716 171.806 230.202 168.49 236.005C165.684 240.915 131.938 284.597 121.585 297.94H145.887C157.017 282.282 179.044 243.791 180.536 239.675C181.679 236.416 185.589 236.188 189.248 234.947C189.745 234.438 190.283 233.878 190.877 233.232C195.027 228.807 193.37 222.725 193.37 222.725C193.56 223.302 193.932 223.802 194.429 224.151C194.926 224.501 195.523 224.68 196.131 224.663Z" fill="black"/>
</g>
<path d="M162.082 297.922L185.075 238.754C185.075 238.754 186.732 237.651 190.877 233.226C195.022 228.802 193.37 222.719 193.37 222.719C193.56 223.296 193.932 223.796 194.429 224.146C194.926 224.495 195.523 224.674 196.131 224.657C198.343 224.657 201.384 224.085 202.768 221.061C204.151 218.037 202.488 211.663 201.659 206.409C200.83 201.156 197.514 191.209 195.027 191.209C192.541 191.209 179.272 195.353 179.272 195.353C179.272 195.353 177.889 188.996 178.163 187.064C178.438 185.132 190.34 182.359 191.432 182.931C192.524 183.502 193.918 184.869 196.131 184.04C198.343 183.211 196.131 180.999 194.473 177.683C192.815 174.367 180.376 176.574 176.505 178.255C172.635 179.935 166.833 181.021 168.21 186.83C169.588 192.638 171.806 227.744 171.806 227.744C171.806 227.744 171.806 230.231 168.491 236.033C165.684 240.944 131.938 284.625 121.585 297.968" stroke="#263238" stroke-linecap="round" stroke-linejoin="round"/>
<path d="M180.93 203.648C180.93 203.648 195.582 199.778 196.685 199.778C197.788 199.778 200.281 201.99 200.281 201.99" stroke="#263238" stroke-linecap="round" stroke-linejoin="round"/>
<path d="M183.417 213.322C183.417 213.322 196.411 210.006 198.617 210.006C199.945 210.012 201.224 210.504 202.213 211.389" stroke="#263238" stroke-linecap="round" stroke-linejoin="round"/>
<path d="M191.431 223.548C191.431 223.548 194.198 222.719 198.068 219.678" stroke="#263238" stroke-linecap="round" stroke-linejoin="round"/>
<path opacity="0.3" d="M253.811 216.064C263.431 216.064 271.229 214.519 271.229 212.614C271.229 210.708 263.431 209.163 253.811 209.163C244.191 209.163 236.393 210.708 236.393 212.614C236.393 214.519 244.191 216.064 253.811 216.064Z" fill="black"/>
<path d="M263.592 160.242C267.07 163.196 269.395 167.28 270.162 171.778C271.341 179.191 269.489 183.908 270.498 187.276C271.507 190.644 272.102 191.57 272.102 191.57C272.102 191.57 272.355 191.57 266.458 192.92C260.561 194.27 256.774 194.942 253.489 192.749C250.205 190.556 247.51 188.85 245.234 188.119C242.958 187.388 239.507 188.538 239.507 188.538C241.686 185.595 244.401 183.09 247.51 181.155C252.729 177.87 252.057 175.765 250.541 171.554C249.443 168.625 248.148 165.774 246.666 163.02C248.855 161.377 251.336 160.165 253.977 159.448C258.29 158.303 263.003 159.989 263.592 160.242Z" fill="#263238" stroke="#263238" stroke-linecap="round" stroke-linejoin="round"/>
<path d="M270.498 178.348C270.498 178.348 270.752 181.272 269.07 185.171C267.899 188.051 267.576 191.207 268.139 194.265C268.306 195.042 268.42 195.83 268.48 196.624C269.779 196.02 271.044 195.345 272.267 194.601C273.529 193.763 273.7 192.837 273.7 192.837C273.7 192.837 272.438 191.487 271.341 187.193C270.67 184.295 270.387 181.32 270.498 178.348Z" fill="#FF3227" stroke="#263238" stroke-linecap="round" stroke-linejoin="round"/>
<path d="M249.951 164.96C249.951 164.96 253.909 162.523 256.097 160.915C258.285 159.307 263.592 160.242 263.592 160.242C263.592 160.242 260.561 158.22 257.783 157.63C255.005 157.04 248.772 158.892 247.339 159.653C245.906 160.413 248.314 165.827 248.314 165.827L249.951 164.96Z" fill="#FF2D21" stroke="#263238" stroke-linecap="round" stroke-linejoin="round"/>
<path d="M245.648 161.13C244.922 162.457 244.094 163.726 243.172 164.926C241.515 167.124 238.81 170.399 238.81 170.399L237.407 165.457L234.629 166.047C234.629 166.047 233.591 174.054 234.141 175.604C234.692 177.154 236.534 177.222 238.776 176.491C241.018 175.76 247.407 172.66 247.407 172.66L249.181 175.765L246.077 184.63C246.077 184.63 239.96 190.39 239.161 192.428C238.362 194.465 240.136 196.77 241.822 200.406C243.508 204.041 244.483 206.166 244.483 206.166C244.298 206.68 244.028 207.16 243.684 207.584C243.24 208.028 238.81 208.384 238.274 209.271C237.738 210.158 241.198 211.395 244.395 211.395C247.592 211.395 249.98 210.952 249.888 209.534C249.795 208.116 247.851 204.66 247.495 202.799C247.139 200.937 246.876 195.084 246.876 195.084C246.876 195.084 251.662 190.298 252.373 190.21C253.085 190.122 256.984 191.36 257.422 191.716C257.861 192.072 258.49 192.866 260.083 195.971C261.677 199.075 266.687 207.35 266.687 207.35C266.687 207.35 267.486 210.187 268.105 211.78C268.724 213.374 270.323 215.153 271.566 214.173C272.808 213.194 272.628 210.986 271.829 209.388C271.029 207.789 268.905 207.17 268.549 205.576C268.193 203.983 267.267 198.008 266.643 193.934C266.019 189.859 264.518 184.269 264.075 182.408C263.631 180.546 264.25 172.743 263.188 168.762C262.125 164.78 259.908 162.821 257.422 161.315C254.937 159.809 251.662 160.072 249.625 160.34C247.588 160.608 246.608 160.691 246.608 160.691L245.648 161.13Z" fill="#FF291C" stroke="#263238" stroke-linecap="round" stroke-linejoin="round"/>
<path d="M245.268 169.2L247.422 172.655L243.806 170.847" stroke="#263238" stroke-linecap="round" stroke-linejoin="round"/>
<path d="M246.822 185.736C247.616 187.072 248.75 188.175 250.107 188.933" stroke="#263238" stroke-linecap="round" stroke-linejoin="round"/>
<path d="M252.388 190.21L249.011 189.664" stroke="#263238" stroke-linecap="round" stroke-linejoin="round"/>
<path d="M258.236 189.752C259.522 188.276 261.034 187.012 262.715 186.009" stroke="#263238" stroke-linecap="round" stroke-linejoin="round"/>
<path d="M257.963 188.84C257.963 188.84 259.884 186.554 261.16 185.643" stroke="#263238" stroke-linecap="round" stroke-linejoin="round"/>
<path d="M238.81 170.399L239.756 172.621" stroke="#263238" stroke-linecap="round" stroke-linejoin="round"/>
<path d="M237.285 165.798C237.285 165.798 239.015 163.361 239.288 161.768C239.561 160.174 238.859 157.869 238.435 157.732C238.011 157.596 237.821 157.922 238.016 158.532C238.128 158.886 238.208 159.25 238.255 159.618C238.255 159.618 237.519 158.02 237.68 157.143C237.84 156.265 237.153 155.812 235.993 156.3C234.833 156.787 234.175 156.514 233.62 158.103C233.135 159.562 232.931 161.1 233.02 162.635C233.074 164.034 234.609 166.047 234.609 166.047L237.285 165.798Z" fill="#CCCCCC" stroke="#263238" stroke-linecap="round" stroke-linejoin="round"/>
<path d="M234.97 156.67C234.97 156.67 235.316 156.67 235.145 157.357C234.975 158.044 234.414 159.087 234.478 159.657C234.541 160.228 234.682 160.847 234.682 160.847" stroke="#263238" stroke-linecap="round" stroke-linejoin="round"/>
<path d="M235.993 156.299C236.151 156.425 236.268 156.594 236.331 156.785C236.393 156.977 236.398 157.182 236.344 157.376C236.132 158.23 235.987 159.098 235.911 159.974C235.911 160.237 235.979 160.632 235.979 160.632" stroke="#263238" stroke-linecap="round" stroke-linejoin="round"/>
<path d="M237.022 156.134C237.022 156.134 237.377 156.499 237.187 157.547C236.997 158.595 236.661 159.55 237.095 160.354" stroke="#263238" stroke-linecap="round" stroke-linejoin="round"/>
<path d="M234.239 161.119L236.71 160.476" stroke="#263238" stroke-linecap="round" stroke-linejoin="round"/>
<path d="M237.368 161.1C237.293 161.483 237.101 161.832 236.817 162.099C236.577 162.306 236.392 162.568 236.277 162.863C236.161 163.157 236.119 163.476 236.154 163.79" stroke="#263238" stroke-linecap="round" stroke-linejoin="round"/>
<path d="M260.546 170.564C260.459 172.011 260.15 173.437 259.63 174.79C258.855 176.481 259.63 179.015 262.379 179.58C265.127 180.146 266.044 177.256 266.044 176.125C266.044 174.994 264.845 171.973 264.845 171.617C264.845 171.261 263.505 169.015 260.829 170.642" fill="#FF3025"/>
<path d="M260.546 170.564C260.459 172.011 260.15 173.437 259.63 174.79C258.855 176.481 259.63 179.015 262.379 179.58C265.127 180.146 266.044 177.256 266.044 176.125C266.044 174.994 264.845 171.973 264.845 171.617C264.845 171.261 263.505 169.015 260.829 170.642" stroke="#263238" stroke-linecap="round" stroke-linejoin="round"/>
<path d="M269.928 139.31L267.135 132.068L265.459 139.31L266.814 138.126L267.135 145.578L262.847 151.148L262.203 137.99L263.768 139.242L260.951 132L259.274 139.242L260.736 137.96L261.385 151.333L256.647 146.46L255.99 139.213L257.593 140.495L254.776 133.253L253.104 140.495L254.523 139.252L255.215 146.855C255.23 147.021 255.303 147.178 255.419 147.298L261.492 153.512L263.695 198.904C263.703 199.092 263.784 199.269 263.92 199.399C264.057 199.529 264.238 199.601 264.426 199.601H264.46C264.653 199.591 264.835 199.505 264.965 199.362C265.096 199.219 265.165 199.03 265.157 198.836L262.944 153.375L268.446 146.236C268.551 146.095 268.604 145.923 268.597 145.748L268.247 137.951L269.928 139.31Z" fill="#263238"/>
<path d="M263.237 167.674C263.237 167.674 260.561 167.465 259.859 167.816C259.157 168.167 259.372 169.999 259.372 170.842C259.372 171.685 260.288 172.465 260.834 171.973C261.38 171.481 261.467 169.224 261.467 169.224C262.077 169.195 262.671 169.028 263.207 168.737C263.929 168.308 263.724 167.601 263.237 167.674Z" fill="#CCCCCC" stroke="#263238" stroke-linecap="round" stroke-linejoin="round"/>
<path d="M261.394 172.041C261.394 172.041 260.478 172.392 260.829 172.957C261.18 173.523 262.028 174.083 263.787 174.083C265.547 174.083 266.395 172.957 266.112 172.324C265.829 171.69 264.772 172.251 263.856 172.251C263.032 172.223 262.211 172.153 261.394 172.041Z" fill="#CCCCCC" stroke="#263238" stroke-linecap="round" stroke-linejoin="round"/>
<path d="M260.829 170.633C260.829 170.633 260.342 171.408 260.829 171.973C261.316 172.538 262.588 172.889 264.562 172.948C266.536 173.006 266.512 171.33 266.112 170.691C265.712 170.053 263.719 170.833 262.871 170.833C262.187 170.813 261.504 170.746 260.829 170.633Z" fill="#CCCCCC" stroke="#263238" stroke-linecap="round" stroke-linejoin="round"/>
<path d="M261.321 169.507C261.197 169.521 261.08 169.567 260.979 169.641C260.879 169.715 260.8 169.814 260.751 169.928C260.702 170.043 260.683 170.168 260.698 170.292C260.712 170.415 260.759 170.533 260.834 170.633C261.258 171.339 262.101 171.758 263.792 171.758C265.483 171.758 266.117 171.476 266.326 170.423C266.536 169.37 265.975 169.151 265.201 169.292C264.426 169.434 262.447 169.458 261.321 169.507Z" fill="#CCCCCC" stroke="#263238" stroke-linecap="round" stroke-linejoin="round"/>
<path d="M264.494 167.392C264.494 167.392 261.955 167.743 261.253 167.879C260.551 168.016 260.337 169.078 260.619 169.57C260.902 170.063 263.154 170.487 264.63 170.136C266.107 169.785 266.536 169.288 266.321 168.162C266.107 167.036 264.845 167.324 264.494 167.392Z" fill="#CCCCCC" stroke="#263238" stroke-linecap="round" stroke-linejoin="round"/>
<path d="M259.347 176.549L256.745 170.067" stroke="#263238" stroke-linecap="round" stroke-linejoin="round"/>
<path d="M248.465 165.783C248.465 165.783 252.403 165.783 255.551 161.017C258.699 156.251 259.055 152.03 259.055 152.03C259.055 152.03 253.694 155.866 250.921 156.256C248.148 156.646 243.153 156.909 243.153 156.909C243.153 156.909 242.943 159.511 244.678 163.069C246.413 166.627 248.465 165.783 248.465 165.783Z" fill="#FF3227" stroke="#263238" stroke-linecap="round" stroke-linejoin="round"/>
<path d="M248.465 165.784L247.471 168.82L249.556 168.415L248.465 165.784Z" stroke="#263238" stroke-linecap="round" stroke-linejoin="round"/>
<path d="M238.303 143.029C238.303 143.029 236.919 146.977 237.109 148.034C237.299 149.092 238.084 149.847 236.914 151.275C235.745 152.703 234.853 153.951 235.452 154.472C235.901 154.791 236.451 154.932 236.997 154.867C236.857 156.35 236.999 157.847 237.416 159.278C238.108 161.563 239.122 164.385 240.735 164.151C242.348 163.917 244.946 162.031 244.946 162.031C244.946 162.031 247.5 165.984 248.465 165.774C249.43 165.564 251.033 161.49 251.525 158.508C252.018 155.525 252.364 155.973 251.443 154.916C250.521 153.858 249.288 152.62 249.288 152.62C249.288 152.62 247.744 149.384 247.87 146.397C247.997 143.409 248.991 142.386 244.99 139.798C240.989 137.21 238.416 142.235 238.303 143.029Z" fill="#CCCCCC" stroke="#263238" stroke-linecap="round" stroke-linejoin="round"/>
<path d="M256.93 151.026C257.018 150.686 256.994 150.326 256.863 150C256.731 149.674 256.499 149.398 256.199 149.214C256.47 148.992 256.663 148.69 256.75 148.351C256.827 148.058 256.822 147.75 256.736 147.459C256.65 147.169 256.486 146.907 256.262 146.704C256.5 146.479 256.669 146.192 256.75 145.875C256.804 145.664 256.816 145.443 256.785 145.227C256.754 145.011 256.681 144.803 256.569 144.615C256.458 144.428 256.311 144.264 256.136 144.133C255.961 144.002 255.762 143.907 255.551 143.853C255.239 143.772 254.91 143.786 254.605 143.892C254.772 143.823 254.923 143.723 255.051 143.596C255.178 143.469 255.279 143.318 255.349 143.152C255.418 142.986 255.454 142.808 255.454 142.628C255.455 142.448 255.42 142.269 255.351 142.103C255.283 141.937 255.182 141.785 255.055 141.658C254.928 141.53 254.777 141.429 254.611 141.36C254.445 141.291 254.267 141.255 254.087 141.254C253.907 141.254 253.729 141.289 253.563 141.357C253.655 141.225 253.724 141.079 253.767 140.924C253.836 140.663 253.827 140.387 253.74 140.131C253.653 139.876 253.492 139.652 253.278 139.487C253.064 139.322 252.806 139.225 252.537 139.206C252.267 139.188 251.999 139.25 251.764 139.384C251.798 139.068 251.722 138.751 251.549 138.486C251.375 138.221 251.115 138.024 250.813 137.929C250.51 137.834 250.184 137.847 249.89 137.966C249.596 138.084 249.353 138.301 249.201 138.579H249.147C249.147 138.55 249.171 138.521 249.181 138.487C249.275 138.156 249.241 137.803 249.087 137.496C248.933 137.189 248.669 136.951 248.348 136.828C248.027 136.706 247.672 136.708 247.352 136.835C247.033 136.962 246.773 137.203 246.623 137.512C246.614 137.189 246.492 136.88 246.278 136.639C246.063 136.397 245.771 136.239 245.451 136.193C245.132 136.146 244.806 136.214 244.532 136.384C244.258 136.554 244.052 136.815 243.952 137.122C243.835 136.817 243.613 136.563 243.325 136.407C243.038 136.251 242.704 136.203 242.384 136.272C242.064 136.341 241.78 136.522 241.582 136.783C241.384 137.043 241.286 137.366 241.306 137.692C240.901 137.459 240.121 137.229 238.986 137.902C237.256 138.921 237.87 140.451 237.87 140.451C237.87 140.451 235.097 140.197 234.785 142.127C234.473 144.057 235.272 145.636 237.221 145.412C239.171 145.188 239.995 142.834 239.995 142.834C240.065 142.422 240.257 142.041 240.547 141.74C240.836 141.438 241.209 141.23 241.617 141.143C243.079 140.787 245.848 142.142 246.004 144.096C246.16 146.051 243.806 144.813 243.601 146.319C243.396 147.825 245.263 148.395 245.336 150.242C245.409 152.089 245.214 155.705 244.113 156.426C243.011 157.148 242.007 156.071 240.959 155.159C239.912 154.248 237.509 153.629 237.007 154.872C236.505 156.115 237.007 158.444 237.329 160.72C237.65 162.996 238.357 164.556 240.55 164.57C242.743 164.585 244.756 162.445 244.756 162.445C244.756 162.445 248.392 159.721 248.918 158.025C249.444 156.329 246.969 153.41 247.09 151.606C247.212 149.803 247.378 150.144 248.299 150.817C249.22 151.489 249.011 153.741 249.824 154.506C250.01 154.689 250.224 154.841 250.458 154.955C250.541 155.379 250.766 155.762 251.096 156.041C251.426 156.32 251.841 156.478 252.273 156.489C252.705 156.501 253.128 156.365 253.473 156.103C253.817 155.842 254.062 155.471 254.167 155.052C254.206 154.893 254.224 154.729 254.22 154.565C254.505 154.577 254.788 154.516 255.042 154.386C255.296 154.257 255.512 154.065 255.669 153.827C255.826 153.59 255.92 153.316 255.94 153.032C255.96 152.748 255.907 152.463 255.785 152.206C256.063 152.127 256.315 151.977 256.516 151.77C256.717 151.563 256.86 151.306 256.93 151.026Z" fill="#263238"/>
<path d="M254.493 143.926H254.527M256.93 151.026C257.018 150.686 256.994 150.326 256.863 150C256.731 149.674 256.499 149.398 256.199 149.214C256.47 148.992 256.663 148.69 256.75 148.351C256.827 148.058 256.822 147.75 256.736 147.459C256.65 147.169 256.486 146.907 256.262 146.704C256.5 146.479 256.669 146.192 256.75 145.875C256.804 145.664 256.816 145.443 256.785 145.227C256.754 145.011 256.681 144.803 256.569 144.615C256.458 144.428 256.311 144.264 256.136 144.133C255.961 144.002 255.762 143.907 255.551 143.853C255.239 143.772 254.91 143.786 254.605 143.892C254.772 143.823 254.923 143.723 255.051 143.596C255.178 143.469 255.279 143.318 255.349 143.152C255.418 142.986 255.454 142.808 255.454 142.628C255.455 142.448 255.42 142.269 255.351 142.103C255.283 141.937 255.182 141.785 255.055 141.658C254.928 141.53 254.777 141.429 254.611 141.36C254.445 141.291 254.267 141.255 254.087 141.254C253.907 141.254 253.729 141.289 253.563 141.357C253.655 141.225 253.724 141.079 253.767 140.924C253.836 140.663 253.827 140.387 253.74 140.131C253.653 139.876 253.492 139.652 253.278 139.487C253.064 139.322 252.806 139.225 252.537 139.206C252.267 139.188 251.999 139.25 251.764 139.384C251.798 139.068 251.722 138.751 251.549 138.486C251.375 138.221 251.115 138.024 250.813 137.929C250.51 137.834 250.184 137.847 249.89 137.966C249.596 138.084 249.353 138.301 249.201 138.579H249.147C249.147 138.55 249.171 138.521 249.181 138.487C249.275 138.156 249.241 137.803 249.087 137.496C248.933 137.189 248.669 136.951 248.348 136.828C248.027 136.706 247.672 136.708 247.352 136.835C247.033 136.962 246.773 137.203 246.623 137.512C246.614 137.189 246.492 136.88 246.278 136.639C246.063 136.397 245.771 136.239 245.451 136.193C245.132 136.146 244.806 136.214 244.532 136.384C244.258 136.554 244.052 136.815 243.952 137.122C243.835 136.817 243.613 136.563 243.325 136.407C243.038 136.251 242.704 136.203 242.384 136.272C242.064 136.341 241.78 136.522 241.582 136.783C241.384 137.043 241.286 137.366 241.306 137.692C240.901 137.459 240.121 137.229 238.986 137.902C237.256 138.921 237.87 140.451 237.87 140.451C237.87 140.451 235.097 140.197 234.785 142.127C234.473 144.057 235.272 145.636 237.221 145.412C239.171 145.188 239.995 142.834 239.995 142.834C240.065 142.422 240.257 142.041 240.547 141.74C240.836 141.438 241.209 141.23 241.617 141.143C243.079 140.787 245.848 142.142 246.004 144.096C246.16 146.051 243.806 144.813 243.601 146.319C243.396 147.825 245.263 148.395 245.336 150.242C245.409 152.089 245.214 155.705 244.113 156.426C243.011 157.148 242.007 156.071 240.959 155.159C239.912 154.248 237.509 153.629 237.007 154.872C236.505 156.115 237.007 158.444 237.329 160.72C237.65 162.996 238.357 164.556 240.55 164.57C242.743 164.585 244.756 162.445 244.756 162.445C244.756 162.445 248.392 159.721 248.918 158.025C249.444 156.329 246.969 153.41 247.09 151.606C247.212 149.803 247.378 150.144 248.299 150.817C249.22 151.489 249.011 153.741 249.824 154.506C250.01 154.689 250.224 154.841 250.458 154.955C250.541 155.379 250.766 155.762 251.096 156.041C251.426 156.32 251.841 156.478 252.273 156.489C252.705 156.501 253.128 156.365 253.473 156.103C253.817 155.842 254.062 155.471 254.167 155.052C254.206 154.893 254.224 154.729 254.22 154.565C254.505 154.577 254.788 154.516 255.042 154.386C255.296 154.257 255.512 154.065 255.669 153.827C255.826 153.59 255.92 153.316 255.94 153.032C255.96 152.748 255.907 152.463 255.785 152.206C256.063 152.127 256.315 151.977 256.516 151.77C256.717 151.563 256.86 151.306 256.93 151.026Z" stroke="#263238" stroke-linecap="round" stroke-linejoin="round"/>
<path d="M242.524 138.194C242.403 138.343 242.321 138.519 242.286 138.707C242.251 138.895 242.264 139.089 242.324 139.271C242.495 139.827 242.69 140.826 242.134 141.503C241.33 142.478 240.404 142.892 240.911 144.121C241.418 145.349 243.377 145.583 244.434 145.027C245.492 144.471 245.209 141.289 244.493 139.457C243.918 137.99 243.075 137.57 242.524 138.194Z" fill="white" stroke="#263238" stroke-linecap="round" stroke-linejoin="round"/>
<path d="M238.752 149.477C238.752 149.477 238.186 147.776 240.652 148.137" stroke="#263238" stroke-width="2" stroke-linecap="round" stroke-linejoin="round"/>
<path d="M239.561 150.88C239.595 151.367 239.468 151.728 239.273 151.747C239.078 151.767 238.888 151.396 238.854 150.933C238.82 150.47 238.942 150.08 239.142 150.066C239.341 150.051 239.522 150.412 239.561 150.88Z" fill="#263238"/>
<path d="M239.229 152.24L241.018 151.694" stroke="#263238" stroke-linecap="round" stroke-linejoin="round"/>
<path d="M240.472 155.578C240.149 156.112 239.748 156.595 239.283 157.011C238.44 157.8 238.006 157.693 238.006 157.693C238.209 158.006 238.516 158.237 238.873 158.346C239.229 158.454 239.613 158.434 239.956 158.288C241.276 157.8 240.472 155.578 240.472 155.578Z" fill="white" stroke="#263238" stroke-linecap="round" stroke-linejoin="round"/>
<path d="M247.641 152.015C247.641 152.015 247.505 149.696 248.762 148.005C250.019 146.313 253.148 145.475 253.553 146.123C253.957 146.772 252.398 150.953 251.17 151.825C250.256 152.409 249.249 152.832 248.192 153.073" fill="#CCCCCC"/>
<path d="M247.641 152.015C247.641 152.015 247.505 149.696 248.762 148.005C250.019 146.313 253.148 145.475 253.553 146.123C253.957 146.772 252.398 150.953 251.17 151.825C250.256 152.409 249.249 152.832 248.192 153.073" stroke="#263238" stroke-linecap="round" stroke-linejoin="round"/>
<path opacity="0.3" d="M118.381 215.303C124.86 215.303 130.112 213.217 130.112 210.644C130.112 208.071 124.86 205.985 118.381 205.985C111.903 205.985 106.651 208.071 106.651 210.644C106.651 213.217 111.903 215.303 118.381 215.303Z" fill="black"/>
<path d="M121.623 161.333C121.623 161.333 123.796 158.662 119.054 152.902C117.173 150.611 113.245 148.745 110.959 145.967C108.673 143.189 107.913 141.961 107.06 143.92C106.207 145.879 107.713 146.898 108.708 148.482C109.702 150.065 112.373 152.239 112.373 152.239C112.373 152.239 109.658 151.976 107.947 150.86C106.237 149.744 105.618 149.992 105.774 151.727C105.93 153.462 107.528 154.539 109.097 155.08C110.667 155.621 112.192 156.274 112.192 156.274C112.192 156.274 108.756 156.479 107.362 156.138C105.969 155.797 104.926 155.49 105.53 157.415C106.134 159.34 108.557 160.251 109.721 160.237C110.886 160.222 112.007 160.315 112.007 160.315C112.007 160.315 107.874 161.245 106.573 161.591C105.272 161.937 106.086 163.312 107.06 163.731C108.035 164.15 111.734 163.931 111.734 163.931C111.734 163.931 108.43 165.344 109.268 166.991C110.106 168.639 114.517 166.304 114.517 166.304C115.42 166.698 116.41 166.85 117.39 166.747C118.369 166.643 119.306 166.288 120.107 165.714C123.036 163.741 121.623 161.333 121.623 161.333Z" fill="white" stroke="#263238" stroke-linecap="round" stroke-linejoin="round"/>
<path d="M116.978 155.358C116.978 155.358 114.4 153.867 114.117 155.422C113.834 156.976 117.212 159.32 117.212 159.32C117.212 159.32 113.825 158.516 113.873 160.207C113.922 161.899 117.85 162.937 117.85 162.937" stroke="#263238" stroke-linecap="round" stroke-linejoin="round"/>
<path d="M113.235 160.568C113.235 160.568 114.18 157.254 107.557 153.828C104.926 152.463 100.578 152.288 97.3862 150.631C94.194 148.974 93 148.15 93 150.28C93 152.41 94.774 152.76 96.314 153.828C97.8541 154.895 101.188 155.836 101.188 155.836C101.188 155.836 98.5851 156.664 96.5723 156.323C94.5595 155.982 94.0917 156.44 94.9202 157.98C95.7487 159.52 97.6396 159.871 99.3064 159.754C100.973 159.637 102.62 159.637 102.62 159.637C102.62 159.637 99.5452 161.172 98.127 161.411C96.7088 161.65 95.6415 161.762 96.9427 163.302C98.244 164.842 100.842 164.72 101.909 164.247C102.976 163.775 104.039 163.419 104.039 163.419C104.039 163.419 100.627 165.904 99.5452 166.733C98.4633 167.561 99.7791 168.507 100.846 168.507C101.914 168.507 105.233 166.85 105.233 166.85C105.233 166.85 102.747 169.452 104.165 170.632C105.584 171.811 108.722 167.937 108.722 167.937C109.707 167.942 110.678 167.693 111.538 167.212C112.398 166.731 113.119 166.035 113.63 165.193C115.482 162.22 113.235 160.568 113.235 160.568Z" fill="white" stroke="#263238" stroke-linecap="round" stroke-linejoin="round"/>
<path d="M106.612 156.903C106.612 156.903 103.654 156.548 104.009 158.083C104.365 159.618 108.396 160.446 108.396 160.446C108.396 160.446 104.984 161.041 105.676 162.576C106.368 164.111 110.404 163.522 110.404 163.522" stroke="#263238" stroke-linecap="round" stroke-linejoin="round"/>
<path d="M114.414 204.44C114.414 204.44 114.536 206.336 113.708 206.926C112.879 207.515 108.269 210.235 108.975 210.825C109.682 211.414 114.414 210.113 115.954 208.929C117.494 207.744 117.017 204.318 117.017 204.318C117.017 204.318 115.35 204.44 114.414 204.44Z" fill="white" stroke="#263238" stroke-linecap="round" stroke-linejoin="round"/>
<path d="M122.217 204.44C122.217 204.44 122.1 206.336 122.924 206.926C123.747 207.515 128.367 210.235 127.656 210.825C126.944 211.414 122.217 210.113 120.677 208.929C119.137 207.744 119.614 204.318 119.614 204.318C119.614 204.318 121.271 204.44 122.217 204.44Z" fill="white" stroke="#263238" stroke-linecap="round" stroke-linejoin="round"/>
<path d="M132.583 170.447C131.901 167.922 128.114 163.551 125.492 160.246C122.87 156.942 120.828 156.167 119.273 156.265C119.273 156.265 112.938 159.569 110.14 161.221C107.343 162.873 108.293 165.495 108.678 167.922C108.912 169.384 109.468 177.518 109.867 183.732C109.921 184.902 110.004 186.452 110.131 187.85C110.252 189.8 110.33 191.042 110.33 191.042L110.374 192.339C110.311 193.655 110.155 194.932 110.155 196.637C110.155 199.591 110.389 203.022 110.389 203.022L113.703 204.796C114.526 205.549 115.501 206.118 116.561 206.465C117.622 206.812 118.744 206.929 119.853 206.808C123.752 206.453 124.82 203.616 124.82 203.616C124.82 203.616 126.238 203.26 126.71 202.315C127.183 201.37 127.422 188.357 127.656 185.876C128.002 183.138 128.299 180.637 128.402 179.4C128.497 177.586 128.789 175.789 129.274 174.039C129.274 174.039 133.261 172.976 132.583 170.447Z" fill="white" stroke="#263238" stroke-linecap="round" stroke-linejoin="round"/>
<path d="M119.273 156.265C119.273 156.265 116.783 157.566 114.229 158.945C115.506 161.908 119.498 170.807 121.189 170.276C122.587 169.833 124.191 164.062 125.112 159.788C122.661 156.874 120.75 156.172 119.273 156.265Z" fill="#43E999" stroke="#263238" stroke-linecap="round" stroke-linejoin="round"/>
<path d="M127.29 194.298C126.554 194.883 125.828 195.482 125.258 195.965C125.258 195.965 123.016 198.007 118.318 198.007C113.62 198.007 113.216 196.579 113.216 196.579C112.147 196.412 111.119 196.047 110.184 195.502C110.184 195.857 110.16 196.228 110.16 196.623C110.16 197.432 110.16 198.275 110.204 199.059L113.216 201.442C113.216 201.442 115.462 203.485 119.746 203.28C124.03 203.075 125.258 200.015 125.258 200.015C125.258 200.015 125.955 200.097 127.056 199.254C127.144 197.865 127.222 196.096 127.29 194.298Z" fill="#43E999" stroke="#263238" stroke-linecap="round" stroke-linejoin="round"/>
<path d="M113.172 203.991L112.879 193.825" stroke="#263238" stroke-linecap="round" stroke-linejoin="round"/>
<path d="M125.073 187.938L125.102 186.169" stroke="#263238" stroke-linecap="round" stroke-linejoin="round"/>
<path d="M124.824 203.616L125.039 190.141" stroke="#263238" stroke-linecap="round" stroke-linejoin="round"/>
<path d="M116.939 156.265C116.939 156.265 119.468 164.233 120.536 164.52C121.603 164.808 122.09 156.362 122.09 156.362L116.939 156.265Z" fill="#CCCCCC" stroke="#263238" stroke-linecap="round" stroke-linejoin="round"/>
<path d="M127.588 170.51C128.625 170.146 129.636 169.711 130.614 169.209C131.204 168.79 132.627 168.912 133.28 171.105C133.933 173.298 133.875 175.905 132.451 177.387C131.028 178.868 127.295 180.35 127.295 180.35C127.295 180.35 125.458 173.887 125.516 171.694C125.575 169.501 127.588 170.51 127.588 170.51Z" fill="white" stroke="#263238" stroke-linecap="round" stroke-linejoin="round"/>
<path d="M130.975 171.88C130.863 170.442 130.458 169.789 130.102 169.487C129.181 169.93 127.588 170.51 127.588 170.51C127.588 170.51 125.575 169.501 125.516 171.695C125.458 173.888 127.295 180.35 127.295 180.35C128.647 179.81 129.951 179.158 131.194 178.401C131.15 176.495 131.106 173.571 130.975 171.88Z" fill="url(#paint0_linear_397_965)" stroke="#263238" stroke-linecap="round" stroke-linejoin="round"/>
<path d="M127.295 180.35C127.295 180.35 128.538 177.743 128.538 175.608C128.531 173.978 128.271 172.358 127.768 170.808C127.588 170.51 125.989 169.74 125.516 171.163C125.044 172.586 126.998 179.639 127.295 180.35Z" fill="#263238" stroke="#263238" stroke-linecap="round" stroke-linejoin="round"/>
<path d="M124.61 162.927C124.61 162.927 126.511 163.044 126.866 164.876C127.222 166.709 127.929 170.091 128.168 171.158C128.406 172.225 128.821 174.082 127.812 174.891C126.803 175.7 125.263 174.716 124.434 173.112C123.606 171.509 123.011 165.529 123.011 164.993C123.011 164.457 123.084 162.093 124.61 162.927Z" fill="#CCCCCC" stroke="#263238" stroke-linecap="round" stroke-linejoin="round"/>
<path d="M120.657 172.05C121.006 171.524 121.191 170.907 121.189 170.276C121.189 169.209 120.419 167.786 121.13 166.538C121.842 165.29 122.553 163.614 122.851 163.282C123.039 163.058 123.285 162.89 123.562 162.795C123.562 162.795 124.093 162.264 124.508 162.439C124.922 162.615 124.995 163.331 124.995 163.331C125.377 163.619 125.632 164.043 125.706 164.515C125.765 165.227 125.765 165.758 125.765 165.758C125.997 165.915 126.173 166.14 126.269 166.403C126.365 166.665 126.377 166.951 126.301 167.22C126.004 168.171 125.473 169.594 125.531 170.72C125.59 171.845 125.59 173.502 124.761 174.57C123.933 175.637 121.028 176.11 121.028 176.11L120.657 172.05Z" fill="#CCCCCC" stroke="#263238" stroke-linecap="round" stroke-linejoin="round"/>
<path d="M123.562 162.805C123.071 163.923 122.654 165.073 122.314 166.246C122.212 166.612 122.172 166.993 122.198 167.372" stroke="#263238" stroke-linecap="round" stroke-linejoin="round"/>
<path d="M124.98 163.336C124.512 164.293 124.116 165.284 123.796 166.3C123.679 167.011 123.562 168.137 123.562 168.137" stroke="#263238" stroke-linecap="round" stroke-linejoin="round"/>
<path d="M125.75 165.773C125.333 166.431 124.977 167.126 124.688 167.85C124.566 168.381 124.391 169.39 124.391 169.39" stroke="#263238" stroke-linecap="round" stroke-linejoin="round"/>
<path d="M110.14 161.221C110.14 161.221 106.241 162.196 106.061 163.356C105.881 164.516 107.036 179.872 107.908 180.262C108.781 180.652 122.222 181.261 122.222 181.261L121.023 171.709L113.055 172.596C113.055 172.596 111.593 167.723 111.305 165.31" fill="white"/>
<path d="M110.14 161.221C110.14 161.221 106.241 162.196 106.061 163.356C105.881 164.516 107.036 179.872 107.908 180.262C108.781 180.652 122.222 181.261 122.222 181.261L121.023 171.709L113.055 172.596C113.055 172.596 111.593 167.723 111.305 165.31" stroke="#263238" stroke-linecap="round" stroke-linejoin="round"/>
<path d="M117.3 181.013C120.004 181.159 122.237 181.261 122.237 181.261L121.038 171.709L116.164 172.245L117.3 181.013Z" fill="#43E999" stroke="#263238" stroke-linecap="round" stroke-linejoin="round"/>
<path d="M113.055 172.596C112.581 172.524 112.097 172.606 111.673 172.83C111.25 173.054 110.909 173.407 110.701 173.839" stroke="#263238" stroke-linecap="round" stroke-linejoin="round"/>
<path d="M126.121 141.81L126.184 142.034L127.753 147.644C127.753 147.644 128.699 149.964 128.012 151.679C127.325 153.395 124.318 155.714 121.486 155.968C118.654 156.221 115.735 153.653 115.053 150.904L114.278 150.821C114.278 150.821 112.475 151.08 110.501 149.447C108.527 147.814 107.996 145.962 109.809 144.788C111.622 143.613 112.904 144.301 112.904 144.301C112.904 144.301 112.416 139.753 114.107 138.209C115.799 136.664 121.145 137.093 123.548 136.664C125.95 136.235 126.55 138.209 126.55 139.154C126.486 140.05 126.342 140.939 126.121 141.81Z" fill="#CCCCCC" stroke="#263238" stroke-linecap="round" stroke-linejoin="round"/>
<path d="M129.298 152.795C129.257 150.97 128.723 149.19 127.753 147.643C127.753 147.643 128.523 149.359 127.237 150.046C125.95 150.733 125.775 149.617 124.064 149.447C122.353 149.276 118.572 152.795 117.967 152.537C117.363 152.278 115.565 148.76 114.965 147.814C114.366 146.869 113.849 145.757 115.136 144.982C116.422 144.208 116.339 143.52 115.306 142.926C114.273 142.331 114.536 140.002 117.109 139.748C119.683 139.495 119.429 140.864 121.315 140.606C123.201 140.348 124.727 138.462 124.727 138.462L126.096 141.81C126.481 141.547 126.79 141.188 126.991 140.768C127.192 140.347 127.279 139.881 127.242 139.417C127.419 139.268 127.555 139.077 127.638 138.862C127.722 138.646 127.749 138.413 127.717 138.184C127.685 137.955 127.596 137.738 127.457 137.553C127.319 137.368 127.136 137.221 126.925 137.126C127.001 136.951 127.041 136.762 127.042 136.571C127.042 136.27 126.943 135.978 126.759 135.74C126.576 135.502 126.319 135.331 126.028 135.255C126.071 135.096 126.094 134.932 126.096 134.768C126.096 134.267 125.898 133.787 125.544 133.432C125.191 133.078 124.711 132.878 124.21 132.877C124.081 132.877 123.952 132.89 123.825 132.916C123.749 132.558 123.571 132.23 123.312 131.972C123.053 131.714 122.725 131.537 122.367 131.462C122.009 131.387 121.637 131.418 121.296 131.551C120.956 131.683 120.661 131.912 120.448 132.209C120.314 131.901 120.1 131.634 119.828 131.436C119.556 131.239 119.237 131.117 118.902 131.084C118.568 131.051 118.231 131.109 117.926 131.25C117.621 131.391 117.359 131.611 117.168 131.887C117.043 131.737 116.886 131.616 116.71 131.531C116.533 131.447 116.34 131.402 116.144 131.4C115.78 131.4 115.43 131.545 115.173 131.802C114.915 132.06 114.77 132.41 114.77 132.774C114.773 132.932 114.801 133.088 114.853 133.237C114.738 133.019 114.565 132.837 114.354 132.71C114.143 132.583 113.901 132.516 113.654 132.516C113.29 132.516 112.94 132.661 112.682 132.918C112.425 133.176 112.28 133.526 112.28 133.89C112.28 133.89 112.28 133.929 112.28 133.949C112.093 133.852 111.886 133.802 111.675 133.803C111.311 133.803 110.961 133.947 110.704 134.205C110.446 134.463 110.301 134.812 110.301 135.177C110.301 135.267 110.311 135.357 110.33 135.445H110.213C109.85 135.445 109.502 135.589 109.245 135.846C108.988 136.103 108.844 136.451 108.844 136.814C108.842 137.159 108.973 137.49 109.209 137.74C108.965 137.819 108.748 137.965 108.583 138.162C108.418 138.358 108.312 138.597 108.275 138.851C108.239 139.105 108.275 139.364 108.379 139.598C108.483 139.833 108.651 140.033 108.863 140.177C108.705 140.298 108.576 140.452 108.483 140.628C108.391 140.804 108.339 140.999 108.329 141.197C108.32 141.396 108.354 141.594 108.43 141.779C108.505 141.963 108.62 142.128 108.766 142.263C108.522 142.427 108.337 142.666 108.238 142.943C108.139 143.22 108.132 143.522 108.218 143.804C108.304 144.085 108.478 144.332 108.714 144.507C108.95 144.683 109.237 144.777 109.531 144.778C109.614 144.777 109.698 144.769 109.78 144.753C110.452 145.801 111.329 145.553 111.329 145.553C112.363 146.849 113.122 148.341 113.562 149.939C114.249 152.512 114.336 155.085 115.535 156.372C116.734 157.659 121.544 159.55 125.321 158.604C129.098 157.659 129.381 155.885 129.298 152.795Z" fill="#263238" stroke="#263238" stroke-linecap="round" stroke-linejoin="round"/>
<path d="M118.542 126C114.244 126 110.745 127.462 110.745 129.217C110.745 130.971 114.234 132.433 118.542 132.433C122.851 132.433 126.34 130.971 126.34 129.217C126.34 127.462 122.841 126 118.542 126ZM118.542 130.937C115.35 130.937 112.767 130.016 112.767 128.885C112.767 127.754 115.35 126.829 118.542 126.829C121.735 126.829 124.317 127.75 124.317 128.885C124.317 130.021 121.73 130.937 118.542 130.937Z" fill="white" stroke="#263238" stroke-linecap="round" stroke-linejoin="round"/>
<path d="M123.547 142.838C123.359 144.124 123.417 145.434 123.718 146.698C124.235 148.418 125.351 149.446 124.235 150.475C123.119 151.503 121.574 150.821 121.486 149.705" fill="#CCCCCC"/>
<path d="M123.547 142.838C123.359 144.124 123.417 145.434 123.718 146.698C124.235 148.418 125.351 149.446 124.235 150.475C123.119 151.503 121.574 150.821 121.486 149.705" stroke="#263238" stroke-linecap="round" stroke-linejoin="round"/>
<path d="M124.405 146.444L126.121 145.928L125.692 144.899" stroke="#263238" stroke-linecap="round" stroke-linejoin="round"/>
<path d="M118.825 147.561L120.887 147.302L120.628 146.016" stroke="#263238" stroke-linecap="round" stroke-linejoin="round"/>
<path d="M120.887 143.438C120.887 143.438 118.572 142.151 117.475 144.213" stroke="#263238" stroke-width="2" stroke-linecap="round" stroke-linejoin="round"/>
<path d="M123.889 142.497C123.889 142.497 124.064 140.952 125.351 141.634" stroke="#263238" stroke-width="2" stroke-linecap="round" stroke-linejoin="round"/>
<path d="M124.761 153.375C124.762 153.501 124.726 153.624 124.656 153.729C124.587 153.834 124.488 153.916 124.372 153.964C124.256 154.013 124.128 154.026 124.005 154.001C123.882 153.977 123.768 153.917 123.679 153.828C123.591 153.739 123.53 153.625 123.506 153.502C123.482 153.379 123.495 153.251 123.543 153.135C123.592 153.019 123.674 152.92 123.779 152.851C123.883 152.782 124.007 152.745 124.132 152.746C124.299 152.747 124.458 152.814 124.575 152.932C124.693 153.049 124.76 153.208 124.761 153.375Z" fill="white"/>
<defs>
<linearGradient id="paint0_linear_397_965" x1="128.355" y1="169.487" x2="128.355" y2="180.35" gradientUnits="userSpaceOnUse">
<stop stop-color="#48F2A0"/>
<stop offset="1" stop-color="#32CA81"/>
</linearGradient>
</defs>
</svg>
