<svg width="296" height="273" viewBox="0 0 296 273" fill="none" xmlns="http://www.w3.org/2000/svg">
<path d="M238.906 24.1422C238.906 24.1422 207.575 -1.44249 166.816 9.90065C126.057 21.2438 109.005 56.3499 85.6298 80.4885C73.3852 93.1275 55.3125 97.7849 40.7705 107.513C-5.72259 138.619 1.15716 208.556 37.0145 234.942C68.0516 257.778 106.832 260.17 157.301 243.324C207.769 226.478 243.889 216.356 275.189 168.11C306.489 119.864 277.499 58.8727 238.906 24.1422Z" fill="#DAE5FF"/>
<path opacity="0.7" d="M243.708 18.9245C243.708 18.9245 210.64 -9.3203 167.621 3.20224C124.602 15.7248 106.605 54.4811 81.9338 81.1295C69.0103 95.0826 49.9357 100.224 34.5874 110.964C-14.4834 145.304 -7.22223 222.513 30.6231 251.642C63.3811 276.853 104.312 279.493 157.578 260.896C210.845 242.298 248.967 231.124 282.003 177.861C315.038 124.599 284.441 57.2662 243.708 18.9245Z" fill="#DAE5FF"/>
<path d="M248.592 249.923C243.19 228.914 236.261 172.221 234.918 169.266C233.574 166.31 215.481 164.772 198.045 161.731C180.609 158.69 165.426 147.079 159.069 146.525C155.485 146.189 151.883 146.098 148.287 146.25C148.287 146.25 77.9715 162.629 67.1783 163.183C56.3852 163.738 49.4909 164.567 49.2107 168.437C48.9706 171.827 44.1114 234.545 43.9056 249.923" fill="#2D83FF"/>
<mask id="mask0_397_965" style="mask-type:luminance" maskUnits="userSpaceOnUse" x="43" y="146" width="206" height="104">
<path d="M248.592 249.923C243.19 228.914 236.261 172.221 234.918 169.266C233.574 166.31 215.481 164.772 198.045 161.731C180.609 158.69 165.426 147.079 159.069 146.525C155.485 146.189 151.883 146.098 148.287 146.25C148.287 146.25 77.9715 162.629 67.1783 163.183C56.3852 163.738 49.4909 164.567 49.2107 168.437C48.9706 171.827 44.1114 234.545 43.9056 249.923" fill="white"/>
</mask>
<g mask="url(#mask0_397_965)">
<g opacity="0.3">
<path d="M42.2878 249.923H67.7786C67.7786 246.493 67.5442 242.159 69.8023 238.095C73.8498 230.812 84.3685 208.94 83.1565 200.868C81.9446 192.796 75.4676 189.543 77.8972 193.585C80.3268 197.626 81.9446 208.157 77.8972 201.68C73.8498 195.202 64.1371 172.953 53.6183 173.759C50.6628 173.988 48.6963 174.902 47.3986 176.046C47.0499 193.945 42.4536 237.46 42.2878 249.923Z" fill="#2C49CF"/>
<path d="M233.551 249.923C229.315 244.092 223.947 235.42 222.758 227.577C220.734 214.222 220.329 200.868 217.093 200.062C213.857 199.256 205.762 228.789 205.762 228.789L204.951 220.682C204.951 220.682 198.885 238.078 176.63 248.603C175.639 249.068 174.635 249.502 173.617 249.906L233.551 249.923Z" fill="#2C49CF"/>
<path d="M137.62 164.522C137.62 164.522 128.336 190.247 116.914 203.795C105.492 217.344 75.136 251.644 75.136 251.644H95.4874C95.4874 251.644 127.621 204.155 137.265 187.371C146.909 170.587 144.034 160.588 137.62 164.522Z" fill="#2C49CF"/>
<path d="M213.423 175.84C213.423 175.84 199.766 184.193 198.142 195.129C196.519 206.065 206.528 205.836 209.255 195.86C211.982 185.885 219.74 177.47 219.38 174.629C219.019 171.787 213.423 175.84 213.423 175.84Z" fill="#2C49CF"/>
</g>
<path d="M205.791 210.964C204.916 213.999 204.133 217.304 204.133 219.396C204.133 224.112 207.037 249.157 207.037 249.157" stroke="#2C49CF" stroke-linecap="round" stroke-linejoin="round"/>
<path d="M208.124 203.767C208.124 203.767 207.683 204.979 207.089 206.768" stroke="#2C49CF" stroke-linecap="round" stroke-linejoin="round"/>
<path d="M204.133 219.373L201.955 207.396" stroke="#2C49CF" stroke-linecap="round" stroke-linejoin="round"/>
<path d="M86.6207 196.249C87.1449 198.719 87.2454 201.261 86.9179 203.766C85.826 213.93 85.5859 249.025 85.5859 249.025" stroke="#2C49CF" stroke-linecap="round" stroke-linejoin="round"/>
<path d="M83.6482 191.069C84.4132 191.61 85.0335 192.331 85.4547 193.167" stroke="#2C49CF" stroke-linecap="round" stroke-linejoin="round"/>
<path d="M91.6342 194.694C91.6342 194.694 94.5383 199.05 91.6342 204.858C88.7302 210.666 86.2091 219.098 86.2091 219.098" stroke="#2C49CF" stroke-linecap="round" stroke-linejoin="round"/>
</g>
<path d="M248.592 249.923C243.19 228.914 236.261 172.221 234.918 169.266C233.574 166.31 215.481 164.772 198.045 161.731C180.609 158.69 165.426 147.079 159.069 146.525C155.485 146.189 151.883 146.098 148.287 146.25C148.287 146.25 77.9715 162.629 67.1783 163.183C56.3852 163.738 49.4909 164.567 49.2107 168.437C48.9706 171.827 44.1114 234.545 43.9056 249.923" stroke="#263238" stroke-linecap="round" stroke-linejoin="round"/>
<path opacity="0.3" d="M114.313 153.933C114.313 153.933 110.671 160.405 111.883 167.688C113.095 174.971 112.695 193.184 116.336 190.349C119.978 187.513 125.763 179.15 129.285 179.424C132.806 179.699 149.11 174.948 149.11 174.948C149.11 174.948 163.276 182.637 169.342 185.067C175.407 187.496 174.607 185.878 172.583 178.995C170.559 172.113 171.365 166.859 171.771 155.123C172.177 143.386 140.392 141.563 132.52 143.792C124.648 146.022 113.101 152.716 114.313 153.933Z" fill="black"/>
<path d="M128.107 134.931C128.107 134.931 116.222 137.698 113.455 143.226C110.688 148.754 118.183 174.17 118.183 178.041C118.183 181.911 118.463 183.014 118.463 183.843C118.463 184.672 120.67 185.781 123.162 181.631C125.655 177.48 136.979 171.129 141.13 169.746C145.28 168.362 152.186 166.704 154.947 168.088C157.708 169.471 169.324 183.014 174.024 184.666C178.723 186.318 174.298 182.179 174.024 178.864C173.749 175.548 180.655 166.973 176.236 152.047C171.817 137.12 166.529 133.788 158.771 132.701C151.014 131.615 128.107 134.931 128.107 134.931Z" fill="white" stroke="#263238" stroke-linecap="round" stroke-linejoin="round"/>
<path d="M123.682 119.988C123.682 119.988 121.75 142.935 122.579 148.183C123.408 153.43 137.231 173.908 145.52 174.445C153.809 174.982 168.49 152.333 168.49 146.805V123.303C168.49 123.303 155.77 130.215 142.764 126.899C129.759 123.584 124.797 120.542 124.797 120.542L123.682 119.988Z" fill="#CCCCCC"/>
<mask id="mask1_397_965" style="mask-type:luminance" maskUnits="userSpaceOnUse" x="122" y="119" width="47" height="56">
<path d="M123.682 119.988C123.682 119.988 121.75 142.935 122.579 148.183C123.408 153.43 137.231 173.908 145.52 174.445C153.809 174.982 168.49 152.333 168.49 146.805V123.303C168.49 123.303 155.77 130.215 142.764 126.899C129.759 123.584 124.797 120.542 124.797 120.542L123.682 119.988Z" fill="white"/>
</mask>
<g mask="url(#mask1_397_965)">
<path opacity="0.3" d="M156.193 147.337C162.224 145.622 166.06 143.615 168.467 141.877V123.304C168.467 123.304 155.747 130.215 142.741 126.9C131.977 124.15 126.735 121.594 125.231 120.8C124.66 121.028 124.088 121.263 123.516 121.497C123.105 126.694 121.83 143.747 122.533 148.183C122.851 149.543 123.355 150.853 124.031 152.076C124.104 150.058 124.295 148.046 124.602 146.05C125.248 142.62 126.752 143.472 129.113 145.404C131.474 147.337 142.461 151.201 156.193 147.337Z" fill="black"/>
</g>
<path d="M123.682 119.988C123.682 119.988 121.75 142.935 122.579 148.183C123.408 153.43 137.231 173.908 145.52 174.445C153.809 174.982 168.49 152.333 168.49 146.805V123.303C168.49 123.303 155.77 130.215 142.764 126.899C129.759 123.584 124.797 120.542 124.797 120.542L123.682 119.988Z" stroke="#263238" stroke-linecap="round" stroke-linejoin="round"/>
<path d="M117.325 93.6911C117.325 93.6911 115.113 82.0805 110.968 80.9771C106.824 79.8738 106.269 92.8622 108.756 100.328C111.243 107.794 117.903 111.384 119.538 107.514C121.173 103.644 117.325 93.6911 117.325 93.6911Z" fill="#CCCCCC" stroke="#263238" stroke-linecap="round" stroke-linejoin="round"/>
<path d="M119.263 100.883C119.263 100.883 112.352 87.0597 109.865 87.3341C107.378 87.6085 109.036 94.2456 109.036 94.2456" stroke="#263238" stroke-linecap="round" stroke-linejoin="round"/>
<path d="M116.222 95.6294C116.222 95.6294 112.072 92.8625 112.072 98.9451" stroke="#263238" stroke-linecap="round" stroke-linejoin="round"/>
<path d="M174.023 93.6911C174.023 93.6911 176.236 82.0805 180.38 80.9771C184.525 79.8738 185.08 92.8622 182.593 100.328C180.106 107.794 173.446 111.384 171.811 107.514C170.176 103.644 174.023 93.6911 174.023 93.6911Z" fill="#CCCCCC" stroke="#263238" stroke-linecap="round" stroke-linejoin="round"/>
<path d="M172.086 100.883C172.086 100.883 178.997 87.0597 181.484 87.3341C183.971 87.6085 182.313 94.2456 182.313 94.2456" stroke="#263238" stroke-linecap="round" stroke-linejoin="round"/>
<path d="M175.127 95.6294C175.127 95.6294 179.277 92.8625 179.277 98.9451" stroke="#263238" stroke-linecap="round" stroke-linejoin="round"/>
<path d="M116.222 90.1008C116.222 90.1008 117.611 106.959 117.611 113.871C117.611 120.782 120.652 129.632 133.646 137.366C146.64 145.101 164.054 140.408 171.52 132.667C178.986 124.927 176.219 108.897 175.664 101.157C175.11 93.4164 175.092 84.8471 175.092 80.7025C175.092 76.5579 175.664 62.4548 171.222 55.2689C166.78 48.083 138.883 46.974 127.272 53.0565C115.662 59.1391 112.62 70.2066 113.449 73.5109C114.278 76.8151 116.222 90.1008 116.222 90.1008Z" fill="#CCCCCC"/>
<mask id="mask2_397_965" style="mask-type:luminance" maskUnits="userSpaceOnUse" x="113" y="49" width="64" height="93">
<path d="M116.222 90.1008C116.222 90.1008 117.611 106.959 117.611 113.871C117.611 120.782 120.652 129.632 133.646 137.366C146.64 145.101 164.054 140.408 171.52 132.667C178.986 124.927 176.219 108.897 175.664 101.157C175.11 93.4164 175.092 84.8471 175.092 80.7025C175.092 76.5579 175.664 62.4548 171.222 55.2689C166.78 48.083 138.883 46.974 127.272 53.0565C115.662 59.1391 112.62 70.2066 113.449 73.5109C114.278 76.8151 116.222 90.1008 116.222 90.1008Z" fill="white"/>
</mask>
<g mask="url(#mask2_397_965)">
<path opacity="0.3" d="M145.251 57.636C143.536 57.293 129.816 56.1097 122.876 55.8867C114.873 62.1008 112.746 70.6644 113.455 73.5113C114.284 76.8327 116.222 90.0897 116.222 90.0897C116.222 90.0897 117.611 106.96 117.611 113.871C117.611 119.108 119.366 125.459 125.866 131.593C127.192 129.903 127.901 127.812 127.878 125.665C127.878 119.228 128.736 114.289 126.163 110.001C123.591 105.713 121.23 94.12 123.373 89.1808C125.517 84.2416 127.449 74.8033 127.878 70.51C128.307 66.2168 129.593 66.6513 136.247 69.8698C138.22 70.8081 140.371 71.3126 142.556 71.3491C144.74 71.3855 146.907 70.9532 148.91 70.0813C148.91 70.0813 147.395 58.0648 145.251 57.636Z" fill="black"/>
<path opacity="0.3" d="M139.969 87.8139C139.969 87.8139 127.226 86.1789 129.587 88.7515C131.948 91.324 140.746 92.8275 143.965 91.7584C147.183 90.6894 144.125 87.9511 139.969 87.8139Z" fill="black"/>
<path opacity="0.3" d="M154.478 81.0289C154.478 81.0289 152.117 85.3221 154.478 85.5336C156.839 85.7452 157.908 81.2404 163.276 82.9611C168.644 84.6819 167.569 80.1714 164.133 78.8794C160.698 77.5874 156.193 79.0967 154.478 81.0289Z" fill="black"/>
<path opacity="0.3" d="M175.652 101.157C175.081 93.4168 175.081 84.8475 175.081 80.7029C175.081 76.5583 175.652 62.4552 171.211 55.2693C170.382 53.9201 168.724 52.7825 166.494 51.8735C164.865 52.0165 159.394 52.7025 159.394 52.7025L156.822 69.0122C156.822 69.0122 162.184 68.1547 164.333 66.2225C166.483 64.2902 168.192 66.0052 168.627 70.9445C169.061 75.8837 170.77 78.6677 172.057 81.4575C173.343 84.2472 172.485 94.9775 171.199 102.272C169.913 109.566 172.914 110.641 170.124 118.582C167.335 126.522 159.394 134.674 152.974 138.11C150.688 139.333 151.065 140.368 152.894 141.071C160.498 140.157 167.46 136.864 171.508 132.668C178.968 124.933 176.207 108.898 175.652 101.157Z" fill="black"/>
</g>
<path d="M116.222 90.1008C116.222 90.1008 117.611 106.959 117.611 113.871C117.611 120.782 120.652 129.632 133.646 137.366C146.64 145.101 164.054 140.408 171.52 132.667C178.986 124.927 176.219 108.897 175.664 101.157C175.11 93.4164 175.092 84.8471 175.092 80.7025C175.092 76.5579 175.664 62.4548 171.222 55.2689C166.78 48.083 138.883 46.974 127.272 53.0565C115.662 59.1391 112.62 70.2066 113.449 73.5109C114.278 76.8151 116.222 90.1008 116.222 90.1008Z" stroke="#263238" stroke-linecap="round" stroke-linejoin="round"/>
<path d="M133.766 96.7666H139.803" stroke="#263238" stroke-linecap="round" stroke-linejoin="round"/>
<path d="M159.423 97.5212L166.592 96.7666" stroke="#263238" stroke-linecap="round" stroke-linejoin="round"/>
<path d="M180.346 69.0919C180.346 68.9318 180.346 68.766 180.346 68.606C181.172 68.4538 181.921 68.0266 182.473 67.3939C183.025 66.7613 183.346 65.9604 183.385 65.1219C183.423 64.2833 183.176 63.4564 182.685 62.7759C182.193 62.0954 181.486 61.6014 180.678 61.3743C181.273 60.9639 181.736 60.3887 182.01 59.7193C182.284 59.0498 182.357 58.3151 182.22 57.6049C182.083 56.8947 181.742 56.2399 181.238 55.7204C180.735 55.201 180.091 54.8395 179.386 54.6801C180.156 53.8797 180.646 52.8515 180.784 51.7493C180.921 50.6471 180.698 49.53 180.148 48.565C179.598 47.6001 178.75 46.839 177.732 46.3956C176.714 45.9522 175.579 45.8503 174.498 46.105C174.614 45.684 174.675 45.2498 174.681 44.8131C174.681 43.4379 174.135 42.1191 173.162 41.1467C172.19 40.1743 170.871 39.628 169.496 39.628C168.506 39.6301 167.537 39.9179 166.706 40.4569C166.365 39.1762 165.652 38.0255 164.657 37.1505C163.662 36.2754 162.429 35.7155 161.115 35.5417C159.801 35.3678 158.466 35.5878 157.277 36.1738C156.088 36.7598 155.1 37.6854 154.438 38.8334C154.246 37.3624 153.572 35.9967 152.52 34.9504C151.468 33.9041 150.099 33.2364 148.627 33.052C147.155 32.8676 145.664 33.1769 144.387 33.9314C143.109 34.686 142.119 35.8431 141.57 37.2213C140.883 36.1317 139.896 35.2634 138.728 34.7205C137.56 34.1777 136.261 33.9833 134.985 34.1607C133.709 34.3381 132.512 34.8798 131.536 35.7208C130.56 36.5618 129.848 37.6663 129.485 38.902C128.781 38.3326 127.945 37.9491 127.054 37.7868C126.163 37.6245 125.245 37.6885 124.385 37.973C123.526 38.2575 122.751 38.7534 122.133 39.4151C121.515 40.0769 121.072 40.8832 120.847 41.7603C120.281 41.4539 119.645 41.3005 119.001 41.3152C118.358 41.33 117.729 41.5123 117.178 41.8443C116.627 42.1763 116.171 42.6464 115.857 43.2081C115.543 43.7699 115.381 44.4039 115.387 45.0474C115.391 45.4827 115.47 45.9141 115.622 46.3223C115.054 46.0752 114.433 45.9737 113.816 46.0268C113.199 46.0799 112.604 46.286 112.087 46.6265C111.569 46.967 111.145 47.4311 110.852 47.9768C110.559 48.5226 110.406 49.1328 110.408 49.7523C110.414 50.439 110.612 51.1103 110.98 51.6902C110.3 51.8682 109.685 52.2355 109.206 52.7494C108.726 53.2633 108.403 53.9027 108.273 54.5933C108.143 55.2838 108.212 55.997 108.472 56.65C108.731 57.3029 109.171 57.8687 109.739 58.2816C108.926 58.4651 108.197 58.9167 107.671 59.5638C107.144 60.211 106.851 61.0162 106.837 61.8502C106.823 62.6843 107.09 63.4988 107.594 64.1631C108.099 64.8273 108.812 65.3028 109.619 65.5132C109.186 65.849 108.834 66.2771 108.587 66.7664C108.341 67.2557 108.207 67.7939 108.195 68.3416C108.182 68.8894 108.293 69.4329 108.518 69.9326C108.742 70.4323 109.076 70.8755 109.493 71.2299C108.655 71.4733 107.929 72.0049 107.443 72.731C106.958 73.4571 106.744 74.3311 106.84 75.1993C106.935 76.0675 107.334 76.8741 107.966 77.4771C108.598 78.0801 109.422 78.4409 110.294 78.4959C110.377 79.3667 110.607 80.2173 110.974 81.0112C112.906 84.3269 113.741 85.7103 113.741 85.7103C113.741 85.7103 114.627 90.3523 116.399 92.3188C116.771 97.1094 117.605 108.526 117.605 113.905C117.605 120.817 120.647 129.666 133.641 137.401C146.635 145.135 164.048 140.442 171.514 132.702C178.98 124.961 176.213 108.932 175.659 101.191C175.333 96.6178 175.201 91.7586 175.144 87.6883C175.822 87.3871 176.459 87.0031 177.042 86.545C177.825 85.9733 178.523 83.9953 179.066 81.3999C179.174 81.417 179.282 81.4285 179.392 81.4342C180.113 81.4373 180.82 81.2301 181.426 80.838C182.032 80.4458 182.511 79.8858 182.803 79.2261C183.096 78.5665 183.191 77.8359 183.075 77.1234C182.96 76.411 182.639 75.7477 182.153 75.2145C182.585 74.7439 182.887 74.1695 183.031 73.5472C183.175 72.9248 183.156 72.2758 182.974 71.6634C182.793 71.0509 182.456 70.4958 181.997 70.0522C181.537 69.6085 180.97 69.2915 180.352 69.1319L180.346 69.0919ZM170.954 116.066C167.912 119.382 161.555 115.792 158.24 112.476C154.924 109.16 151.603 108.326 143.588 110.264C135.573 112.202 134.441 117.449 129.21 119.107C123.98 120.765 122.305 114.134 121.207 108.88C120.109 103.626 119.275 88.4258 119.275 88.4258C119.275 85.3845 123.145 84.83 124.803 79.5763C126.461 74.3227 122.59 71.2871 125.374 64.0955C128.158 56.9039 136.693 66.7766 136.859 66.9538C140.798 71.0298 148.727 70.9555 154.009 70.4925C157.005 70.2181 160.721 65.9191 163.602 63.3637C164.03 63.001 164.543 62.7533 165.093 62.6439C165.643 62.5346 166.212 62.5673 166.745 62.739C167.279 62.9107 167.761 63.2156 168.144 63.625C168.527 64.0344 168.8 64.5347 168.936 65.0788C169.725 68.0857 170.594 71.8359 170.439 73.2422C170.165 75.729 170.816 75.6261 173.029 79.4963C174.121 81.4057 173.949 80.1994 174.126 81.5314C173.995 83.9153 173.881 88.1971 173.48 94.817C172.886 103.924 173.995 112.767 170.954 116.066Z" fill="#263238" stroke="#263238" stroke-linecap="round" stroke-linejoin="round"/>
<path d="M129.49 86.5049L143.308 88.1627" stroke="#263238" stroke-width="5" stroke-linecap="round" stroke-linejoin="round"/>
<path d="M153.815 82.3376C153.815 82.3376 156.582 75.4261 165.151 79.8509" stroke="#263238" stroke-width="5" stroke-linecap="round" stroke-linejoin="round"/>
<path d="M152.712 87.334C152.712 87.334 152.14 97.0124 152.986 101.711C153.832 106.411 157.131 112.768 150.499 114.425C143.868 116.083 141.101 112.768 141.65 108.068" fill="#CCCCCC"/>
<mask id="mask3_397_965" style="mask-type:luminance" maskUnits="userSpaceOnUse" x="141" y="87" width="14" height="28">
<path d="M152.712 87.334C152.712 87.334 152.14 97.0124 152.986 101.711C153.832 106.411 157.131 112.768 150.499 114.425C143.868 116.083 141.101 112.768 141.65 108.068" fill="white"/>
</mask>
<g mask="url(#mask3_397_965)">
<path opacity="0.3" d="M142.033 110.858C142.033 110.858 147.395 114.288 150.831 112.144C154.267 110 153.638 105.01 152.986 101.711C152.334 98.4127 152.117 95.8345 152.117 95.8345C152.117 95.8345 155.982 107.422 154.695 111.069C153.409 114.717 147.395 116.866 143.336 115.363C139.277 113.859 142.033 110.858 142.033 110.858Z" fill="black"/>
</g>
<path d="M152.712 87.334C152.712 87.334 152.14 97.0124 152.986 101.711C153.832 106.411 157.131 112.768 150.499 114.425C143.868 116.083 141.101 112.768 141.65 108.068" stroke="#263238" stroke-linecap="round" stroke-linejoin="round"/>
<path d="M141.764 90.8552C141.764 92.536 140.958 93.8965 139.969 93.8965C138.98 93.8965 138.191 92.536 138.191 90.8552C138.191 89.1745 138.997 87.814 139.992 87.814C140.987 87.814 141.764 89.1974 141.764 90.8552Z" fill="#263238"/>
<path d="M163.522 89.3577C163.522 91.0327 162.716 92.399 161.727 92.399C160.738 92.399 159.926 91.0327 159.926 89.3577C159.926 87.6827 160.732 86.3164 161.727 86.3164C162.722 86.3164 163.522 87.677 163.522 89.3577Z" fill="#263238"/>
<path d="M149.116 120.228C149.116 120.228 151.603 120.799 154.918 116.638" stroke="#666666" stroke-width="3" stroke-linecap="round" stroke-linejoin="round"/>
<path d="M123.082 249.922L146.075 190.754C146.075 190.754 147.732 189.651 151.877 185.226C156.022 180.802 154.37 174.719 154.37 174.719C154.56 175.296 154.932 175.796 155.429 176.146C155.926 176.495 156.523 176.674 157.131 176.657C159.343 176.657 162.384 176.085 163.768 173.061C165.151 170.037 163.488 163.663 162.659 158.409C161.83 153.156 158.514 143.209 156.027 143.209C153.541 143.209 140.272 147.353 140.272 147.353C140.272 147.353 138.889 140.996 139.163 139.064C139.438 137.132 151.34 134.359 152.432 134.931C153.524 135.502 154.918 136.869 157.131 136.04C159.343 135.211 157.131 132.999 155.473 129.683C153.815 126.367 141.376 128.574 137.505 130.255C133.635 131.935 127.833 133.021 129.21 138.83C130.588 144.638 132.806 179.744 132.806 179.744C132.806 179.744 132.806 182.231 129.491 188.033C126.684 192.944 92.9379 236.625 82.585 249.968" fill="#CCCCCC"/>
<mask id="mask4_397_965" style="mask-type:luminance" maskUnits="userSpaceOnUse" x="82" y="127" width="83" height="123">
<path d="M123.082 249.922L146.075 190.754C146.075 190.754 147.732 189.651 151.877 185.226C156.022 180.802 154.37 174.719 154.37 174.719C154.56 175.296 154.932 175.796 155.429 176.146C155.926 176.495 156.523 176.674 157.131 176.657C159.343 176.657 162.384 176.085 163.768 173.061C165.151 170.037 163.488 163.663 162.659 158.409C161.83 153.156 158.514 143.209 156.027 143.209C153.541 143.209 140.272 147.353 140.272 147.353C140.272 147.353 138.889 140.996 139.163 139.064C139.438 137.132 151.34 134.359 152.432 134.931C153.524 135.502 154.918 136.869 157.131 136.04C159.343 135.211 157.131 132.999 155.473 129.683C153.815 126.367 141.376 128.574 137.505 130.255C133.635 131.935 127.833 133.021 129.21 138.83C130.588 144.638 132.806 179.744 132.806 179.744C132.806 179.744 132.806 182.231 129.491 188.033C126.684 192.944 92.9379 236.625 82.585 249.968" fill="white"/>
</mask>
<g mask="url(#mask4_397_965)">
<path opacity="0.3" d="M157.131 176.663C158.842 176.733 160.532 176.263 161.961 175.319C163.025 173.982 163.888 171.666 161.527 168.459C157.6 163.103 149.03 168.814 145.817 171.318C142.605 173.822 140.821 171.318 137.963 167.751C135.745 164.978 132.6 156.169 130.577 149.949C131.72 162.28 132.806 179.716 132.806 179.716C132.806 179.716 132.806 182.202 129.49 188.005C126.684 192.915 92.9379 236.597 82.585 249.94H106.887C118.017 234.282 140.044 195.791 141.536 191.675C142.679 188.416 146.589 188.188 150.248 186.947C150.745 186.438 151.283 185.878 151.877 185.232C156.027 180.807 154.37 174.725 154.37 174.725C154.56 175.302 154.932 175.802 155.429 176.151C155.926 176.501 156.523 176.68 157.131 176.663Z" fill="black"/>
</g>
<path d="M123.082 249.922L146.075 190.754C146.075 190.754 147.732 189.651 151.877 185.226C156.022 180.802 154.37 174.719 154.37 174.719C154.56 175.296 154.932 175.796 155.429 176.146C155.926 176.495 156.523 176.674 157.131 176.657C159.343 176.657 162.384 176.085 163.768 173.061C165.151 170.037 163.488 163.663 162.659 158.409C161.83 153.156 158.514 143.209 156.027 143.209C153.541 143.209 140.272 147.353 140.272 147.353C140.272 147.353 138.889 140.996 139.163 139.064C139.438 137.132 151.34 134.359 152.432 134.931C153.524 135.502 154.918 136.869 157.131 136.04C159.343 135.211 157.131 132.999 155.473 129.683C153.815 126.367 141.376 128.574 137.505 130.255C133.635 131.935 127.833 133.021 129.21 138.83C130.588 144.638 132.806 179.744 132.806 179.744C132.806 179.744 132.806 182.231 129.491 188.033C126.684 192.944 92.9379 236.625 82.585 249.968" stroke="#263238" stroke-linecap="round" stroke-linejoin="round"/>
<path d="M141.93 155.648C141.93 155.648 156.582 151.778 157.685 151.778C158.788 151.778 161.281 153.99 161.281 153.99" stroke="#263238" stroke-linecap="round" stroke-linejoin="round"/>
<path d="M144.417 165.322C144.417 165.322 157.411 162.006 159.617 162.006C160.945 162.012 162.224 162.504 163.213 163.389" stroke="#263238" stroke-linecap="round" stroke-linejoin="round"/>
<path d="M152.431 175.548C152.431 175.548 155.198 174.719 159.068 171.678" stroke="#263238" stroke-linecap="round" stroke-linejoin="round"/>
<path opacity="0.3" d="M214.811 168.064C224.431 168.064 232.229 166.519 232.229 164.614C232.229 162.708 224.431 161.163 214.811 161.163C205.191 161.163 197.393 162.708 197.393 164.614C197.393 166.519 205.191 168.064 214.811 168.064Z" fill="black"/>
<path d="M224.592 112.242C228.07 115.196 230.395 119.28 231.162 123.778C232.341 131.191 230.489 135.908 231.498 139.276C232.507 142.644 233.102 143.57 233.102 143.57C233.102 143.57 233.355 143.57 227.458 144.92C221.561 146.27 217.774 146.942 214.489 144.749C211.205 142.556 208.51 140.85 206.234 140.119C203.958 139.388 200.507 140.538 200.507 140.538C202.686 137.595 205.401 135.09 208.51 133.155C213.729 129.87 213.057 127.765 211.541 123.554C210.443 120.625 209.148 117.774 207.666 115.02C209.855 113.377 212.336 112.165 214.977 111.448C219.29 110.303 224.003 111.989 224.592 112.242Z" fill="#263238" stroke="#263238" stroke-linecap="round" stroke-linejoin="round"/>
<path d="M231.498 130.348C231.498 130.348 231.752 133.272 230.07 137.171C228.899 140.051 228.576 143.207 229.139 146.265C229.306 147.042 229.42 147.83 229.48 148.624C230.779 148.02 232.044 147.345 233.267 146.601C234.529 145.763 234.7 144.837 234.7 144.837C234.7 144.837 233.438 143.487 232.341 139.193C231.67 136.295 231.387 133.32 231.498 130.348Z" fill="#FF3227" stroke="#263238" stroke-linecap="round" stroke-linejoin="round"/>
<path d="M210.951 116.96C210.951 116.96 214.909 114.523 217.097 112.915C219.285 111.307 224.592 112.242 224.592 112.242C224.592 112.242 221.561 110.22 218.783 109.63C216.005 109.04 209.772 110.892 208.339 111.653C206.906 112.413 209.314 117.827 209.314 117.827L210.951 116.96Z" fill="#FF2D21" stroke="#263238" stroke-linecap="round" stroke-linejoin="round"/>
<path d="M206.648 113.13C205.922 114.457 205.094 115.726 204.172 116.926C202.515 119.124 199.81 122.399 199.81 122.399L198.407 117.457L195.629 118.047C195.629 118.047 194.591 126.054 195.141 127.604C195.692 129.154 197.534 129.222 199.776 128.491C202.018 127.76 208.407 124.66 208.407 124.66L210.181 127.765L207.077 136.63C207.077 136.63 200.96 142.39 200.161 144.428C199.362 146.465 201.136 148.77 202.822 152.406C204.508 156.041 205.483 158.166 205.483 158.166C205.298 158.68 205.028 159.16 204.684 159.584C204.24 160.028 199.81 160.384 199.274 161.271C198.738 162.158 202.198 163.395 205.395 163.395C208.592 163.395 210.98 162.952 210.888 161.534C210.795 160.116 208.851 156.66 208.495 154.799C208.139 152.937 207.876 147.084 207.876 147.084C207.876 147.084 212.662 142.298 213.373 142.21C214.085 142.122 217.984 143.36 218.422 143.716C218.861 144.072 219.49 144.866 221.083 147.971C222.677 151.075 227.687 159.35 227.687 159.35C227.687 159.35 228.486 162.187 229.105 163.78C229.724 165.374 231.323 167.153 232.566 166.173C233.808 165.194 233.628 162.986 232.829 161.388C232.029 159.789 229.905 159.17 229.549 157.576C229.193 155.983 228.267 150.008 227.643 145.934C227.019 141.859 225.518 136.269 225.075 134.408C224.631 132.546 225.25 124.743 224.188 120.762C223.125 116.78 220.908 114.821 218.422 113.315C215.937 111.809 212.662 112.072 210.625 112.34C208.588 112.608 207.608 112.691 207.608 112.691L206.648 113.13Z" fill="#FF291C" stroke="#263238" stroke-linecap="round" stroke-linejoin="round"/>
<path d="M206.268 121.2L208.422 124.655L204.806 122.847" stroke="#263238" stroke-linecap="round" stroke-linejoin="round"/>
<path d="M207.822 137.736C208.616 139.072 209.75 140.175 211.107 140.933" stroke="#263238" stroke-linecap="round" stroke-linejoin="round"/>
<path d="M213.388 142.21L210.011 141.664" stroke="#263238" stroke-linecap="round" stroke-linejoin="round"/>
<path d="M219.236 141.752C220.522 140.276 222.034 139.012 223.715 138.009" stroke="#263238" stroke-linecap="round" stroke-linejoin="round"/>
<path d="M218.963 140.84C218.963 140.84 220.884 138.554 222.16 137.643" stroke="#263238" stroke-linecap="round" stroke-linejoin="round"/>
<path d="M199.81 122.399L200.756 124.621" stroke="#263238" stroke-linecap="round" stroke-linejoin="round"/>
<path d="M198.285 117.798C198.285 117.798 200.015 115.361 200.288 113.768C200.561 112.174 199.859 109.869 199.435 109.732C199.011 109.596 198.821 109.922 199.016 110.532C199.128 110.886 199.208 111.25 199.255 111.618C199.255 111.618 198.519 110.02 198.68 109.143C198.84 108.265 198.153 107.812 196.993 108.3C195.833 108.787 195.175 108.514 194.62 110.103C194.135 111.562 193.931 113.1 194.02 114.635C194.074 116.034 195.609 118.047 195.609 118.047L198.285 117.798Z" fill="#CCCCCC" stroke="#263238" stroke-linecap="round" stroke-linejoin="round"/>
<path d="M195.97 108.67C195.97 108.67 196.316 108.67 196.145 109.357C195.975 110.044 195.414 111.087 195.478 111.657C195.541 112.228 195.682 112.847 195.682 112.847" stroke="#263238" stroke-linecap="round" stroke-linejoin="round"/>
<path d="M196.993 108.299C197.151 108.425 197.268 108.594 197.331 108.785C197.393 108.977 197.398 109.182 197.344 109.376C197.132 110.23 196.987 111.098 196.911 111.974C196.911 112.237 196.979 112.632 196.979 112.632" stroke="#263238" stroke-linecap="round" stroke-linejoin="round"/>
<path d="M198.022 108.134C198.022 108.134 198.377 108.499 198.187 109.547C197.997 110.595 197.661 111.55 198.095 112.354" stroke="#263238" stroke-linecap="round" stroke-linejoin="round"/>
<path d="M195.239 113.119L197.71 112.476" stroke="#263238" stroke-linecap="round" stroke-linejoin="round"/>
<path d="M198.368 113.1C198.293 113.483 198.101 113.832 197.817 114.099C197.577 114.306 197.392 114.568 197.277 114.863C197.161 115.157 197.119 115.476 197.154 115.79" stroke="#263238" stroke-linecap="round" stroke-linejoin="round"/>
<path d="M221.546 122.564C221.459 124.011 221.15 125.437 220.63 126.79C219.855 128.481 220.63 131.015 223.379 131.58C226.127 132.146 227.044 129.256 227.044 128.125C227.044 126.994 225.845 123.973 225.845 123.617C225.845 123.261 224.505 121.015 221.829 122.642" fill="#FF3025"/>
<path d="M221.546 122.564C221.459 124.011 221.15 125.437 220.63 126.79C219.855 128.481 220.63 131.015 223.379 131.58C226.127 132.146 227.044 129.256 227.044 128.125C227.044 126.994 225.845 123.973 225.845 123.617C225.845 123.261 224.505 121.015 221.829 122.642" stroke="#263238" stroke-linecap="round" stroke-linejoin="round"/>
<path d="M230.928 91.3103L228.135 84.0682L226.459 91.3103L227.814 90.1261L228.135 97.5777L223.847 103.148L223.203 89.9896L224.768 91.2421L221.951 84L220.274 91.2421L221.736 89.9604L222.385 103.333L217.647 98.4599L216.99 91.2129L218.593 92.4946L215.776 85.2525L214.104 92.4946L215.523 91.2519L216.215 98.8546C216.23 99.0214 216.303 99.1779 216.419 99.2981L222.492 105.512L224.695 150.904C224.703 151.092 224.784 151.269 224.92 151.399C225.057 151.529 225.238 151.601 225.426 151.601H225.46C225.653 151.591 225.835 151.505 225.965 151.362C226.096 151.219 226.165 151.03 226.157 150.836L223.944 105.375L229.446 98.2357C229.551 98.0951 229.604 97.9232 229.597 97.7483L229.247 89.9506L230.928 91.3103Z" fill="#263238"/>
<path d="M224.237 119.674C224.237 119.674 221.561 119.465 220.859 119.816C220.157 120.167 220.372 121.999 220.372 122.842C220.372 123.685 221.288 124.465 221.834 123.973C222.38 123.481 222.467 121.224 222.467 121.224C223.077 121.195 223.671 121.028 224.207 120.737C224.929 120.308 224.724 119.601 224.237 119.674Z" fill="#CCCCCC" stroke="#263238" stroke-linecap="round" stroke-linejoin="round"/>
<path d="M222.394 124.041C222.394 124.041 221.478 124.392 221.829 124.957C222.18 125.523 223.028 126.083 224.787 126.083C226.547 126.083 227.395 124.957 227.112 124.324C226.829 123.69 225.772 124.251 224.856 124.251C224.032 124.223 223.211 124.153 222.394 124.041Z" fill="#CCCCCC" stroke="#263238" stroke-linecap="round" stroke-linejoin="round"/>
<path d="M221.829 122.633C221.829 122.633 221.342 123.408 221.829 123.973C222.316 124.538 223.588 124.889 225.562 124.948C227.536 125.006 227.512 123.33 227.112 122.691C226.712 122.053 224.719 122.833 223.871 122.833C223.187 122.813 222.504 122.746 221.829 122.633Z" fill="#CCCCCC" stroke="#263238" stroke-linecap="round" stroke-linejoin="round"/>
<path d="M222.321 121.507C222.197 121.521 222.08 121.567 221.979 121.641C221.879 121.715 221.8 121.814 221.751 121.928C221.702 122.043 221.683 122.168 221.698 122.292C221.712 122.415 221.759 122.533 221.834 122.633C222.258 123.339 223.101 123.758 224.792 123.758C226.483 123.758 227.117 123.476 227.326 122.423C227.536 121.37 226.975 121.151 226.201 121.292C225.426 121.434 223.447 121.458 222.321 121.507Z" fill="#CCCCCC" stroke="#263238" stroke-linecap="round" stroke-linejoin="round"/>
<path d="M225.494 119.392C225.494 119.392 222.955 119.743 222.253 119.879C221.551 120.016 221.337 121.078 221.619 121.57C221.902 122.063 224.154 122.487 225.63 122.136C227.107 121.785 227.536 121.288 227.321 120.162C227.107 119.036 225.845 119.324 225.494 119.392Z" fill="#CCCCCC" stroke="#263238" stroke-linecap="round" stroke-linejoin="round"/>
<path d="M220.347 128.549L217.745 122.067" stroke="#263238" stroke-linecap="round" stroke-linejoin="round"/>
<path d="M209.465 117.783C209.465 117.783 213.403 117.783 216.551 113.017C219.699 108.251 220.055 104.03 220.055 104.03C220.055 104.03 214.694 107.866 211.921 108.256C209.148 108.646 204.153 108.909 204.153 108.909C204.153 108.909 203.943 111.511 205.678 115.069C207.413 118.627 209.465 117.783 209.465 117.783Z" fill="#FF3227" stroke="#263238" stroke-linecap="round" stroke-linejoin="round"/>
<path d="M209.465 117.784L208.471 120.82L210.556 120.415L209.465 117.784Z" stroke="#263238" stroke-linecap="round" stroke-linejoin="round"/>
<path d="M199.303 95.0291C199.303 95.0291 197.919 98.9767 198.109 100.034C198.299 101.092 199.084 101.847 197.914 103.275C196.745 104.703 195.853 105.951 196.452 106.472C196.901 106.791 197.451 106.932 197.997 106.867C197.857 108.35 197.999 109.847 198.416 111.278C199.108 113.563 200.122 116.385 201.735 116.151C203.348 115.917 205.946 114.031 205.946 114.031C205.946 114.031 208.5 117.984 209.465 117.774C210.43 117.564 212.033 113.49 212.525 110.508C213.018 107.525 213.364 107.973 212.443 106.916C211.521 105.858 210.288 104.62 210.288 104.62C210.288 104.62 208.744 101.384 208.87 98.3968C208.997 95.4093 209.991 94.3858 205.99 91.798C201.989 89.2101 199.416 94.2347 199.303 95.0291Z" fill="#CCCCCC" stroke="#263238" stroke-linecap="round" stroke-linejoin="round"/>
<path d="M217.93 103.026C218.018 102.686 217.994 102.326 217.863 102C217.731 101.674 217.499 101.398 217.199 101.214C217.47 100.992 217.663 100.69 217.75 100.351C217.827 100.058 217.822 99.7496 217.736 99.4592C217.65 99.1688 217.486 98.9075 217.262 98.7037C217.5 98.4794 217.669 98.192 217.75 97.8751C217.804 97.6636 217.816 97.4435 217.785 97.2273C217.754 97.0112 217.681 96.8033 217.569 96.6154C217.458 96.4276 217.311 96.2636 217.136 96.1327C216.961 96.0018 216.762 95.9066 216.551 95.8526C216.239 95.7723 215.91 95.7858 215.605 95.8916C215.772 95.8231 215.923 95.7225 216.051 95.5956C216.178 95.4686 216.279 95.3178 216.349 95.1517C216.418 94.9856 216.454 94.8076 216.454 94.6276C216.455 94.4477 216.42 94.2694 216.351 94.103C216.283 93.9366 216.182 93.7853 216.055 93.6578C215.928 93.5303 215.777 93.429 215.611 93.3598C215.445 93.2905 215.267 93.2547 215.087 93.2543C214.907 93.2538 214.729 93.2889 214.563 93.3574C214.655 93.2254 214.724 93.0787 214.767 92.9236C214.836 92.6626 214.827 92.387 214.74 92.1314C214.653 91.8758 214.492 91.6516 214.278 91.487C214.064 91.3224 213.806 91.2248 213.537 91.2064C213.267 91.188 212.999 91.2496 212.764 91.3836C212.798 91.0684 212.722 90.7512 212.549 90.4859C212.375 90.2206 212.115 90.0238 211.813 89.9289C211.51 89.834 211.184 89.847 210.89 89.9656C210.596 90.0843 210.353 90.3012 210.201 90.5794H210.147C210.147 90.5502 210.171 90.5209 210.181 90.4868C210.275 90.1563 210.241 89.8027 210.087 89.4957C209.933 89.1887 209.669 88.9507 209.348 88.8284C209.027 88.7061 208.672 88.7084 208.352 88.835C208.033 88.9615 207.773 89.2031 207.623 89.5121C207.614 89.1894 207.492 88.88 207.278 88.6386C207.063 88.3972 206.771 88.2392 206.451 88.1926C206.132 88.146 205.806 88.2137 205.532 88.3838C205.258 88.5539 205.052 88.8154 204.952 89.1222C204.835 88.8167 204.613 88.563 204.325 88.407C204.038 88.2511 203.704 88.2033 203.384 88.2722C203.064 88.3411 202.78 88.5222 202.582 88.7827C202.384 89.0432 202.286 89.3659 202.306 89.6924C201.901 89.4585 201.121 89.2295 199.986 89.902C198.256 90.9206 198.87 92.4509 198.87 92.4509C198.87 92.4509 196.097 92.1974 195.785 94.1274C195.473 96.0573 196.272 97.6363 198.221 97.4122C200.171 97.188 200.995 94.834 200.995 94.834C201.065 94.4223 201.257 94.0411 201.547 93.7397C201.836 93.4383 202.209 93.2304 202.617 93.1429C204.079 92.7871 206.848 94.142 207.004 96.0963C207.16 98.0506 204.806 96.8127 204.601 98.3186C204.396 99.8246 206.263 100.395 206.336 102.242C206.409 104.089 206.214 107.705 205.113 108.426C204.011 109.148 203.007 108.071 201.959 107.159C200.912 106.248 198.509 105.629 198.007 106.872C197.505 108.115 198.007 110.444 198.329 112.72C198.65 114.996 199.357 116.556 201.55 116.57C203.743 116.585 205.756 114.445 205.756 114.445C205.756 114.445 209.392 111.721 209.918 110.025C210.444 108.329 207.969 105.41 208.09 103.606C208.212 101.803 208.378 102.144 209.299 102.817C210.22 103.489 210.011 105.741 210.824 106.506C211.01 106.689 211.224 106.841 211.458 106.955C211.541 107.379 211.766 107.762 212.096 108.041C212.426 108.32 212.841 108.478 213.273 108.489C213.705 108.501 214.128 108.365 214.473 108.103C214.817 107.842 215.062 107.471 215.167 107.052C215.206 106.893 215.224 106.729 215.22 106.565C215.505 106.577 215.788 106.516 216.042 106.386C216.296 106.257 216.512 106.065 216.669 105.827C216.826 105.59 216.92 105.316 216.94 105.032C216.96 104.748 216.907 104.463 216.785 104.206C217.063 104.127 217.315 103.977 217.516 103.77C217.717 103.563 217.86 103.306 217.93 103.026Z" fill="#263238"/>
<path d="M215.493 95.9257H215.527M217.93 103.026C218.018 102.686 217.994 102.326 217.863 102C217.731 101.674 217.499 101.398 217.199 101.214C217.47 100.992 217.663 100.69 217.75 100.351C217.827 100.058 217.822 99.7496 217.736 99.4592C217.65 99.1688 217.486 98.9075 217.262 98.7037C217.5 98.4794 217.669 98.192 217.75 97.8751C217.804 97.6636 217.816 97.4435 217.785 97.2273C217.754 97.0112 217.681 96.8033 217.569 96.6154C217.458 96.4276 217.311 96.2636 217.136 96.1327C216.961 96.0018 216.762 95.9066 216.551 95.8526C216.239 95.7723 215.91 95.7858 215.605 95.8916C215.772 95.8231 215.923 95.7225 216.051 95.5956C216.178 95.4686 216.279 95.3178 216.349 95.1517C216.418 94.9856 216.454 94.8076 216.454 94.6276C216.455 94.4477 216.42 94.2694 216.351 94.103C216.283 93.9366 216.182 93.7853 216.055 93.6578C215.928 93.5303 215.777 93.429 215.611 93.3598C215.445 93.2905 215.267 93.2547 215.087 93.2543C214.907 93.2538 214.729 93.2889 214.563 93.3574C214.655 93.2254 214.724 93.0787 214.767 92.9236C214.836 92.6626 214.827 92.387 214.74 92.1314C214.653 91.8758 214.492 91.6516 214.278 91.487C214.064 91.3224 213.806 91.2248 213.537 91.2064C213.267 91.188 212.999 91.2496 212.764 91.3836C212.798 91.0684 212.722 90.7512 212.549 90.4859C212.375 90.2206 212.115 90.0238 211.813 89.9289C211.51 89.834 211.184 89.847 210.89 89.9656C210.596 90.0843 210.353 90.3012 210.201 90.5794H210.147C210.147 90.5502 210.171 90.5209 210.181 90.4868C210.275 90.1563 210.241 89.8027 210.087 89.4957C209.933 89.1887 209.669 88.9507 209.348 88.8284C209.027 88.7061 208.672 88.7084 208.352 88.835C208.033 88.9615 207.773 89.2031 207.623 89.5121C207.614 89.1894 207.492 88.88 207.278 88.6386C207.063 88.3972 206.771 88.2392 206.451 88.1926C206.132 88.146 205.806 88.2137 205.532 88.3838C205.258 88.5539 205.052 88.8154 204.952 89.1222C204.835 88.8167 204.613 88.563 204.325 88.407C204.038 88.2511 203.704 88.2033 203.384 88.2722C203.064 88.3411 202.78 88.5222 202.582 88.7827C202.384 89.0432 202.286 89.3659 202.306 89.6924C201.901 89.4585 201.121 89.2295 199.986 89.902C198.256 90.9206 198.87 92.4509 198.87 92.4509C198.87 92.4509 196.097 92.1974 195.785 94.1274C195.473 96.0573 196.272 97.6363 198.221 97.4122C200.171 97.188 200.995 94.834 200.995 94.834C201.065 94.4223 201.257 94.0411 201.547 93.7397C201.836 93.4383 202.209 93.2304 202.617 93.1429C204.079 92.7871 206.848 94.142 207.004 96.0963C207.16 98.0506 204.806 96.8127 204.601 98.3186C204.396 99.8246 206.263 100.395 206.336 102.242C206.409 104.089 206.214 107.705 205.113 108.426C204.011 109.148 203.007 108.071 201.959 107.159C200.912 106.248 198.509 105.629 198.007 106.872C197.505 108.115 198.007 110.444 198.329 112.72C198.65 114.996 199.357 116.556 201.55 116.57C203.743 116.585 205.756 114.445 205.756 114.445C205.756 114.445 209.392 111.721 209.918 110.025C210.444 108.329 207.969 105.41 208.09 103.606C208.212 101.803 208.378 102.144 209.299 102.817C210.22 103.489 210.011 105.741 210.824 106.506C211.01 106.689 211.224 106.841 211.458 106.955C211.541 107.379 211.766 107.762 212.096 108.041C212.426 108.32 212.841 108.478 213.273 108.489C213.705 108.501 214.128 108.365 214.473 108.103C214.817 107.842 215.062 107.471 215.167 107.052C215.206 106.893 215.224 106.729 215.22 106.565C215.505 106.577 215.788 106.516 216.042 106.386C216.296 106.257 216.512 106.065 216.669 105.827C216.826 105.59 216.92 105.316 216.94 105.032C216.96 104.748 216.907 104.463 216.785 104.206C217.063 104.127 217.315 103.977 217.516 103.77C217.717 103.563 217.86 103.306 217.93 103.026Z" stroke="#263238" stroke-linecap="round" stroke-linejoin="round"/>
<path d="M203.524 90.1943C203.403 90.3426 203.321 90.519 203.286 90.7072C203.251 90.8955 203.264 91.0894 203.324 91.2713C203.495 91.8269 203.69 92.826 203.134 93.5034C202.33 94.4781 201.404 94.8924 201.911 96.1205C202.418 97.3486 204.377 97.5826 205.434 97.027C206.492 96.4714 206.209 93.289 205.493 91.4565C204.918 89.9896 204.075 89.5704 203.524 90.1943Z" fill="white" stroke="#263238" stroke-linecap="round" stroke-linejoin="round"/>
<path d="M199.752 101.477C199.752 101.477 199.186 99.776 201.652 100.137" stroke="#263238" stroke-width="2" stroke-linecap="round" stroke-linejoin="round"/>
<path d="M200.561 102.88C200.595 103.367 200.468 103.728 200.273 103.747C200.078 103.767 199.888 103.396 199.854 102.933C199.82 102.47 199.942 102.08 200.142 102.066C200.341 102.051 200.522 102.412 200.561 102.88Z" fill="#263238"/>
<path d="M200.229 104.24L202.018 103.694" stroke="#263238" stroke-linecap="round" stroke-linejoin="round"/>
<path d="M201.472 107.578C201.149 108.112 200.748 108.595 200.283 109.011C199.44 109.8 199.006 109.693 199.006 109.693C199.209 110.006 199.516 110.237 199.873 110.346C200.229 110.454 200.613 110.434 200.956 110.288C202.276 109.8 201.472 107.578 201.472 107.578Z" fill="white" stroke="#263238" stroke-linecap="round" stroke-linejoin="round"/>
<path d="M208.641 104.015C208.641 104.015 208.505 101.696 209.762 100.005C211.019 98.3134 214.148 97.4752 214.553 98.1234C214.957 98.7715 213.398 102.953 212.17 103.825C211.256 104.409 210.249 104.832 209.192 105.073" fill="#CCCCCC"/>
<path d="M208.641 104.015C208.641 104.015 208.505 101.696 209.762 100.005C211.019 98.3134 214.148 97.4752 214.553 98.1234C214.957 98.7715 213.398 102.953 212.17 103.825C211.256 104.409 210.249 104.832 209.192 105.073" stroke="#263238" stroke-linecap="round" stroke-linejoin="round"/>
<path opacity="0.3" d="M79.3814 167.303C85.8601 167.303 91.1121 165.217 91.1121 162.644C91.1121 160.071 85.8601 157.985 79.3814 157.985C72.9028 157.985 67.6508 160.071 67.6508 162.644C67.6508 165.217 72.9028 167.303 79.3814 167.303Z" fill="black"/>
<path d="M82.6225 113.333C82.6225 113.333 84.7961 110.662 80.0542 104.902C78.173 102.611 74.2449 100.745 71.9592 97.9668C69.6735 95.1888 68.9132 93.9607 68.0603 95.9199C67.2075 97.879 68.7134 98.8976 69.7076 100.482C70.7018 102.065 73.3725 104.239 73.3725 104.239C73.3725 104.239 70.6579 103.976 68.9473 102.86C67.2367 101.744 66.6178 101.992 66.7737 103.727C66.9297 105.462 68.5282 106.539 70.0975 107.08C71.6668 107.621 73.1922 108.274 73.1922 108.274C73.1922 108.274 69.7563 108.479 68.3625 108.138C66.9687 107.797 65.9257 107.49 66.53 109.415C67.1344 111.34 69.5565 112.251 70.7213 112.237C71.8861 112.222 73.007 112.315 73.007 112.315C73.007 112.315 68.8742 113.245 67.573 113.591C66.2717 113.937 67.0856 115.312 68.0603 115.731C69.035 116.15 72.7341 115.931 72.7341 115.931C72.7341 115.931 69.4298 117.344 70.2681 118.991C71.1063 120.639 75.5169 118.304 75.5169 118.304C76.4201 118.698 77.4099 118.85 78.3897 118.747C79.3694 118.643 80.3056 118.288 81.1068 117.714C84.0359 115.741 82.6225 113.333 82.6225 113.333Z" fill="white" stroke="#263238" stroke-linecap="round" stroke-linejoin="round"/>
<path d="M77.9779 107.358C77.9779 107.358 75.3998 105.867 75.1171 107.422C74.8345 108.976 78.2118 111.32 78.2118 111.32C78.2118 111.32 74.8247 110.516 74.8734 112.207C74.9222 113.899 78.8503 114.937 78.8503 114.937" stroke="#263238" stroke-linecap="round" stroke-linejoin="round"/>
<path d="M74.235 112.568C74.235 112.568 75.1805 109.254 68.5573 105.828C65.9256 104.463 61.5784 104.288 58.3862 102.631C55.194 100.974 54 100.15 54 102.28C54 104.41 55.774 104.76 57.314 105.828C58.8541 106.895 62.1876 107.836 62.1876 107.836C62.1876 107.836 59.5851 108.664 57.5723 108.323C55.5595 107.982 55.0917 108.44 55.9202 109.98C56.7487 111.52 58.6396 111.871 60.3064 111.754C61.9731 111.637 63.6204 111.637 63.6204 111.637C63.6204 111.637 60.5452 113.172 59.127 113.411C57.7088 113.65 56.6415 113.762 57.9427 115.302C59.244 116.842 61.8416 116.72 62.9089 116.247C63.9762 115.775 65.0386 115.419 65.0386 115.419C65.0386 115.419 61.6271 117.904 60.5452 118.733C59.4633 119.561 60.7791 120.507 61.8464 120.507C62.9137 120.507 66.2326 118.85 66.2326 118.85C66.2326 118.85 63.7471 121.452 65.1653 122.632C66.5835 123.811 69.7221 119.937 69.7221 119.937C70.7075 119.942 71.6775 119.693 72.5377 119.212C73.3978 118.731 74.1186 118.035 74.6298 117.193C76.4817 114.22 74.235 112.568 74.235 112.568Z" fill="white" stroke="#263238" stroke-linecap="round" stroke-linejoin="round"/>
<path d="M67.6119 108.903C67.6119 108.903 64.6537 108.548 65.0094 110.083C65.3652 111.618 69.3956 112.446 69.3956 112.446C69.3956 112.446 65.9841 113.041 66.6762 114.576C67.3682 116.111 71.4035 115.522 71.4035 115.522" stroke="#263238" stroke-linecap="round" stroke-linejoin="round"/>
<path d="M75.4144 156.44C75.4144 156.44 75.5362 158.336 74.7077 158.926C73.8792 159.515 69.2688 162.235 69.9755 162.825C70.6821 163.414 75.4144 162.113 76.9544 160.929C78.4945 159.744 78.0168 156.318 78.0168 156.318C78.0168 156.318 76.3501 156.44 75.4144 156.44Z" fill="white" stroke="#263238" stroke-linecap="round" stroke-linejoin="round"/>
<path d="M83.2169 156.44C83.2169 156.44 83.0999 158.336 83.9236 158.926C84.7472 159.515 89.3673 162.235 88.6558 162.825C87.9443 163.414 83.2169 162.113 81.6769 160.929C80.1368 159.744 80.6144 156.318 80.6144 156.318C80.6144 156.318 82.2714 156.44 83.2169 156.44Z" fill="white" stroke="#263238" stroke-linecap="round" stroke-linejoin="round"/>
<path d="M93.5831 122.447C92.9008 119.922 89.114 115.551 86.4921 112.246C83.8701 108.942 81.8281 108.167 80.2734 108.265C80.2734 108.265 73.9378 111.569 71.1404 113.221C68.3429 114.873 69.2933 117.495 69.6783 119.922C69.9122 121.384 70.4678 129.518 70.8674 135.732C70.921 136.902 71.0039 138.452 71.1306 139.85C71.2524 141.8 71.3304 143.042 71.3304 143.042L71.3743 144.339C71.3109 145.655 71.155 146.932 71.155 148.637C71.155 151.591 71.3889 155.022 71.3889 155.022L74.7029 156.796C75.5264 157.549 76.5008 158.118 77.5613 158.465C78.6218 158.812 79.744 158.929 80.8534 158.808C84.7522 158.453 85.8195 155.616 85.8195 155.616C85.8195 155.616 87.2377 155.26 87.7105 154.315C88.1832 153.37 88.422 140.357 88.6559 137.876C89.002 135.138 89.2992 132.637 89.4016 131.4C89.4966 129.586 89.7892 127.789 90.274 126.039C90.274 126.039 94.2605 124.976 93.5831 122.447Z" fill="white" stroke="#263238" stroke-linecap="round" stroke-linejoin="round"/>
<path d="M80.2734 108.265C80.2734 108.265 77.783 109.566 75.2292 110.945C76.5061 113.908 80.4976 122.807 82.1887 122.276C83.5874 121.833 85.1908 116.062 86.1119 111.788C83.6605 108.874 81.7501 108.172 80.2734 108.265Z" fill="#43E999" stroke="#263238" stroke-linecap="round" stroke-linejoin="round"/>
<path d="M88.2904 146.298C87.5544 146.883 86.8283 147.482 86.2581 147.965C86.2581 147.965 84.0162 150.007 79.3181 150.007C74.62 150.007 74.2155 148.579 74.2155 148.579C73.1467 148.412 72.1186 148.047 71.1842 147.502C71.1842 147.857 71.1598 148.228 71.1598 148.623C71.1598 149.432 71.1598 150.275 71.2037 151.059L74.2155 153.442C74.2155 153.442 76.4622 155.485 80.7461 155.28C85.0299 155.075 86.2581 152.015 86.2581 152.015C86.2581 152.015 86.955 152.097 88.0564 151.254C88.1442 149.865 88.2221 148.096 88.2904 146.298Z" fill="#43E999" stroke="#263238" stroke-linecap="round" stroke-linejoin="round"/>
<path d="M74.1717 155.991L73.8793 145.825" stroke="#263238" stroke-linecap="round" stroke-linejoin="round"/>
<path d="M86.073 139.938L86.1022 138.169" stroke="#263238" stroke-linecap="round" stroke-linejoin="round"/>
<path d="M85.8243 155.616L86.0388 142.141" stroke="#263238" stroke-linecap="round" stroke-linejoin="round"/>
<path d="M77.939 108.265C77.939 108.265 80.4683 116.233 81.5357 116.52C82.603 116.808 83.0903 108.362 83.0903 108.362L77.939 108.265Z" fill="#CCCCCC" stroke="#263238" stroke-linecap="round" stroke-linejoin="round"/>
<path d="M88.5876 122.51C89.6249 122.146 90.636 121.711 91.6141 121.209C92.2038 120.79 93.6269 120.912 94.28 123.105C94.933 125.298 94.8745 127.905 93.4515 129.387C92.0284 130.868 88.2952 132.35 88.2952 132.35C88.2952 132.35 86.4579 125.887 86.5164 123.694C86.5749 121.501 88.5876 122.51 88.5876 122.51Z" fill="white" stroke="#263238" stroke-linecap="round" stroke-linejoin="round"/>
<path d="M91.9748 123.88C91.8627 122.442 91.4582 121.789 91.1024 121.487C90.1813 121.93 88.5876 122.51 88.5876 122.51C88.5876 122.51 86.5749 121.501 86.5164 123.695C86.4579 125.888 88.2952 132.35 88.2952 132.35C89.647 131.81 90.9512 131.158 92.1941 130.401C92.1502 128.495 92.1064 125.571 91.9748 123.88Z" fill="url(#paint0_linear_397_965)" stroke="#263238" stroke-linecap="round" stroke-linejoin="round"/>
<path d="M88.2952 132.35C88.2952 132.35 89.538 129.743 89.538 127.608C89.5308 125.978 89.271 124.358 88.768 122.808C88.5876 122.51 86.9891 121.74 86.5164 123.163C86.0436 124.586 87.9979 131.639 88.2952 132.35Z" fill="#263238" stroke="#263238" stroke-linecap="round" stroke-linejoin="round"/>
<path d="M85.6099 114.927C85.6099 114.927 87.5106 115.044 87.8663 116.876C88.2221 118.709 88.9288 122.091 89.1676 123.158C89.4064 124.225 89.8206 126.082 88.8118 126.891C87.803 127.7 86.2629 126.716 85.4344 125.112C84.6059 123.509 84.0114 117.529 84.0114 116.993C84.0114 116.457 84.0845 114.093 85.6099 114.927Z" fill="#CCCCCC" stroke="#263238" stroke-linecap="round" stroke-linejoin="round"/>
<path d="M81.6575 124.05C82.0059 123.524 82.1908 122.907 82.1887 122.276C82.1887 121.209 81.4187 119.786 82.1302 118.538C82.8417 117.29 83.5533 115.614 83.8506 115.282C84.039 115.058 84.285 114.89 84.5621 114.795C84.5621 114.795 85.0933 114.264 85.5076 114.439C85.9218 114.615 85.9949 115.331 85.9949 115.331C86.3768 115.619 86.6319 116.043 86.7065 116.515C86.765 117.227 86.765 117.758 86.765 117.758C86.9966 117.915 87.173 118.14 87.2693 118.403C87.3655 118.665 87.3766 118.951 87.3011 119.22C87.0038 120.171 86.4725 121.594 86.531 122.72C86.5895 123.845 86.5895 125.502 85.761 126.57C84.9325 127.637 82.0279 128.11 82.0279 128.11L81.6575 124.05Z" fill="#CCCCCC" stroke="#263238" stroke-linecap="round" stroke-linejoin="round"/>
<path d="M84.5621 114.805C84.0712 115.923 83.6544 117.073 83.3145 118.246C83.212 118.612 83.1724 118.993 83.1975 119.372" stroke="#263238" stroke-linecap="round" stroke-linejoin="round"/>
<path d="M85.9803 115.336C85.5119 116.293 85.1161 117.284 84.7961 118.3C84.6791 119.011 84.5621 120.137 84.5621 120.137" stroke="#263238" stroke-linecap="round" stroke-linejoin="round"/>
<path d="M86.7503 117.773C86.3327 118.431 85.9771 119.126 85.6879 119.85C85.5661 120.381 85.3906 121.39 85.3906 121.39" stroke="#263238" stroke-linecap="round" stroke-linejoin="round"/>
<path d="M71.1403 113.221C71.1403 113.221 67.2415 114.196 67.0612 115.356C66.8808 116.516 68.0359 131.872 68.9082 132.262C69.7806 132.652 83.2219 133.261 83.2219 133.261L82.023 123.709L74.0547 124.596C74.0547 124.596 72.5926 119.723 72.3051 117.31" fill="white"/>
<path d="M71.1403 113.221C71.1403 113.221 67.2415 114.196 67.0612 115.356C66.8808 116.516 68.0359 131.872 68.9082 132.262C69.7806 132.652 83.2219 133.261 83.2219 133.261L82.023 123.709L74.0547 124.596C74.0547 124.596 72.5926 119.723 72.3051 117.31" stroke="#263238" stroke-linecap="round" stroke-linejoin="round"/>
<path d="M78.2996 133.013C81.0044 133.159 83.2365 133.261 83.2365 133.261L82.0376 123.709L77.1641 124.245L78.2996 133.013Z" fill="#43E999" stroke="#263238" stroke-linecap="round" stroke-linejoin="round"/>
<path d="M74.0546 124.596C73.581 124.524 73.0968 124.606 72.6732 124.83C72.2496 125.054 71.9088 125.407 71.7007 125.839" stroke="#263238" stroke-linecap="round" stroke-linejoin="round"/>
<path d="M87.1208 93.8101L87.1841 94.0343L88.7534 99.6438C88.7534 99.6438 89.6989 101.964 89.0117 103.679C88.3245 105.395 85.3175 107.714 82.486 107.968C79.6545 108.221 76.7352 105.653 76.0529 102.904L75.278 102.821C75.278 102.821 73.4748 103.08 71.501 101.447C69.5272 99.8143 68.996 97.9624 70.809 96.7879C72.6219 95.6133 73.9037 96.3005 73.9037 96.3005C73.9037 96.3005 73.4163 91.7535 75.1074 90.2086C76.7986 88.6636 82.1449 89.0925 84.5475 88.6636C86.9502 88.2348 87.5496 90.2086 87.5496 91.154C87.486 92.0504 87.3424 92.9393 87.1208 93.8101Z" fill="#CCCCCC" stroke="#263238" stroke-linecap="round" stroke-linejoin="round"/>
<path d="M90.2982 104.795C90.2567 102.97 89.7229 101.19 88.7533 99.6435C88.7533 99.6435 89.5233 101.359 88.2367 102.046C86.9501 102.733 86.7747 101.617 85.064 101.447C83.3534 101.276 79.5715 104.795 78.9672 104.537C78.3629 104.278 76.5645 100.76 75.9651 99.814C75.3656 98.8686 74.849 97.7574 76.1357 96.9825C77.4223 96.2076 77.3394 95.5204 76.3062 94.9259C75.273 94.3313 75.5362 92.0017 78.1095 91.7483C80.6827 91.4949 80.4293 92.8643 82.3153 92.606C84.2014 92.3477 85.7268 90.4617 85.7268 90.4617L87.0963 93.8098C87.4813 93.5474 87.79 93.1878 87.9911 92.7676C88.1923 92.3473 88.2787 91.8813 88.2416 91.4169C88.4188 91.2685 88.5553 91.0775 88.6385 90.8618C88.7216 90.6462 88.7486 90.4129 88.717 90.184C88.6853 89.955 88.596 89.7379 88.4574 89.5529C88.3189 89.3679 88.1356 89.2211 87.9248 89.1263C88.0014 88.9511 88.0412 88.762 88.0418 88.5707C88.042 88.2702 87.9426 87.9781 87.7592 87.74C87.5758 87.502 87.3187 87.3314 87.0281 87.2549C87.0709 87.0959 87.0938 86.9322 87.0963 86.7675C87.0963 86.2669 86.8978 85.7866 86.5442 85.4321C86.1906 85.0777 85.7109 84.8779 85.2102 84.8766C85.0809 84.877 84.952 84.89 84.8252 84.9156C84.7491 84.558 84.5708 84.2303 84.3118 83.9722C84.0529 83.7142 83.7246 83.5369 83.3667 83.462C83.0089 83.3872 82.6371 83.4179 82.2964 83.5505C81.9557 83.6831 81.6609 83.9118 81.4479 84.2089C81.3138 83.9008 81.0999 83.634 80.8282 83.4363C80.5565 83.2385 80.2369 83.117 79.9024 83.0842C79.568 83.0514 79.2309 83.1086 78.9259 83.2497C78.621 83.3909 78.3593 83.611 78.1679 83.8872C78.0427 83.7369 77.8863 83.6155 77.7096 83.5314C77.533 83.4473 77.3402 83.4024 77.1445 83.3999C76.78 83.3999 76.4304 83.5447 76.1727 83.8024C75.9149 84.0602 75.7701 84.4097 75.7701 84.7742C75.7726 84.932 75.8006 85.0884 75.853 85.2372C75.7377 85.0193 75.5651 84.8369 75.3539 84.7098C75.1426 84.5827 74.9007 84.5157 74.6541 84.5159C74.2896 84.5159 73.94 84.6607 73.6823 84.9185C73.4246 85.1762 73.2798 85.5258 73.2798 85.8903C73.2798 85.8903 73.2798 85.9293 73.2798 85.9488C73.0929 85.8524 72.8857 85.8023 72.6754 85.8025C72.3109 85.8025 71.9614 85.9473 71.7036 86.2051C71.4459 86.4628 71.3011 86.8124 71.3011 87.1769C71.3009 87.267 71.3107 87.3569 71.3303 87.4449H71.2134C70.8502 87.4449 70.5018 87.5892 70.245 87.8461C69.9882 88.1029 69.8439 88.4512 69.8439 88.8144C69.8423 89.1586 69.9732 89.4901 70.2094 89.7404C69.9654 89.8194 69.7484 89.9654 69.5833 90.1617C69.4182 90.358 69.3115 90.5968 69.2754 90.8507C69.2394 91.1047 69.2754 91.3637 69.3793 91.5982C69.4833 91.8327 69.651 92.0333 69.8634 92.1772C69.7054 92.298 69.5757 92.4519 69.4834 92.6282C69.3911 92.8044 69.3385 92.9987 69.3292 93.1974C69.32 93.3961 69.3542 93.5945 69.4297 93.7786C69.5051 93.9626 69.6199 94.128 69.7659 94.2631C69.5217 94.4273 69.3366 94.6656 69.238 94.943C69.1394 95.2203 69.1324 95.5219 69.2181 95.8035C69.3038 96.0851 69.4776 96.3318 69.7139 96.5071C69.9503 96.6825 70.2367 96.7774 70.5311 96.7778C70.6145 96.7769 70.6976 96.7688 70.7796 96.7534C71.4522 97.8013 72.3294 97.5527 72.3294 97.5527C73.3626 98.8487 74.1219 100.341 74.5615 101.939C75.2487 104.512 75.3364 107.085 76.5353 108.372C77.7342 109.659 82.5444 111.55 86.3214 110.604C90.0984 109.659 90.3811 107.885 90.2982 104.795Z" fill="#263238" stroke="#263238" stroke-linecap="round" stroke-linejoin="round"/>
<path d="M79.5423 78C75.2438 78 71.7446 79.4621 71.7446 81.2166C71.7446 82.971 75.2341 84.4331 79.5423 84.4331C83.8506 84.4331 87.34 82.971 87.34 81.2166C87.34 79.4621 83.8408 78 79.5423 78ZM79.5423 82.9369C76.3501 82.9369 73.7672 82.0158 73.7672 80.8851C73.7672 79.7545 76.3501 78.8285 79.5423 78.8285C82.7345 78.8285 85.3175 79.7496 85.3175 80.8851C85.3175 82.0207 82.7296 82.9369 79.5423 82.9369Z" fill="white" stroke="#263238" stroke-linecap="round" stroke-linejoin="round"/>
<path d="M84.5475 94.8379C84.3588 96.1237 84.4167 97.4336 84.7181 98.6978C85.2347 100.418 86.3507 101.446 85.2347 102.475C84.1186 103.503 82.5737 102.821 82.486 101.705" fill="#CCCCCC"/>
<path d="M84.5475 94.8379C84.3588 96.1237 84.4167 97.4336 84.7181 98.6978C85.2347 100.418 86.3507 101.446 85.2347 102.475C84.1186 103.503 82.5737 102.821 82.486 101.705" stroke="#263238" stroke-linecap="round" stroke-linejoin="round"/>
<path d="M85.4053 98.4443L87.1208 97.9277L86.6919 96.8994" stroke="#263238" stroke-linecap="round" stroke-linejoin="round"/>
<path d="M79.8251 99.5605L81.8866 99.3022L81.6283 98.0156" stroke="#263238" stroke-linecap="round" stroke-linejoin="round"/>
<path d="M81.8866 95.4376C81.8866 95.4376 79.5716 94.151 78.4751 96.2125" stroke="#263238" stroke-width="2" stroke-linecap="round" stroke-linejoin="round"/>
<path d="M84.8887 94.497C84.8887 94.497 85.0641 92.9521 86.3507 93.6344" stroke="#263238" stroke-width="2" stroke-linecap="round" stroke-linejoin="round"/>
<path d="M85.761 105.375C85.762 105.501 85.7255 105.624 85.6563 105.729C85.587 105.834 85.4881 105.916 85.3722 105.964C85.2562 106.013 85.1284 106.026 85.0051 106.001C84.8817 105.977 84.7684 105.917 84.6795 105.828C84.5906 105.739 84.5301 105.625 84.5058 105.502C84.4815 105.379 84.4945 105.251 84.5431 105.135C84.5916 105.019 84.6736 104.92 84.7785 104.851C84.8834 104.782 85.0066 104.745 85.1323 104.746C85.2987 104.747 85.4578 104.814 85.5755 104.932C85.6931 105.049 85.7597 105.208 85.761 105.375Z" fill="white"/>
<defs>
<linearGradient id="paint0_linear_397_965" x1="89.3545" y1="121.487" x2="89.3545" y2="132.35" gradientUnits="userSpaceOnUse">
<stop stop-color="#48F2A0"/>
<stop offset="1" stop-color="#32CA81"/>
</linearGradient>
</defs>
</svg>
