<svg width="213" height="178" viewBox="0 0 213 178" fill="none" xmlns="http://www.w3.org/2000/svg">
<g filter="url(#filter0_d_367_1384)">
<path d="M118.835 123.031L167.608 171.792V123.031H118.835Z" fill="#395BFF"/>
</g>
<g filter="url(#filter1_d_367_1384)">
<path d="M184.422 10.2344H25.5788C18.0796 10.2344 12.0004 16.3136 12.0004 23.8128V123.844C12.0004 131.343 18.0796 137.423 25.5788 137.423H184.422C191.921 137.423 198 131.343 198 123.844V23.8128C198 16.3136 191.921 10.2344 184.422 10.2344Z" fill="url(#paint0_linear_367_1384)"/>
</g>
<path d="M7.66015 8.76777C7.3421 8.76643 7.0373 8.64017 6.81148 8.41619L4.62926 6.24606C4.40097 6.01777 4.27271 5.70815 4.27271 5.3853C4.27271 5.06245 4.40097 4.75281 4.62926 4.52452C4.85755 4.29623 5.16717 4.16797 5.49002 4.16797C5.81287 4.16797 6.12251 4.29623 6.3508 4.52452L8.52091 6.70677C8.74671 6.93392 8.87347 7.24119 8.87347 7.56148C8.87347 7.88177 8.74671 8.18904 8.52091 8.41619C8.40763 8.52855 8.27328 8.61744 8.12557 8.67777C7.97786 8.7381 7.8197 8.76869 7.66015 8.76777Z" fill="#407BFF"/>
<path d="M4.37459 16.3817H1.30733C0.98579 16.3817 0.677422 16.254 0.450061 16.0267C0.2227 15.7993 0.0949707 15.4909 0.0949707 15.1694C0.0949707 14.8479 0.2227 14.5395 0.450061 14.3121C0.677422 14.0848 0.98579 13.957 1.30733 13.957H4.37459C4.69612 13.957 5.00449 14.0848 5.23185 14.3121C5.45921 14.5395 5.58694 14.8479 5.58694 15.1694C5.58694 15.4909 5.45921 15.7993 5.23185 16.0267C5.00449 16.254 4.69612 16.3817 4.37459 16.3817Z" fill="#407BFF"/>
<path d="M15.3829 5.49433C15.0755 5.49509 14.7793 5.37906 14.5542 5.16975C14.3292 4.96043 14.192 4.67344 14.1705 4.36683L13.9523 1.29957C13.9407 1.14028 13.9608 0.98029 14.0113 0.828769C14.0617 0.677247 14.1417 0.537187 14.2464 0.416646C14.3512 0.296104 14.4788 0.197455 14.6218 0.126358C14.7648 0.055261 14.9204 0.0131206 15.0798 0.0023586C15.3995 -0.0176038 15.7141 0.0897667 15.9549 0.301026C16.1957 0.512286 16.3431 0.810255 16.3649 1.12984L16.5952 4.1971C16.6068 4.35639 16.5867 4.5164 16.5362 4.66792C16.4858 4.81944 16.4058 4.9595 16.3011 5.08004C16.1963 5.20059 16.0687 5.29924 15.9257 5.37033C15.7827 5.44143 15.6271 5.48357 15.4677 5.49433H15.3829Z" fill="#407BFF"/>
<path d="M204.867 138.823C205.212 138.79 205.555 138.893 205.823 139.111L208.419 141.221C208.69 141.443 208.863 141.764 208.898 142.113C208.933 142.462 208.828 142.811 208.606 143.083C208.384 143.354 208.063 143.527 207.714 143.562C207.365 143.597 207.016 143.492 206.744 143.27L204.161 141.145C203.892 140.924 203.721 140.605 203.686 140.259C203.652 139.913 203.755 139.567 203.975 139.296C204.085 139.162 204.221 139.052 204.374 138.97C204.527 138.889 204.695 138.839 204.867 138.823Z" fill="#407BFF"/>
<path d="M207.954 129.467L211.288 129.132C211.638 129.097 211.989 129.22 212.264 129.475C212.539 129.73 212.716 130.096 212.756 130.492C212.796 130.888 212.695 131.281 212.476 131.586C212.257 131.891 211.938 132.082 211.588 132.117L208.254 132.452C207.904 132.487 207.553 132.363 207.278 132.108C207.003 131.853 206.826 131.487 206.786 131.091C206.746 130.696 206.847 130.302 207.066 129.997C207.285 129.693 207.604 129.502 207.954 129.467Z" fill="#407BFF"/>
<path d="M196.37 143.696C196.716 143.661 197.062 143.753 197.339 143.955C197.615 144.157 197.801 144.453 197.859 144.784L198.439 148.092C198.47 148.264 198.464 148.44 198.424 148.61C198.384 148.781 198.309 148.942 198.204 149.085C198.099 149.228 197.966 149.349 197.813 149.443C197.66 149.536 197.489 149.6 197.31 149.629C196.952 149.687 196.586 149.606 196.292 149.404C195.997 149.201 195.799 148.894 195.739 148.55L195.145 145.243C195.115 145.071 195.12 144.895 195.16 144.725C195.201 144.554 195.275 144.393 195.38 144.25C195.485 144.107 195.618 143.986 195.771 143.892C195.925 143.799 196.096 143.736 196.274 143.706L196.37 143.696Z" fill="#407BFF"/>
<path d="M131.939 102.98L129.514 92.6874C128.902 89.9817 128.902 87.1734 129.514 84.4676L132.884 69.8103C134.263 63.5598 133.517 57.0279 130.763 51.2499C128.009 45.4719 123.405 40.7783 117.681 37.9131C117.789 37.6435 117.882 37.3683 117.96 37.0887C118.159 36.1996 118.181 35.2799 118.025 34.3822C117.868 33.4846 117.537 32.6265 117.049 31.8571C116.561 31.0876 115.926 30.4218 115.18 29.8976C114.435 29.3735 113.594 29.0013 112.705 28.8023C111.815 28.6033 110.896 28.5813 109.998 28.7378C109.1 28.8942 108.242 29.2259 107.473 29.7139C106.703 30.2019 106.038 30.8367 105.514 31.5821C104.989 32.3274 104.617 33.1687 104.418 34.0579C104.358 34.3413 104.321 34.6292 104.309 34.9186C97.9107 35.0688 91.7453 37.349 86.7891 41.3983C81.8328 45.4476 78.369 51.0346 76.9462 57.2745L73.6607 71.944C73.0572 74.6449 71.8557 77.1762 70.1448 79.3515L63.6102 87.6561C62.9711 88.4708 62.5485 89.4339 62.3819 90.4558C62.2153 91.4778 62.3101 92.5253 62.6575 93.5007C63.0048 94.4761 63.5934 95.3478 64.3684 96.0344C65.1434 96.7211 66.0795 97.2004 67.0897 97.4277L124.677 110.327C125.683 110.545 126.729 110.505 127.716 110.211C128.703 109.917 129.6 109.379 130.324 108.647C131.048 107.914 131.576 107.011 131.858 106.021C132.14 105.03 132.168 103.984 131.939 102.98Z" fill="white"/>
<path d="M88.4516 106.156C88.0136 106.059 87.5585 106.072 87.1267 106.193C86.6948 106.315 86.2995 106.541 85.9758 106.851C85.6521 107.162 85.41 107.547 85.2709 107.974C85.1318 108.4 85.0999 108.854 85.1782 109.296C85.5089 111.244 86.4119 113.049 87.7723 114.483C89.1326 115.916 90.8887 116.911 92.8169 117.343C94.7451 117.775 96.7581 117.623 98.5996 116.906C100.441 116.19 102.028 114.942 103.158 113.321C103.416 112.955 103.58 112.532 103.636 112.088C103.692 111.645 103.638 111.194 103.478 110.776C103.319 110.358 103.059 109.985 102.722 109.691C102.385 109.397 101.981 109.191 101.545 109.09L88.4516 106.156Z" fill="white"/>
<path d="M44.2248 85.7519C43.9244 85.7542 43.6282 85.681 43.3634 85.5391C43.0986 85.3972 42.8737 85.1911 42.7093 84.9396C36.9833 76.3609 34.8994 65.8589 36.9161 55.7438C38.9328 45.6287 44.8848 36.7288 53.4629 31.0019C53.8649 30.735 54.3563 30.6387 54.8293 30.7342C55.3022 30.8297 55.7178 31.1092 55.9846 31.5111C56.2515 31.913 56.3478 32.4045 56.2523 32.8774C56.1568 33.3503 55.8774 33.7659 55.4754 34.0328C47.7099 39.234 42.3265 47.305 40.5079 56.4729C38.6894 65.6407 40.5843 75.1556 45.7766 82.9271C46.0448 83.3275 46.1431 83.818 46.0499 84.2908C45.9567 84.7637 45.6796 85.1802 45.2795 85.4488C44.9669 85.6546 44.599 85.7604 44.2248 85.7519Z" fill="white"/>
<path d="M51.9233 80.5879C51.6254 80.586 51.3325 80.5109 51.0703 80.3693C50.8082 80.2277 50.5849 80.0238 50.42 79.7756C46.0617 73.2405 44.4756 65.2427 46.01 57.5389C47.5444 49.8351 52.0738 43.0554 58.6034 38.6888C58.8024 38.5559 59.0257 38.4635 59.2604 38.4168C59.4952 38.3701 59.7368 38.3702 59.9715 38.4169C60.2062 38.4636 60.4295 38.5561 60.6284 38.6891C60.8274 38.8221 60.9983 38.993 61.1312 39.192C61.2641 39.391 61.3566 39.6142 61.4032 39.849C61.4499 40.0837 61.4499 40.3253 61.4031 40.5601C61.3564 40.7948 61.2639 41.018 61.1309 41.217C60.9979 41.416 60.8271 41.5868 60.6281 41.7197C54.8968 45.5445 50.9196 51.4894 49.5714 58.2465C48.2232 65.0036 49.6143 72.0195 53.4388 77.751C53.707 78.1514 53.8053 78.6419 53.7121 79.1147C53.6189 79.5875 53.3418 80.004 52.9417 80.2727C52.6401 80.4745 52.2862 80.584 51.9233 80.5879Z" fill="white"/>
<path d="M59.6337 75.4347C59.3364 75.4363 59.0435 75.364 58.7811 75.2243C58.5186 75.0847 58.2951 74.882 58.1304 74.6345C56.645 72.4103 55.6128 69.9151 55.0928 67.2916C54.5728 64.668 54.5752 61.9677 55.1 59.3451C55.6247 56.7225 56.6614 54.2291 58.1509 52.0076C59.6403 49.7862 61.5531 47.8802 63.7799 46.3987C64.1803 46.1501 64.6616 46.0665 65.1223 46.1658C65.583 46.265 65.9873 46.5392 66.2498 46.9306C66.5123 47.322 66.6126 47.8001 66.5295 48.264C66.4465 48.7279 66.1866 49.1415 65.8046 49.4175C63.9781 50.6368 62.4098 52.2039 61.1891 54.0294C59.9685 55.855 59.1194 57.9031 58.6905 60.0568C58.2615 62.2105 58.2611 64.4277 58.6892 66.5816C59.1173 68.7355 59.9656 70.7839 61.1855 72.6099C61.4505 73.0112 61.5469 73.5008 61.4539 73.9726C61.3609 74.4445 61.0859 74.8608 60.6884 75.1316C60.3758 75.3374 60.0079 75.4431 59.6337 75.4347Z" fill="white"/>
<path d="M149.069 111.321C148.663 111.32 148.268 111.182 147.949 110.931C147.629 110.679 147.403 110.328 147.307 109.933C147.211 109.538 147.25 109.122 147.417 108.751C147.585 108.381 147.872 108.078 148.233 107.89C156.539 103.598 162.801 96.1837 165.643 87.2767C168.485 78.3696 167.673 68.6986 163.387 60.3895C163.257 60.1762 163.172 59.9383 163.138 59.6907C163.104 59.4431 163.121 59.1911 163.188 58.9505C163.256 58.7098 163.372 58.4857 163.53 58.292C163.688 58.0983 163.884 57.9393 164.107 57.8249C164.329 57.7104 164.572 57.643 164.822 57.6269C165.071 57.6107 165.321 57.6461 165.556 57.7309C165.791 57.8157 166.006 57.9481 166.188 58.1197C166.37 58.2914 166.514 58.4986 166.612 58.7286C168.953 63.269 170.377 68.2262 170.802 73.3171C171.227 78.4079 170.645 83.5326 169.089 88.3984C167.534 93.2643 165.034 97.776 161.734 101.676C158.435 105.575 154.399 108.787 149.857 111.127C149.612 111.247 149.343 111.313 149.069 111.321Z" fill="white"/>
<path d="M144.814 103.09C144.407 103.089 144.013 102.951 143.693 102.7C143.374 102.448 143.148 102.097 143.052 101.702C142.955 101.307 142.994 100.891 143.162 100.52C143.33 100.15 143.617 99.8466 143.977 99.6586C147.011 98.0945 149.707 95.9477 151.91 93.341C154.114 90.7343 155.782 87.7188 156.819 84.4669C157.856 81.215 158.242 77.7906 157.954 74.3895C157.667 70.9884 156.711 67.6774 155.143 64.6457C154.921 64.2165 154.879 63.7167 155.026 63.2563C155.172 62.7959 155.496 62.4126 155.925 62.1907C156.354 61.9688 156.854 61.9266 157.315 62.0732C157.775 62.2199 158.158 62.5434 158.38 62.9727C160.167 66.4287 161.255 70.2029 161.583 74.0798C161.91 77.9566 161.47 81.8599 160.287 85.5665C159.105 89.2731 157.204 92.7104 154.692 95.6818C152.181 98.6531 149.108 101.1 145.65 102.883C145.393 103.021 145.106 103.092 144.814 103.09Z" fill="white"/>
<path d="M140.559 94.8572C140.153 94.8506 139.762 94.7097 139.445 94.4567C139.129 94.2036 138.905 93.8527 138.81 93.4589C138.714 93.0652 138.752 92.6508 138.917 92.2807C139.082 91.9107 139.365 91.6059 139.722 91.4141C141.674 90.4096 143.409 89.03 144.827 87.3543C146.245 85.6786 147.318 83.7397 147.986 81.6485C148.654 79.5573 148.903 77.355 148.718 75.1675C148.534 72.9801 147.92 70.8505 146.911 68.9006C146.69 68.4714 146.647 67.9716 146.794 67.5112C146.941 67.0508 147.264 66.6675 147.693 66.4456C148.123 66.2237 148.622 66.1815 149.083 66.3281C149.543 66.4748 149.927 66.7983 150.148 67.2276C152.616 72.0291 153.077 77.6133 151.432 82.7548C149.786 87.8962 146.168 92.1746 141.371 94.6511C141.119 94.7808 140.842 94.8513 140.559 94.8572Z" fill="white"/>
<path d="M94.8991 88.4249L93.9557 85.4549C91.8971 78.9593 86.0351 72.1201 83.9415 70.019L86.6373 67.2283C90.7229 71.4349 94.0901 76.2839 96.6045 81.5816C104.071 75.5055 114.246 69.8658 127.581 64.4267L129.14 68.1163C114.903 73.9411 104.438 79.9437 97.1306 86.4381L94.8991 88.4249Z" fill="#407BFF"/>
<defs>
<filter id="filter0_d_367_1384" x="110.835" y="113.031" width="64.7731" height="64.7607" filterUnits="userSpaceOnUse" color-interpolation-filters="sRGB">
<feFlood flood-opacity="0" result="BackgroundImageFix"/>
<feColorMatrix in="SourceAlpha" type="matrix" values="0 0 0 0 0 0 0 0 0 0 0 0 0 0 0 0 0 0 127 0" result="hardAlpha"/>
<feOffset dy="-2"/>
<feGaussianBlur stdDeviation="4"/>
<feComposite in2="hardAlpha" operator="out"/>
<feColorMatrix type="matrix" values="0 0 0 0 0 0 0 0 0 0 0 0 0 0 0 0 0 0 0.25 0"/>
<feBlend mode="normal" in2="BackgroundImageFix" result="effect1_dropShadow_367_1384"/>
<feBlend mode="normal" in="SourceGraphic" in2="effect1_dropShadow_367_1384" result="shape"/>
</filter>
<filter id="filter1_d_367_1384" x="4.00037" y="0.234375" width="202" height="143.188" filterUnits="userSpaceOnUse" color-interpolation-filters="sRGB">
<feFlood flood-opacity="0" result="BackgroundImageFix"/>
<feColorMatrix in="SourceAlpha" type="matrix" values="0 0 0 0 0 0 0 0 0 0 0 0 0 0 0 0 0 0 127 0" result="hardAlpha"/>
<feOffset dy="-2"/>
<feGaussianBlur stdDeviation="4"/>
<feComposite in2="hardAlpha" operator="out"/>
<feColorMatrix type="matrix" values="0 0 0 0 0 0 0 0 0 0 0 0 0 0 0 0 0 0 0.25 0"/>
<feBlend mode="normal" in2="BackgroundImageFix" result="effect1_dropShadow_367_1384"/>
<feBlend mode="normal" in="SourceGraphic" in2="effect1_dropShadow_367_1384" result="shape"/>
</filter>
<linearGradient id="paint0_linear_367_1384" x1="11.5399" y1="13.5908" x2="197.518" y2="137.338" gradientUnits="userSpaceOnUse">
<stop stop-color="#407BFF"/>
<stop offset="0.515625" stop-color="#288FFF"/>
<stop offset="1" stop-color="#3757FF"/>
</linearGradient>
</defs>
</svg>
