<svg width="16" height="10" viewBox="0 0 16 10" fill="none" xmlns="http://www.w3.org/2000/svg">
<path d="M2.46636 0.871773C2.09645 0.8788 1.73397 0.976944 1.41104 1.15751C1.08811 1.33807 0.81468 1.59548 0.614982 1.90694C0.415285 2.2184 0.295481 2.5743 0.266169 2.94312C0.236858 3.31194 0.298945 3.68232 0.446941 4.02141C1.08791 5.5199 2.16039 6.79369 3.52777 7.68059C4.89516 8.56748 6.49557 9.02734 8.12519 9.00157C9.75481 8.9758 11.3399 8.46558 12.6785 7.53589C14.0172 6.60621 15.0489 5.29912 15.6421 3.78111C15.7786 3.43829 15.8287 3.0672 15.788 2.70047C15.7472 2.33374 15.6169 1.98266 15.4085 1.67815C15.2001 1.37365 14.9201 1.12506 14.593 0.954306C14.2659 0.783548 13.9018 0.695845 13.5328 0.698943L2.46636 0.871773Z" fill="white"/>
</svg>
