<svg width="276" height="94" viewBox="0 0 276 94" fill="none" xmlns="http://www.w3.org/2000/svg">
<path d="M51.0512 4.18188C55.1088 4.18188 58.3982 7.47125 58.3982 11.5289V65.636C58.3982 70.2552 54.6536 73.9999 50.0343 73.9999V73.9999C47.2876 73.9999 44.716 72.6513 43.1542 70.3919L15.3727 30.2016C15.3101 30.111 15.207 30.0569 15.0968 30.0569V30.0569C14.9116 30.0569 14.7614 30.2071 14.7614 30.3923V66.6192C14.7614 70.6954 11.4569 73.9999 7.3807 73.9999V73.9999C3.30445 73.9999 0 70.6954 0 66.6192V12.6682C0 7.98133 3.79944 4.18188 8.48629 4.18188V4.18188C11.2832 4.18188 13.9004 5.55997 15.4831 7.86595L42.9716 47.9166C43.0464 48.0257 43.1703 48.0909 43.3026 48.0909V48.0909C43.5244 48.0909 43.7042 47.9111 43.7042 47.6893V11.5289C43.7042 7.47126 46.9936 4.18188 51.0512 4.18188V4.18188ZM151.594 21.6359C154.606 21.6359 157.048 24.0779 157.048 27.0904V27.0904C157.048 30.1028 154.606 32.5449 151.594 32.5449H130.969C127.956 32.5449 125.514 30.1028 125.514 27.0904V27.0904C125.514 24.0779 127.956 21.6359 130.969 21.6359H151.594ZM132.673 16.3524C132.673 12.342 135.924 9.09088 139.935 9.09088V9.09088C143.945 9.09088 147.196 12.342 147.196 16.3524V57.9089C147.196 59.2499 147.4 60.2949 147.809 61.0449C148.219 61.7729 148.787 62.2839 149.514 62.5799C150.264 62.8749 151.128 63.0229 152.105 63.0229C152.787 63.0229 153.469 62.9659 154.15 62.8519V62.8519C155.021 62.6781 155.866 63.24 156.05 64.1091L157.348 70.252C157.72 72.0097 156.687 73.7437 154.934 74.1359V74.1359C153.616 74.4549 152.014 74.6479 150.128 74.7159C146.628 74.8519 143.559 74.3859 140.923 73.3179C138.309 72.2499 136.275 70.5909 134.821 68.3409C133.366 66.0909 132.65 63.2499 132.673 59.8179V16.3524ZM173.77 73.9999C169.759 73.9999 166.508 70.7488 166.508 66.7384V28.8974C166.508 24.887 169.759 21.6359 173.77 21.6359V21.6359C177.78 21.6359 181.031 24.887 181.031 28.8974V66.7384C181.031 70.7488 177.78 73.9999 173.77 73.9999V73.9999ZM173.804 14.8859C171.645 14.8859 169.792 14.1699 168.247 12.7389C166.724 11.2839 165.963 9.54489 165.963 7.52289C165.963 5.52289 166.724 3.80688 168.247 2.37488C169.792 0.919878 171.645 0.192871 173.804 0.192871C175.963 0.192871 177.804 0.919878 179.327 2.37488C180.872 3.80688 181.645 5.52289 181.645 7.52289C181.645 9.54489 180.872 11.2839 179.327 12.7389C177.804 14.1699 175.963 14.8859 173.804 14.8859ZM215.37 21.6359C218.382 21.6359 220.824 24.0779 220.824 27.0904V27.0904C220.824 30.1028 218.382 32.5449 215.37 32.5449H193.96C190.947 32.5449 188.505 30.1028 188.505 27.0904V27.0904C188.505 24.0779 190.947 21.6359 193.96 21.6359H215.37ZM203.148 73.9999C199.147 73.9999 195.903 70.7564 195.903 66.7554V17.8519C195.903 14.0569 196.642 10.9089 198.119 8.40887C199.619 5.90887 201.665 4.03387 204.255 2.78387C206.846 1.53387 209.79 0.908875 213.085 0.908875C215.312 0.908875 217.346 1.07989 219.187 1.41989V1.41989C221.541 1.85051 222.914 4.15898 222.361 6.48714L221.258 11.1335C220.987 12.2751 219.795 12.9569 218.642 12.7389V12.7389C217.824 12.5799 216.983 12.4999 216.119 12.4999C213.983 12.4999 212.494 12.9999 211.653 13.9999C210.812 14.9769 210.392 16.3519 210.392 18.1249V66.7554C210.392 70.7564 207.149 73.9999 203.148 73.9999V73.9999ZM238.662 93.6359C236.821 93.6359 235.094 93.4889 233.48 93.1929V93.1929C231.186 92.7992 230.038 90.4376 230.711 88.2091L231.442 85.7883C232.19 83.3099 234.813 82.0606 237.4 82.1479V82.1479C238.787 82.1929 239.98 81.8749 240.98 81.1929C242.003 80.5109 242.832 79.3519 243.469 77.7159V77.7159C244.019 76.2851 244.044 74.7056 243.539 73.2581L228.807 31.0133C227.208 26.428 230.612 21.6359 235.468 21.6359V21.6359C238.627 21.6359 241.401 23.7358 242.258 26.7762L251.576 59.8278C251.62 59.9834 251.762 60.0909 251.924 60.0909V60.0909C252.085 60.0909 252.227 59.9838 252.271 59.8286L261.672 26.7923C262.54 23.7408 265.328 21.6359 268.5 21.6359V21.6359C273.393 21.6359 276.819 26.4685 275.2 31.0853L258.162 79.6589C257.184 82.4769 255.855 84.9319 254.173 87.0229C252.514 89.1359 250.412 90.7609 247.866 91.8979C245.321 93.0569 242.253 93.6359 238.662 93.6359Z" fill="white"/>
</svg>
