<svg width="60" height="64" viewBox="0 0 60 64" fill="none" xmlns="http://www.w3.org/2000/svg">
<path d="M58.7288 55.9353L54.7988 48.1484C53.7858 46.0966 53.2441 43.8445 53.2132 41.5565L53.0887 29.1516C52.9888 23.8729 51.13 18.7786 47.8069 14.6761C44.4837 10.5735 39.8863 7.69748 34.7434 6.50383C34.7776 6.26683 34.7991 6.02819 34.808 5.7889C34.7961 5.03742 34.6363 4.29564 34.3377 3.60593C34.0391 2.91621 33.6076 2.29206 33.0678 1.76911C32.528 1.24616 31.8904 0.834657 31.1916 0.558093C30.4927 0.281529 29.7463 0.145314 28.9948 0.157237C28.2433 0.169161 27.5015 0.328986 26.8118 0.627582C26.1221 0.926179 25.498 1.35771 24.975 1.89752C24.4521 2.43733 24.0405 3.07486 23.764 3.7737C23.4874 4.47255 23.3512 5.21902 23.3631 5.9705C23.3695 6.20939 23.3958 6.44733 23.4417 6.68187C18.3394 8.0365 13.8348 11.0545 10.6412 15.258C7.44755 19.4614 5.74743 24.6101 5.81002 29.8888L6.00492 42.2871C6.04193 44.5695 5.56672 46.8313 4.61426 48.9058L0.975705 56.8264C0.620266 57.603 0.467171 58.4569 0.530696 59.3086C0.59422 60.1603 0.872302 60.9821 1.33901 61.6973C1.80572 62.4126 2.44588 62.9981 3.19986 63.3993C3.95384 63.8004 4.79709 64.0043 5.65106 63.9917L54.3222 63.2281C55.1715 63.2083 56.0021 62.9747 56.7371 62.5487C57.4721 62.1227 58.0878 61.5182 58.5271 60.7911C58.9665 60.064 59.2152 59.2379 59.2505 58.3891C59.2858 57.5403 59.1064 56.6963 58.7288 55.9353Z" fill="white"/>
</svg>
